<svg width="240" height="210" viewBox="0 0 240 210" fill="none" xmlns="http://www.w3.org/2000/svg">
<g clip-path="url(#clip0_758_362)">
<path d="M96.3124 209.629L63.9833 209.604C61.1749 209.604 58.5832 208.104 57.1832 205.671L1.04987 108.267C-1.11263 104.504 0.170704 99.7042 3.93321 97.5376C7.68738 95.3709 12.4957 96.6584 14.6624 100.421L68.5291 193.896L96.3249 193.921C100.662 193.925 104.179 197.446 104.175 201.779C104.171 206.117 100.65 209.629 96.3124 209.629Z" fill="white"/>
<path d="M178.859 203.629C177.525 203.629 176.175 203.292 174.938 202.575C171.179 200.404 169.9 195.6 172.071 191.842L222.579 104.513L172.209 17.1083C170.042 13.35 171.329 8.5458 175.092 6.37914C178.842 4.2083 183.654 5.49997 185.821 9.26247L238.459 100.596C239.863 103.029 239.859 106.025 238.454 108.454L185.671 199.708C184.213 202.229 181.571 203.633 178.859 203.629Z" fill="white"/>
<path d="M35.1208 66.9251C33.7874 66.9209 32.4374 66.5834 31.1999 65.8667C27.4416 63.6959 26.1624 58.8917 28.3333 55.1334L57.9583 3.92085C59.3583 1.48751 61.9541 -0.00415796 64.7625 8.70624e-06L131.95 0.0500086C136.288 0.0541753 139.8 3.57085 139.796 7.91252C139.796 12.25 136.275 15.7667 131.938 15.7625L69.2875 15.7125L41.9333 63.0001C40.4749 65.5209 37.8333 66.9251 35.1208 66.9251Z" fill="white"/>
<path d="M168.263 122.658L168.171 122.779C168.125 122.854 162.867 130.475 155.408 131.05C152.604 131.267 149.792 130.438 146.988 128.579C145.708 127.721 144.429 126.654 143.167 125.375C142.946 125.163 142.729 124.938 142.517 124.704C142.504 124.692 142.483 124.671 142.475 124.663C140.229 122.258 138.246 119.817 136.496 117.404C128.725 106.683 125.492 96.3875 124.358 91.8625C125.529 91.7 127.063 91.4959 128.871 91.2875C131.313 91.0167 134.242 90.7417 137.433 90.575C148.179 89.9875 161.842 90.5542 169.433 95.8875C172.433 97.9875 174.133 100.608 174.629 103.879C175.95 112.542 168.338 122.563 168.263 122.658ZM133.196 146.692C128.625 142.729 123.771 140.8 118.808 141C112.767 141.246 108.146 144.529 105.883 146.513C104.312 144.892 102.796 142.979 101.475 140.683C101.225 140.254 101 139.792 100.767 139.342C103.546 136.746 119.983 122.917 138.346 139.733C138.133 140.121 137.929 140.529 137.708 140.896C136.35 143.183 134.8 145.083 133.196 146.692ZM119.542 154.483C118.075 154.142 113.429 152.808 108.7 149.063C110.646 147.433 114.329 144.958 118.958 144.771C122.812 144.613 126.646 146.1 130.354 149.196C125.617 152.846 120.996 154.15 119.542 154.483ZM92.3625 128.571H92.35C89.5583 130.425 86.7541 131.254 83.9708 131.05C76.5666 130.492 71.2625 122.896 71.175 122.779L71.0875 122.658C71.0083 122.563 63.3999 112.542 64.7166 103.879C65.2166 100.608 66.9166 97.9875 69.9125 95.8875C77.425 90.6042 90.8958 90.0084 101.587 90.5542C104.479 90.7042 107.167 90.925 109.471 91.1792C111.721 91.4125 113.612 91.6667 115 91.8625C113.904 96.25 110.829 106.083 103.492 116.508C101.587 119.213 99.3916 121.958 96.8708 124.663C96.8625 124.671 96.8416 124.692 96.8333 124.704C96.725 124.821 96.625 124.925 96.5125 125.033C95.1458 126.471 93.7583 127.642 92.3625 128.571ZM140.004 136.154C121.392 119.95 104.237 131.558 99.1791 135.746C98.5958 134.167 98.0833 132.479 97.6833 130.642C98.6125 129.85 99.5291 128.971 100.437 128.004C100.862 127.55 101.267 127.092 101.675 126.638C106.037 122.796 120.45 112.738 138.5 127.554C138.638 127.704 138.771 127.854 138.908 128.004C139.821 128.971 140.725 129.85 141.654 130.642C141.221 132.642 140.658 134.467 140.004 136.154ZM131.412 118.683C122.642 114.808 114.621 115.588 108.333 118.096C109.125 116.929 109.883 115.771 110.575 114.633C116.067 105.608 118.612 97.55 119.679 93.3292C120.75 97.6292 123.371 105.9 129.083 115.129V115.142C129.8 116.308 130.583 117.492 131.412 118.683ZM103.467 69.2625C107.029 60.5209 119.329 60.8334 119.446 60.8459H119.571C119.7 60.825 132.271 60.8042 136.067 69.1542C139.467 76.6375 137.75 82.1375 135.112 85.7875C127.367 86.3167 121.562 87.35 120.979 87.45L119.679 87.6834L118.379 87.45C117.796 87.35 111.954 86.3084 104.171 85.7875C101.883 82.1542 100.429 76.7042 103.467 69.2625ZM179.463 103.167C178.758 98.5542 176.338 94.7667 172.246 91.8959C164.442 86.4042 151.738 85.2709 140.921 85.5334C143.188 80.975 144.021 74.8584 140.513 67.1334C138.267 62.2 134.088 59.4375 130.033 57.9042C130.346 57.3959 130.608 56.8292 130.813 56.2125C131.808 53.3042 131.225 50.4792 129.525 49.8958C127.825 49.3167 125.638 51.2042 124.65 54.1125C124.396 54.875 124.237 55.6375 124.192 56.3583C121.771 55.9708 119.979 55.95 119.571 55.9583C119.183 55.95 117.462 55.9208 115.158 56.2542C115.1 55.5583 114.95 54.8375 114.696 54.1125C113.712 51.2042 111.525 49.3167 109.821 49.8958C108.125 50.4792 107.55 53.3042 108.533 56.2125C108.729 56.7792 108.962 57.2958 109.237 57.775C105.221 59.3209 101.083 62.1709 98.9416 67.4167C95.9625 74.7125 96.5375 80.8167 98.5625 85.5334C87.7208 85.2625 74.9458 86.3834 67.1041 91.8959C63.0208 94.7667 60.5874 98.5542 59.8958 103.167C58.3124 113.625 66.425 124.604 67.1791 125.592C67.8125 126.5 74.1041 135.183 83.5583 135.917C83.9875 135.954 84.4166 135.963 84.85 135.963C87.7583 135.963 90.6125 135.192 93.4041 133.65C99.225 155.488 118.867 159.346 119.104 159.383C119.25 159.404 119.396 159.425 119.542 159.425C119.679 159.425 119.825 159.417 119.971 159.383C120.208 159.346 140.071 155.488 145.942 133.65C148.738 135.192 151.596 135.963 154.508 135.963C154.929 135.963 155.358 135.954 155.788 135.917C165.254 135.183 171.533 126.5 172.167 125.592C172.921 124.604 181.046 113.625 179.463 103.167Z" fill="white"/>
</g>
<defs>
<clipPath id="clip0_758_362">
<rect width="240" height="210" fill="white"/>
</clipPath>
</defs>
</svg>
