<svg width="206" height="51" viewBox="0 0 206 51" fill="none" xmlns="http://www.w3.org/2000/svg">
<g clip-path="url(#clip0_720_373)">
<mask id="mask0_720_373" style="mask-type:luminance" maskUnits="userSpaceOnUse" x="0" y="0" width="206" height="51">
<mask id="mask1_720_373" style="mask-type:luminance" maskUnits="userSpaceOnUse" x="-19" y="-19" width="244" height="89">
<path d="M-18.8975 -18.8977H224.767V69.3874H-18.8975V-18.8977ZM176.484 29.6344V38.1383H179.319V29.6344H176.484ZM179.319 32.469V35.3036H182.154V32.469H179.319ZM173.65 32.469V35.3036H176.484V32.469H173.65Z" fill="white"/>
</mask>
<g mask="url(#mask1_720_373)">
<path d="M42.6112 49.25C43.0122 48.5625 44.6633 46.047 46.2802 43.66C47.925 41.2316 48.8405 38.9405 48.3584 38.4584C46.4361 36.5361 29.2104 34.5 14.869 34.5C6.69104 34.5 0 34.1006 0 33.6125C0 31.8695 20.1667 30.2086 33.9715 30.8147C47.308 31.4003 61.9922 34.0922 64.2688 36.3688C65.9793 38.0793 62.1391 41.5079 53.1446 46.3003C45.22 50.5227 41.2144 51.6444 42.6112 49.25ZM135.571 44.9285C134.707 44.0642 134 42.9393 134 42.4286C134 41.9179 133.132 41.5 132.071 41.5C128.546 41.5 126.729 38.5949 127.447 34.1043C128.356 28.4225 130.416 26.5 135.596 26.5C137.953 26.5 140.169 26.9639 140.519 27.531C141.328 28.8393 138.871 46.5 137.88 46.5C137.475 46.5 136.436 45.7928 135.571 44.9285ZM135.014 36.25C135.021 35.5624 135.299 33.9875 135.63 32.75C135.984 31.432 135.785 30.5 135.152 30.5C133.642 30.5 131.732 34.3602 132.392 36.0781C133.065 37.8324 134.995 37.9588 135.014 36.25ZM73.3836 41.4971C75.3726 39.2955 77 37.0817 77 36.5775C77 35.1473 68.5215 32.6905 56.7972 30.7234C50.9106 29.7357 45.7356 28.5451 45.2972 28.0774C44.2556 26.9665 72.1613 28.1696 78 29.4872C92.9462 32.8604 94.0901 34.1481 86.3132 38.8455C81.5191 41.7412 72.7829 45.5 70.8466 45.5C70.253 45.5 71.3946 43.6987 73.3836 41.4971ZM106.679 40.0362C105.756 39.1127 105 37.8144 105 37.1511C105 34.5832 108.14 31.6106 111.263 31.2224C114.308 30.8439 114.268 30.8106 110.595 30.66C106.756 30.5028 106.721 30.4661 108.5 28.5C110.828 25.9274 116.549 25.7886 117.878 28.2725C118.734 29.8711 117.735 39.0985 116.581 40.2519C116.352 40.4809 114.409 40.9037 112.262 41.1917C109.416 41.5734 107.903 41.2601 106.679 40.0362ZM113 36.0314C113 35.1393 112.413 34.7878 111.506 35.1361C110.684 35.4513 110.26 36.1124 110.565 36.6048C111.437 38.0167 113 37.6488 113 36.0314ZM150.519 39.8763C149.438 38.7947 149.08 37.2923 149.448 35.3763C149.752 33.7944 150.261 31.15 150.579 29.5C151.038 27.1258 151.678 26.5 153.647 26.5C155.543 26.5 156.014 26.9159 155.626 28.25C154.613 31.7348 154.549 36.4522 155.513 36.5324C156.056 36.5774 156.92 34.3387 157.433 31.5572C158.25 27.1223 158.664 26.5 160.798 26.5C163.171 26.5 163.213 26.6376 162.524 32.1568C161.61 39.467 161.294 40.1871 158.681 40.8878C154.922 41.8958 152.202 41.5587 150.519 39.8763ZM172.751 40.4184C170.759 39.2584 170.458 35.0568 172.064 30.834C173.42 27.2677 174.636 26.5327 179.216 26.5138C183.739 26.4949 185.5 29.0255 184.537 34.1596C183.373 40.3637 177.768 43.3403 172.751 40.4184ZM193.438 35.3477C194.351 27.28 195.173 26.3288 200.912 26.7019C205.5 27.0001 205.5 27.0001 205.801 32.1995C206.041 36.366 205.694 37.8064 204.05 39.4495C200.814 42.686 200.098 41.9465 200.712 36C201.09 32.3374 200.914 30.5 200.185 30.5C199.245 30.5 198.482 33.2355 197.673 39.5C197.567 40.325 196.409 41.152 195.101 41.3378C192.748 41.6719 192.73 41.605 193.438 35.3477ZM12 26.6782C12 18.1679 18.842 8.1189 28.1446 2.96631C33.1276 0.206271 34.2301 0 44 0C52.876 0 55.2077 0.348861 59.0756 2.25476C68.384 6.84183 75.6228 15.4966 77.4722 24.25C78.426 28.7641 76.514 28.4279 74.0782 23.6532C72.9988 21.5374 69.5816 17.4903 66.4843 14.6596C56.501 5.53547 43.3839 3.26794 31.1158 8.54552C24.8402 11.2452 16.5542 19.918 14.8655 25.5545C13.4882 30.1517 12 30.7352 12 26.6782Z" fill="white"/>
</g>
</mask>
<g mask="url(#mask0_720_373)">
<mask id="mask2_720_373" style="mask-type:luminance" maskUnits="userSpaceOnUse" x="-19" y="-19" width="244" height="89">
<path d="M-18.8975 -18.8977H224.767V69.3874H-18.8975V-18.8977ZM176.484 29.6344V38.1383H179.319V29.6344H176.484ZM179.319 32.469V35.3036H182.154V32.469H179.319ZM173.65 32.469V35.3036H176.484V32.469H173.65Z" fill="white"/>
</mask>
<g mask="url(#mask2_720_373)">
<path d="M42.6112 49.25C43.0122 48.5625 44.6633 46.047 46.2802 43.66C47.925 41.2316 48.8405 38.9405 48.3584 38.4584C46.4361 36.5361 29.2104 34.5 14.869 34.5C6.69104 34.5 0 34.1006 0 33.6125C0 31.8695 20.1667 30.2086 33.9715 30.8147C47.308 31.4003 61.9922 34.0922 64.2688 36.3688C65.9793 38.0793 62.1391 41.5079 53.1446 46.3003C45.22 50.5227 41.2144 51.6444 42.6112 49.25ZM135.571 44.9285C134.707 44.0642 134 42.9393 134 42.4286C134 41.9179 133.132 41.5 132.071 41.5C128.546 41.5 126.729 38.5949 127.447 34.1043C128.356 28.4225 130.416 26.5 135.596 26.5C137.953 26.5 140.169 26.9639 140.519 27.531C141.328 28.8393 138.871 46.5 137.88 46.5C137.475 46.5 136.436 45.7928 135.571 44.9285ZM135.014 36.25C135.021 35.5624 135.299 33.9875 135.63 32.75C135.984 31.432 135.785 30.5 135.152 30.5C133.642 30.5 131.732 34.3602 132.392 36.0781C133.065 37.8324 134.995 37.9588 135.014 36.25ZM73.3836 41.4971C75.3726 39.2955 77 37.0817 77 36.5775C77 35.1473 68.5215 32.6905 56.7972 30.7234C50.9106 29.7357 45.7356 28.5451 45.2972 28.0774C44.2556 26.9665 72.1613 28.1696 78 29.4872C92.9462 32.8604 94.0901 34.1481 86.3132 38.8455C81.5191 41.7412 72.7829 45.5 70.8466 45.5C70.253 45.5 71.3946 43.6987 73.3836 41.4971ZM106.679 40.0362C105.756 39.1127 105 37.8144 105 37.1511C105 34.5832 108.14 31.6106 111.263 31.2224C114.308 30.8439 114.268 30.8106 110.595 30.66C106.756 30.5028 106.721 30.4661 108.5 28.5C110.828 25.9274 116.549 25.7886 117.878 28.2725C118.734 29.8711 117.735 39.0985 116.581 40.2519C116.352 40.4809 114.409 40.9037 112.262 41.1917C109.416 41.5734 107.903 41.2601 106.679 40.0362ZM113 36.0314C113 35.1393 112.413 34.7878 111.506 35.1361C110.684 35.4513 110.26 36.1124 110.565 36.6048C111.437 38.0167 113 37.6488 113 36.0314ZM150.519 39.8763C149.438 38.7947 149.08 37.2923 149.448 35.3763C149.752 33.7944 150.261 31.15 150.579 29.5C151.038 27.1258 151.678 26.5 153.647 26.5C155.543 26.5 156.014 26.9159 155.626 28.25C154.613 31.7348 154.549 36.4522 155.513 36.5324C156.056 36.5774 156.92 34.3387 157.433 31.5572C158.25 27.1223 158.664 26.5 160.798 26.5C163.171 26.5 163.213 26.6376 162.524 32.1568C161.61 39.467 161.294 40.1871 158.681 40.8878C154.922 41.8958 152.202 41.5587 150.519 39.8763ZM172.751 40.4184C170.759 39.2584 170.458 35.0568 172.064 30.834C173.42 27.2677 174.636 26.5327 179.216 26.5138C183.739 26.4949 185.5 29.0255 184.537 34.1596C183.373 40.3637 177.768 43.3403 172.751 40.4184ZM193.438 35.3477C194.351 27.28 195.173 26.3288 200.912 26.7019C205.5 27.0001 205.5 27.0001 205.801 32.1995C206.041 36.366 205.694 37.8064 204.05 39.4495C200.814 42.686 200.098 41.9465 200.712 36C201.09 32.3374 200.914 30.5 200.185 30.5C199.245 30.5 198.482 33.2355 197.673 39.5C197.567 40.325 196.409 41.152 195.101 41.3378C192.748 41.6719 192.73 41.605 193.438 35.3477ZM12 26.6782C12 18.1679 18.842 8.1189 28.1446 2.96631C33.1276 0.206271 34.2301 0 44 0C52.876 0 55.2077 0.348861 59.0756 2.25476C68.384 6.84183 75.6228 15.4966 77.4722 24.25C78.426 28.7641 76.514 28.4279 74.0782 23.6532C72.9988 21.5374 69.5816 17.4903 66.4843 14.6596C56.501 5.53547 43.3839 3.26794 31.1158 8.54552C24.8402 11.2452 16.5542 19.918 14.8655 25.5545C13.4882 30.1517 12 30.7352 12 26.6782Z" fill="white"/>
</g>
</g>
</g>
<defs>
<clipPath id="clip0_720_373">
<rect width="205.869" height="50.4898" fill="white"/>
</clipPath>
</defs>
</svg>
