<svg width="295" height="92" viewBox="0 0 295 92" fill="none" xmlns="http://www.w3.org/2000/svg">
<path d="M31.8456 82.7651L23.8908 74.5601L29.4911 74.4728L35.0915 74.3855L36.2655 68.2328C36.9113 64.8488 37.4668 61.8766 37.5 61.6281C37.5435 61.3023 36.8562 61.0554 35.0345 60.7432C31.8204 60.1922 28.5565 59.0579 26.2856 57.7026C23.6044 56.1024 20.662 53.0092 19.4226 50.4879C18.3936 48.3946 18.3609 48.2067 18.3792 44.4835C18.3951 41.2788 18.5182 40.335 19.1205 38.8046C20.2125 36.0301 22.2576 33.1991 24.3358 31.5853C26.2108 30.1292 26.4262 29.6753 25.9986 28.08C25.8074 27.3665 25.7531 27.36 19.923 27.36C15.3573 27.36 14.0403 27.4518 14.0403 27.7695C14.0403 27.9948 14.9081 32.8548 15.9687 38.5695C17.0293 44.2843 18.8286 54.072 19.9671 60.32C21.1055 66.568 22.1007 71.968 22.1786 72.32C22.3098 72.913 16.2495 66.8328 4.88257 54.9671L0.214507 50.0942L2.31863 47.7671L4.42276 45.44L2.2114 43.2L0 40.96L19.7858 20.48C30.668 9.216 39.7508 0 39.9697 0C40.1887 0 49.2696 9.216 60.1496 20.48L79.9314 40.96L77.6583 43.2555L75.3851 45.5509L77.3527 47.731C78.4349 48.9301 79.3203 49.9997 79.3203 50.108C79.3203 50.3106 65.8318 64.312 60.6964 69.44C57.864 72.2682 57.8154 72.2999 57.9926 71.2C58.0919 70.584 59.9072 60.6774 62.0267 49.1852C64.1462 37.6931 65.8803 28.0811 65.8803 27.8252C65.8803 27.4342 64.9491 27.3646 60.0403 27.3889C55.8362 27.4078 54.4917 27.5019 55.2403 27.7181C55.8123 27.8832 56.2871 28.1942 56.2954 28.4092C56.3037 28.6243 56.5657 30.3481 56.8778 32.2401L57.4453 35.68L56.7028 35.728C56.2944 35.7545 55.8268 35.7904 55.6635 35.8082C55.5003 35.8271 54.9233 35.2281 54.3815 34.4801C53.8396 33.7321 53.2831 33.1201 53.1448 33.1201C53.0064 33.1201 52.0509 37.4761 51.0215 42.8001C49.9921 48.1241 49.0608 52.7275 48.9519 53.0297C48.843 53.3321 47.9759 48.1479 47.025 41.5097C45.878 33.5025 45.1379 29.2544 44.826 28.8883C44.5013 28.5072 44.416 27.961 44.5501 27.1225C44.6568 26.4548 44.6564 25.3674 44.549 24.706L44.3539 23.5035L39.6771 23.592L35.0003 23.6804L34.4698 27.8405C34.178 30.1285 33.9943 32.2885 34.0616 32.6405C34.1289 32.9923 33.496 37.8884 32.6552 43.5205L31.1264 53.7605L29.5152 45.7605L27.9039 37.7604L27.3721 39.4985C25.7291 44.8684 27.9095 51.7028 32.4059 55.2767C33.9982 56.5424 36.9842 58.0804 37.8489 58.0804C38.1473 58.0804 38.5043 56.8539 39.013 54.0805C39.4165 51.8805 39.8388 50.0804 39.9515 50.0804C40.0641 50.0804 40.4105 51.4124 40.7213 53.0404C41.032 54.6684 41.4352 56.6999 41.6172 57.5547L41.9481 59.1089L45.3542 58.9918C48.3252 58.8897 49.0022 58.7563 50.6529 57.9483C52.9169 56.84 54.9388 54.8213 55.9524 52.6573C56.6516 51.1644 56.7497 51.0856 57.6869 51.2636C58.2333 51.3672 58.7228 51.4862 58.7748 51.5274C59.2299 51.8895 56.7829 58.2362 55.9124 58.9513C55.1485 59.5789 50.3488 60.6133 46.2804 61.0271C43.4313 61.317 42.5203 61.5192 42.5203 61.8624C42.5203 62.1115 43.0425 65.0345 43.6807 68.3579L44.8411 74.4003H50.2692H55.6973L54.8397 75.4194C54.3681 75.9799 50.7913 79.7082 46.8913 83.7044L39.8004 90.9703L31.8456 82.7651ZM128.251 64.623C126.463 64.0722 124.023 61.9901 123.069 60.2012C122.053 58.2951 122.053 53.7052 123.069 51.7991C124.155 49.7629 126.443 47.9393 128.841 47.1985C131.204 46.4685 132.828 46.4067 135.979 46.9271L138.2 47.2942V48.8211C138.2 49.6609 138.288 50.5758 138.395 50.8542C138.821 51.9657 137.999 51.2501 137.4 49.9887C136.465 48.0191 134.576 47.1087 131.798 47.2888C127.155 47.5896 124.645 50.5346 124.645 55.6803C124.645 61.1072 127.764 64.6003 132.61 64.6003C134.958 64.6003 136.532 63.7728 137.784 61.8809C138.236 61.1986 138.67 60.6403 138.748 60.6403C138.986 60.6403 138.474 62.6615 138.001 63.5855C137.713 64.1504 137.143 64.5661 136.36 64.7836C134.669 65.2533 129.997 65.1609 128.251 64.623ZM145.922 63.3208C140.738 60.7377 140.97 53.0902 146.315 50.3347C148.166 49.3804 151.007 49.3966 153.024 50.3729C155.516 51.579 156.76 53.793 156.76 57.0182C156.76 59.0127 156.268 60.3606 154.982 61.8857C152.977 64.264 149.06 64.8844 145.922 63.3208ZM151.896 63.3908C153.994 62.2992 154.88 60.5527 154.88 57.5097C154.88 53.7964 153.217 50.8084 150.815 50.2055C149.509 49.8778 147.296 50.2603 146.269 50.9914C142.774 53.48 143.64 61.6579 147.579 63.3713C148.906 63.9484 150.808 63.9576 151.896 63.3908ZM157.721 63.9124C157.721 63.864 158.08 63.6875 158.52 63.5203L159.32 63.2161V57.4873C159.32 51.5114 159.272 51.294 157.88 50.9518C157.528 50.8652 157.971 50.7779 158.864 50.7575L160.487 50.7197L162.764 53.3597C164.016 54.8117 166.202 57.1483 167.62 58.5522L170.2 61.1047V56.6133C170.2 52.0691 170.036 51.3405 168.92 50.9418C168.656 50.8473 169.376 50.768 170.52 50.7653C172.074 50.7616 172.418 50.8337 171.88 51.0499C171.484 51.209 171.141 51.3799 171.117 51.4296C171.094 51.4791 170.985 54.3632 170.877 57.8384L170.68 64.157L165.568 58.5845C162.756 55.5196 160.344 53.0807 160.208 53.1648C159.909 53.3497 159.878 59.6314 160.166 61.7331C160.341 63.007 160.515 63.2937 161.31 63.6178C162.166 63.9662 162.05 63.9999 159.985 63.9999C158.74 63.9999 157.722 63.9608 157.721 63.9124ZM174.681 63.9124C174.681 63.864 175.044 63.6864 175.488 63.5176L176.295 63.2107L176.208 57.3747L176.12 51.5386L175.32 51.1342C174.56 50.7501 174.593 50.7296 175.977 50.7251C177.41 50.7213 177.473 50.7652 179.88 53.5204C181.226 55.0604 183.415 57.3968 184.744 58.7124L187.16 61.1044L187.156 56.4724C187.154 53.9248 187.046 51.677 186.916 51.4774C186.787 51.2778 186.393 51.0425 186.041 50.9545C185.689 50.8665 186.337 50.7871 187.481 50.7777C188.962 50.7663 189.363 50.8411 188.872 51.0388C188.269 51.2818 188.153 51.664 187.952 54.0784C187.826 55.5972 187.785 58.4869 187.862 60.5C187.939 62.5131 187.921 64.1551 187.822 64.1489C187.723 64.1414 185.341 61.6223 182.529 58.5478C177.844 53.4253 177.393 53.0182 177.137 53.679C176.864 54.381 177.106 62.1541 177.425 62.9878C177.513 63.2172 177.967 63.539 178.433 63.7026C179.102 63.9369 178.794 64.0001 176.982 64.0001C175.717 64.0001 174.682 63.9608 174.681 63.9124ZM190.84 63.9275C192.231 63.5855 192.281 63.3644 192.275 57.4799C192.273 54.3774 192.165 51.6807 192.035 51.4871C191.906 51.2936 191.584 51.0528 191.32 50.9523C191.057 50.8518 192.949 50.758 195.527 50.7444L200.213 50.718L200.339 52.0429C200.438 53.0763 200.393 53.2409 200.133 52.791C199.251 51.2621 198.759 51.038 196.28 51.038H193.88V53.918V56.798H195.95C197.879 56.798 198.052 56.7379 198.497 55.918C198.962 55.0618 198.975 55.0943 198.975 57.118C198.975 59.1418 198.963 59.1742 198.497 58.318C198.052 57.4979 197.879 57.438 195.95 57.438H193.88V60.1399C193.88 63.4177 194.25 63.838 197.131 63.838C199.418 63.838 200.332 63.4974 200.901 62.4337C201.524 61.2707 201.896 61.3888 201.538 62.636C201.374 63.2068 201.24 63.7108 201.24 63.756C201.24 63.801 201.499 63.838 201.816 63.838C203.049 63.838 207.19 58.5271 206.875 57.3504C206.572 56.2202 203.082 51.5775 202.2 51.1318C201.476 50.7656 201.596 50.7274 203.48 50.7276C204.84 50.7277 205.403 50.8278 205.104 51.0164C204.735 51.2499 204.949 51.7668 206.224 53.7274C207.091 55.0596 207.944 56.1503 208.12 56.151C208.467 56.1525 211.16 51.9552 211.16 51.414C211.16 51.233 210.908 51.019 210.6 50.9385C210.292 50.858 210.904 50.7775 211.96 50.7597C213.706 50.7295 213.808 50.7635 213.081 51.1316C212.261 51.5465 209.084 55.5324 208.735 56.5847C208.603 56.9835 209.132 58.034 210.386 59.8611C212.417 62.821 213.237 63.6957 214.2 63.9287C214.552 64.0137 213.688 64.0836 212.28 64.0836C210.872 64.0836 209.972 64.0179 210.28 63.9374C211.096 63.7242 210.988 63.3087 209.534 61.0776C207.527 57.9969 207.57 58.0024 205.896 60.6145C204.313 63.0835 204.143 63.7134 205 63.9374C205.309 64.0179 202.104 64.0836 197.88 64.0836C193.656 64.0836 190.488 64.0141 190.84 63.9275ZM216.92 63.7453L217.72 63.341L217.811 57.9101C217.912 51.9235 217.823 51.1547 217 50.9397C216.692 50.8592 217.376 50.7882 218.52 50.7818C219.664 50.7742 220.384 50.852 220.12 50.9526C219.856 51.0531 219.534 51.2939 219.405 51.4873C219.276 51.6808 219.17 54.3593 219.17 57.4394C219.17 60.5193 219.276 63.2027 219.405 63.4023C219.534 63.6019 219.928 63.8373 220.28 63.9252C220.632 64.0133 219.84 64.0998 218.52 64.1175C216.389 64.1478 216.21 64.1059 216.92 63.7453ZM227.48 63.649C223.008 61.712 221.785 55.4642 225.177 51.8898C227.993 48.9237 233.333 48.8462 236.025 51.7322C238.433 54.3139 238.354 59.3837 235.863 62.0394C233.997 64.0292 230.09 64.7795 227.48 63.649ZM233.239 63.1615C235.122 62.1031 235.95 60.3374 235.921 57.4392C235.875 52.8815 233.752 50.0791 230.345 50.0791C228.393 50.0791 226.95 50.8987 225.976 52.5599C225.278 53.751 225.134 54.3909 225.134 56.293C225.134 59.8237 226.691 62.7105 229.08 63.6082C230.159 64.0137 232.092 63.806 233.239 63.1615ZM240.412 63.6127C241.33 63.1316 241.56 61.6897 241.56 56.4135C241.56 52.4075 241.328 51.5043 240.179 51.0414C239.635 50.8219 239.834 50.7565 241.08 50.7451C242.513 50.73 242.752 50.8335 243.369 51.7166C244.71 53.6358 251.859 60.961 252.191 60.7558C252.557 60.5298 252.362 52.5906 251.966 51.618C251.845 51.3202 251.434 51.0159 251.053 50.9416C250.672 50.8671 251.368 50.8036 252.6 50.7998C253.832 50.7962 254.552 50.8652 254.2 50.9533C253.848 51.0413 253.455 51.2765 253.325 51.4762C253.196 51.6757 253.088 54.6231 253.085 58.0258C253.083 61.4285 252.963 64.1645 252.82 64.1058C252.676 64.0472 250.264 61.5013 247.46 58.4483L242.36 52.8975L242.268 57.4883C242.218 60.0133 242.25 62.3737 242.338 62.7337C242.427 63.0939 242.89 63.5258 243.368 63.6937C244.069 63.9401 243.797 63.9991 241.955 63.9991C239.979 63.9991 239.773 63.9474 240.412 63.6127ZM258.422 63.9351C257.761 63.7635 257.235 62.5953 257.253 61.3383L257.264 60.4792L257.694 61.4663C258.692 63.7573 261.336 64.571 262.854 63.0537C263.774 62.133 263.9 60.5145 263.136 59.4235C262.859 59.0286 261.843 58.1214 260.876 57.4076C258.03 55.3052 257.237 53.3453 258.42 51.3421C259.289 49.8713 261.422 49.2769 263.719 49.8658C264.476 50.0597 264.599 50.2538 264.599 51.2526V52.4138L263.869 51.3265C263.262 50.4237 262.912 50.2226 261.806 50.1416C260.174 50.0222 259.159 50.8652 259.159 52.3402C259.159 53.7921 259.568 54.3383 261.906 56.0063C264.065 57.5474 264.919 58.8161 264.919 60.4848C264.919 61.7106 264.073 63.124 263.009 63.6738C262.126 64.1304 259.708 64.2684 258.422 63.9351ZM100.802 42.0736C95.9051 41.0435 92.6969 36.9269 93.1757 32.2872C93.8034 26.2059 98.9631 22.8345 106.094 23.8467C107.562 24.055 108.817 24.3188 108.882 24.4324C109.159 24.9156 109.423 28.3182 109.183 28.3076C109.039 28.3 108.632 27.6916 108.28 26.953C107.366 25.0336 105.967 24.3167 103.16 24.3286C98.4364 24.3475 95.6886 27.3482 95.6544 32.5224C95.6245 37.0518 97.6722 40.2556 101.264 41.2999C104.573 42.2618 106.894 41.5256 108.691 38.9441C109.513 37.7629 109.72 37.6061 109.72 38.1656C109.72 38.5509 109.49 39.4424 109.208 40.1465C108.796 41.1773 108.468 41.4906 107.528 41.7539C105.777 42.2443 102.381 42.4056 100.802 42.0736ZM116.027 41.8831C112.649 40.845 110.572 37.2015 111.316 33.6189C111.76 31.481 112.677 30.0731 114.425 28.8442C115.53 28.068 116.166 27.8806 118.101 27.7617C120.212 27.632 120.611 27.708 122.189 28.5394C123.612 29.2892 124.104 29.779 124.829 31.1666C127.048 35.4143 125.083 40.6531 120.793 41.9272C118.859 42.5017 118.014 42.494 116.027 41.8831ZM121.467 41.1304C124.576 39.2348 124.793 32.5119 121.84 29.5592C118.95 26.6691 114.557 27.9742 113.364 32.0768C112.601 34.7011 113.229 38.2134 114.773 39.9532C116.422 41.8124 119.47 42.3484 121.467 41.1304ZM133.73 36.9156C132.424 33.9262 131.26 31.4204 131.141 31.3472C130.853 31.1696 130.412 40.2751 130.67 41.0851C130.787 41.4558 131.23 41.7743 131.736 41.8514C132.211 41.924 131.592 41.9957 130.36 42.0109C128.793 42.0298 128.328 41.9545 128.812 41.7595C129.753 41.3801 129.822 41.0533 130.189 35.248C130.532 29.8306 130.415 29.1064 129.161 28.865C128.765 28.7886 129.18 28.7067 130.086 28.6829C131.629 28.642 131.745 28.6942 131.951 29.5193C132.263 30.7642 136.393 39.5169 136.669 39.5182C136.906 39.5193 139.75 33.6886 141.077 30.4792L141.838 28.6393L143.459 28.677C144.351 28.6959 144.792 28.7848 144.44 28.8713C143.071 29.2077 143 29.4849 143.019 34.3589C143.041 40.3644 143.236 41.5026 144.284 41.7942C144.745 41.9227 144.004 42.0111 142.52 42.0043C141.112 41.9968 140.293 41.9291 140.7 41.8513C141.107 41.7734 141.507 41.5353 141.589 41.3214C141.671 41.1075 141.698 38.7068 141.649 35.9863L141.56 31.0397L140.709 32.7996C140.24 33.7677 139.012 36.3128 137.98 38.4556L136.102 42.3515L133.73 36.9156ZM148.751 42.0429C149.186 41.8694 149.652 41.5544 149.786 41.3431C150.099 40.8508 150.108 30.187 149.794 29.7502C149.665 29.5692 149.199 29.2551 148.759 29.0519C148.086 28.7412 148.443 28.6793 150.999 28.6626C156.152 28.6285 157.719 29.5177 157.719 32.4755C157.719 34.3089 156.813 35.4565 154.958 35.9714C153.042 36.5034 152.617 36.3695 154.093 35.6993C155.633 35.0002 156.119 34.2671 156.119 32.6443C156.119 30.3176 154.381 28.7072 152.204 29.0161C151.487 29.1178 151.478 29.1802 151.388 34.5591C151.337 37.5511 151.38 40.3322 151.479 40.7393C151.585 41.169 152.093 41.667 152.69 41.9268C153.669 42.3525 153.58 42.3737 150.839 42.3663C148.618 42.3587 148.141 42.2863 148.751 42.0429ZM158.927 41.9238L159.974 41.4642L159.887 35.2946L159.8 29.125L158.84 28.9198C158.297 28.8038 159.13 28.7146 160.76 28.7142C162.344 28.7138 163.352 28.7811 163 28.8635C161.706 29.1666 161.56 29.8066 161.56 35.1893C161.56 41.6595 161.609 41.7594 164.755 41.7594C166.905 41.7594 166.976 41.7329 167.938 40.5649L168.923 39.3706L168.508 40.805L168.093 42.2393L162.987 42.3116C158.311 42.3777 157.969 42.3453 158.927 41.9238ZM170.12 41.9222L171.16 41.4701V35.4013V29.3325L170.28 29.0113C169.62 28.7702 170.614 28.6836 174.266 28.6647L179.131 28.6382L179.344 29.7731C179.61 31.1909 179.31 31.5567 178.799 30.4366C178.327 29.3988 176.738 28.871 174.52 29.0146L172.92 29.1182V31.9981V34.8782L174.38 34.973C176.273 35.0962 177.474 34.6272 177.652 33.6952C177.73 33.2897 177.793 33.9658 177.793 35.1979C177.793 36.43 177.731 37.1136 177.654 36.7173C177.459 35.7032 176.529 35.3098 174.591 35.4216L172.92 35.518V38.1096C172.92 41.5617 173.102 41.758 176.296 41.758C178.79 41.758 178.795 41.7563 179.777 40.565C180.859 39.2523 180.938 39.3295 180.39 41.1608L180.019 42.3979L174.55 42.3866C169.555 42.3752 169.171 42.3349 170.12 41.9222ZM196.893 42.0654C197.406 41.9119 197.944 41.6004 198.088 41.3729C198.233 41.1454 198.353 38.5028 198.355 35.5005C198.359 29.7901 198.227 29.1742 196.92 28.859C196.568 28.7743 198.512 28.7259 201.24 28.752L206.2 28.7992L206.293 30.0792L206.385 31.3592L205.751 30.3416C205.249 29.5357 204.828 29.2807 203.73 29.116C202.967 29.0015 201.843 28.9554 201.232 29.0136L200.12 29.119V31.9991V34.879L201.37 34.9815C203.21 35.1323 204.097 34.8076 204.517 33.8302L204.89 32.9592L205.005 33.992C205.068 34.5601 205.074 35.5681 205.02 36.232L204.92 37.4392L204.437 36.4792C203.988 35.5861 203.815 35.5125 201.957 35.4239L199.96 35.3286V38.2126C199.96 41.6567 200.062 41.7592 203.475 41.7592C205.525 41.7592 205.829 41.6753 206.536 40.9125C206.967 40.4468 207.32 39.9427 207.32 39.7924C207.32 39.642 207.456 39.5192 207.621 39.5192C207.786 39.5192 207.7 40.1672 207.431 40.9592L206.94 42.3992L201.45 42.3727C197.789 42.3538 196.271 42.2513 196.893 42.0654ZM210.2 42.023C210.2 41.8779 210.624 41.7592 211.142 41.7592C212.951 41.7592 213.08 41.1714 213.08 32.9593C213.08 25.0843 212.91 24.1593 211.462 24.1593C211.12 24.1593 210.84 24.0462 210.84 23.9083C210.84 23.7703 213.714 23.6622 217.227 23.6682L223.613 23.6796L223.825 25.3743C223.942 26.3063 223.958 27.1482 223.863 27.2452C223.766 27.3424 223.395 26.8495 223.038 26.1501C222.681 25.4508 222.156 24.7888 221.87 24.6791C221.584 24.5695 219.994 24.4796 218.336 24.4796H215.322V28.3195V32.1595H217.859C220.556 32.1595 221.402 31.7721 221.402 30.5367C221.402 30.1973 221.546 29.9195 221.722 29.9195C221.911 29.9195 222.042 31.0396 222.042 32.6395C222.042 35.4796 221.749 36.086 221.229 34.3196C220.938 33.3329 220.819 33.2657 218.905 33.0093C217.795 32.8607 216.535 32.8275 216.105 32.9356C215.332 33.1295 215.322 33.1763 215.322 36.7984C215.322 40.3428 215.349 40.4822 216.112 40.9821C216.698 41.366 217.653 41.4955 219.824 41.4852C223.13 41.4701 223.801 41.1859 224.763 39.3993C225.387 38.2421 225.905 37.8826 225.858 38.6398C225.843 38.8597 225.579 39.7597 225.27 40.6397L224.707 42.2398L217.455 42.2624C213.466 42.2738 210.2 42.1682 210.2 42.023ZM235.64 36.2506C232.824 32.9569 230.412 30.2569 230.28 30.2506C229.989 30.2355 229.965 38.2226 230.25 39.9548C230.413 40.9387 230.656 41.2782 231.447 41.6222C232.386 42.031 232.302 42.0538 229.879 42.0465C227.869 42.0389 227.489 41.9709 228.11 41.723C228.545 41.5495 229.011 41.2345 229.145 41.0232C229.279 40.812 229.391 38.0335 229.394 34.8487C229.398 28.6384 229.319 28.3185 227.639 27.9093C227.287 27.8235 227.799 27.7366 228.777 27.7162C230.52 27.6784 230.576 27.7086 231.525 29.039C232.573 30.5111 239.459 38.4102 239.968 38.7248C240.31 38.936 240.408 30.2715 240.077 29.0385C239.956 28.5869 239.51 28.2095 238.881 28.0274C238.072 27.793 238.373 27.7352 240.439 27.7284C242.432 27.7208 242.824 27.7896 242.211 28.0345C241.777 28.2076 241.345 28.4261 241.251 28.5201C241.156 28.6142 241.007 31.7394 240.919 35.4651L240.759 42.2393L235.64 36.2506ZM249.88 41.9357C249.88 41.5083 246.388 32.2676 245.193 29.5316C244.879 28.8133 244.344 28.2226 243.837 28.0369C243.187 27.7984 243.572 27.7338 245.56 27.7481C246.968 27.7595 247.796 27.829 247.4 27.905C246.988 27.9844 246.68 28.2776 246.68 28.5914C246.68 29.1379 249.886 37.7392 250.485 38.8C250.839 39.4269 250.609 39.8787 253.406 33.0737C254.283 30.9406 255 28.9935 255 28.7469C255 28.5001 254.676 28.1683 254.28 28.0091C253.752 27.7967 254.156 27.723 255.8 27.7313C257.12 27.7388 257.712 27.8284 257.24 27.9512C256.26 28.2064 254.883 30.8663 252.21 37.6685C250.511 41.9947 249.88 43.1494 249.88 41.9357ZM259.887 41.893L260.773 41.4122L260.687 34.8L260.6 28.1878L259.8 27.9655C259.328 27.8344 260.049 27.7433 261.56 27.7433C263.064 27.7433 263.791 27.8348 263.323 27.9652C262.304 28.2487 262.083 29.4081 262.059 34.5949C262.032 40.0527 262.251 41.3582 263.285 41.9204C264.064 42.3436 263.949 42.374 261.56 42.374C259.103 42.374 259.036 42.3549 259.887 41.893ZM277.4 42.04C276.193 41.5583 275.22 40.5432 273.675 38.1511C272.263 35.9667 271.154 35.1093 270.208 35.4722C269.781 35.6358 269.711 36.1388 269.788 38.4657C269.874 41.0847 269.931 41.2881 270.68 41.6663C271.382 42.0204 271.147 42.0661 268.76 42.0378C267.264 42.0189 266.328 41.938 266.68 41.8556C267.997 41.5476 268.121 40.9464 268.115 34.8986C268.113 31.7202 268.005 28.9717 267.875 28.7909C267.746 28.6098 267.28 28.2958 266.84 28.0925C266.178 27.7868 266.662 27.7195 269.651 27.7014C273.588 27.6787 275.031 28.0498 275.919 29.3171C276.976 30.8267 276.334 33.515 274.708 34.3851C274.253 34.6285 273.88 34.9939 273.88 35.1969C273.88 35.5657 276.673 39.7843 277.671 40.9235C277.962 41.2557 278.632 41.7179 279.16 41.9509L280.12 42.3747L279.16 42.3671C278.632 42.3634 277.84 42.2153 277.4 42.04ZM273.044 34.7332C273.968 34.3821 274.84 32.8982 274.84 31.6794C274.84 29.6258 272.923 27.8648 270.9 28.0607L269.88 28.1594L269.79 31.5993L269.699 35.0394H270.969C271.667 35.0394 272.601 34.9014 273.044 34.7332ZM284.191 41.9471C280.989 40.905 279.32 38.539 279.32 35.0395C279.32 30.3501 282.651 27.3397 287.395 27.7424C290.812 28.0323 293.032 29.9652 293.712 33.2411C294.408 36.5909 292.855 40.0768 290.067 41.4267C288.259 42.302 285.919 42.5093 284.191 41.9471ZM289.565 41.0394C291.196 39.9311 291.96 38.1699 291.96 35.5195C291.96 32.7438 291.185 30.6086 289.706 29.3101C286.661 26.6365 282.163 28.3087 281.278 32.4436C280.557 35.8057 281.875 39.7052 284.213 41.1308C285.672 42.0205 288.185 41.9778 289.565 41.0394ZM182.461 41.7542C182.956 41.6056 183.574 41.3072 183.834 41.0913C184.53 40.5142 187.8 35.803 187.8 35.3785C187.8 34.626 183.88 29.221 182.901 28.6242L181.88 28.0019L184.44 28.0208C186.299 28.0359 186.803 28.119 186.28 28.3292C185.884 28.4883 185.56 28.7552 185.56 28.9221C185.56 29.235 188.717 34.0792 188.921 34.0792C189.146 34.0792 191.96 29.3775 191.96 29.0021C191.96 28.7912 191.636 28.4883 191.24 28.3292C190.714 28.1175 191.166 28.0378 192.92 28.0321C195.25 28.0245 195.29 28.0359 194.292 28.4715C193.286 28.9089 189.4 33.7483 189.4 34.5638C189.4 34.7679 190.411 36.3949 191.645 38.1793C193.422 40.7474 194.106 41.4858 194.925 41.7226C195.761 41.9641 195.435 42.0189 193.24 42.0068C191.744 41.9992 190.844 41.9296 191.24 41.8533C191.636 41.777 191.96 41.5975 191.96 41.4541C191.96 41.1755 189.254 37.0771 188.613 36.3852C188.306 36.0541 188.004 36.3103 187.104 37.6669C186.002 39.3263 184.92 41.2553 184.92 41.561C184.92 41.6453 185.244 41.7772 185.64 41.8532C186.036 41.9295 185.28 41.999 183.96 42.0077C182.176 42.0191 181.791 41.9552 182.461 41.7542Z" fill="white"/>
</svg>
