<svg width="1095" height="282" viewBox="0 0 1095 282" fill="none" xmlns="http://www.w3.org/2000/svg">
<g clip-path="url(#clip0_753_214)">
<path d="M346.604 84.7869V37.3638H375.039V42.4581H352.347V58.4819H372.909V63.5762H352.347V84.7869H346.604ZM424.888 61.0753C424.888 66.077 423.985 70.3994 422.179 74.0426C420.372 77.6858 417.895 80.4953 414.746 82.4713C411.596 84.4472 408 85.4352 403.955 85.4352C399.91 85.4352 396.314 84.4472 393.164 82.4713C390.015 80.4953 387.538 77.6858 385.731 74.0426C383.925 70.3994 383.022 66.077 383.022 61.0753C383.022 56.0737 383.925 51.7513 385.731 48.1081C387.538 44.4649 390.015 41.6554 393.164 39.6794C396.314 37.7034 399.91 36.7155 403.955 36.7155C408 36.7155 411.596 37.7034 414.746 39.6794C417.895 41.6554 420.372 44.4649 422.179 48.1081C423.985 51.7513 424.888 56.0737 424.888 61.0753ZM419.33 61.0753C419.33 56.9691 418.644 53.5034 417.27 50.6784C415.911 47.8534 414.066 45.7153 411.735 44.2643C409.42 42.8132 406.826 42.0876 403.955 42.0876C401.084 42.0876 398.483 42.8132 396.152 44.2643C393.836 45.7153 391.991 47.8534 390.617 50.6784C389.259 53.5034 388.58 56.9691 388.58 61.0753C388.58 65.1816 389.259 68.6473 390.617 71.4723C391.991 74.2973 393.836 76.4353 396.152 77.8864C398.483 79.3375 401.084 80.0631 403.955 80.0631C406.826 80.0631 409.42 79.3375 411.735 77.8864C414.066 76.4353 415.911 74.2973 417.27 71.4723C418.644 68.6473 419.33 65.1816 419.33 61.0753ZM472.149 37.3638V84.7869H466.591L440.75 47.5524H440.286V84.7869H434.544V37.3638H440.101L466.036 74.6909H466.499V37.3638H472.149ZM498.274 84.7869H483.64V37.3638H498.923C503.523 37.3638 507.459 38.3132 510.732 40.212C514.005 42.0953 516.513 44.8046 518.258 48.3397C520.002 51.8593 520.874 56.0737 520.874 60.9827C520.874 65.9226 519.994 70.1756 518.235 73.7416C516.475 77.2921 513.912 80.0245 510.547 81.9387C507.182 83.8375 503.091 84.7869 498.274 84.7869ZM489.382 79.6926H497.904C501.825 79.6926 505.074 78.9362 507.652 77.4233C510.23 75.9105 512.152 73.757 513.418 70.9629C514.684 68.1687 515.317 64.842 515.317 60.9827C515.317 57.1543 514.692 53.8585 513.441 51.0952C512.191 48.3165 510.323 46.1862 507.838 44.7042C505.352 43.2068 502.257 42.4581 498.552 42.4581H489.382V79.6926ZM530.224 84.7869H524.203L541.616 37.3638H547.544L564.957 84.7869H558.937L544.765 44.8663H544.395L530.224 84.7869ZM532.446 66.2622H556.714V71.3565H532.446V66.2622ZM564.21 42.4581V37.3638H599.778V42.4581H584.865V84.7869H579.123V42.4581H564.21ZM614.383 37.3638V84.7869H608.641V37.3638H614.383ZM665.911 61.0753C665.911 66.077 665.007 70.3994 663.201 74.0426C661.395 77.6858 658.918 80.4953 655.768 82.4713C652.619 84.4472 649.022 85.4352 644.978 85.4352C640.933 85.4352 637.336 84.4472 634.187 82.4713C631.038 80.4953 628.56 77.6858 626.754 74.0426C624.948 70.3994 624.045 66.077 624.045 61.0753C624.045 56.0737 624.948 51.7513 626.754 48.1081C628.56 44.4649 631.038 41.6554 634.187 39.6794C637.336 37.7034 640.933 36.7155 644.978 36.7155C649.022 36.7155 652.619 37.7034 655.768 39.6794C658.918 41.6554 661.395 44.4649 663.201 48.1081C665.007 51.7513 665.911 56.0737 665.911 61.0753ZM660.353 61.0753C660.353 56.9691 659.666 53.5034 658.292 50.6784C656.934 47.8534 655.089 45.7153 652.758 44.2643C650.443 42.8132 647.849 42.0876 644.978 42.0876C642.106 42.0876 639.505 42.8132 637.174 44.2643C634.859 45.7153 633.014 47.8534 631.64 50.6784C630.282 53.5034 629.602 56.9691 629.602 61.0753C629.602 65.1816 630.282 68.6473 631.64 71.4723C633.014 74.2973 634.859 76.4353 637.174 77.8864C639.505 79.3375 642.106 80.0631 644.978 80.0631C647.849 80.0631 650.443 79.3375 652.758 77.8864C655.089 76.4353 656.934 74.2973 658.292 71.4723C659.666 68.6473 660.353 65.1816 660.353 61.0753ZM713.172 37.3638V84.7869H707.614L681.772 47.5524H681.309V84.7869H675.567V37.3638H681.124L707.058 74.6909H707.521V37.3638H713.172ZM743.002 84.7869V37.3638H771.622V42.4581H748.745V58.4819H770.141V63.5762H748.745V79.6926H771.993V84.7869H743.002ZM779.38 42.4581V37.3638H814.947V42.4581H800.035V84.7869H794.292V42.4581H779.38ZM844.094 84.7869H838.074L855.487 37.3638H861.415L878.828 84.7869H872.807L858.636 44.8663H858.266L844.094 84.7869ZM846.317 66.2622H870.584V71.3565H846.317V66.2622ZM886.215 84.7869V37.3638H891.957V79.6926H914.002V84.7869H886.215ZM954.015 37.3638H959.757V68.7631C959.757 72.0049 958.993 74.8993 957.465 77.4465C955.952 79.9782 953.814 81.9773 951.051 83.4438C948.288 84.8949 945.046 85.6205 941.325 85.6205C937.605 85.6205 934.363 84.8949 931.6 83.4438C928.837 81.9773 926.691 79.9782 925.163 77.4465C923.65 74.8993 922.893 72.0049 922.893 68.7631V37.3638H928.636V68.3C928.636 70.6155 929.145 72.6764 930.164 74.4825C931.183 76.2733 932.634 77.6858 934.518 78.7201C936.416 79.7389 938.686 80.2483 941.325 80.2483C943.965 80.2483 946.234 79.7389 948.133 78.7201C950.032 77.6858 951.483 76.2733 952.486 74.4825C953.505 72.6764 954.015 70.6155 954.015 68.3V37.3638ZM971.225 37.3638H978.079L994.196 76.7287H994.752L1010.87 37.3638H1017.72V84.7869H1012.35V48.7565H1011.89L997.067 84.7869H991.88L977.061 48.7565H976.597V84.7869H971.225V37.3638ZM1066.84 37.3638V84.7869H1061.28L1035.44 47.5524H1034.98V84.7869H1029.24V37.3638H1034.79L1060.73 74.6909H1061.19V37.3638H1066.84ZM1084.07 37.3638V84.7869H1078.33V37.3638H1084.07Z" fill="white"/>
<path d="M359.489 166.394H342.996V119.868H359.626C364.305 119.868 368.334 120.8 371.711 122.663C375.089 124.51 377.686 127.168 379.503 130.637C381.336 134.105 382.252 138.255 382.252 143.086C382.252 147.932 381.336 152.097 379.503 155.58C377.686 159.064 375.074 161.737 371.666 163.6C368.273 165.463 364.215 166.394 359.489 166.394ZM352.833 157.966H359.08C361.988 157.966 364.434 157.451 366.418 156.421C368.417 155.376 369.917 153.763 370.916 151.582C371.931 149.386 372.438 146.554 372.438 143.086C372.438 139.648 371.931 136.838 370.916 134.658C369.917 132.477 368.425 130.871 366.441 129.841C364.457 128.812 362.011 128.297 359.103 128.297H352.833V157.966ZM389.539 166.394V119.868H420.889V127.979H399.376V139.065H419.276V147.175H399.376V158.284H420.98V166.394H389.539ZM443.516 166.394V119.868H461.872C465.4 119.868 468.407 120.542 470.891 121.89C473.374 123.223 475.267 125.078 476.57 127.456C477.888 129.819 478.546 132.545 478.546 135.634C478.546 138.724 477.88 141.45 476.547 143.813C475.214 146.175 473.283 148.016 470.754 149.333C468.24 150.651 465.196 151.31 461.622 151.31H449.922V143.427H460.032C461.925 143.427 463.485 143.101 464.711 142.45C465.953 141.783 466.877 140.867 467.483 139.701C468.104 138.52 468.414 137.164 468.414 135.634C468.414 134.09 468.104 132.742 467.483 131.591C466.877 130.425 465.953 129.523 464.711 128.887C463.469 128.236 461.894 127.91 459.986 127.91H453.353V166.394H443.516ZM527.69 143.131C527.69 148.205 526.728 152.521 524.805 156.08C522.897 159.639 520.292 162.358 516.99 164.236C513.704 166.099 510.008 167.03 505.904 167.03C501.769 167.03 498.059 166.091 494.772 164.213C491.486 162.335 488.889 159.617 486.98 156.058C485.072 152.498 484.118 148.19 484.118 143.131C484.118 138.058 485.072 133.741 486.98 130.182C488.889 126.623 491.486 123.912 494.772 122.049C498.059 120.171 501.769 119.232 505.904 119.232C510.008 119.232 513.704 120.171 516.99 122.049C520.292 123.912 522.897 126.623 524.805 130.182C526.728 133.741 527.69 138.058 527.69 143.131ZM517.717 143.131C517.717 139.845 517.225 137.073 516.24 134.817C515.271 132.56 513.901 130.849 512.129 129.682C510.357 128.516 508.282 127.933 505.904 127.933C503.526 127.933 501.451 128.516 499.679 129.682C497.907 130.849 496.529 132.56 495.545 134.817C494.575 137.073 494.091 139.845 494.091 143.131C494.091 146.418 494.575 149.189 495.545 151.446C496.529 153.702 497.907 155.414 499.679 156.58C501.451 157.746 503.526 158.329 505.904 158.329C508.282 158.329 510.357 157.746 512.129 156.58C513.901 155.414 515.271 153.702 516.24 151.446C517.225 149.189 517.717 146.418 517.717 143.131ZM534.977 166.394V119.868H544.813V158.284H564.76V166.394H534.977ZM562.613 119.868H573.631L584.24 139.905H584.694L595.303 119.868H606.321L589.351 149.947V166.394H579.583V149.947L562.613 119.868ZM612.858 127.979V119.868H651.069V127.979H636.825V166.394H627.102V127.979H612.858ZM657.362 166.394V119.868H688.712V127.979H667.199V139.065H687.099V147.175H667.199V158.284H688.803V166.394H657.362ZM737.583 136.157H727.633C727.451 134.87 727.08 133.726 726.52 132.727C725.96 131.712 725.24 130.849 724.362 130.137C723.483 129.425 722.469 128.88 721.318 128.501C720.182 128.123 718.947 127.933 717.615 127.933C715.207 127.933 713.109 128.531 711.322 129.728C709.535 130.909 708.149 132.636 707.165 134.908C706.18 137.164 705.688 139.905 705.688 143.131C705.688 146.448 706.18 149.235 707.165 151.491C708.164 153.748 709.557 155.452 711.345 156.603C713.132 157.754 715.199 158.329 717.546 158.329C718.864 158.329 720.083 158.155 721.204 157.807C722.34 157.458 723.347 156.951 724.225 156.285C725.104 155.603 725.831 154.778 726.406 153.809C726.997 152.839 727.406 151.734 727.633 150.492L737.583 150.537C737.326 152.673 736.682 154.732 735.652 156.716C734.638 158.685 733.267 160.45 731.54 162.01C729.829 163.554 727.785 164.781 725.407 165.69C723.044 166.583 720.371 167.03 717.387 167.03C713.238 167.03 709.527 166.091 706.256 164.213C703 162.335 700.425 159.617 698.532 156.058C696.654 152.498 695.715 148.19 695.715 143.131C695.715 138.058 696.669 133.741 698.577 130.182C700.486 126.623 703.075 123.912 706.347 122.049C709.618 120.171 713.298 119.232 717.387 119.232C720.083 119.232 722.582 119.611 724.884 120.368C727.201 121.126 729.254 122.231 731.041 123.685C732.828 125.124 734.282 126.888 735.402 128.978C736.538 131.068 737.265 133.461 737.583 136.157ZM744.637 166.394V119.868H754.474V139.065H774.443V119.868H784.257V166.394H774.443V147.175H754.474V166.394H744.637ZM831.282 119.868V166.394H822.786L802.544 137.111H802.203V166.394H792.367V119.868H800.999L821.082 149.129H821.491V119.868H831.282ZM849.246 119.868V166.394H839.409V119.868H849.246ZM874.9 150.219H883.26L887.462 155.626L891.597 160.442L899.389 170.211H890.211L884.85 163.623L882.101 159.715L874.9 150.219ZM900.093 143.131C900.093 148.205 899.132 152.521 897.208 156.08C895.3 159.639 892.695 162.358 889.393 164.236C886.107 166.099 882.412 167.03 878.307 167.03C874.173 167.03 870.462 166.091 867.176 164.213C863.889 162.335 861.292 159.617 859.384 156.058C857.475 152.498 856.521 148.19 856.521 143.131C856.521 138.058 857.475 133.741 859.384 130.182C861.292 126.623 863.889 123.912 867.176 122.049C870.462 120.171 874.173 119.232 878.307 119.232C882.412 119.232 886.107 120.171 889.393 122.049C892.695 123.912 895.3 126.623 897.208 130.182C899.132 133.741 900.093 138.058 900.093 143.131ZM890.12 143.131C890.12 139.845 889.628 137.073 888.644 134.817C887.674 132.56 886.304 130.849 884.532 129.682C882.76 128.516 880.685 127.933 878.307 127.933C875.929 127.933 873.855 128.516 872.083 129.682C870.311 130.849 868.932 132.56 867.948 134.817C866.979 137.073 866.494 139.845 866.494 143.131C866.494 146.418 866.979 149.189 867.948 151.446C868.932 153.702 870.311 155.414 872.083 156.58C873.855 157.746 875.929 158.329 878.307 158.329C880.685 158.329 882.76 157.746 884.532 156.58C886.304 155.414 887.674 153.702 888.644 151.446C889.628 149.189 890.12 146.418 890.12 143.131ZM936.118 119.868H945.955V150.083C945.955 153.475 945.144 156.444 943.524 158.988C941.918 161.532 939.669 163.516 936.777 164.94C933.884 166.349 930.514 167.053 926.667 167.053C922.805 167.053 919.428 166.349 916.535 164.94C913.643 163.516 911.394 161.532 909.788 158.988C908.183 156.444 907.38 153.475 907.38 150.083V119.868H917.217V149.242C917.217 151.014 917.603 152.589 918.375 153.968C919.163 155.346 920.269 156.429 921.692 157.216C923.116 158.004 924.774 158.397 926.667 158.397C928.576 158.397 930.234 158.004 931.642 157.216C933.066 156.429 934.164 155.346 934.936 153.968C935.724 152.589 936.118 151.014 936.118 149.242V119.868ZM954.048 166.394V119.868H985.398V127.979H963.884V139.065H983.785V147.175H963.884V158.284H985.489V166.394H954.048Z" fill="white"/>
<path d="M342.996 195.227H355.128L367.94 226.487H368.485L381.298 195.227H393.429V241.753H383.888V211.47H383.502L371.461 241.526H364.964L352.924 211.357H352.538V241.753H342.996V195.227ZM444.288 218.49C444.288 223.564 443.327 227.88 441.403 231.439C439.495 234.998 436.89 237.717 433.588 239.595C430.302 241.458 426.606 242.389 422.502 242.389C418.368 242.389 414.657 241.45 411.371 239.572C408.084 237.694 405.487 234.976 403.578 231.416C401.67 227.857 400.716 223.549 400.716 218.49C400.716 213.417 401.67 209.1 403.578 205.541C405.487 201.982 408.084 199.271 411.371 197.408C414.657 195.53 418.368 194.591 422.502 194.591C426.606 194.591 430.302 195.53 433.588 197.408C436.89 199.271 439.495 201.982 441.403 205.541C443.327 209.1 444.288 213.417 444.288 218.49ZM434.315 218.49C434.315 215.204 433.823 212.432 432.839 210.176C431.869 207.919 430.499 206.208 428.727 205.041C426.955 203.875 424.88 203.292 422.502 203.292C420.124 203.292 418.05 203.875 416.278 205.041C414.506 206.208 413.127 207.919 412.143 210.176C411.174 212.432 410.689 215.204 410.689 218.49C410.689 221.777 411.174 224.548 412.143 226.805C413.127 229.061 414.506 230.773 416.278 231.939C418.05 233.105 420.124 233.688 422.502 233.688C424.88 233.688 426.955 233.105 428.727 231.939C430.499 230.773 431.869 229.061 432.839 226.805C433.823 224.548 434.315 221.777 434.315 218.49ZM490.49 195.227V241.753H481.994L461.752 212.47H461.412V241.753H451.575V195.227H460.208L480.29 224.488H480.699V195.227H490.49ZM496.845 203.338V195.227H535.056V203.338H520.812V241.753H511.089V203.338H496.845ZM541.349 241.753V195.227H559.705C563.219 195.227 566.217 195.856 568.701 197.113C571.2 198.355 573.101 200.119 574.403 202.406C575.721 204.678 576.38 207.351 576.38 210.425C576.38 213.515 575.713 216.173 574.38 218.399C573.048 220.61 571.117 222.307 568.587 223.488C566.073 224.669 563.029 225.26 559.455 225.26H547.165V217.354H557.865C559.743 217.354 561.303 217.097 562.545 216.582C563.786 216.067 564.71 215.295 565.316 214.265C565.937 213.235 566.248 211.955 566.248 210.425C566.248 208.881 565.937 207.578 565.316 206.518C564.71 205.458 563.779 204.655 562.522 204.11C561.28 203.55 559.712 203.269 557.819 203.269H551.186V241.753H541.349ZM566.475 220.58L578.038 241.753H567.179L555.866 220.58H566.475ZM583.331 241.753V195.227H614.681V203.338H593.168V214.424H613.068V222.534H593.168V233.643H614.772V241.753H583.331ZM595.599 190.729L600.415 180.393H609.365L602.437 190.729H595.599ZM630.521 241.753H619.98L636.042 195.227H648.718L664.757 241.753H654.216L642.561 205.859H642.198L630.521 241.753ZM629.862 223.465H654.761V231.144H629.862V223.465ZM670.356 241.753V195.227H680.193V233.643H700.139V241.753H670.356Z" fill="white"/>
<mask id="mask0_753_214" style="mask-type:luminance" maskUnits="userSpaceOnUse" x="0" y="239" width="68" height="43">
<path d="M0 239.262H67.1589V281.277H0V239.262Z" fill="white"/>
</mask>
<g mask="url(#mask0_753_214)">
<path d="M0 241.098H66.9129V281.277H0V241.098Z" fill="white"/>
</g>
<path d="M0 160.732H66.9129V200.919H0V160.732Z" fill="white"/>
<path d="M0 0H66.9129V40.1871H0V0Z" fill="white"/>
<path d="M0 80.3662H66.9129V120.553H0V80.3662Z" fill="white"/>
<path d="M196.664 80.2021C196.648 80.1756 196.591 80.1756 196.574 80.1945C196.222 80.5963 195.697 80.9815 194.992 80.9898C195.352 81.8423 195.639 82.9163 195.639 84.0641C195.639 85.2118 195.5 86.9416 195.008 88.0811C195.803 88.0154 196.59 87.9908 196.59 87.9908C196.59 87.9908 197.304 88.0173 198.222 88.0811C197.738 86.9416 197.599 85.2118 197.599 84.0641C197.599 82.9163 197.877 81.8423 198.238 80.9898C197.541 80.9898 197.009 80.6039 196.664 80.2021Z" fill="white"/>
<path d="M189.204 75.1357C190.598 75.9637 191.877 76.8245 192.795 78.3576C192.377 78.5295 191.942 78.7182 191.483 78.9396C187.163 81.0712 188.04 88.4986 191.844 88.6052C192.344 88.5149 192.893 88.4412 193.434 88.3837C193.91 87.4983 194.213 86.5145 194.377 85.5308C194.09 86.0637 193.623 86.408 193.106 86.408C192.229 86.408 191.524 85.4324 191.524 84.2191C191.524 83.0139 192.229 82.0384 193.106 82.0384C193.713 82.0384 194.238 82.4975 194.5 83.1861C194.435 82.0056 194.156 80.9398 193.713 80.161C193.631 80.0215 193.648 79.8496 193.745 79.7265C193.843 79.6033 194.007 79.5546 194.163 79.6033C195.491 80.0542 196.311 78.6933 196.352 78.6441C196.401 78.5455 196.483 78.4638 196.606 78.4638C196.729 78.4638 196.819 78.5376 196.885 78.6441C196.926 78.6937 197.745 80.0542 199.065 79.6115C199.221 79.5624 199.393 79.6039 199.483 79.7264C199.582 79.8496 199.598 80.0216 199.524 80.1609C199.073 80.9479 198.795 82.0137 198.729 83.186C198.992 82.4974 199.524 82.0383 200.131 82.0383C201 82.0383 201.713 83.0139 201.713 84.2272C201.713 85.4324 201 86.4079 200.131 86.4079C199.606 86.4079 199.147 86.0636 198.86 85.5307C199.024 86.5145 199.328 87.4982 199.803 88.3836C200.336 88.4411 200.885 88.5151 201.394 88.6051C205.197 88.4985 206.075 81.0711 201.754 78.9478C201.287 78.718 200.852 78.5296 200.434 78.3575C201.344 76.8244 202.631 75.9718 204.025 75.1357C205.599 74.2011 206.968 73.332 208.067 71.5285C208.173 71.3399 208.116 71.1104 207.935 71.0038C207.755 70.8889 207.525 70.946 207.411 71.127C206.411 72.7667 205 73.5455 203.541 74.4062C202.065 75.2752 200.483 76.1361 199.45 77.9724C198.311 77.5215 197.384 77.1034 196.679 76.2099C196.648 76.1796 196.589 76.1607 196.564 76.2023C195.851 77.0959 194.925 77.514 193.777 77.9649C192.752 76.1367 191.17 75.2677 189.686 74.3987C188.235 73.5462 186.817 72.7673 185.817 71.1277C185.71 70.9474 185.481 70.89 185.292 70.9966C185.112 71.1031 185.055 71.3405 185.169 71.5294C186.268 73.3248 187.63 74.2011 189.204 75.1357Z" fill="white"/>
<path d="M215.897 107.223C219.414 109.568 223.021 111.462 226.456 115.405C229.497 118.889 230.186 120.783 230.186 121.791C230.186 122.086 230.121 122.299 230.047 122.455C229.588 123.423 227.948 123.562 226.661 123.521C226.046 123.495 225.472 123.463 224.915 123.423C224.341 121.037 222.226 115.938 216.987 111.388C216.93 111.33 216.831 111.33 216.774 111.388C216.717 111.453 216.725 111.544 216.781 111.601C221.208 116.438 223.127 120.988 223.684 123.324C218.552 122.832 215.511 121.545 214.847 119.57C214.827 119.52 214.815 119.479 214.79 119.446C213.757 115.355 211.133 110.248 208.329 107.428C208.272 107.363 208.174 107.363 208.116 107.42C208.059 107.478 208.051 107.576 208.108 107.634C210.281 110.159 212.544 115.086 213.577 119.103C207.829 118.307 206.157 115.569 204.731 112.347C203.583 109.749 203.312 107.429 203.312 105.24C203.312 104.248 203.37 103.28 203.427 102.321C203.476 101.37 203.526 100.411 203.526 99.4272C203.526 98.9271 203.468 97.9515 203.411 97.1153C208.158 102.747 211.839 104.526 215.897 107.223ZM202.608 132.154C198.656 132.457 194.59 132.465 190.679 132.161C190.22 131.284 189.753 130.284 189.319 129.161C193.754 129.661 199.435 129.636 203.96 129.146C203.526 130.269 203.067 131.268 202.608 132.154ZM196.639 138.917C196.164 138.917 194.442 137.941 192.393 135.006C194.975 135.13 198.304 135.121 200.902 134.991C198.853 137.934 197.107 138.917 196.639 138.917ZM169.545 123.324C170.102 120.988 172.021 116.438 176.448 111.601C176.505 111.544 176.513 111.454 176.455 111.388C176.39 111.322 176.308 111.322 176.234 111.38C171.012 115.938 168.889 121.029 168.323 123.423C167.757 123.464 167.183 123.497 166.577 123.514C165.281 123.563 163.642 123.423 163.183 122.456C163.109 122.3 163.052 122.079 163.052 121.792C163.052 120.775 163.74 118.882 166.773 115.397C170.208 111.454 173.816 109.569 177.341 107.224C181.399 104.519 185.072 102.748 189.818 97.1075C189.761 97.9519 189.695 98.9275 189.695 99.4193C189.695 100.411 189.753 101.37 189.81 102.321C189.859 103.281 189.917 104.248 189.917 105.24C189.917 107.429 189.646 109.749 188.498 112.348C187.08 115.57 185.399 118.308 179.661 119.095C180.694 115.086 182.956 110.159 185.121 107.634C185.178 107.568 185.178 107.478 185.113 107.421C185.055 107.363 184.957 107.363 184.9 107.428C182.088 110.248 179.464 115.372 178.44 119.463C178.412 119.504 178.399 119.528 178.39 119.562C177.726 121.546 174.685 122.824 169.545 123.324ZM205.608 123.275C205.412 124.341 205.182 125.341 204.911 126.284C199.509 126.997 193.68 126.997 188.368 126.31C188.105 125.359 187.867 124.351 187.671 123.277C193.188 124.154 199.927 124.095 205.608 123.275ZM187.294 120.537C187.195 119.553 187.138 118.528 187.13 117.454C192.737 118.537 200.361 118.471 206.149 117.462C206.133 118.52 206.075 119.544 205.985 120.52C199.919 121.43 193.245 121.432 187.294 120.537ZM196.574 111.724C198.771 111.724 200.845 111.798 202.722 111.937L203.46 112.035C203.551 112.281 203.649 112.527 203.755 112.773C204.067 113.486 204.403 114.183 204.788 114.856C199.238 115.749 193.869 115.757 188.425 114.882C188.818 114.21 189.155 113.497 189.474 112.775C189.589 112.529 189.679 112.291 189.77 112.054L190.516 111.939C192.368 111.799 194.41 111.724 196.574 111.724ZM227.686 105.83C227.915 105.297 227.981 103.788 227.44 103.264C226.481 102.329 225.103 102.017 225.103 102.017C225.103 102.017 225.39 101.288 224.661 100.484C223.907 99.6564 218.799 96.869 217.635 96.4591C216.176 95.9426 211.782 94.5571 210.396 94.262C209.921 94.1637 209.101 94.0081 208.117 93.8357C207.625 93.3438 207.166 92.9011 206.715 92.4994C209.781 90.0564 211.855 87.0067 211.905 86.0393C211.962 84.9407 211.413 84.6702 211.413 84.6702C211.413 84.6702 212.339 84.2851 212.069 83.5716C211.519 82.096 211.355 78.907 211.355 78.907C211.355 78.907 212.069 78.3577 213.11 78.4068C212.831 77.751 212.29 77.4231 211.79 77.4805C211.306 77.5383 211.019 77.7508 210.699 78.0298C210.372 78.3004 210.47 79.0709 210.47 79.5628C210.47 80.0628 210.527 82.1616 210.257 82.9732C209.814 84.2849 209.814 84.8916 210.314 85.3917C210.167 85.8835 206.264 89.3267 204.428 90.8352C202.887 89.9908 201.091 89.5891 198.263 89.4825V89.4413H196.681C196.525 89.4413 196.394 89.4413 196.246 89.4413H194.967V89.4715C192.139 89.5781 190.344 89.9881 188.803 90.8243C186.974 89.324 183.072 85.8727 182.924 85.3807C183.416 84.8889 183.416 84.2822 182.974 82.9623C182.711 82.1589 182.752 80.0602 182.752 79.56C182.752 79.0682 182.876 78.2975 182.531 78.027C182.211 77.7485 181.933 77.5351 181.441 77.4777C180.949 77.4199 180.391 77.7483 180.129 78.4041C181.17 78.3546 181.875 78.9042 181.875 78.9042C181.875 78.9042 181.711 82.0933 181.17 83.5689C180.9 84.274 181.826 84.6675 181.826 84.6675C181.826 84.6675 181.277 84.9381 181.326 86.0366C181.375 87.0039 183.449 90.0455 186.515 92.4967C186.073 92.8984 185.614 93.3411 185.122 93.833C184.13 93.997 183.318 94.161 182.843 94.2593C181.457 94.5545 177.063 95.9399 175.595 96.4482C174.44 96.8581 169.324 99.6536 168.57 100.482C167.84 101.285 168.135 102.015 168.135 102.015C168.135 102.015 166.758 102.318 165.791 103.261C165.249 103.785 165.315 105.294 165.545 105.819C165.75 106.294 166.299 106.261 166.299 106.261C166.299 106.261 165.938 103.835 167.914 103.556C168.939 103.408 169.742 103.482 169.742 103.482C169.742 103.482 172.595 101.728 173.398 101.359C174.21 100.99 175.743 98.5798 175.743 98.5798C175.743 98.5798 176.948 99.1127 178.047 99.1127C178.801 99.1127 180.973 97.6534 182.293 96.7188L181.957 97.0552L185.499 97.2354C185.695 97.243 185.941 97.2506 186.196 97.2506C186.556 97.2506 186.958 97.2355 187.319 97.2241C183.433 101.356 179.899 103.717 176.464 106.004C172.882 108.39 169.504 110.644 165.971 114.694C162.642 118.523 161.413 121.212 162.216 122.909C162.79 124.098 164.266 124.663 166.61 124.573C173.431 124.336 177.588 123.015 179.022 120.671C178.866 121.4 178.776 122.22 178.768 123.147C176.915 126.196 175.981 128.5 175.431 130.599C175.087 131.894 175.404 132.328 176.251 132.952C175.595 134.378 175.727 135.854 174.817 136.354C172.628 137.559 173.62 138.329 173.62 138.329L175.702 138.001L177.456 133.501C177.456 133.501 177.834 133.566 178.137 133.362C179.375 132.501 178.449 129.394 180.637 124.827C181.523 125.04 181.629 124.491 181.851 122.409C181.933 121.605 182.055 120.622 182.22 119.646C183.687 119.22 184.851 118.646 185.778 117.941C185.95 125.245 188.196 130.623 190.073 133.87C192.246 137.633 194.943 140.264 196.64 140.264C198.329 140.264 201.026 137.633 203.215 133.87C205.084 130.632 207.314 125.27 207.494 117.982C208.421 118.662 209.568 119.228 211.011 119.646C211.167 120.622 211.298 121.605 211.389 122.417C211.61 124.499 211.716 125.04 212.594 124.827C214.791 129.394 213.856 132.509 215.094 133.362C215.398 133.575 215.783 133.501 215.783 133.501L217.529 138.001L219.619 138.329C219.619 138.329 220.603 137.559 218.414 136.362C217.504 135.854 217.644 134.378 216.988 132.952C217.824 132.328 218.144 131.902 217.799 130.599C217.242 128.5 216.316 126.196 214.463 123.147C214.455 122.22 214.364 121.392 214.209 120.663C215.643 123.015 219.8 124.335 226.621 124.581C228.974 124.663 230.441 124.106 231.015 122.909C231.826 121.212 230.589 118.523 227.26 114.694C223.735 110.644 220.349 108.398 216.775 106.012C213.332 103.717 209.798 101.364 205.912 97.2241C206.527 97.2393 207.24 97.2544 207.74 97.2317L211.274 97.0514L210.954 96.7233C212.282 97.6579 214.438 99.109 215.184 99.109C216.283 99.109 217.488 98.5761 217.488 98.5761C217.488 98.5761 219.029 100.995 219.833 101.355C220.636 101.724 223.489 103.479 223.489 103.479C223.489 103.479 224.301 103.405 225.325 103.552C227.301 103.831 226.932 106.258 226.932 106.258C226.932 106.258 227.482 106.288 227.687 105.823" fill="white"/>
<path d="M196.64 153.452C172.414 153.452 152.714 133.744 152.714 109.519C152.714 85.3013 172.414 65.593 196.64 65.593C220.857 65.593 240.565 85.3013 240.565 109.519C240.565 133.744 220.857 153.452 196.64 153.452ZM196.64 64.0354C171.562 64.0354 151.157 84.4405 151.157 109.519C151.157 134.597 171.562 155.002 196.64 155.002C221.718 155.002 242.123 134.597 242.123 109.519C242.123 84.4405 221.718 64.0354 196.64 64.0354Z" fill="white"/>
<path d="M196.631 204.207L201.37 208.953L196.631 213.692L191.885 208.953L196.631 204.207ZM195.836 214.708C196.049 214.914 196.328 215.037 196.631 215.037C196.927 215.037 197.205 214.913 197.418 214.708L202.387 209.74C202.813 209.298 202.813 208.601 202.379 208.158L197.419 203.198C197.214 203.002 196.927 202.879 196.632 202.879C196.32 202.879 196.041 203.002 195.836 203.198L190.877 208.158C190.442 208.601 190.442 209.306 190.877 209.74L195.836 214.708Z" fill="white"/>
<path d="M196.64 157.469C170.201 157.469 148.697 135.957 148.697 109.518C148.697 83.0878 170.201 61.5841 196.64 61.5841C223.07 61.5841 244.582 83.0878 244.582 109.518C244.582 135.957 223.07 157.469 196.64 157.469ZM164.848 69.2165C163.323 70.4217 161.863 71.717 160.486 73.0861C157.109 70.4381 155.067 68.8805 155.051 68.8559C154.829 68.6676 154.543 68.5606 154.247 68.5606C153.862 68.5606 153.485 68.7409 153.223 69.0443L150.517 72.1597C150.025 72.7089 150.066 73.5369 150.591 73.996C150.606 74.0225 152.436 75.8161 155.518 78.7919C154.321 80.3823 153.223 82.0465 152.222 83.7681C148.287 82.1039 145.91 81.1284 145.877 81.1202C145.721 81.0382 145.541 81.0053 145.361 81.0053C144.86 81.0053 144.393 81.3088 144.164 81.776L142.368 85.4815C142.04 86.1455 142.286 86.9407 142.909 87.2441C142.935 87.2592 145.164 88.5066 148.91 90.5643C148.189 92.3761 147.574 94.2289 147.058 96.1308C142.827 95.5406 140.294 95.2209 140.27 95.2127C140.196 95.2051 140.122 95.1975 140.04 95.1975C139.425 95.1975 138.901 95.6566 138.778 96.2961L137.999 100.346C137.859 101.067 138.302 101.764 138.983 101.895C139.008 101.903 141.483 102.535 145.631 103.56C145.41 105.453 145.295 107.372 145.287 109.323C141.048 109.839 138.515 110.175 138.482 110.175C137.794 110.225 137.269 110.864 137.327 111.594L137.613 115.709C137.654 116.414 138.212 116.964 138.868 116.964C138.901 116.964 138.933 116.964 138.958 116.956C138.984 116.956 141.549 116.941 145.812 116.866C146.099 118.874 146.5 120.834 147.017 122.76C143.065 124.359 140.704 125.342 140.68 125.351C140.024 125.58 139.688 126.343 139.934 127.031L141.286 130.925C141.475 131.475 141.967 131.844 142.524 131.844C142.655 131.844 142.787 131.817 142.918 131.778C142.943 131.771 145.402 131.081 149.501 129.893C150.271 131.672 151.14 133.401 152.1 135.066C148.689 137.632 146.664 139.189 146.64 139.206C146.369 139.386 146.189 139.673 146.131 139.993C146.058 140.353 146.131 140.722 146.344 141.026L148.656 144.444C148.911 144.821 149.329 145.051 149.771 145.051C150.009 145.051 150.247 144.986 150.444 144.846C150.469 144.831 152.682 143.534 156.338 141.321C157.551 142.846 158.838 144.305 160.207 145.674C157.568 149.044 156.002 151.077 155.985 151.093C155.526 151.642 155.608 152.438 156.174 152.929L159.281 155.635C159.543 155.864 159.863 155.987 160.191 155.987C160.552 155.987 160.888 155.831 161.126 155.561C161.141 155.546 162.937 153.716 165.905 150.642C167.512 151.847 169.193 152.954 170.939 153.962C169.266 157.897 168.299 160.258 168.299 160.283C168.151 160.586 168.127 160.914 168.241 161.226C168.364 161.562 168.61 161.841 168.946 162.013L172.66 163.808C172.849 163.898 173.045 163.948 173.259 163.948C173.759 163.948 174.21 163.677 174.406 163.251C174.422 163.224 175.677 161.004 177.727 157.266C179.522 157.987 181.367 158.594 183.252 159.102C182.662 163.324 182.334 165.849 182.334 165.874C182.268 166.194 182.342 166.53 182.531 166.8C182.727 167.096 183.047 167.301 183.408 167.366L187.458 168.145C187.548 168.171 187.638 168.175 187.72 168.175C188.352 168.175 188.901 167.749 189.008 167.167C189.015 167.14 189.655 164.658 190.672 160.526C191.27 160.6 191.869 160.658 192.475 160.707V170.38C192.475 172.332 185.835 172.971 181.146 173.496L179.408 173.692C176.669 174.012 174.751 174.865 173.718 176.242C172.775 177.504 172.947 178.726 172.964 178.857H220.291C220.31 178.726 220.488 177.504 219.529 176.242C218.496 174.865 216.586 174.012 213.848 173.692L212.102 173.496C207.412 172.971 200.78 172.332 200.78 170.38V169.7L198.796 169.832C198.738 169.839 198.681 169.839 198.624 169.839C197.411 169.839 196.394 168.929 196.288 167.773C196.256 167.503 195.919 164.961 195.427 160.862C195.763 160.87 196.107 160.87 196.452 160.87C196.968 165.1 197.296 167.641 197.296 167.666C197.354 168.314 197.935 168.83 198.624 168.83C198.656 168.83 198.69 168.823 198.723 168.823L202.838 168.536C203.207 168.509 203.551 168.339 203.781 168.077C204.002 167.823 204.109 167.511 204.084 167.191C204.084 167.165 204.068 164.601 203.994 160.346C205.986 160.059 207.937 159.657 209.847 159.149C211.438 163.1 212.413 165.453 212.43 165.486C212.602 165.978 213.086 166.306 213.643 166.306C213.799 166.306 213.955 166.279 214.11 166.232L218.005 164.879C218.349 164.764 218.628 164.519 218.792 164.191C218.939 163.896 218.964 163.551 218.857 163.248C218.849 163.221 218.168 160.764 216.98 156.673C218.767 155.894 220.505 155.025 222.177 154.066C224.743 157.476 226.301 159.501 226.317 159.518C226.539 159.854 226.932 160.059 227.35 160.059C227.629 160.059 227.908 159.977 228.137 159.822L231.548 157.501C231.859 157.305 232.064 156.993 232.13 156.649C232.203 156.312 232.137 155.985 231.958 155.714C231.939 155.684 230.638 153.484 228.433 149.828C229.957 148.606 231.425 147.319 232.802 145.95C236.171 148.574 238.213 150.14 238.237 150.148C238.451 150.344 238.738 150.443 239.033 150.443C239.426 150.443 239.803 150.279 240.066 149.967L242.771 146.86C243.008 146.573 243.14 146.213 243.107 145.852C243.081 145.524 242.935 145.229 242.697 145.024C242.671 144.998 240.853 143.204 237.77 140.236C238.959 138.646 240.066 136.982 241.066 135.252C245.001 136.924 247.362 137.9 247.387 137.908C247.551 137.99 247.723 138.031 247.911 138.031C248.403 138.031 248.879 137.72 249.117 137.252L250.904 133.547C251.224 132.866 250.986 132.096 250.354 131.784C250.328 131.769 248.108 130.514 244.378 128.464C245.091 126.652 245.714 124.791 246.231 122.889C250.453 123.48 252.978 123.808 253.002 123.816C253.084 123.823 253.158 123.831 253.232 123.831C253.847 123.831 254.38 123.372 254.503 122.732L255.273 118.682C255.339 118.322 255.266 117.945 255.068 117.649C254.88 117.379 254.601 117.19 254.29 117.133C254.259 117.125 251.789 116.485 247.649 115.461C247.871 113.567 247.985 111.64 247.993 109.689C252.231 109.173 254.756 108.836 254.789 108.828C255.478 108.787 256.003 108.148 255.953 107.402L255.667 103.303C255.617 102.598 255.06 102.048 254.396 102.048C254.369 102.048 254.339 102.048 254.314 102.048C254.284 102.048 251.731 102.064 247.468 102.147C247.173 100.146 246.772 98.1871 246.255 96.2687C250.207 94.6537 252.568 93.6699 252.592 93.6617C253.24 93.4323 253.576 92.6697 253.346 91.9729L251.985 88.087C251.797 87.5377 251.305 87.1688 250.756 87.1688C250.616 87.1688 250.485 87.1839 250.362 87.2342C250.332 87.2417 247.87 87.931 243.763 89.1197C242.992 87.3489 242.131 85.6192 241.172 83.955C244.583 81.389 246.608 79.8149 246.632 79.8067C246.903 79.6185 247.083 79.3394 247.149 79.0115C247.214 78.6592 247.141 78.29 246.927 77.9867L244.615 74.5682C244.361 74.191 243.943 73.9615 243.501 73.9615C243.255 73.9615 243.017 74.0352 242.82 74.1663C242.794 74.1814 240.59 75.4862 236.926 77.7078C235.721 76.183 234.433 74.732 233.064 73.3547C235.704 69.9771 237.262 67.9357 237.278 67.9111C237.491 67.665 237.598 67.3536 237.573 67.0257C237.547 66.6652 237.377 66.3289 237.098 66.0747L233.983 63.3775C233.729 63.156 233.409 63.0332 233.081 63.0332C232.72 63.0332 232.376 63.1806 232.146 63.4431C232.12 63.4695 230.326 65.2959 227.35 68.3866C225.752 67.1897 224.071 66.0747 222.333 65.0663C223.997 61.123 224.965 58.7538 224.973 58.7292C225.121 58.434 225.137 58.0979 225.03 57.7864C224.915 57.4501 224.653 57.1634 224.325 57.0076L220.611 55.2122C220.414 55.1136 220.209 55.0644 219.996 55.0644C219.496 55.0644 219.062 55.335 218.857 55.7613C218.838 55.7877 217.586 58.0157 215.528 61.7622C213.741 61.0572 211.896 60.4424 210.019 59.934C210.609 55.7038 210.937 53.1625 210.937 53.1379C211.003 52.8015 210.918 52.4656 210.716 52.1869C210.511 51.9 210.208 51.7114 209.855 51.6458L205.806 50.867C205.724 50.8519 205.634 50.8405 205.543 50.8405C204.912 50.8405 204.371 51.2668 204.256 51.8489C204.248 51.8753 203.608 54.3493 202.592 58.514C201.985 58.4403 201.387 58.3744 200.78 58.3253V48.6515C200.78 46.7086 207.412 46.0609 212.102 45.5444L213.848 45.3479C216.586 45.0281 218.496 44.1756 219.529 42.7983C220.488 41.5276 220.308 40.3143 220.292 40.1831H172.964C172.948 40.3146 172.775 41.5276 173.718 42.7983C174.751 44.1756 176.67 45.0282 179.408 45.3479L181.146 45.5444C185.835 46.0609 192.476 46.7086 192.476 48.6515V49.3156L194.468 49.1761C194.525 49.1685 194.574 49.1685 194.632 49.1685C195.853 49.1685 196.878 50.0786 196.968 51.2427C197.009 51.5545 197.353 54.0956 197.853 58.1782C197.509 58.1707 197.173 58.1631 196.829 58.1631C196.304 53.9247 195.96 51.3833 195.96 51.3587C195.91 50.7028 195.337 50.1864 194.632 50.1864C194.6 50.1864 194.574 50.1864 194.533 50.1939L190.426 50.4808C190.057 50.5072 189.712 50.6773 189.475 50.9481C189.262 51.2021 189.155 51.5138 189.179 51.8253C189.179 51.8556 189.207 54.4077 189.286 58.6953C187.294 58.9739 185.351 59.3758 183.441 59.8841C181.842 55.9244 180.85 53.5715 180.834 53.5469C180.67 53.0468 180.17 52.7026 179.612 52.7026C179.465 52.7026 179.301 52.7328 179.153 52.7846L175.267 54.1291C174.562 54.3747 174.185 55.1128 174.415 55.7686C174.423 55.7951 175.103 58.2609 176.3 62.3682C174.513 63.1388 172.783 64.0077 171.111 64.9669C168.537 61.5565 166.971 59.5234 166.946 59.4987C166.725 59.1627 166.34 58.9659 165.913 58.9659C165.635 58.9659 165.364 59.0479 165.126 59.2036L161.724 61.5155C161.412 61.7203 161.199 62.032 161.134 62.3845C161.068 62.7125 161.134 63.0404 161.314 63.3109C161.33 63.3374 162.634 65.5438 164.848 69.2165Z" fill="white"/>
<path d="M150.37 216.324C150.083 216.414 149.796 216.504 149.476 216.586H149.46L149.453 216.567C148.936 213.919 148.493 211.558 148.1 209.369V209.354L148.115 209.339C148.492 209.216 148.804 209.117 149.075 209.044C149.059 208.945 148.976 208.511 148.96 208.322C147.648 208.757 146.451 209.167 145.205 209.626V209.641C145.254 209.879 145.295 210.116 145.32 210.346L146.32 210.002L146.328 210.028C146.713 212.094 147.123 214.209 147.713 217.226V217.245H147.698C147.436 217.344 147.14 217.45 146.788 217.581L146.78 217.589V217.581C146.806 217.696 146.878 218.073 146.911 218.262C148.288 217.762 149.485 217.352 150.584 217.032C150.535 216.795 150.485 216.548 150.461 216.302L150.371 216.329" fill="white"/>
<path d="M154.805 214.635C154.714 214.642 154.624 214.654 154.542 214.654C153.78 214.654 153.558 213.957 153.435 213.203C153.37 212.809 153.313 212.399 153.255 212.006L153.222 211.825C153.132 211.227 153.034 210.62 152.952 210.096V210.077C152.911 209.724 152.779 208.65 153.894 208.437C154.009 208.411 154.116 208.407 154.214 208.407C155.001 208.407 155.108 209.112 155.198 209.686L155.206 209.759C155.353 210.76 155.509 211.793 155.665 212.809C155.763 213.449 155.903 214.422 154.805 214.635ZM157.338 210.47L157.264 209.978C157.059 208.617 156.698 207.798 156.075 207.306C155.633 206.945 155.083 206.756 154.436 206.756C154.173 206.756 153.886 206.787 153.608 206.847C152.657 207.027 151.894 207.503 151.46 208.191C151.017 208.913 150.886 209.724 151.05 210.839C151.115 211.208 151.173 211.577 151.23 211.929L151.435 213.241C151.509 213.725 151.698 214.446 151.952 214.946C152.485 215.996 153.493 216.217 154.239 216.217C154.485 216.217 154.739 216.198 154.977 216.143C156.043 215.946 156.78 215.545 157.223 214.897C157.674 214.249 157.772 213.462 157.584 212.167C157.494 211.552 157.403 210.946 157.338 210.47Z" fill="white"/>
<path d="M134.892 213.864C135.121 214.938 135.982 218.512 136.064 218.816L136.072 218.823L136.057 218.842H136.049C136.023 218.842 135.926 218.743 133.458 216.268C132.999 215.809 132.581 215.391 132.294 215.104C132.105 215.194 131.917 215.284 131.728 215.366C131.359 215.538 130.982 215.718 130.613 215.891C131.335 218.908 131.974 221.556 132.646 224.236C133.155 223.982 133.655 223.736 134.163 223.507C134.073 223.122 132.835 218.17 132.819 218.071L132.811 218.045H132.836C132.852 218.045 132.869 218.053 134.738 219.963C135.722 220.955 136.698 221.955 136.927 222.185C137.321 222.005 137.821 221.775 138.321 221.57C137.673 218.693 137.083 215.938 136.517 213.151C136.345 213.224 135.212 213.741 134.892 213.864Z" fill="white"/>
<path d="M144.426 215.11C144.065 214.782 143.475 214.561 142.844 214.528L141.704 214.438C141.13 214.389 140.516 214.282 140.434 213.659C140.418 213.544 140.376 212.979 140.975 212.626C141.098 212.561 141.237 212.511 141.368 212.471C141.508 212.429 141.655 212.405 141.803 212.405C142.278 212.405 142.713 212.627 142.967 213.012L144.221 211.749C143.614 211.167 142.967 210.88 142.221 210.88C141.917 210.88 141.581 210.93 141.229 211.028C140.901 211.126 140.606 211.25 140.335 211.397C140.31 211.416 140.286 211.427 140.262 211.438L140.229 211.465C139.188 212.08 138.655 213.088 138.81 214.203C139.04 215.867 140.245 216.129 141.565 216.261C142.959 216.392 143.328 216.465 143.418 217.13C143.508 217.777 143.057 218.138 142.786 218.302L142.721 218.343C142.59 218.408 142.467 218.466 142.36 218.491C142.196 218.54 142.024 218.565 141.877 218.565C141.336 218.565 140.885 218.286 140.589 217.786L139.302 219.089C139.909 219.819 140.508 220.139 141.295 220.139C141.672 220.139 142.114 220.065 142.639 219.909C142.885 219.843 143.188 219.712 143.467 219.557L143.557 219.507C143.828 219.336 144.033 219.179 144.197 219.024C145.287 217.966 145.131 216.835 145.074 216.466C144.984 215.704 144.582 215.258 144.426 215.11Z" fill="white"/>
<path d="M104.977 227.235C104.476 227.375 103.337 227.653 103.165 227.686C103.673 229.318 104.19 230.982 104.698 232.58L104.928 233.326C105.132 233.958 105.141 234.45 104.953 234.777C104.757 235.122 104.404 235.212 104.24 235.253H104.232C104.109 235.279 104.003 235.283 103.896 235.283C103.002 235.283 102.683 234.308 102.551 233.873C102.002 232.184 101.363 230.2 100.789 228.274C100.199 228.389 99.5674 228.52 98.9033 228.61C99.5346 230.619 100.174 232.619 100.666 234.136C100.928 234.98 101.297 235.923 102.338 236.521C102.715 236.743 103.207 236.858 103.773 236.858C104.109 236.858 104.478 236.817 104.831 236.734C105.659 236.53 106.265 236.128 106.642 235.538C107.249 234.587 106.855 233.332 106.7 232.849C106.175 231.16 105.559 229.178 104.977 227.235Z" fill="white"/>
<path d="M110.838 226.842L110.854 226.834C111.083 226.735 112.346 226.244 112.756 226.088L112.371 224.596C110.321 225.44 108.468 226.129 106.714 226.703C106.755 226.851 107.042 227.826 107.124 228.195C107.468 228.08 107.771 227.965 108.067 227.867C108.427 227.744 108.772 227.63 109.108 227.515L109.123 227.507L109.131 227.534C109.771 229.804 110.451 232.141 111.131 234.477C111.558 234.313 112.648 233.895 112.796 233.846C112.074 231.329 111.435 229.042 110.836 226.861L110.838 226.842Z" fill="white"/>
<path d="M122.127 221.792L122.119 221.761C122.029 221.433 121.799 220.573 121.758 220.31C119.348 221.474 117.651 222.27 116.077 222.958C116.167 223.295 116.43 224.278 116.471 224.442L116.758 224.319C117.307 224.073 117.873 223.811 118.455 223.557H118.47L118.478 223.576C119.027 225.551 119.618 227.666 120.405 230.413C120.913 230.175 121.929 229.691 122.069 229.626C121.454 227.42 120.798 225.076 120.191 222.723V222.704H120.207C120.215 222.696 121.701 221.98 122.127 221.792Z" fill="white"/>
<path d="M130.612 223.603C129.432 224.177 126.849 225.456 126.849 225.456L126.834 225.464L126.621 224.636C126.522 224.251 126.416 223.849 126.334 223.431V223.404H126.349C126.669 223.24 128.251 222.453 128.743 222.232C128.71 222.092 128.481 221.133 128.407 220.748C127.94 220.977 125.956 221.92 125.939 221.937L125.914 221.956L125.84 221.669C125.775 221.398 125.709 221.128 125.643 220.865L125.471 220.095L125.725 219.971C126.824 219.422 127.963 218.857 129.095 218.34L128.947 217.725C128.873 217.438 128.808 217.135 128.767 216.84C127.857 217.283 126.938 217.733 126.053 218.16L125.971 218.208C125.151 218.602 124.29 219.028 123.43 219.43C124.274 222.758 124.963 225.415 125.594 227.8L127.135 227.021C128.242 226.456 129.619 225.751 130.947 225.12L130.857 224.71C130.759 224.316 130.67 223.956 130.612 223.603Z" fill="white"/>
<path d="M258.24 213.79C256.977 213.224 254.346 212.142 254.1 212.044L253.87 212.692C254.157 212.79 254.952 213.134 254.96 213.142L254.979 213.15V213.158L252.93 220.175L252.911 220.168L251.903 219.807L251.689 220.52C252.952 220.979 254.288 221.512 255.789 222.16L256.002 221.496C255.756 221.381 254.919 221.012 254.911 221.004L254.892 220.996L254.9 220.977C255.687 217.993 256.31 215.886 256.95 213.952L256.957 213.933L256.976 213.94C257.197 214.022 257.927 214.309 258.05 214.367L258.239 213.785" fill="white"/>
<path d="M274.825 221.923C274.03 222.972 271.029 227.006 271.005 227.055L270.964 227.104V227.038C270.964 226.981 271.111 221.841 271.185 220.144C271.054 220.078 269.824 219.422 269.316 219.111C269.308 219.644 269.217 226.227 269.127 228.842C269.267 228.907 270.587 229.596 271.111 229.867L276.661 222.792C276.235 222.611 274.981 221.996 274.825 221.923Z" fill="white"/>
<path d="M279.26 227.399L280.17 225.046H280.189L281.156 225.464L281.443 224.792L277.533 223.185L277.229 223.874L278.303 224.325L278.296 224.344L275.68 231.37L275.661 231.362L274.702 230.985C274.661 231.067 274.538 231.419 274.457 231.575C275.621 232.108 276.9 232.657 278.26 233.215L278.531 232.567L277.506 232.108L277.514 232.089C278.071 230.597 278.67 228.998 279.26 227.399Z" fill="white"/>
<path d="M262.388 215.684C261.888 215.471 261.421 215.356 261.003 215.34H260.921C259.831 215.34 259.052 216.069 258.666 217.439L257.953 219.98C257.47 221.718 257.798 222.382 258.01 222.825C258.379 223.538 258.969 224.046 259.912 224.456C260.216 224.579 260.666 224.718 261.142 224.735L261.241 224.742C261.454 224.742 261.659 224.701 261.847 224.652C262.642 224.398 262.921 223.857 263.118 223.504L263.125 223.478C263.257 223.199 263.297 223.109 263.469 222.592L261.74 221.805C261.494 222.658 261.158 223.043 260.682 223.043C260.551 223.036 260.411 223.002 260.264 222.945C259.231 222.502 259.477 221.6 259.608 221.108L260.526 217.862C260.592 217.632 260.723 217.222 261.108 217.058C261.207 217.017 261.322 216.993 261.453 216.993H261.501C261.649 217 261.788 217.042 261.92 217.083C262.379 217.28 262.846 217.747 262.493 218.83L264.223 219.616C264.412 218.829 264.56 217.837 264.018 216.993C263.518 216.206 262.716 215.815 262.388 215.684Z" fill="white"/>
<path d="M284.54 227.522H284.597C284.72 227.53 284.851 227.552 284.982 227.587C285.695 227.8 286.064 228.44 286.113 228.965L287.777 228.497C287.425 227.276 286.703 226.538 285.523 226.202C285.179 226.103 284.859 226.054 284.547 226.038L284.441 226.03C283.277 226.03 282.35 226.686 281.973 227.76C281.391 229.416 282.317 230.31 283.391 231.154C284.539 232.039 284.826 232.302 284.597 232.949C284.425 233.441 284.047 233.687 283.473 233.687C283.342 233.687 283.195 233.661 283.063 233.622C282.309 233.4 281.875 232.827 281.858 232.007L280.137 232.499C280.432 234.138 281.276 234.688 282.629 235.073C282.891 235.147 283.211 235.196 283.506 235.205C283.555 235.205 283.613 235.205 283.662 235.205C283.681 235.205 283.692 235.205 283.711 235.205C283.956 235.205 284.186 235.178 284.391 235.123C285.818 234.754 286.219 233.622 286.342 233.262C286.629 232.442 286.433 231.786 286.391 231.663C286.203 231.089 285.711 230.564 285.309 230.269L284.366 229.572C283.858 229.179 283.407 228.769 283.62 228.162C283.694 227.958 283.933 227.522 284.54 227.522Z" fill="white"/>
<path d="M250.091 214.135L249.19 213.438C248.739 213.086 248.28 212.667 248.493 212.061C248.512 211.986 248.714 211.405 249.411 211.405C249.534 211.412 249.673 211.435 249.804 211.478C250.403 211.659 250.837 212.192 250.878 212.831L252.485 212.364C252.157 211.15 251.477 210.437 250.337 210.093C250.017 210.003 249.714 209.953 249.427 209.945H249.312C248.165 209.938 247.263 210.585 246.902 211.667C246.336 213.306 247.222 214.192 248.263 215.02C249.353 215.897 249.624 216.159 249.411 216.815C249.189 217.446 248.648 217.537 248.353 217.537H248.279C248.14 217.529 248.017 217.51 247.911 217.48C247.197 217.266 246.787 216.684 246.763 215.881L245.099 216.373C245.353 217.807 245.984 218.472 247.501 218.922C247.746 218.996 248.066 219.037 248.353 219.046H248.452C248.755 219.046 248.993 219.015 249.19 218.955C250.575 218.595 250.952 217.471 251.075 217.103C251.354 216.324 251.198 215.692 251.141 215.52C251.001 215.037 250.608 214.52 250.091 214.135Z" fill="white"/>
<path d="M303.69 222.505C303.379 223.554 302.748 224.259 301.772 224.686C301.051 224.989 300.149 225.136 299.083 225.136C294.377 225.136 286.294 222.316 273.653 216.241L273.538 216.193L275.153 209.192L275.3 209.222C289.589 211.345 300.534 215.42 303.19 219.576C303.821 220.576 303.986 221.529 303.69 222.505ZM299.149 237.524C298.845 238.549 298.165 239.27 297.075 239.729C296.197 240.098 295.033 240.287 293.64 240.287C289.393 240.287 280.777 238.45 263.823 229.678C253.444 224.308 239.475 217.897 231.859 217.897C230.514 217.897 229.399 218.102 228.547 218.504C228.366 218.586 228.202 218.684 228.046 218.783C228.547 214.495 229.12 209.396 229.424 206.346C229.539 205.248 230.047 204.452 231.006 203.928C231.629 203.591 232.81 203.174 234.876 203.174C239.262 203.174 248.165 205.034 265.7 213.847C278.752 220.414 291.836 226.497 299.058 226.497C300.346 226.497 301.444 226.309 302.313 225.931C302.453 225.882 302.592 225.808 302.723 225.735L299.149 237.524ZM228.85 231.621C231.17 230.99 233.252 230.277 235.064 229.506C238.114 230.801 240.77 232.179 241.131 234.753C241.131 234.868 241.131 234.983 241.131 235.097V235.138H241.157C241.165 235.212 241.176 235.285 241.176 235.367C241.176 235.941 241.094 236.507 240.93 237.056C236.856 235.277 232.831 233.465 228.854 231.621L228.85 231.621ZM235.507 242.943C232.277 244.861 227.76 246.468 222.111 247.755C223.349 243.484 222.092 239.918 216.626 234.712C216.43 234.515 216.249 234.335 216.069 234.146C218.906 233.769 221.578 233.31 224.062 232.785C228.981 235.302 234.015 237.753 239.138 240.106C238.229 241.106 237.023 242.049 235.507 242.943ZM218.537 252.371L218.381 252.657L218.249 252.346C217.208 249.698 215.224 247.722 212.175 246.329L211.904 246.205L212.158 246.041C213.347 245.353 214.011 244.557 214.175 243.615C214.585 241.303 211.847 238.966 208.682 236.269C207.764 235.474 206.805 234.662 205.903 233.818V233.788H205.862C203.46 231.533 201.451 229.131 201.558 226.704C201.632 225.13 202.566 223.63 204.411 222.13C207.157 223.704 209.936 225.262 212.765 226.803C212.396 227.41 212.142 228.065 212.06 228.787C211.822 230.886 213.011 233.148 215.691 235.698C222.57 242.256 222.455 245.46 218.537 252.371ZM196.648 250.493C191.04 250.493 184.883 250.034 179.219 249.222C180.776 247.944 182.522 247.288 183.637 246.87L185.343 246.23L183.637 245.591C181.834 244.918 180.842 244.181 180.711 243.385C180.432 241.836 183.014 239.639 185.744 237.302L185.752 237.295C186.547 236.614 187.359 235.918 188.146 235.196C191.048 235.368 193.885 235.458 196.582 235.467H196.672C199.476 235.459 202.403 235.36 205.37 235.18C206.182 235.918 207.026 236.639 207.838 237.336L207.879 237.377C210.568 239.673 213.101 241.853 212.831 243.386C212.691 244.182 211.699 244.928 209.904 245.592L208.191 246.231L209.904 246.871C211.011 247.28 212.732 247.936 214.29 249.191C208.568 250.027 202.337 250.493 196.648 250.493ZM175.283 252.338L175.16 252.657L175.005 252.371C171.086 245.46 170.971 242.254 177.849 235.696C180.53 233.146 181.719 230.883 181.473 228.785C181.391 228.022 181.112 227.325 180.702 226.694C183.514 225.153 186.277 223.603 189.015 222.046C190.925 223.571 191.909 225.104 191.975 226.702C192.13 230.047 188.261 233.351 184.85 236.27C181.686 238.967 178.956 241.303 179.366 243.615C179.538 244.558 180.194 245.353 181.383 246.042L181.637 246.206L181.366 246.329C178.316 247.723 176.325 249.698 175.283 252.338ZM171.447 247.812C162.945 245.919 157.051 243.254 154.157 240.098C159.273 237.745 164.298 235.302 169.217 232.785C171.758 233.326 174.513 233.785 177.44 234.179C177.268 234.359 177.095 234.531 176.907 234.712C171.414 239.942 170.176 243.525 171.447 247.812ZM152.099 235.368C152.099 232.392 154.919 230.9 158.215 229.514C160.019 230.277 162.101 230.99 164.413 231.621C160.453 233.466 156.428 235.277 152.353 237.056C152.189 236.499 152.099 235.941 152.099 235.368ZM129.448 229.678C112.494 238.45 103.878 240.287 99.6314 240.287C98.2459 240.287 97.09 240.098 96.1964 239.729C95.1142 239.27 94.4338 238.549 94.1223 237.524L90.5643 225.743C90.6955 225.808 90.8266 225.883 90.966 225.932C91.835 226.309 92.9335 226.497 94.2206 226.497C101.435 226.497 114.519 220.414 127.579 213.848C145.106 205.035 154.018 203.174 158.404 203.174C160.47 203.174 161.642 203.592 162.257 203.928C163.224 204.453 163.741 205.24 163.847 206.346C164.175 209.642 164.814 215.25 165.224 218.783C165.069 218.685 164.905 218.586 164.724 218.504C163.88 218.103 162.757 217.898 161.42 217.898C153.804 217.898 139.835 224.308 129.448 229.678ZM89.5887 222.513C89.2854 221.529 89.4492 220.578 90.0806 219.578C92.7368 215.422 103.681 211.347 117.979 209.224L118.118 209.194L119.733 216.195L119.627 216.244C106.977 222.319 98.902 225.139 94.1963 225.139C93.1223 225.139 92.2205 224.991 91.5073 224.688C90.5317 224.262 89.9003 223.554 89.5887 222.513ZM165.536 221.464C165.569 221.759 165.601 222.038 165.61 222.128L165.618 222.169C165.732 224.751 163.134 226.022 158.977 227.719C156.436 228.76 153.673 229.9 152.083 231.769C152.057 228.293 151.96 224.612 151.714 221.308C155.772 219.955 159.051 219.242 161.404 219.242C162.535 219.242 163.453 219.406 164.142 219.734C164.921 220.103 165.363 220.652 165.536 221.456L165.536 221.464ZM179.506 227.35C179.842 227.842 180.055 228.375 180.129 228.94C180.26 230.113 179.719 231.457 178.538 232.949C175.931 232.621 173.455 232.228 171.135 231.785C173.964 230.318 176.751 228.85 179.506 227.35ZM175.079 222.193L175.047 222.174C173.35 221.174 171.751 220.231 171.103 219.223C169.841 217.305 169.841 215.567 171.096 214.452C171.801 213.829 172.842 213.476 173.948 213.476C175.178 213.476 176.375 213.919 177.326 214.722C180.318 217.272 183.122 218.846 186.754 220.518C184.139 221.912 181.491 223.289 178.81 224.658C177.679 223.74 176.341 222.947 175.079 222.193ZM182.695 210.306C183.629 210.306 184.523 210.438 185.343 210.683C185.646 210.88 185.933 211.06 186.236 211.257V214.2C186.236 216.504 188.712 217.34 192.065 217.635C190.802 218.332 189.532 219.029 188.253 219.718L188.237 219.71C184.253 217.923 181.334 216.357 178.211 213.693C177.35 212.963 176.317 212.471 175.21 212.258C177.448 211.241 180.112 210.306 182.695 210.306ZM158.477 198.009C156.034 198.009 153.616 197.542 151.279 196.615C149.279 195.828 147.328 194.705 145.475 193.287C141.77 190.434 139.368 187.114 138.515 185.81L138.433 185.679L138.572 185.728C139.827 186.105 141.622 186.195 143.704 186.285C146.795 186.425 150.296 186.572 153.108 187.785C155.748 188.925 158.092 190.507 160.002 192.048C160.47 192.442 160.937 192.835 161.404 193.229C163.027 194.664 164.2 195.934 164.765 196.582C160.289 196.254 152.378 193.344 149.755 192.294C152.567 194.172 158.412 196.426 163.232 197.435C161.634 197.812 160.043 198.009 158.477 198.009ZM151.214 171.136C151.001 169.07 150.804 167.299 150.345 166.069L150.287 165.913L150.427 166.004C152.165 167.004 156.575 169.824 159.896 174.481C161.609 176.874 162.781 179.408 163.388 182.031C164.019 184.745 164.052 187.565 163.478 190.442C161.962 185.359 158.051 178.252 157.051 176.981C158.166 179.26 161.634 187.056 162.503 191.278C160.658 189.827 156.034 185.827 153.313 180.449C151.919 177.702 151.55 174.218 151.214 171.136ZM181.006 198.484C179.227 197.788 177.374 197.074 176.038 196C174.57 194.828 173.759 193.59 173.627 192.319C173.472 190.844 174.275 189.786 174.324 189.737C175.021 188.983 175.833 188.63 176.8 188.63C178.202 188.63 179.842 189.36 181.981 190.393C182.957 190.86 184.055 191.385 185.17 191.811C187.089 192.533 188.728 193.098 190.171 193.516L190.155 193.543L190.639 193.92C192.328 195.223 193.804 196.363 193.959 199.978C190.041 200.142 187.803 200.741 186.827 201.946C185.614 200.257 183.285 199.353 181.006 198.484ZM187.736 185.089H187.744C189.589 185.212 191.056 185.671 192.491 186.097C193.844 186.515 195.369 186.9 196.82 186.958V186.965C196.847 186.965 196.861 186.958 196.885 186.958C196.913 186.958 196.934 186.965 196.951 186.965V186.958C198.394 186.9 199.689 186.515 201.05 186.097C202.402 185.687 203.935 185.212 205.788 185.089L206.026 185.074C207.92 185.074 212.191 186.295 215.314 187.533C213.904 187.853 212.42 188.566 210.92 189.271C209.944 189.747 208.928 190.23 207.911 190.616C202.624 192.616 199.689 193.321 196.819 193.354C193.95 193.323 190.9 192.616 185.621 190.615C184.604 190.238 183.62 189.763 182.522 189.23C181.087 188.55 179.62 187.845 178.201 187.533C181.415 186.279 185.834 185.089 187.736 185.089ZM219.906 192.287C219.783 193.574 218.971 194.828 217.496 196C216.192 197.05 214.339 197.763 212.527 198.452C210.175 199.37 207.764 200.304 206.51 202.059C205.616 200.804 203.444 200.181 199.566 199.985C199.722 196.369 201.198 195.222 202.895 193.918L203.37 193.541L203.362 193.526C204.797 193.108 206.428 192.542 208.363 191.812C209.486 191.386 210.585 190.861 211.552 190.394C213.7 189.361 215.34 188.615 216.742 188.615C217.693 188.615 218.488 188.976 219.193 189.722C219.332 189.902 220.045 190.901 219.906 192.287ZM229.883 182.031C230.49 179.407 231.67 176.874 233.375 174.48C236.695 169.824 241.106 167.004 242.852 166.004L242.983 165.913L242.926 166.069C242.467 167.299 242.279 169.069 242.057 171.135C241.721 174.218 241.352 177.702 239.967 180.448C237.229 185.826 232.613 189.827 230.777 191.278C231.646 187.056 235.105 179.26 236.22 176.981C235.22 178.251 231.31 185.359 229.793 190.442C229.219 187.564 229.251 184.744 229.883 182.031ZM240.163 187.786C242.983 186.573 246.476 186.425 249.567 186.286C251.649 186.195 253.444 186.105 254.699 185.728L254.846 185.679L254.756 185.81C253.903 187.114 251.501 190.434 247.796 193.287C245.943 194.705 243.992 195.829 242 196.616C239.663 197.542 237.237 198.009 234.794 198.009C233.236 198.009 231.637 197.813 230.047 197.435C234.859 196.427 240.704 194.173 243.516 192.295C240.893 193.345 232.982 196.255 228.506 196.583C229.071 195.935 230.252 194.664 231.875 193.222C232.342 192.828 232.81 192.443 233.261 192.049C235.179 190.516 237.523 188.925 240.163 187.786ZM210.478 210.298C213.192 210.298 216.044 211.273 218.283 212.265C217.2 212.479 216.176 212.97 215.331 213.692C212.331 216.25 208.847 217.93 204.952 219.685C203.69 219.004 202.444 218.316 201.206 217.627C204.543 217.332 207.01 216.496 207.01 214.2V211.273C207.363 211.044 207.715 210.814 208.068 210.593C208.822 210.405 209.625 210.298 210.478 210.298ZM196.623 201.19C204.862 201.205 205.739 202.518 205.739 203.756V214.2C205.739 216.102 201.977 216.504 196.607 216.512C191.245 216.504 187.507 216.102 187.507 214.2V203.756C187.507 202.518 188.392 201.206 196.623 201.19ZM196.623 199.911C196.139 199.918 195.68 199.918 195.238 199.937C195.098 197.011 194.139 195.396 192.95 194.215C194.352 194.486 195.598 194.617 196.82 194.625C198.017 194.617 199.214 194.493 200.55 194.231C199.394 195.387 198.427 197.003 198.296 199.946C197.763 199.93 197.213 199.919 196.623 199.915V199.911ZM196.615 221.734C194.762 221.715 193.09 221.472 191.016 220.906C192.811 219.873 194.59 218.832 196.361 217.791C196.443 217.791 196.525 217.791 196.607 217.791C196.713 217.791 196.812 217.791 196.918 217.791C198.664 218.816 200.427 219.849 202.206 220.865C200.099 221.456 198.402 221.718 196.615 221.734ZM204.026 233.892C201.493 234.023 199.017 234.097 196.623 234.105C194.336 234.098 191.95 234.031 189.507 233.9C191.729 231.67 193.459 229.252 193.336 226.637C193.27 225.153 192.623 223.759 191.401 222.407C193.246 222.866 194.836 223.079 196.566 223.095H196.607C196.615 223.095 196.615 223.095 196.615 223.095C196.623 223.095 196.623 223.095 196.623 223.095H196.672C198.484 223.069 200.197 222.825 202.28 222.259C200.968 223.653 200.271 225.104 200.197 226.637C200.083 229.244 201.805 231.662 204.026 233.892ZM222.447 214.454C223.702 215.569 223.702 217.307 222.44 219.226C221.784 220.234 220.169 221.193 218.447 222.21L218.429 222.217C217.141 222.98 215.764 223.799 214.633 224.742C211.862 223.34 209.148 221.922 206.459 220.496C209.976 218.889 213.346 217.175 216.207 214.724C217.158 213.921 218.363 213.478 219.593 213.478C220.691 213.478 221.734 213.831 222.447 214.454ZM213.413 228.94C213.47 228.416 213.676 227.924 213.962 227.456C216.651 228.907 219.381 230.359 222.136 231.785C219.89 232.211 217.496 232.597 214.987 232.916C213.815 231.441 213.282 230.105 213.413 228.94ZM227.653 222.177L227.661 222.147C227.68 221.999 227.702 221.778 227.735 221.483C227.742 221.475 227.742 221.464 227.742 221.456C227.914 220.653 228.357 220.095 229.136 219.726C229.824 219.407 230.743 219.243 231.866 219.243C234.202 219.243 237.457 219.956 241.482 221.284C241.236 224.424 241.162 227.9 241.138 231.712C239.54 229.876 236.818 228.752 234.293 227.719C230.145 226.022 227.547 224.751 227.653 222.177ZM135.958 179.596C133.875 178.694 131.932 177.407 130.162 175.759C126.817 172.669 124.956 169.086 124.308 167.692L124.251 167.561L124.382 167.61C125.628 168.241 127.563 168.577 129.612 168.922C132.342 169.397 135.433 169.93 137.778 171.266C139.934 172.521 141.991 174.201 143.91 176.259C145.459 177.948 146.566 179.497 147.197 180.456C142.967 179.03 134.908 174.816 133.277 173.955C134.138 174.693 140.508 179.136 145.721 181.153C145.123 181.194 144.533 181.219 143.942 181.219C141.122 181.219 138.433 180.67 135.958 179.596ZM117.807 157.174C114.765 154.1 112.839 150.525 111.749 148.058L111.683 147.902L111.831 148.001C113.208 148.87 115.159 149.362 117.225 149.895L117.266 149.902C119.832 150.558 122.488 151.23 124.612 152.722C126.677 154.165 128.637 156.01 130.424 158.215C131.719 159.805 132.613 161.207 133.17 162.158C129.309 160.584 123.349 156.969 119.889 155.133C121.463 156.51 128.014 161.084 132.531 163.224C132.326 163.224 132.121 163.232 131.924 163.232C126.538 163.232 121.791 161.191 117.807 157.174ZM118.709 144.885C116.954 143.951 115.339 142.614 113.897 140.917C111.298 137.818 109.773 134.039 108.765 131.539L108.757 131.531C108.297 130.408 107.945 129.523 107.617 128.99L107.527 128.858L107.683 128.888C110.371 129.462 112.896 130.479 115.192 131.914C117.201 133.168 119.02 134.742 120.611 136.586C121.767 137.939 122.767 139.398 123.603 140.931C124.079 142.432 124.595 143.916 125.144 145.391C122.562 143.481 116.118 137.603 113.815 135.234C116.332 138.857 121.464 144.153 125.071 146.572C122.767 146.457 120.619 145.902 118.709 144.885ZM109.863 120.447C108.035 116.905 107.395 112.937 106.969 110.314V110.273C106.781 109.1 106.633 108.182 106.436 107.608L106.395 107.469L106.526 107.526C108.994 108.625 111.208 110.125 113.11 111.978C114.397 113.232 115.536 114.65 116.512 116.191H116.626L116.528 116.257L116.536 116.264C116.528 116.257 116.528 116.249 116.52 116.238L116.513 116.246C117.554 117.893 118.333 119.59 118.906 121.23L118.914 121.222C118.914 121.207 118.906 121.192 118.899 121.173L118.925 121.166V121.215C119.179 121.961 119.408 122.716 119.58 123.453C119.826 124.478 119.99 125.487 120.08 126.437C117.654 124.257 114.645 119.945 112.882 117.944C113.752 120.232 117.268 125.831 120.023 128.454C117.572 127.872 115.44 126.823 113.678 125.331C112.161 124.044 110.88 122.406 109.863 120.447ZM116.725 86.5474C115.962 84.5799 115.577 82.4648 115.585 80.2676C115.601 75.7013 117.282 72.1598 117.799 71.176L117.856 71.0611L117.897 71.1843C118.119 71.9796 118.758 72.9387 119.496 74.0455L119.511 74.0606C120.651 75.7739 122.069 77.9055 122.479 80.2584C122.856 82.398 122.84 84.8247 122.438 87.4563C122.2 89.0221 121.872 90.3913 121.569 91.4242C120.503 88.3499 119.077 82.767 118.634 80.4388C118.601 81.7914 119.561 88.85 120.626 92.4654C118.88 90.6863 117.569 88.7036 116.725 86.5474ZM130.547 47.1227C131.547 42.9991 133.785 40.1216 134.449 39.3346L134.539 39.2279V39.3757C134.58 40.1217 134.884 41.1137 135.212 42.1549V42.17C135.753 43.9162 136.417 46.0969 136.277 48.294C136.146 50.3025 135.679 52.5242 134.908 54.7295C134.58 55.6887 134.195 56.6314 133.793 57.484C133.531 54.6803 133.351 47.5398 133.351 47.5398C133.351 47.5398 132.244 55.4099 132.637 59.2548C131.342 57.2627 130.531 55.1476 130.219 52.9505C129.957 51.0567 130.071 49.0985 130.547 47.1227ZM143.697 40.3347C144.598 39.3837 145.582 38.6131 146.607 38.0556C149.493 36.4898 151.78 35.7027 153.297 35.1863L153.305 35.1787C154.026 34.9331 154.6 34.7361 154.903 34.5557L155.01 34.4903L155.002 34.6219C154.821 36.6714 154.321 38.4996 153.51 40.049C152.468 42.0493 150.886 43.6479 148.804 44.7957C146.23 46.2139 144.033 47.0256 142.426 47.624H142.41C141.976 47.788 141.582 47.9354 141.23 48.0749C143.337 45.2711 147.608 41.2869 147.608 41.2869C147.608 41.2869 141.754 45.2466 139.689 48.3455C139.836 46.8862 140.517 44.9761 141.525 43.2381C142.156 42.1641 142.885 41.1792 143.697 40.3347ZM131.326 77.9148L131.351 77.8997C132.63 76.8422 133.844 75.8338 134.549 74.8418L134.622 74.7353L134.648 74.8585C134.796 75.6128 135.476 79.5724 133.82 84.1551C133.058 86.2703 131.91 88.1559 130.426 89.7627C128.795 91.5253 126.72 92.9681 124.269 94.0503C126.352 91.7384 129.459 87.0655 130.492 83.8682C129.541 85.4668 125.679 90.9104 123.638 93.1813C123.687 92.2221 123.81 90.9022 124.13 89.3692C124.614 87.0491 125.392 84.9258 126.434 83.0566C127.557 81.0399 129.555 79.3823 131.326 77.9148ZM122.267 108.182C123.021 105.92 124.743 103.911 126.259 102.14L126.285 102.114C127.367 100.835 128.392 99.638 128.908 98.5231L128.958 98.4082L129.007 98.5314C129.45 99.6054 129.827 101.048 130.04 102.475C130.319 104.418 130.31 106.344 130.024 108.197C129.664 110.501 128.86 112.649 127.647 114.559C126.409 116.518 124.737 118.248 122.654 119.723C124.138 116.6 126.294 111.288 126.606 108.681C125.729 111.189 123.023 117.018 121.4 119.437C121.277 117.674 121.203 115.879 121.178 114.075C121.301 111.968 121.652 109.986 122.267 108.182ZM124.218 134.965C124.192 132.539 125.226 130.088 126.144 127.923C126.809 126.357 127.432 124.89 127.563 123.644L127.578 123.521L127.652 123.611C128.505 124.546 129.398 125.841 130.111 127.169C131.087 128.981 131.767 130.858 132.136 132.752C132.595 135.105 132.538 137.425 131.989 139.647C131.407 141.95 130.284 144.155 128.636 146.221C129.193 142.368 129.447 135.318 128.578 131.481C128.742 133.334 128.48 142.147 127.562 146.189C126.291 143.016 125.201 139.769 124.299 136.457C124.25 135.949 124.226 135.457 124.218 134.965ZM135.597 146.156L135.571 146.024L135.678 146.098C137.776 147.59 140.949 150.828 143.015 155.059C144.228 157.559 144.942 160.141 145.138 162.74C145.351 165.708 144.876 168.717 143.736 171.684C143.261 166.684 141.121 159.248 140.129 157.264C140.703 159.732 142.556 167.167 142.556 170.988C141.777 170.078 140.769 168.807 139.728 167.2C138.129 164.724 136.94 162.224 136.202 159.781C135.374 157.034 135.522 153.714 135.653 150.787C135.735 148.902 135.81 147.263 135.597 146.156ZM112.855 104.296C111.601 102.558 110.675 100.574 110.117 98.4019C108.969 93.893 109.707 89.966 109.961 88.8675L110.002 88.7359L110.06 88.8592C110.494 89.5724 111.372 90.3594 112.38 91.2612L112.406 91.2763C113.972 92.6783 115.915 94.408 116.915 96.6133C117.833 98.6218 118.44 101.016 118.718 103.721C118.882 105.23 118.907 106.59 118.89 107.664C117.193 105.492 114.603 100.376 113.455 98.4661C113.996 100.466 116.283 106.295 118.423 109.247C116.16 107.919 114.282 106.256 112.855 104.296ZM122.414 68.692C121.898 66.6835 121.775 64.5683 122.054 62.3959C122.644 57.8869 124.743 54.5748 125.374 53.6649L125.448 53.5583L125.473 53.6898C125.596 54.4932 126.113 55.5016 126.711 56.6739L126.719 56.6815C127.637 58.4769 128.785 60.715 128.9 63.076C129.006 65.2157 128.695 67.6014 127.973 70.1592C127.588 71.5119 127.154 72.6924 126.76 73.6352C125.793 70.3396 125.252 64.7238 125.12 62.6005C124.735 64.978 124.834 71.9382 125.85 75.2748C124.178 73.2499 123.013 71.0284 122.414 68.692ZM136.343 59.215C137.901 57.5016 140.237 56.3292 142.295 55.3045L142.31 55.2969C143.835 54.5345 145.27 53.813 146.221 52.9686L146.311 52.8866V53.0098C146.212 55.1824 145.344 58.8797 143.204 62.1343C141.95 64.0527 140.376 65.6513 138.539 66.8729C136.727 68.0779 134.645 68.9141 132.333 69.3814C134.53 67.3975 138.9 63.2575 140.212 60.9947C139.466 61.8884 133.899 67.0204 131.021 69.0043C131.3 68.0534 131.784 66.5777 132.604 64.8643C133.637 62.7 134.9 60.7972 136.343 59.215ZM248.14 162.741C248.329 160.142 249.042 157.559 250.256 155.059C252.321 150.829 255.494 147.591 257.593 146.098L257.699 146.025L257.673 146.156C257.46 147.263 257.534 148.903 257.616 150.788C257.747 153.715 257.894 157.035 257.067 159.782C256.329 162.225 255.14 164.725 253.541 167.201C252.5 168.808 251.492 170.078 250.713 170.988C250.713 167.168 252.566 159.732 253.14 157.265C252.148 159.249 250.008 166.684 249.533 171.685C248.393 168.717 247.927 165.708 248.14 162.741ZM261.134 132.752C261.503 130.858 262.183 128.981 263.167 127.169C263.872 125.841 264.766 124.546 265.618 123.611L265.7 123.521L265.708 123.644C265.839 124.89 266.462 126.357 267.126 127.923C268.044 130.088 269.086 132.539 269.053 134.966C269.045 135.457 269.023 135.949 268.971 136.458C268.069 139.77 266.979 143.016 265.708 146.189C264.79 142.147 264.527 133.334 264.7 131.481C263.822 135.318 264.077 142.368 264.643 146.222C262.986 144.156 261.863 141.95 261.289 139.647C260.732 137.425 260.683 135.105 261.134 132.752ZM265.627 114.56C264.413 112.65 263.61 110.502 263.249 108.199C262.962 106.346 262.962 104.419 263.242 102.476C263.446 101.05 263.824 99.607 264.266 98.533L264.315 98.4098L264.365 98.5247C264.881 99.6397 265.906 100.837 266.988 102.116L267.014 102.142C268.531 103.913 270.253 105.921 271.015 108.184C271.622 109.988 271.974 111.972 272.097 114.078C272.071 115.882 271.999 117.677 271.876 119.44C270.253 117.022 267.547 111.193 266.67 108.684C266.981 111.291 269.138 116.603 270.621 119.727C268.547 118.251 266.865 116.52 265.627 114.56ZM262.847 89.7611C261.364 88.1543 260.216 86.2688 259.453 84.1536C257.797 79.5709 258.478 75.6112 258.625 74.857L258.652 74.7337L258.726 74.8403C259.431 75.8322 260.644 76.8406 261.923 77.8982L261.949 77.9133C263.72 79.3808 265.729 81.0368 266.844 83.0535C267.885 84.9227 268.664 87.046 269.147 89.3661C269.467 90.8991 269.598 92.2189 269.647 93.1781C267.606 90.9073 263.736 85.4637 262.786 83.8651C263.818 87.0624 266.934 91.7353 269.008 94.0472C266.557 92.9568 264.491 91.5221 262.851 89.7595L262.847 89.7611ZM250.854 47.6229C249.247 47.0244 247.041 46.2127 244.467 44.7944C242.385 43.6467 240.803 42.0481 239.762 40.0478C238.95 38.4983 238.45 36.6702 238.27 34.6206L238.262 34.4891L238.369 34.5545C238.672 34.7348 239.238 34.9317 239.968 35.1776L239.975 35.1851C241.492 35.7016 243.779 36.4886 246.657 38.0544C247.69 38.6119 248.673 39.3826 249.583 40.3336C250.387 41.178 251.116 42.1617 251.748 43.2357C252.764 44.9736 253.445 46.8838 253.584 48.3431C251.526 45.2442 245.673 41.2845 245.673 41.2845C245.673 41.2845 249.936 45.2688 252.043 48.0726C251.69 47.9335 251.297 47.7857 250.862 47.6216L250.854 47.6229ZM258.06 42.171V42.1559C258.388 41.1148 258.691 40.1228 258.732 39.3768V39.229L258.822 39.3356C259.486 40.1227 261.724 43.0002 262.725 47.1238C263.2 49.0996 263.315 51.059 263.053 52.9527C262.741 55.1498 261.93 57.2649 260.626 59.2571C261.036 55.4121 259.921 47.5419 259.921 47.5419C259.921 47.5419 259.741 54.6742 259.487 57.4862C259.077 56.6336 258.691 55.6908 258.363 54.7317C257.593 52.5264 257.125 50.3047 256.994 48.2962C256.855 46.0991 257.527 43.9173 258.06 42.171ZM270.791 80.2595C271.201 77.9066 272.62 75.7751 273.767 74.0617V74.0466C274.513 72.9398 275.153 71.9806 275.374 71.1854L275.415 71.0623L275.472 71.1771C275.989 72.1609 277.67 75.7025 277.686 80.2689C277.694 82.4659 277.309 84.581 276.546 86.5486C275.702 88.7047 274.39 90.6886 272.644 92.4676C273.71 88.8523 274.669 81.7936 274.636 80.4409C274.194 82.7692 272.767 88.3522 271.701 91.4265C271.406 90.3935 271.07 89.0244 270.832 87.4586C270.431 84.827 270.414 82.3992 270.791 80.2595ZM274.358 121.217V121.168L274.376 121.176C274.376 121.191 274.369 121.206 274.358 121.225L274.365 121.232C274.939 119.593 275.718 117.896 276.759 116.248L276.751 116.24C276.744 116.248 276.744 116.255 276.733 116.267L276.74 116.259L276.641 116.194H276.756C277.732 114.653 278.871 113.234 280.159 111.98C282.061 110.127 284.274 108.627 286.742 107.529L286.873 107.471L286.832 107.61C286.635 108.184 286.488 109.102 286.307 110.275L286.3 110.316C285.873 112.939 285.234 116.907 283.406 120.449C282.397 122.408 281.119 124.048 279.594 125.335C277.839 126.827 275.7 127.876 273.248 128.458C276.003 125.835 279.528 120.235 280.389 117.948C278.626 119.949 275.618 124.261 273.199 126.441C273.29 125.49 273.445 124.482 273.691 123.457C273.871 122.719 274.095 121.963 274.358 121.217ZM272.661 136.589C274.251 134.744 276.071 133.17 278.088 131.916C280.375 130.481 282.9 129.465 285.589 128.891L285.745 128.86L285.655 128.992C285.327 129.525 284.974 130.41 284.515 131.533V131.541C283.499 134.041 281.974 137.821 279.375 140.919C277.94 142.617 276.325 143.953 274.563 144.887C272.653 145.904 270.513 146.461 268.201 146.576C271.808 144.158 276.94 138.862 279.457 135.238C277.162 137.608 270.71 143.486 268.127 145.396C268.676 143.92 269.201 142.436 269.668 140.936C270.505 139.403 271.505 137.941 272.661 136.589ZM268.66 152.723C270.775 151.23 273.439 150.558 276.005 149.902L276.047 149.895C278.113 149.362 280.064 148.87 281.441 148.001L281.596 147.902L281.523 148.058C280.432 150.526 278.506 154.1 275.472 157.174C271.48 161.191 266.733 163.233 261.347 163.233C261.151 163.233 260.945 163.225 260.74 163.225C265.258 161.086 271.808 156.511 273.382 155.134C269.922 156.97 263.962 160.585 260.101 162.159C260.658 161.209 261.56 159.807 262.847 158.216C264.643 156.011 266.594 154.165 268.66 152.723ZM263.659 168.922C265.717 168.578 267.652 168.242 268.889 167.61L269.021 167.561L268.964 167.692C268.316 169.086 266.455 172.669 263.11 175.759C261.339 177.407 259.396 178.694 257.314 179.596C254.838 180.67 252.149 181.219 249.329 181.219C248.739 181.219 248.148 181.193 247.55 181.154C252.764 179.137 259.134 174.694 259.995 173.956C258.363 174.817 250.305 179.031 246.083 180.457C246.706 179.498 247.812 177.948 249.362 176.26C251.28 174.202 253.338 172.521 255.494 171.267C257.839 169.931 260.929 169.398 263.659 168.922ZM250.067 62.1335C247.927 58.8788 247.058 55.1815 246.96 53.009V52.8858L247.05 52.9678C248.001 53.8122 249.436 54.5337 250.96 55.2961L250.979 55.3037C253.037 56.3284 255.373 57.5007 256.939 59.2142C258.374 60.7964 259.636 62.6983 260.669 64.8627C261.489 66.5761 261.981 68.0517 262.243 69.0027C259.374 67.0188 253.816 61.8868 253.062 60.9931C254.381 63.2558 258.751 67.3959 260.94 69.3798C258.628 68.9125 256.546 68.0763 254.734 66.8712C252.898 65.6497 251.329 64.0518 250.067 62.1335ZM264.372 63.0763C264.487 60.7152 265.635 58.4771 266.561 56.6817V56.6741C267.16 55.5018 267.676 54.4935 267.807 53.69L267.826 53.5589L267.9 53.6655C268.531 54.5754 270.63 57.8875 271.22 62.3964C271.499 64.569 271.384 66.6841 270.86 68.6926C270.261 71.0291 269.097 73.2507 267.425 75.2757C268.441 71.939 268.548 64.9789 268.154 62.6014C268.023 64.7247 267.482 70.3405 266.515 73.6361C266.121 72.6933 265.687 71.5127 265.301 70.1601C264.58 67.6023 264.266 65.216 264.372 63.0763ZM274.554 103.723C274.833 101.017 275.448 98.6232 276.358 96.6147C277.358 94.4094 279.309 92.6796 280.867 91.2777L280.893 91.2626C281.902 90.3608 282.779 89.5738 283.213 88.8606L283.27 88.7374L283.312 88.8689C283.566 89.9674 284.312 93.8943 283.156 98.4033C282.599 100.576 281.672 102.56 280.418 104.298C278.991 106.257 277.114 107.921 274.851 109.249C276.991 106.298 279.278 100.469 279.819 98.4688C278.672 100.379 276.081 105.495 274.392 107.667C274.366 106.593 274.398 105.231 274.554 103.723ZM304.338 218.848C301.321 214.118 290.221 209.978 274.628 207.756C274.112 207.691 274.112 207.691 274.112 207.691L272.283 215.586L272.103 215.504C270.357 214.651 268.463 213.717 266.307 212.626C252.256 205.56 241.368 201.829 234.81 201.829C232.949 201.829 231.449 202.141 230.35 202.739C229.014 203.477 228.227 204.682 228.071 206.215C227.727 209.683 227.03 215.766 226.612 219.398L226.489 220.431C226.439 220.841 226.407 221.152 226.374 221.39C226.333 221.644 226.3 221.898 226.292 222.136V222.144C226.161 225.669 229.801 227.341 233.26 228.768C231.391 229.481 229.268 230.137 226.923 230.727C223.218 228.981 219.569 227.21 215.97 225.415C216.954 224.677 218.085 224.005 219.159 223.373C221.012 222.275 222.75 221.242 223.578 219.971C225.226 217.463 225.136 215.011 223.34 213.421C222.997 213.126 222.594 212.872 222.144 212.667L222.151 212.64L222.121 212.621C220.055 211.531 215.226 208.99 210.594 208.94C215.997 205.374 221.162 201.701 226.04 197.922C228.712 199.111 231.491 199.726 234.311 199.726C244.739 199.718 254.512 191.142 257.676 183.141C256.151 184.461 253.028 184.658 249.429 184.895L249.372 184.903C246.716 185.075 243.707 185.28 241.059 185.985C240.493 186.133 239.936 186.329 239.386 186.551C240.895 185.116 242.371 183.673 243.797 182.206C245.707 182.706 247.609 182.968 249.462 182.968C261.374 182.968 269.646 172.573 271.105 164.982C269.965 166.293 267.145 166.793 263.891 167.367C261.423 167.802 258.627 168.302 256.209 169.236C255.504 169.515 254.823 169.843 254.168 170.228C255.553 168.392 256.881 166.539 258.135 164.662C259.209 164.818 260.292 164.899 261.357 164.899C264.62 164.899 267.727 164.17 270.613 162.743C270.639 162.736 270.663 162.728 270.687 162.713C270.713 162.705 270.736 162.686 270.769 162.683L270.867 162.625C270.933 162.595 270.999 162.56 271.064 162.526C271.195 162.461 271.318 162.379 271.449 162.322C271.457 162.314 271.476 162.307 271.479 162.307C271.487 162.299 271.498 162.291 271.51 162.291C276.076 159.742 279.921 155.405 282.061 150.371C282.807 148.592 283.307 146.781 283.52 145.116C282.479 146.526 279.732 147.264 276.568 148.117C274.158 148.773 271.428 149.502 269.099 150.658C267.214 151.593 265.574 152.921 264.09 154.495C265.238 152.249 266.287 149.961 267.238 147.641C267.681 147.683 268.14 147.707 268.591 147.707C273.715 147.707 278.658 144.919 281.815 140.263C283.323 138.017 284.233 135.82 285.11 133.68C286.143 131.179 287.111 128.818 288.939 126.9C286.873 126.915 281.741 127.359 276.568 130.868C274.428 132.319 272.583 134.098 271.026 136.18C271.575 134.032 272.051 131.852 272.428 129.638C278.191 129.253 283.323 125.252 285.643 119.267C286.602 116.767 286.988 114.455 287.356 112.217L287.364 112.191C287.79 109.592 288.192 107.133 289.504 104.952C287.528 105.386 282.675 106.862 278.461 111.305C276.329 113.552 274.706 116.191 273.599 119.184C273.731 116.601 273.763 113.962 273.673 111.289C278.403 109.297 281.863 105.895 283.699 101.427C286.134 95.4748 285.175 89.236 283.585 85.6207C283.461 86.9651 281.912 88.3752 280.133 89.9902L280.126 90.0053C278.666 91.3253 277.01 92.8255 275.764 94.6127C274.067 97.0721 273.395 100.261 273.141 103.704C272.821 100.827 272.378 97.8919 271.805 94.916C275.846 91.8335 278.322 87.7345 278.961 83.0042C279.789 76.7573 277.338 71.0678 274.936 68.0181C275.149 69.338 274.026 71.0596 272.731 73.0435C271.673 74.6667 270.468 76.5112 269.739 78.5116C269.173 80.0365 268.976 81.7088 269.017 83.4633C268.435 81.4875 267.804 79.4872 267.107 77.4705C270.731 74.0764 272.706 69.838 272.813 65.1651C272.952 58.8444 269.78 53.4173 266.976 50.6217C267.353 51.8924 266.451 53.7041 265.402 55.7865C264.557 57.4835 263.59 59.4018 263.106 61.4596C262.696 63.214 262.754 65.0913 263.099 67.0425C262.295 65.1487 261.451 63.2468 260.549 61.3202C263.427 57.9835 264.779 54.0239 264.468 49.8183C264.025 43.8992 260.566 39.046 257.68 36.6275C258.164 37.808 257.59 39.628 256.934 41.7103L256.926 41.7406C256.434 43.3228 255.869 45.1018 255.656 46.9299C255.434 48.8155 255.729 50.7913 256.336 52.8326C255.984 52.1604 255.631 51.4881 255.262 50.8077C254.696 44.6427 252.294 40.1912 247.958 37.2562C245.826 35.8134 243.67 35.0509 241.76 34.3787C239.522 33.5834 237.735 32.9522 236.923 31.5503C236.218 36.5184 238.522 43.3064 244.219 46.1922C245.974 47.0775 247.589 47.7908 248.892 48.3646C251.286 49.414 253.155 50.2502 254.442 51.4225C255.754 53.841 256.984 56.2267 258.14 58.5877C257.926 58.3663 257.713 58.1449 257.484 57.9318C257.303 57.7681 257.132 57.5954 256.943 57.44C255.213 56.0299 253.008 54.8411 251.056 53.7836L251.038 53.776C248.455 52.3741 246.217 51.1608 245.676 49.8328C244.873 53.4891 245.741 59.2933 249.513 64.1303C251.906 67.2127 256.301 70.8773 263.679 71.1724C264.991 74.5582 266.138 77.8785 267.13 81.1577C265.794 79.4935 264.023 77.9276 262.441 76.5422L262.415 76.5157C260.25 74.6055 258.365 72.9495 258.152 71.5641C256.594 74.7203 256.036 80.2048 258.299 85.4926C259.857 89.1162 263.276 93.8711 270.678 96.1748C271.277 99.7491 271.679 103.258 271.908 106.701C271.867 106.636 271.843 106.57 271.81 106.505C270.744 104.488 269.17 102.52 267.776 100.791C265.956 98.5361 264.39 96.5767 264.448 95.1584C262.169 98.1835 260.504 103.816 261.873 109.726C262.751 113.489 265.161 118.597 271.621 122.196C271.285 125.467 270.777 128.664 270.096 131.812C269.653 130.107 268.998 128.394 268.399 126.836L268.392 126.821C267.342 124.099 266.432 121.738 267.006 120.377C263.407 122.796 259.603 128.075 259.111 134.543C258.824 138.265 259.595 143.651 264.62 148.759C262.858 152.801 260.8 156.727 258.464 160.54C258.644 159.908 258.792 159.269 258.882 158.621C259.259 156.047 259.127 153.21 259.013 150.702C258.873 147.455 258.742 144.627 259.734 143.299C255.537 144.963 250.216 149.669 247.659 156.547C246.142 160.638 245.142 166.95 248.651 174.116C245.937 177.329 243.035 180.453 239.936 183.478C240.715 182.265 241.362 180.994 241.805 179.658C242.699 177.026 243.076 174.017 243.42 171.369V171.354C243.879 167.788 244.281 164.697 245.691 163.263C242.035 164.443 238.157 166.952 235.025 170.157C235.006 170.172 234.999 170.187 234.984 170.198L234.91 170.28C234.787 170.404 234.665 170.534 234.542 170.666C234.515 170.692 234.5 170.707 234.484 170.731L234.454 170.757C234.315 170.913 234.176 171.069 234.044 171.216C234.037 171.232 234.025 171.243 234.014 171.247C234.007 171.262 233.995 171.273 233.988 171.277C232.258 173.236 230.84 175.376 229.774 177.631C227.331 182.787 226.986 188.206 228.765 193.379C222.084 198.765 214.796 203.889 207.008 208.792V203.75C207.008 203.719 207.008 203.684 207.008 203.659L207.09 203.674C207.762 201.658 210.32 200.674 213.009 199.625C214.878 198.911 216.813 198.165 218.288 196.985C220.043 195.591 221.018 194.05 221.174 192.402C221.379 190.328 220.182 188.901 220.133 188.844C219.944 188.656 219.748 188.475 219.543 188.311H219.55C217.46 186.442 209.098 183.794 206.023 183.794C205.909 183.794 205.802 183.802 205.696 183.809C203.72 183.941 202.097 184.432 200.678 184.867C199.342 185.277 198.178 185.637 196.883 185.678C195.587 185.637 194.185 185.277 192.849 184.867C191.423 184.432 189.808 183.94 187.815 183.809C187.725 183.802 187.627 183.794 187.52 183.794C184.43 183.794 176.059 186.442 173.977 188.311H173.985C173.772 188.475 173.567 188.663 173.362 188.877C173.321 188.935 172.148 190.353 172.345 192.402C172.509 194.05 173.485 195.591 175.231 196.985C176.723 198.174 178.658 198.928 180.552 199.657C183.101 200.641 185.511 201.568 186.192 203.42L186.249 203.405C186.242 203.52 186.234 203.627 186.234 203.75V208.775C178.454 203.873 171.182 198.757 164.501 193.379C166.28 188.206 165.935 182.787 163.492 177.63C162.426 175.376 161.008 173.236 159.287 171.277C159.279 171.269 159.261 171.262 159.254 171.247C159.246 171.239 159.238 171.232 159.221 171.216C159.09 171.069 158.95 170.913 158.811 170.757L158.778 170.731C158.763 170.704 158.745 170.69 158.721 170.666C158.606 170.534 158.475 170.403 158.352 170.28L158.278 170.198C158.27 170.191 158.252 170.172 158.245 170.157C155.105 166.952 151.228 164.443 147.571 163.263C148.981 164.697 149.383 167.788 149.842 171.354V171.369C150.186 174.017 150.563 177.026 151.457 179.657C151.9 180.994 152.547 182.264 153.326 183.478C150.236 180.453 147.325 177.329 144.62 174.116C148.12 166.95 147.12 160.638 145.604 156.547C143.054 149.669 137.733 144.963 133.536 143.299C134.52 144.627 134.389 147.455 134.249 150.702C134.135 153.21 134.003 156.047 134.38 158.621C134.479 159.269 134.618 159.908 134.799 160.54C132.47 156.727 130.413 152.801 128.642 148.759C133.667 143.651 134.438 138.265 134.159 134.543C133.659 128.075 129.855 122.796 126.264 120.377C126.83 121.738 125.92 124.099 124.871 126.821L124.863 126.836C124.264 128.394 123.608 130.107 123.166 131.812C122.485 128.664 121.977 125.467 121.641 122.196C128.101 118.597 130.511 113.489 131.38 109.726C132.757 103.816 131.093 98.1835 128.814 95.1584C128.88 96.5767 127.306 98.5361 125.486 100.791C124.092 102.52 122.518 104.488 121.452 106.505C121.419 106.57 121.395 106.636 121.362 106.701C121.584 103.258 121.985 99.7491 122.584 96.1747C129.995 93.871 133.405 89.1161 134.963 85.4926C137.225 80.2048 136.668 74.7203 135.11 71.564C134.897 72.9495 133.012 74.6055 130.847 76.5157L130.821 76.5421C129.239 77.9276 127.468 79.4934 126.132 81.1576C127.132 77.8784 128.272 74.5582 129.584 71.1724C136.97 70.8772 141.356 67.2127 143.758 64.1302C147.521 59.2934 148.398 53.4891 147.595 49.8328C147.046 51.1608 144.807 52.3741 142.225 53.776L142.21 53.7836C140.258 54.8411 138.053 56.0299 136.323 57.44C136.135 57.5953 135.963 57.768 135.782 57.9318C135.553 58.1449 135.34 58.3663 135.126 58.5877C136.282 56.2266 137.512 53.8409 138.824 51.4225C140.111 50.2502 141.98 49.414 144.374 48.3646C145.677 47.7907 147.292 47.0775 149.047 46.1922C154.744 43.3064 157.048 36.5183 156.343 31.5503C155.531 32.9522 153.752 33.5834 151.506 34.3787C149.596 35.0509 147.44 35.8133 145.308 37.2561C140.972 40.1911 138.578 44.6427 138.004 50.8077C137.643 51.4881 137.282 52.1604 136.93 52.8244C137.537 50.7913 137.832 48.8155 137.61 46.9299C137.397 45.1018 136.832 43.3228 136.34 41.7405L136.332 41.7103C135.676 39.628 135.102 37.8079 135.586 36.6274C132.7 39.0459 129.24 43.8991 128.798 49.8182C128.486 54.0238 129.839 57.9835 132.716 61.3201C131.815 63.2467 130.97 65.1486 130.167 67.0424C130.511 65.0913 130.577 63.2139 130.159 61.4595C129.675 59.4018 128.708 57.4834 127.855 55.7864C126.814 53.7041 125.912 51.8923 126.289 50.6216C123.486 53.4171 120.321 58.8443 120.46 65.1651C120.559 69.838 122.535 74.0764 126.158 77.4704C125.47 79.4871 124.83 81.4875 124.248 83.4633C124.289 81.7089 124.092 80.0365 123.527 78.5116C122.797 76.5112 121.592 74.6666 120.534 73.0434C119.239 71.0595 118.116 69.3379 118.329 68.018C115.927 71.0676 113.476 76.7571 114.312 83.0041C114.943 87.7344 117.419 91.8335 121.461 94.916C120.887 97.8919 120.444 100.827 120.133 103.704C119.87 100.261 119.198 97.0721 117.501 94.6126C116.255 92.8254 114.599 91.3252 113.14 90.0053L113.132 89.9902C111.353 88.3752 109.803 86.9651 109.68 85.6206C108.09 89.236 107.131 95.4748 109.566 101.427C111.402 105.895 114.853 109.297 119.592 111.289C119.502 113.961 119.534 116.601 119.674 119.184C118.559 116.191 116.936 113.552 114.804 111.305C110.59 106.862 105.745 105.386 103.761 104.952C105.073 107.132 105.475 109.592 105.909 112.191V112.217C106.278 114.455 106.663 116.767 107.623 119.267C109.943 125.252 115.083 129.253 120.838 129.638C121.223 131.852 121.691 134.032 122.24 136.18C120.682 134.098 118.838 132.319 116.698 130.868C111.525 127.359 106.393 126.916 104.327 126.9C106.155 128.818 107.123 131.179 108.155 133.68C109.033 135.819 109.943 138.017 111.459 140.263C114.607 144.919 119.551 147.707 124.675 147.707C125.134 147.707 125.585 147.68 126.027 147.641C126.978 149.961 128.036 152.249 129.175 154.495C127.692 152.921 126.052 151.593 124.166 150.658C121.838 149.502 119.108 148.773 116.698 148.117C113.533 147.264 110.787 146.526 109.746 145.116C109.959 146.781 110.459 148.592 111.205 150.371C113.345 155.405 117.19 159.742 121.756 162.291C121.772 162.291 121.782 162.299 121.789 162.306C121.797 162.306 121.815 162.314 121.822 162.322C121.953 162.379 122.084 162.461 122.207 162.526C122.281 162.557 122.338 162.592 122.404 162.625L122.502 162.683C122.535 162.69 122.56 162.709 122.584 162.713C122.61 162.728 122.634 162.74 122.658 162.743C125.544 164.17 128.651 164.899 131.905 164.899H131.913C132.979 164.899 134.061 164.817 135.135 164.662C136.39 166.539 137.718 168.392 139.103 170.229C138.447 169.843 137.767 169.515 137.062 169.237C134.643 168.302 131.856 167.802 129.38 167.367C126.126 166.794 123.314 166.293 122.166 164.982C123.625 172.573 131.889 182.968 143.817 182.968C145.662 182.968 147.564 182.698 149.474 182.206C150.9 183.673 152.376 185.116 153.892 186.551C153.335 186.33 152.786 186.133 152.22 185.985C149.564 185.28 146.555 185.075 143.907 184.903L143.842 184.896C140.243 184.658 137.119 184.461 135.594 183.141C138.759 191.143 148.531 199.718 158.967 199.726C161.779 199.726 164.558 199.111 167.231 197.923C172.117 201.702 177.265 205.375 182.668 208.941C178.389 208.941 174.019 211.244 171.412 212.622L171.371 212.641L171.387 212.671C170.944 212.867 170.534 213.122 170.198 213.417C168.395 215.007 168.313 217.459 169.961 219.967C170.797 221.246 172.551 222.287 174.412 223.378C175.437 223.984 176.511 224.624 177.454 225.32C173.814 227.157 170.108 228.952 166.337 230.723C164.001 230.133 161.877 229.477 160.008 228.764C163.763 227.222 167.755 225.386 166.87 221.189C166.844 220.975 166.812 220.721 166.78 220.402C166.345 216.696 165.566 209.924 165.197 206.211C165.05 204.669 164.255 203.473 162.918 202.735C161.82 202.136 160.32 201.825 158.459 201.825C151.908 201.825 141.021 205.555 126.97 212.622C124.896 213.671 123.002 214.614 121.174 215.499L120.993 215.589L119.181 207.67L118.542 207.752C103.023 209.973 91.9473 214.113 88.9304 218.836C88.086 220.164 87.8647 221.533 88.2828 222.902C88.2907 222.943 88.3156 222.992 88.332 223.033H88.3241L92.8166 237.905C93.2511 239.323 94.2103 240.356 95.6695 240.979C96.7189 241.413 98.047 241.643 99.6129 241.643C105.934 241.643 116.468 237.921 130.077 230.887C137.947 226.804 144.817 223.73 150.376 221.771C150.687 226.009 150.736 230.813 150.736 234.994V235.036H150.762C150.754 235.15 150.736 235.257 150.736 235.364C150.736 236.134 150.859 236.872 151.089 237.61C148.629 238.676 146.153 239.733 143.661 240.783C145.448 241.102 147.293 242.078 149.252 242.316C150.466 241.783 151.663 241.234 152.86 240.684C153.901 241.906 155.335 243.053 157.147 244.111C160.73 246.218 165.722 247.964 171.969 249.309C172.633 250.94 173.601 252.719 174.798 254.744L175.708 256.269L176.06 254.523C176.396 252.785 177.126 251.448 178.011 250.399C184.029 251.325 190.603 251.842 196.605 251.858H196.695C202.778 251.839 209.418 251.309 215.501 250.374C216.395 251.424 217.133 252.768 217.477 254.523L217.797 256.162L217.823 256.269L218.733 254.744C219.947 252.695 220.93 250.908 221.594 249.252C227.768 247.899 232.695 246.153 236.236 244.062C237.991 243.013 239.384 241.881 240.417 240.685C241.614 241.234 242.803 241.783 244.016 242.316C245.976 242.078 247.82 241.103 249.616 240.783C247.115 239.734 244.639 238.676 242.18 237.61C242.418 236.872 242.532 236.135 242.532 235.364C242.532 235.159 242.513 234.962 242.502 234.766C242.502 230.125 242.532 225.649 242.813 221.739C248.388 223.706 255.283 226.789 263.202 230.888C276.811 237.922 287.345 241.644 293.666 241.644C295.232 241.644 296.552 241.414 297.609 240.98C299.077 240.357 300.036 239.315 300.454 237.905L304.947 223.083L304.954 223.034H304.947C304.966 222.993 304.977 222.944 304.996 222.903C305.406 221.542 305.184 220.173 304.34 218.845" fill="white"/>
</g>
<defs>
<clipPath id="clip0_753_214">
<rect width="1094.13" height="281.277" fill="white"/>
</clipPath>
</defs>
</svg>
