<svg width="223" height="234" viewBox="0 0 223 234" fill="none" xmlns="http://www.w3.org/2000/svg">
<g clip-path="url(#clip0_745_131)">
<path d="M96.334 232.682C70.9344 229.372 48.7435 218.097 30.7354 199.352C24.0616 192.405 22.7196 189.403 25.1854 186.938C27.3966 184.727 28.9835 185.692 37.7569 194.588C47.1042 204.065 54.3204 209.373 65.4854 214.984C104.508 234.593 152.853 226.31 184.125 194.658C192.333 186.35 196.182 184.632 197.473 188.7C198.374 191.536 197.127 193.3 187.825 202.353C163.726 225.806 129.817 237.047 96.334 232.682ZM92.5959 192.761C68.9938 186.4 51.7748 169.952 43.8015 146.151L41.4854 139.238L41.531 126.238L41.5766 113.238L44.2554 105.238C45.7288 100.838 48.6333 94.3646 50.7098 90.853C55.6152 82.558 65.9852 72.2387 74.2954 67.3831C77.9238 65.263 81.6716 62.338 82.6239 60.8831C85.8394 55.9702 104.417 37.542 114.721 29.0438L124.957 20.6021L127.721 20.92L130.485 21.2378L130.786 23.8238L131.086 26.4097L123.286 32.4692C114.533 39.2681 95.2577 57.354 96.002 58.0689C96.2677 58.324 99.1852 58.0878 102.485 57.5471C105.785 57.0049 111.893 56.8298 116.058 57.1582C147.064 59.6022 171.788 79.6837 179.562 108.738C181.886 117.424 181.893 134.007 179.577 142.738C172.975 167.62 153.224 186.884 127.922 193.12C118.838 195.359 101.585 195.183 92.5959 192.761ZM126.485 185.109C137.074 182.547 146.717 177.034 155.09 168.756L162.694 161.238L166.858 152.738C176.083 133.905 176.084 117.507 166.86 98.7958L162.698 90.3539L155.592 83.2644L148.485 76.175L139.985 72.0149C131.275 67.7519 119.544 64.7377 111.664 64.7377C106.339 64.7377 98.3561 66.1639 91.1703 68.3991L85.8553 70.0524L82.9126 75.8819C74.9825 91.5914 77.9395 102.711 91.0955 106.653L95.0932 107.85L98.7138 104.671C103.404 100.553 114.761 95.1336 121.735 93.6859C140.034 89.887 147.05 102.542 131.143 110.657C125.053 113.764 115.516 115.706 106.268 115.723L98.0502 115.738L94.1304 120.988C86.6042 131.068 83.9102 139.193 85.422 147.252C86.381 152.364 92.8969 159.179 98.7229 161.164C107.967 164.314 121.038 162.329 131.663 156.163C136.435 153.393 139.213 153.102 140.946 155.19C143.213 157.922 141.059 160.594 133.676 164.203C123.397 169.227 115.108 171.097 105.897 170.468C78.971 168.629 68.4071 143.026 84.8746 119.518L88.8033 113.909L86.1443 113.246C75.2799 110.535 68.6207 98.5718 70.9531 85.9552C71.5179 82.8995 71.7496 80.1689 71.4678 79.8871C70.5805 78.9999 64.0436 85.9754 59.4035 92.7607C40.8062 119.956 47.7376 156.467 75.1531 175.72C90.2069 186.292 108.084 189.561 126.485 185.109ZM119.485 106.382C125.727 104.718 131.946 101.571 130.173 100.972C127.617 100.11 120.303 101.839 114.433 104.693L108.485 107.584L111.485 107.649C113.135 107.683 116.735 107.114 119.485 106.382ZM8.49702 171.757C7.03941 169.398 3.98538 159.181 3.98538 156.663C3.98538 152.541 4.92368 150.821 8.0569 149.201C14.2893 145.978 20.791 148.589 22.9694 155.189L24.0981 158.609L27.9684 157.244L31.8387 155.878L32.912 158.957C33.5024 160.651 33.9854 162.583 33.9854 163.251C33.9854 163.919 28.6979 166.328 22.2354 168.605C9.27824 173.17 9.35891 173.151 8.49702 171.757ZM16.7838 159.966C16.4243 158.143 13.3499 156.04 12.4133 156.977C12.0458 157.344 12.0224 158.749 12.3611 160.099L12.9771 162.553L15.0297 162.016C16.1729 161.717 16.95 160.809 16.7838 159.966ZM199.508 168.603C193.47 166.41 188.377 164.462 188.189 164.274C188 164.086 188.394 162.107 189.062 159.876L190.278 155.819L195.882 154.732C198.964 154.134 202.319 153.312 203.338 152.906L205.19 152.167L199.48 150.367L193.769 148.567L194.396 145.434C194.741 143.71 195.433 141.89 195.935 141.389C196.483 140.84 201.807 142.212 209.313 144.836L221.78 149.196L220.108 153.699L218.436 158.202L210.967 159.639L203.498 161.075L209.491 163.043C212.788 164.126 215.643 165.145 215.835 165.308C216.027 165.471 215.655 167.209 215.007 169.171C214.26 171.435 213.219 172.711 212.158 172.664C211.238 172.623 205.546 170.796 199.508 168.603ZM10.4854 125.769C3.08841 124.082 -0.0243331 120.005 0.000143153 112.037C0.0182849 106.07 1.55045 102.947 5.89784 100.018C12.4646 95.5924 22.4892 97.9583 26.1581 104.799C32.1217 115.919 22.6804 128.552 10.4854 125.769ZM17.5308 115.283C20.51 112.304 20.5483 111.719 17.9464 108.926C15.5196 106.321 12.3339 106.112 9.81414 108.393C6.28643 111.585 8.95959 117.131 14.2808 117.659C14.7183 117.702 16.1808 116.633 17.5308 115.283ZM197.528 124.456C197.325 123.786 196.903 121.762 196.591 119.958L196.023 116.678L198.383 115.602C199.756 114.977 200.61 113.839 200.424 112.882C200.249 111.978 199.845 110 199.527 108.488L198.947 105.738H196.583C194.133 105.738 193.027 103.621 192.999 98.8793L192.984 96.5209L195.234 97.027C196.471 97.3052 202.766 98.3361 209.223 99.3176L220.962 101.102L221.489 104.17C221.778 105.857 222.121 108.254 222.25 109.497L222.484 111.755L210.19 118.715C202.392 123.13 197.763 125.229 197.528 124.456ZM209.402 107.557C206.121 106.68 205.721 106.886 206.546 109.035L207.154 110.618L209.686 109.464L212.219 108.31L209.402 107.557ZM25.9486 78.2212C20.1939 74.1017 15.3682 70.1702 15.2251 69.4845C15.0819 68.7988 15.9858 66.9705 17.2337 65.4216L19.5026 62.6054L27.2172 68.1408L34.9318 73.676L38.0114 69.1999L41.091 64.7239L42.7882 65.6576C43.7217 66.171 45.3527 67.239 46.4128 68.0308L48.3403 69.4704L43.0318 76.854C40.1121 80.9151 37.4283 84.5693 37.0676 84.9745C36.707 85.3797 31.7034 82.3407 25.9486 78.2212ZM180.534 77.432C177.482 73.3772 174.985 69.5921 174.985 69.0206C174.985 68.1616 190.271 56.0591 194.802 53.3303C196.085 52.5579 197.718 54.0049 200.018 57.9519L201.017 59.6661L193.509 65.3174L186 70.9688L188.993 74.7471C190.639 76.8253 191.985 78.9927 191.985 79.5636C191.985 80.1345 190.657 81.5472 189.034 82.703L186.083 84.8043L180.534 77.432ZM152.517 53.2037C148.134 50.8508 144.403 48.4921 144.227 47.9622C143.749 46.5275 155.025 25.6598 156.606 25.0529C157.356 24.7653 159.631 25.5109 161.662 26.7095C163.693 27.9081 164.814 28.2366 164.153 27.4397L162.95 25.9907L165.584 24.2649L168.218 22.539L172.102 24.2903C174.238 25.2534 175.985 26.3519 175.985 26.7314C175.985 27.1108 174.073 28 171.735 28.7073L167.485 29.9935L170.735 31.547C174.442 33.3188 174.556 33.7332 172.458 37.7905L170.931 40.7438L165.859 38.1736C163.069 36.7599 160.568 35.822 160.3 36.0895C160.033 36.357 160.64 37.0471 161.65 37.6233C162.659 38.1994 164.09 39.0761 164.83 39.5716L166.174 40.4723L164.554 43.605C162.725 47.1424 162.455 47.2214 158.985 45.2377C156.082 43.5782 154.985 43.3994 154.985 44.5858C154.985 45.0523 156.788 46.2468 158.991 47.2403C164.715 49.8213 165.425 50.9861 163.523 54.6659C162.649 56.3554 161.608 57.6802 161.21 57.6098C160.811 57.5395 156.899 55.5567 152.517 53.2037ZM63.9119 51.3377C62.7349 49.3429 58.6025 45.7689 53.9138 42.6907C49.5182 39.8049 45.6952 37.0772 45.4183 36.6291C45.1413 36.1811 46.6651 34.9215 48.8045 33.83L52.6943 31.8456L54.5899 33.1383C55.6324 33.8493 57.7864 35.2684 59.3764 36.2918L62.2675 38.1526L61.8013 32.531L61.3351 26.9095L65.0225 24.837L68.71 22.7646L69.339 28.0012C69.6849 30.8813 69.9908 35.7127 70.0186 38.7378C70.0492 42.0839 70.794 45.5991 71.9199 47.7139L73.7707 51.1901L70.8539 52.9639C66.8596 55.393 66.2155 55.2421 63.9119 51.3377ZM137.264 14.6956L136.73 12.6535L132.358 13.3092L127.985 13.9648V12.0913C127.985 10.756 130.752 8.69708 137.614 4.92507C152.243 -3.11561 155.629 -1.24555 146.904 10.0562C141.537 17.0085 138.279 18.5765 137.264 14.6956Z" fill="white"/>
</g>
<defs>
<clipPath id="clip0_745_131">
<rect width="222.484" height="233.607" fill="white"/>
</clipPath>
</defs>
</svg>
