<svg width="650" height="321" viewBox="0 0 650 321" fill="none" xmlns="http://www.w3.org/2000/svg">
<path d="M166.5 318.566C165.95 318.345 163.858 317.89 161.851 317.556C159.844 317.221 156.552 315.828 154.537 314.461C152.229 312.894 148.398 311.616 144.187 311.007C135.829 309.798 116.747 309.776 107.516 310.965C103.674 311.46 100.398 311.731 100.236 311.569C100.073 311.406 105.916 306.196 113.22 299.989C120.524 293.783 126.636 288.365 126.801 287.95C127.333 286.615 112.716 275.853 106 272.634C97.9074 268.756 98.2986 269.052 99.9271 268.045C102.39 266.523 115.861 265 126.857 265C139.201 265 147.783 266.338 153.219 269.111L157 271.041V263.593C157 256.738 157.21 255.98 159.636 254.072C161.085 252.932 164.123 251.437 166.386 250.75C170.252 249.575 169.678 249.47 156.852 249C145.276 248.576 142.885 248.211 141.102 246.595C138.418 244.163 138.384 239.441 141.021 235.5C142.834 232.79 147 221.183 147 218.84C147 218.318 144.892 218.028 142.315 218.195L137.629 218.5L135.295 227C133.79 232.479 133.169 236.786 133.546 239.118C134.019 242.042 133.656 243.289 131.652 245.618L129.173 248.5H107H84.8271L82.4136 245.694C79.3696 242.155 79.3821 240.374 82.4832 235.81C84.6335 232.646 96.7422 193.322 95.8125 192.523C93.3652 190.419 88.0225 189 82.5499 189C78.9476 189 76.0002 189.211 76.0002 189.469C76.0002 189.727 73.3002 199.793 70.0002 211.837C66.0626 226.209 64.0002 235.618 64.0002 239.213C64.0002 248.443 63.841 248.5 37.923 248.5C16.7433 248.5 15.9868 248.431 13.8613 246.306C11.0238 243.468 11.0593 239.192 13.9528 235.278C15.3805 233.347 18.4413 224.173 22.1051 210.843C25.3316 199.105 27.9779 189.388 27.9858 189.25C28.0417 188.28 18.6203 189.306 14.7566 190.691C9.00607 192.752 5.13451 191.767 3.2117 187.756C2.05957 185.352 2.25924 184.239 5.04245 177.553C6.76061 173.426 9.15941 168.576 10.3731 166.775L12.5799 163.5L81.2282 163.264L149.877 163.028L151.938 165.649C154.62 169.059 154.539 170.616 151.443 175.083C150.036 177.113 148.053 181.524 147.035 184.887L145.184 191H150.021H154.858L156.605 185.25C157.566 182.088 158.456 176.657 158.582 173.183C158.952 163.029 159.013 163 179.655 163H197L197.119 158.75C197.184 156.413 197.1 154.05 196.932 153.5C195.955 150.303 197.378 129.056 198.746 126.411C199.29 125.36 199.765 123.007 199.803 121.181C199.84 119.355 200.378 117.25 200.999 116.502C201.62 115.754 202.304 113.753 202.519 112.055C202.733 110.357 203.605 107.975 204.455 106.762C205.305 105.548 206 103.79 206 102.855C206 101.919 207.125 99.8168 208.5 98.1828C209.875 96.5486 211 94.551 211 93.7435C211 92.9361 212.35 90.5767 214 88.5004C215.65 86.4241 217 84.1257 217 83.3928C217 82.6599 218.35 81.0621 220 79.8423C221.65 78.6223 223 77.1819 223 76.6412C223 76.1005 226.097 72.6976 229.881 69.0792C241.265 58.1958 243.877 56.0004 245.438 56.0004C246.259 56.0004 247.383 55.1545 247.936 54.1206C248.489 53.0867 250.717 51.5307 252.886 50.6628C255.055 49.7948 257.137 48.5879 257.512 47.9808C257.887 47.3737 259.259 46.4725 260.559 45.978C262.681 45.1712 262.818 44.7747 261.889 42.1106C260.473 38.0497 261.668 36.0361 270.869 26.9748C276.808 21.1268 280.516 18.4726 287.506 15.0682C292.453 12.6586 297.876 9.64556 299.557 8.37261C307.504 2.35462 323.903 1.56687 333.68 6.73349C336.56 8.25528 343.098 11.6959 348.208 14.3794C355.292 18.0987 359.576 21.2875 366.236 27.7962C375.591 36.9395 376.727 38.7743 375.014 41.9747C374.09 43.7012 374.357 44.4122 376.709 46.4809C378.244 47.8319 379.95 48.9542 380.5 48.9749C381.05 48.9938 382.798 49.6897 384.385 50.5171C387.592 52.1895 388.481 51.7923 392.814 46.7504C394.114 45.2379 395.581 44.0004 396.074 44.0004C396.567 44.0004 399.329 42.5492 402.211 40.7755C406.881 37.9024 408.273 37.5479 414.976 37.5255C421.161 37.5066 423.262 37.9368 426.782 39.9523C429.598 41.5649 431.238 43.2764 431.573 44.9523C431.853 46.3537 432.968 50.2004 434.051 53.5004C435.134 56.8004 436.016 61.2058 436.01 63.2902C435.999 68.0571 433.035 73.9517 428.906 77.426L425.725 80.1032L428.362 82.8565C431.295 85.9177 431.928 92.0402 429.91 97.8289C428.979 100.499 429.126 101.344 430.91 103.613C432.06 105.074 433.015 107.222 433.032 108.385C433.051 109.549 433.725 111.374 434.532 112.442C435.34 113.509 436 115.669 436 117.241C436 118.813 436.661 121.378 437.469 122.939C438.276 124.501 438.962 127.066 438.992 128.64C439.023 130.213 439.294 133.975 439.596 137C440.356 144.63 440.283 155.865 439.448 159.75C438.804 162.75 438.947 163 441.303 163C444.769 163 448.331 167.546 447.49 170.896C447.148 172.261 445.987 174.615 444.91 176.127C443.834 177.639 440.684 187.341 437.911 197.688C435.137 208.035 432.272 218.638 431.544 221.25C430.815 223.863 430.508 225.974 430.86 225.942C431.212 225.912 441.16 214.162 452.966 199.836C472.406 176.246 474.405 173.475 474.146 170.465C473.947 168.162 474.495 166.506 475.93 165.071C477.9 163.1 479.08 163 500.345 163C520.78 163 522.833 163.158 524.357 164.842C525.385 165.978 528.366 177.205 532.139 194.153L538.254 221.623L541.505 220.062C544.622 218.564 544.699 218.39 543.378 215.8C542.62 214.315 542 211.376 542 209.268C542 205.489 548.154 182.493 550.224 178.537C553.056 173.125 557.531 168.869 563.307 166.096L569.5 163.121L606.641 162.811C651.726 162.434 648.477 161.392 647.781 176.01C647.266 186.819 646.09 189.833 642.074 190.636L639.257 191.199L641.361 196.18L643.465 201.161L640.152 213.831C635.779 230.552 633.723 235.051 628.016 240.389C619.739 248.131 621.035 248.001 552.493 248.001H492.349L490.175 245.686C487.52 242.861 487.433 240.381 489.859 236.702C490.922 235.089 491.506 232.864 491.236 231.452L490.767 229H477.051H463.335L459.96 233.2C457.543 236.208 456.649 238.266 456.809 240.45C456.933 242.128 456.604 244.157 456.079 244.958C455.293 246.161 456.662 246.727 463.89 248.187C481.191 251.682 483.001 253.193 483.001 264.134V272.125L487.251 269.112C493.618 264.599 498.977 263.674 515.276 264.275C528.352 264.757 541.109 267.05 540.947 268.89C540.917 269.226 538.281 270.777 535.088 272.337C529.362 275.134 513.772 286.186 513.221 287.838C513.066 288.306 518.69 293.559 525.719 299.513C543.087 314.222 542.051 313.17 537.953 311.944C536.054 311.375 527.976 310.644 520.001 310.319C504.184 309.673 489.703 311.055 487.041 313.464C482.358 317.702 471.353 319.688 461.907 318.001C451.586 316.156 451.001 315.485 451.001 305.477V297L445.751 297.008C436.987 297.019 422.1 299.679 395.674 305.958C364.671 313.325 351.459 315.681 333.751 317.001C309.54 318.807 287.008 316.15 249.156 307.024C220.021 300 209.836 298.019 199.251 297.315L190.001 296.701L189.985 304.601C189.977 308.947 189.623 313.047 189.2 313.713C187.827 315.873 181.285 317.965 174.313 318.473C170.566 318.746 167.05 318.787 166.5 318.566ZM460.011 313.513C459.332 312.695 459.051 311.311 459.386 310.438C459.908 309.078 461.266 308.949 468.842 309.542C478.884 310.327 482 309.714 482 306.953C482 304.165 475.88 301.425 464.429 299.086C459.018 297.981 454.492 297.175 454.37 297.297C454.249 297.418 454.039 300.888 453.903 305.009C453.672 312.046 453.804 312.575 456.078 313.735C459.603 315.533 461.594 315.421 460.011 313.513ZM186.791 305.232L187.082 296.963L182.791 297.619C175.273 298.767 163.71 301.96 161.261 303.565C158.238 305.546 157.318 307.933 159.105 309.163C159.9 309.711 164.583 309.892 170 309.584C179.986 309.016 182.716 309.692 181.652 312.465C181.136 313.809 181.544 314.071 183.756 313.816C186.474 313.503 186.503 313.422 186.791 305.232ZM314.976 301.954C314.373 300.829 314.02 298.466 314.19 296.704C314.678 291.661 317.767 292.477 321.977 298.76L325.5 304.021L333 303.389C337.125 303.041 340.856 302.549 341.291 302.294C341.725 302.04 340.488 300.069 338.541 297.913C334.468 293.405 334.227 292.436 337 291.71C338.696 291.267 339 290.346 339 285.653C339 282.312 338.505 279.805 337.75 279.329C337.063 278.896 328.85 278.486 319.5 278.418C310.15 278.351 301.449 277.962 300.164 277.553C298.008 276.868 297.919 276.979 299 279C299.757 280.414 300.053 285.039 299.836 292.054L299.5 302.918L302 303.309C303.375 303.524 307.104 303.768 310.285 303.85C315.823 303.994 316.024 303.913 314.976 301.954ZM314 286C314 283.03 314.056 283 319.5 283C324.945 283 325 283.03 325 286C325 288.97 324.945 289 319.5 289C314.056 289 314 288.97 314 286ZM294.72 299.719C293.499 297.914 289.849 291.428 286.609 285.305L280.718 274.172L274.109 272.543C270.474 271.646 266.716 270.678 265.757 270.391C264.603 270.046 264.175 270.314 264.491 271.185C265.097 272.851 249.922 291.5 247.96 291.5C246.754 291.5 246.5 289.212 246.5 278.365V265.231L238.647 263.544C234.328 262.617 230.216 261.636 229.509 261.365C228.711 261.059 226.721 263.582 224.259 268.021L220.294 275.171L217.029 267.071C215.233 262.617 213.421 258.76 213.002 258.501C212.583 258.242 208.31 257.728 203.506 257.359L194.773 256.688L195.344 259.594C195.658 261.192 195.596 267.563 195.206 273.75L194.497 285H198.784C202.659 285 202.975 284.821 202.071 283.132C201.465 282.001 201.353 278.239 201.786 273.587L202.5 265.91L206.828 275.924C211.021 285.629 211.269 285.958 214.828 286.557C216.848 286.896 219.187 287.359 220.027 287.584C221.106 287.873 222.93 285.285 226.253 278.747L230.954 269.5L230.84 279.449L230.726 289.399L241.613 291.728C247.601 293.008 253.808 294.339 255.406 294.684C257.32 295.098 258.089 294.954 257.661 294.26C257.304 293.682 257.819 292.211 258.806 290.992L260.601 288.775L268.33 290.494C275.057 291.991 276.255 292.593 277.571 295.137C278.402 296.744 278.812 298.496 278.482 299.03C278.152 299.563 278.696 300.036 279.691 300.079C280.686 300.123 284.65 300.754 288.5 301.483C292.35 302.212 295.824 302.852 296.22 302.904C296.616 302.957 295.941 301.524 294.72 299.719ZM267.233 285.877C264.496 285.087 264.122 284.642 264.928 283.135C265.458 282.145 266.564 280.777 267.387 280.094C268.646 279.049 269.214 279.499 270.962 282.926C273.205 287.321 272.946 287.526 267.233 285.877ZM355.862 300.209L360.224 299.492L360.362 286.196C360.495 273.352 360.432 272.918 358.5 273.447C357.4 273.748 353.698 274.521 350.273 275.166C344.711 276.212 344.102 276.559 344.568 278.419C344.855 279.563 345.182 285.335 345.295 291.245L345.5 301.99L348.5 301.458C350.15 301.166 353.463 300.604 355.862 300.209ZM371.543 297.424C373.484 296.903 373.544 296.447 372.753 288.209C371.441 274.539 371.495 274.515 380.313 284.897C385.786 291.34 388.632 293.954 389.813 293.623C390.741 293.364 394.795 292.59 398.822 291.903L406.144 290.654L405.882 277.539C405.738 270.326 405.957 263.879 406.369 263.212C407.275 261.746 406.572 261.713 401.93 263.003L398.361 263.994L399.226 271.241C399.702 275.226 399.959 279.988 399.796 281.823L399.5 285.159L392.162 276.08C388.127 271.086 384.752 267.009 384.662 267.02C383.257 267.193 365.787 271.926 365.667 272.166C365.575 272.35 365.637 278.237 365.807 285.25C366.137 298.946 366.108 298.884 371.543 297.424ZM434.125 287.067C441.384 286.962 444.876 285.967 445.562 283.806C445.904 282.73 446.013 281.679 445.805 281.471C445.597 281.263 441.28 281.424 436.213 281.829L427 282.565V278.914C427 275.471 427.215 275.227 430.75 274.642C432.813 274.301 436.413 274.017 438.75 274.011C442.665 274 443 273.794 443 271.382V268.764L434.5 269.472L426 270.18V266.729C426 263.314 426.053 263.273 431.25 262.648C434.138 262.301 438.188 262.014 440.25 262.009C444.002 262.001 444.853 260.892 443.158 258.221C442.31 256.885 432.03 257.608 416.829 260.073L410.158 261.154L411.141 263.975C411.682 265.527 411.984 271.907 411.813 278.153L411.5 289.51L420.5 288.322C425.45 287.668 431.581 287.103 434.125 287.067ZM344.006 265.531C358.361 263.843 372.784 260.984 399 254.629C409.175 252.163 418.4 249.939 419.5 249.688C420.6 249.437 413.175 249.135 403 249.016C392.825 248.898 383.375 248.48 382 248.088C379.011 247.237 373.415 248.7 370.115 251.196C368.804 252.188 366.589 253 365.194 253C363.799 253 361.913 253.674 361.003 254.498C358.962 256.344 347.184 259.044 332.736 260.977C324.941 262.019 305.058 261.524 297 260.087C285.518 258.039 282.441 257.338 280.5 256.325C279.4 255.751 276.955 254.988 275.066 254.629C273.177 254.27 270.927 253.384 270.066 252.661C266.631 249.775 260.115 249.001 239.884 249.077L219.5 249.153L235 253.041C257.751 258.748 281.254 263.69 291.5 264.923C296.45 265.518 301.625 266.168 303 266.367C309.593 267.319 332.829 266.845 344.006 265.531ZM317.837 258.122C319.62 256.992 311.501 250.277 308 249.986C303.829 249.64 303.722 249.88 306.535 253.25C310.804 258.365 314.762 260.071 317.837 258.122ZM327.971 258.039C328.78 257.528 329.23 256.924 328.971 256.697C325.107 253.317 319.104 250 316.85 250C313.286 250 313.264 250.922 316.75 254.256C320.963 258.284 325.282 259.74 327.971 258.039ZM308 257.128C308 255.15 298.959 248 296.458 248H293.871L296.685 251.947C298.234 254.117 300.4 256.337 301.5 256.879C304.028 258.125 308 258.277 308 257.128ZM337.418 257.393C339.953 256.421 339.291 255.255 334.662 252.542C330.489 250.097 324 249.075 324 250.864C324 251.78 330.467 256.411 333 257.31C335.132 258.067 335.639 258.076 337.418 257.393ZM296.779 256.158C298.747 254.909 290.534 246 287.415 246C286.087 246 285 246.2 285 246.443C285 248.118 289.703 254.314 291.866 255.489C294.989 257.186 295.13 257.205 296.779 256.158ZM348.252 254.866C350.26 253.791 350.136 253.607 345.936 251.411C341.155 248.91 333.542 248.126 334.235 250.206C334.703 251.609 342.652 256 344.723 256C345.498 256 347.086 255.49 348.252 254.866ZM285.759 250.513C283.465 246.971 279.849 245.817 278.399 248.164C277.394 249.79 282.564 254 285.565 254H288.019L285.759 250.513ZM358.903 251.617C360.51 249.681 358.3 248.99 350.668 249.042L344.5 249.084L348 251C352.139 253.266 357.293 253.558 358.903 251.617ZM277.362 249.5C277.026 248.626 275.529 248 273.771 248C271.204 248 270.94 248.223 272 249.5C272.685 250.325 274.301 251 275.591 251C277.266 251 277.773 250.571 277.362 249.5ZM366.435 249.025C367.846 248.489 369 247.534 369 246.903C369 246.125 368.598 246.073 367.75 246.743C367.063 247.287 365.15 248.207 363.5 248.787C361.85 249.367 361.258 249.878 362.185 249.921C363.112 249.965 365.024 249.562 366.435 249.025ZM424.729 248.396C424.397 248.064 423.535 248.028 422.813 248.317C422.015 248.637 422.252 248.873 423.417 248.921C424.471 248.965 425.062 248.729 424.729 248.396ZM201.337 244.486C197.576 242.232 194.914 238.39 192.682 232C192.148 230.473 192.102 230.879 191.686 240.704L191.465 245.908L195.483 246.28C197.692 246.484 200.85 246.725 202.5 246.816C205.473 246.98 205.462 246.958 201.337 244.486ZM375.582 245C376.362 245 377 244.1 377 243C377 240.352 372.471 240.252 371.071 242.869C369.923 245.013 370.755 246.308 372.78 245.531C373.541 245.239 374.802 245 375.582 245ZM56.0002 236.691C56.0002 234.321 58.6592 222.734 61.9092 210.941C65.1591 199.149 68.3264 187.588 68.9477 185.25L70.0773 181L79.7888 181.044C85.2481 181.071 91.1421 181.674 93.2502 182.426L97.0002 183.765L97.0138 179.132C97.0214 176.585 97.2988 173.488 97.6305 172.25L98.2334 170H57.8252H17.4169L14.7085 175.522C13.219 178.56 12.0002 181.437 12.0002 181.917C12.0002 182.413 13.6167 182.414 15.7502 181.919C20.8944 180.724 38.0002 180.761 38.0002 181.967C38.0002 184.844 23.5939 235.006 21.9794 237.75L20.0677 241H38.034H56.0002V236.691ZM125.237 238.163C124.722 234.653 130.872 210.987 132.458 210.378C133.092 210.135 139.042 210.063 145.679 210.218L157.746 210.5L154.465 222.262C152.661 228.731 150.258 235.593 149.126 237.512L147.068 241H165.534H184V236.345C184 231.009 197.89 180.096 201.02 173.962L203.041 170H185.021H167V173.819C167 175.919 166.366 179.856 165.59 182.569C164.814 185.281 163.452 190.088 162.562 193.25L160.944 199H147.972C140.838 199 135 198.853 135 198.674C135 196.578 141.594 175.69 143.026 173.25L144.933 170L126.716 170.001L108.5 170.002L108.311 174.751C108.082 180.495 93.9809 231.506 91.0878 237.057L89.0323 241H107.343H125.654L125.237 238.163ZM281.488 238.201C287.634 235.368 290.587 232.682 293.251 227.5C295.808 222.526 305.981 186.584 305.988 182.5C305.995 177.958 302.72 173.406 298.328 171.853C295.415 170.824 286.848 170.5 262.5 170.5C231.208 170.5 230.39 170.551 225.5 172.804C219.558 175.541 215.473 179.211 213.036 184C210.364 189.249 200.995 223.905 200.998 228.528C201.001 234.7 204.235 238.265 211.5 240.109C213.15 240.528 228.45 240.787 245.5 240.685C275.53 240.506 276.656 240.428 281.488 238.201ZM233.98 228.476C232.719 226.956 232.849 226.417 244.134 186.409C244.647 184.593 246.056 182.84 247.55 182.159C250.181 180.961 268.622 180.534 271.418 181.607C273.912 182.564 273.361 186.15 267.519 207C263.504 221.331 261.489 226.964 259.917 228.25C256.966 230.665 235.949 230.848 233.98 228.476ZM320 236.449C320 232.823 331.375 186.692 332.666 185.084C333.61 183.908 334.34 187.894 337.796 213.103L341.552 240.5L352.059 240.782L362.566 241.063L381.033 213.829C391.19 198.849 399.813 186.136 400.196 185.576C400.578 185.016 401.163 184.83 401.496 185.163C402.326 185.993 390.457 230.477 387.99 235.777C386.896 238.129 386 240.267 386 240.527C386 240.787 393.785 241 403.299 241H420.599L420.212 237.69C419.742 233.664 434.281 177.99 437.041 173.25L438.933 170H418.622H398.311L384.499 190.038C376.902 201.059 370.362 210.277 369.965 210.522C369.018 211.107 368.611 208.81 365.929 187.75L363.669 170L342.584 170.008L321.5 170.015L321.348 175.259C321.177 181.104 308.005 231.37 305.102 237.253L303.251 241.003H311.626H320L320 236.449ZM448.569 237.644C448.621 235.126 449.988 232.645 454.069 227.66L459.5 221.027L478.143 221.012C499.374 220.997 497.724 220.229 498.688 230.562C499.043 234.359 498.819 237.469 498.093 238.824L496.93 240.999H516.465C527.209 240.999 536 240.843 536 240.652C536 240.462 535.313 238.928 534.473 237.243C533.632 235.559 529.731 219.74 525.804 202.09L518.663 169.999H500.813H482.962L483.565 172.402C484.076 174.436 480.749 178.934 461.928 201.652C449.695 216.418 436.958 231.311 433.622 234.749L427.558 240.999L438.029 240.996L448.5 240.993L448.569 237.644ZM469.179 209.965C469.923 207.731 487.556 186.111 488.432 186.358C488.944 186.503 490.386 191.094 491.637 196.561C492.887 202.028 494.164 207.513 494.474 208.75C495.038 210.998 495.024 211 481.936 211C473.344 211 468.952 210.644 469.179 209.965ZM610.5 240.007C617.791 238.814 623.677 234.958 626.606 229.456C627.764 227.28 630.207 220.152 632.035 213.616C635.814 200.106 635.542 198.389 629.017 194.578C625.944 192.783 623.383 192.511 606.2 192.158C591.832 191.863 586.72 191.435 586.361 190.497C585.442 188.103 588.752 182.101 591.349 181.449C594.808 180.581 636.109 181.426 638.25 182.411C639.822 183.133 640 182.536 640 176.537V169.86L605.75 170.18C572.736 170.489 571.353 170.579 567.406 172.691C561.241 175.99 557.365 181.045 555.11 188.73C549.014 209.495 548.857 212.549 553.72 215.738C556.022 217.248 559.404 217.549 577.327 217.839L598.248 218.178L597.618 222.839C596.628 230.163 596.614 230.167 571 229.727C558.625 229.514 547.528 228.997 546.34 228.577C544.286 227.852 544.162 228.14 543.84 234.409L543.5 241.004L574 240.997C590.775 240.993 607.2 240.547 610.5 240.007ZM377.818 237.5C378.747 235.462 378.691 235 377.514 235C376.251 235 374 237.841 374 239.435C374 241.088 376.839 239.65 377.818 237.5ZM210 161.059C210 156.915 208.506 156.482 206.06 159.917L203.966 162.857L206.233 163.292C207.48 163.532 208.838 163.789 209.25 163.864C209.663 163.939 210 162.677 210 161.059ZM322 160.95C322 157.292 319.083 153.127 313.645 149.021C308.586 145.202 305.992 144.091 306.007 145.75C306.011 146.162 307.586 147.571 309.507 148.879C314.465 152.255 320 158.651 320 161.003C320 162.101 320.45 163 321 163C321.55 163 322 162.078 322 160.95ZM432.929 162.038C435.219 160.813 437.427 155.553 436.579 153.344C436.038 151.935 435.184 152.385 431.465 156.035C429.009 158.445 427 160.998 427 161.708C427 163.226 430.36 163.413 432.929 162.038ZM205.916 158.106C208.869 154.378 210.24 148 208.089 148C206.839 148 202 153.871 200.93 156.685C200.021 159.076 200.622 162 202.023 162C202.468 162 204.22 160.248 205.916 158.106ZM435.25 150.676C436.941 148.843 437.734 143 436.292 143C435.903 143 433.878 144.666 431.792 146.703C428.842 149.584 428 151.177 428 153.877V157.349L430.75 154.961C432.263 153.648 434.288 151.72 435.25 150.676ZM209 141.163V137.584L204.5 142C201.431 145.012 200 147.251 200 149.042C200 153.407 201.316 153.387 205.25 148.961C208.1 145.756 209 143.883 209 141.163ZM423.911 143.951C422.748 138.04 418.392 131 415.897 131C414.289 131 414.95 132.859 417.442 135.351C418.785 136.694 420.64 140.427 421.565 143.647C423.421 150.114 423.973 151.361 424.67 150.664C424.928 150.406 424.586 147.385 423.911 143.951ZM219.305 135.69C222.85 131.821 221.598 130.053 217.854 133.64C214.648 136.712 211.379 146.027 212.532 148.803C213.03 150.002 213.736 148.753 214.935 144.554C215.869 141.283 217.835 137.294 219.305 135.69ZM436.302 138.204C436.842 135.376 436.239 133 434.98 133C433.006 133 428 141.535 428 144.9V148.406L431.905 144.594C434.052 142.497 436.031 139.621 436.302 138.204ZM324.201 143.103C327.672 141.909 330.231 141.533 331.108 142.088C333.884 143.846 336.916 142.915 342.788 138.5C346.081 136.025 349.228 134 349.782 134C352.283 134 357.103 127.88 358.571 122.842C359.426 119.904 360.531 116.15 361.025 114.5C361.567 112.69 361.547 109.846 360.975 107.33C360.149 103.701 360.347 102.597 362.501 98.8296C363.862 96.4483 364.982 94.1626 364.988 93.7501C365.007 92.5394 362.121 92.8862 359.077 94.4602C355.55 96.2842 354.632 95.4911 356.671 92.3805C357.832 90.608 357.952 89.647 357.135 88.6631C355.82 87.0774 357.088 85.2353 361.29 82.6312C364.246 80.7988 366.169 77.1295 367.714 70.3705C368.872 65.3062 366.566 56.5692 364.301 57.4384C362.031 58.3092 359.285 55.963 359.746 53.5483C360.053 51.943 361.339 51.0569 364.643 50.1731C368.576 49.1213 369.368 48.4224 371.121 44.4603C372.219 41.9774 372.849 39.0988 372.52 38.0634C371.197 33.8935 357.47 22.4276 347.456 17.1282C341.98 14.2301 335.586 10.731 333.246 9.35216C324.801 4.37641 308.26 5.15336 300.269 10.9011C298.196 12.3918 292.9 15.3806 288.5 17.5428C279.898 21.7703 265.455 34.3406 264.408 38.5114C264.103 39.727 264.674 42.4717 265.677 44.6108C267.183 47.8241 268.325 48.7608 272.245 50.0001C276.245 51.2647 276.988 51.8925 276.98 54.0001C276.967 57.1397 276.172 58.2465 272.895 59.6829C269.117 61.3394 268.449 66.7189 271.231 73.0889C272.406 75.78 274.184 78.2412 275.184 78.5583C276.248 78.8962 277 80.0909 277 81.445C277 82.7156 277.675 84.3154 278.5 85.0001C280.594 86.7375 280.37 88.748 277.999 89.5004C275.105 90.419 273.678 93.5303 275.01 96.0192C276.033 97.9296 275.873 98.0034 272.046 97.3913C267.278 96.629 266.906 97.6567 270.25 102.346C271.488 104.081 272.526 106.175 272.558 107C272.633 108.953 273.897 113.902 275.048 116.75C275.706 118.378 276.783 119 278.944 119C280.989 119 282.298 119.687 283.097 121.18C284.241 123.319 284.292 123.324 285.744 121.43C286.558 120.369 288.286 117.152 289.585 114.283C290.883 111.414 293.585 107.251 295.589 105.033C297.813 102.572 298.676 101 297.805 101C297.019 101 295.348 102.391 294.09 104.092C291.14 108.083 285.803 110.35 281.647 109.378L278.5 108.642L283 107.861C286.612 107.234 288.321 106.16 291.657 102.423C294.35 99.4068 296.254 98.0389 297.064 98.5395C297.752 98.9645 299.801 99.2564 301.618 99.188C303.435 99.1196 305.191 99.4994 305.52 100.032C306.342 101.362 311.724 101.255 312.567 99.8924C312.988 99.2102 314.717 99.019 317.065 99.3946C319.235 99.7416 321.147 99.5711 321.501 98.9996C321.911 98.3362 322.827 98.3724 324.198 99.1058C325.34 99.7171 327.837 99.9636 329.747 99.6537C332.785 99.1607 333.643 99.5395 336.602 102.676C339.713 105.975 340.325 106.217 344.242 105.695C346.584 105.383 349.625 104.846 351 104.501L353.5 103.875L351 105.402C347.238 107.7 338.844 107.451 335.66 104.947C333.745 103.44 331.198 102.797 326.08 102.528C322.246 102.326 318.323 101.72 317.361 101.182C316.097 100.475 314.632 100.729 312.071 102.102C310.124 103.146 307.543 104 306.336 104C303.573 104 301.235 106.318 298.805 111.468L296.902 115.5L297.571 112C298.541 106.933 300.782 103.027 303.303 102.012C304.803 101.408 304.988 101.107 303.885 101.063C301.015 100.951 297.27 104.839 292.621 112.757C290.121 117.016 287.175 121.625 286.075 123L284.076 125.5L282.481 123.25C280.601 120.596 276.599 120.305 271.468 122.449C268.223 123.805 268 124.194 268 128.499C268 136.617 271.575 141.004 278.184 140.996C284.626 140.989 288.161 137.702 292.697 127.5C295.283 121.684 295.675 123.366 293.466 130.802C292.073 135.493 292.08 136.254 293.544 139.086C294.887 141.681 295.604 142.117 297.828 141.685C299.48 141.365 301.168 141.767 302.25 142.739C303.847 144.172 304.181 144.147 306.061 142.445C307.402 141.231 308.363 140.95 308.811 141.64C309.571 142.808 314.59 144.797 317.094 144.921C317.97 144.964 321.168 144.146 324.201 143.103ZM272.5 123.464C275.932 121.893 280 121.578 280 122.883C280 124.012 276.363 124.992 272.5 124.905L269.5 124.838L272.5 123.464ZM313 106.026C311.576 105.081 312.088 105 319.5 105C319.775 105 320.113 105.338 320.25 105.75C320.639 106.915 314.682 107.142 313 106.026ZM278 97.0819C278 96.5769 277.739 95.4823 277.419 94.6495C277.032 93.641 277.879 92.5968 279.956 91.5229C282.726 90.0907 283.007 89.5513 282.471 86.6949C282.139 84.9263 282.336 82.2465 282.909 80.7397C283.885 78.1719 283.78 77.9981 281.225 77.9683C276.452 77.9127 272 72.4544 272 66.6566C272 63.8147 272.497 63.0369 274.967 62.0139C276.599 61.338 278.191 59.974 278.506 58.9829C279.69 55.2501 281.627 54.7497 284.518 57.4292C288.385 61.0124 297.32 64.0862 305.75 64.7327C309.738 65.0385 313 65.5954 313 65.9702C313 66.3447 311.906 67.6794 310.569 68.9357C308.279 71.0867 307.852 71.1469 303.248 69.967C298.933 68.8611 297.665 68.945 292.457 70.6811C285.786 72.9049 283.928 75.9279 287.214 79.2136C288.196 80.1962 289 81.5684 289 82.263C289 82.9576 290.013 83.9734 291.25 84.5204C292.957 85.2748 293.427 86.2031 293.196 88.3645L292.891 91.2141L295.939 89.0439C297.615 87.8503 299.427 87.1458 299.965 87.4784C300.503 87.811 302.129 87.3065 303.579 86.3567C306.013 84.7615 306.284 84.7553 307.134 86.2751C308.385 88.5099 314.571 89.6015 316.572 87.9406C317.828 86.8983 318.063 84.7127 317.811 76.4225L317.5 66.1908L325.948 65.4893C335.508 64.6954 344.394 62.6219 347.807 60.3892C351.063 58.2583 359.968 57.7522 360.698 59.6565C361.006 60.4588 361.842 60.8911 362.556 60.6172C364.403 59.9083 365.938 62.1422 365.956 65.5667C366.032 80.1462 361.242 85.4209 351.129 81.8955C349.387 81.2879 348.069 80.2754 348.201 79.6455C348.333 79.0156 347.796 77.0699 347.008 75.3217C345.505 71.9869 344.897 71.7518 334.324 70.4161C329.646 69.8251 328.899 70.0099 326.574 72.3357C325.158 73.7512 324 75.9998 324 77.3327C324 80.6181 326.843 87.2152 327.961 86.5243C328.457 86.2181 329.145 86.4248 329.49 86.9839C330.332 88.3461 334.323 88.2777 335.723 86.8773C336.554 86.0466 337.867 86.8275 340.768 89.8774C342.925 92.145 345.323 93.9842 346.095 93.9644C346.892 93.9455 346.203 92.8691 344.503 91.4802L341.507 89.032L344.638 85.9009L347.769 82.7698L350.885 85.0731C354.269 87.575 354.958 90.9601 352.5 93.0004C351.675 93.6851 351 94.8652 351 95.6228C351 98.544 344.773 96.8209 340.167 92.6254C336.694 89.4615 322.606 88.8959 317.298 91.7073C314.212 93.3418 313.93 93.3199 309.488 91.1017C303.963 88.3419 299.261 88.8324 294.165 92.7C290.608 95.4006 289.389 95.0142 288.806 91.0004C288.446 88.5229 288.427 88.5295 286.705 91.7335C284.659 95.5385 278 99.6298 278 97.0819ZM303.5 62.3709C294.456 60.9653 285 56.6844 285 53.9957C285 53.5232 288.488 52.3198 292.75 51.3215C307.874 47.7795 342.069 49.4342 349 54.0433C350.28 54.8942 350.155 55.3302 348.151 57.0112C343.861 60.6094 336.342 62.1271 321 62.4922C313.025 62.6819 305.15 62.6276 303.5 62.3709ZM281.655 47.1714C279.127 44.378 279.634 42.6288 283.986 39.1317C300.069 26.2074 326.08 24.5577 346.163 35.1885C349.278 36.8371 352.855 39.2815 354.113 40.6204L356.4 43.0547L353.754 45.7005L351.109 48.3462L344.045 45.0905C326.673 37.0829 303.092 37.4603 289.716 45.9599C284.105 49.5246 283.823 49.567 281.655 47.1714ZM313.047 23.2003C310.952 21.106 310 19.1781 310 17.0316C310 9.69475 320.434 5.9226 324.928 11.635C329.296 17.1879 326.595 24.5655 319.797 25.6538C316.595 26.1664 315.68 25.8341 313.047 23.2003ZM320 18.5734C320 16.1508 320.513 15.0127 321.75 14.6894C322.713 14.4381 321.475 14.2155 319 14.1951C316.525 14.1762 315.063 14.3848 315.75 14.6624C316.438 14.9398 317 16.7043 317 18.5834C317 20.9538 317.46 22.0001 318.5 22.0001C319.542 22.0001 320 20.9527 320 18.5734ZM208.25 136.676C209.213 135.633 210 133.441 210 131.805V128.832L205.907 132.074C201.335 135.695 199.409 139.018 200.395 141.586C200.988 143.131 201.321 143.067 203.776 140.937C205.274 139.638 207.288 137.72 208.25 136.676ZM246.944 132.861C266.601 125.298 266.622 125.289 265.811 124.478C265.213 123.88 228.994 137.715 227.55 139.093C225.711 140.849 228.56 139.933 246.944 132.861ZM408.879 137.96C404.455 135.509 367.651 122.098 366.797 122.625C365.57 123.384 408.11 139.981 409.379 139.238C409.862 138.955 409.637 138.38 408.879 137.96ZM434.97 128C434.97 125.485 433.454 122.152 432.709 123.029C428.135 128.412 425.726 135.393 427.746 137.412C428.939 138.606 434.971 130.748 434.97 128ZM246.643 127.483C268.59 119.064 269.706 118.555 268.216 117.634C267.644 117.28 260.048 119.732 251.338 123.083C242.627 126.433 233.138 130.068 230.25 131.159C225.56 132.932 223.284 135 226.024 135C226.587 135 235.865 131.618 246.643 127.483ZM410.857 132.89C410.111 132.418 408.825 132.038 408 132.047C406.847 132.059 406.938 132.395 408.398 133.5C409.441 134.29 410.727 134.669 411.254 134.343C411.807 134.001 411.639 133.386 410.857 132.89ZM206.056 130.48C210.491 127.235 212 125.166 212 122.334V120.049L207.569 122.726C203.332 125.285 201 128.417 201 131.547C201 133.601 202.112 133.366 206.056 130.48ZM423.081 130.151C422.487 129.04 422 126.838 422 125.257C422 123.676 421.418 121.586 420.707 120.613C419.473 118.926 419.309 118.929 417.13 120.694C414.038 123.198 415.045 126.72 419.823 130.106C423.976 133.048 424.636 133.057 423.081 130.151ZM220.5 126.415C224.757 121.794 261.394 107.608 266.565 108.578C270.732 109.36 270.809 108.743 267.366 102.107C264.431 96.45 265.113 93.9999 269.623 93.9999C271.041 93.9999 272 93.4106 272 92.5389C272 91.7353 272.907 90.2326 274.016 89.1996C275.905 87.4401 275.937 87.094 274.532 83.729C273.706 81.7533 272.6 79.8708 272.074 79.5457C269.497 77.9526 266.798 70.1424 267.144 65.2763C267.5 60.2694 267.499 60.2681 265 61.3449C263.625 61.9374 261.228 63.4521 259.674 64.711C258.119 65.9699 256.441 67 255.946 67C254.448 67 238.594 81.0536 237.231 83.5886C236.534 84.8872 235.071 86.4269 233.981 87.01C232.892 87.5932 232 88.6597 232 89.3801C232 90.1006 231.063 91.5381 229.918 92.5747C228.772 93.6112 227.189 95.8185 226.4 97.4796C225.611 99.1408 224.225 101.85 223.32 103.5C219.924 109.696 217.867 115.005 215.454 123.799C213.443 131.128 213.504 132.609 215.75 130.958C216.713 130.251 218.85 128.206 220.5 126.415ZM402.434 130.06C401.333 128.99 380.511 121 378.824 121C376.31 121 379.659 122.698 390.828 127.085C401.912 131.438 404.547 132.114 402.434 130.06ZM409.536 126.75C411.971 122.843 412.308 123.442 410.521 128.5C409.948 130.12 410.207 130.025 411.885 128C414.741 124.552 414.529 122.164 411.25 120.84C406.923 119.093 403.751 118.907 404.337 120.435C404.615 121.159 404.211 122.967 403.441 124.452C402.408 126.443 402.363 127.048 403.27 126.753C403.947 126.533 405.156 125.036 405.958 123.426C407.05 121.234 407.505 120.922 407.769 122.183C407.963 123.108 407.419 125.224 406.561 126.883C404.748 130.389 404.656 131 405.944 131C406.462 131 408.079 129.087 409.536 126.75ZM246.25 121.271C258.171 116.674 266 113.128 266 112.327C266 109.98 262.877 110.819 242.393 118.671C225.058 125.316 222.354 126.636 222.775 128.246C223.096 129.476 223.816 129.904 224.882 129.5C225.772 129.164 235.388 125.46 246.25 121.271ZM429.611 125.714C432.393 121.416 433.276 118.446 432.5 116C431.468 112.748 429.549 113.691 427.149 118.631C425.608 121.802 425.098 124.167 425.529 126.131C426.334 129.796 427.014 129.727 429.611 125.714ZM401.778 122.905C401.965 121.94 399.366 120.469 393.778 118.376C386.844 115.78 385.364 115.51 384.659 116.713C383.579 118.555 383.242 118.319 392 121.859C399.922 125.061 401.33 125.212 401.778 122.905ZM208.977 120.515C213.017 117.964 215 115.34 215 112.545C215 111.171 214.473 111.228 211.038 112.981C206.244 115.426 203 118.739 203 121.189C203 123.618 204.292 123.472 208.977 120.515ZM374 119C374 118.45 373.663 117.994 373.25 117.986C372.838 117.979 371.375 117.72 370 117.412C367.587 116.871 367.568 116.907 369.441 118.426C371.634 120.204 374 120.502 374 119ZM380.132 114.627L382.054 110.5L381.507 114.5L380.959 118.5L382.62 115.337C384.868 111.055 383.921 109.302 378.809 108.279C374.545 107.427 374.494 107.45 373.943 110.493C373.636 112.184 373.047 114.115 372.634 114.784C372.22 115.453 372.359 116 372.941 116C373.524 116 374.01 115.663 374.023 115.25C374.034 114.838 374.971 113.375 376.104 112L378.163 109.5L377.667 113C377.394 114.925 376.831 117.361 376.416 118.414C374.943 122.148 378.15 118.879 380.132 114.627ZM427.969 114.85C429.83 110.525 429.995 109.284 429 107.1L427.815 104.5L426.482 108.375C425.749 110.506 424.666 112.734 424.075 113.325C422.884 114.517 422.627 118.293 423.667 119.333C425.025 120.692 425.806 119.878 427.969 114.85ZM211.814 111.594C216.195 109.374 220.11 104.777 218.766 103.432C217.804 102.47 207.982 107.165 206.96 109.075C205.925 111.009 205.666 114 206.533 114C206.827 114 209.203 112.917 211.814 111.594ZM272 113C272 112.45 271.325 112 270.5 112C269.675 112 269 112.45 269 113C269 113.55 269.675 114 270.5 114C271.325 114 272 113.55 272 113ZM366.771 112.812C366.153 110.958 364 110.651 364 112.417C364 113.287 364.713 114 365.584 114C366.454 114 366.989 113.466 366.771 112.812ZM372 111.882C372 111.332 371.55 111.16 371 111.5C370.45 111.84 370 112.568 370 113.118C370 113.668 370.45 113.84 371 113.5C371.55 113.16 372 112.432 372 111.882ZM221.411 98.6871C224.765 95.1396 223.747 94.2854 218.259 96.0427C213.706 97.5006 210 100.697 210 103.166C210 104.89 210.219 104.901 214.25 103.375C216.588 102.49 219.81 100.381 221.411 98.6871ZM428.818 90.1466C428.857 87.2784 428.241 85.6349 426.518 84.0162C425.223 82.7997 423.578 79.8235 422.863 77.4022C422.149 74.981 421.012 73 420.339 73C416.39 73 414.695 63.4942 417.61 57.7003C419.846 53.2564 426.04 46.9999 428.203 46.9999C433.403 46.9999 425.908 40.5131 419.618 39.57C412.38 38.4845 408.69 39.5034 398.108 45.5103C395.676 46.8909 387.037 55.3062 387.017 56.3145C387.009 56.7625 385.68 58.2398 384.067 59.5972C382.454 60.9547 380.629 63.5961 380.011 65.4669C379.33 67.5301 377.614 69.6205 375.648 70.7804C373.865 71.8321 371.303 74.1542 369.954 75.9407C366.289 80.792 362.73 84.5061 360.621 85.679C359.075 86.5388 358.908 87.223 359.679 89.5365C360.614 92.3402 360.634 92.324 366.324 84.2505C374.367 72.8365 381 67.7253 381 72.941C381 75.9613 382.367 76.1147 386.182 73.5226L389.697 71.1337L389.205 73.711C388.768 75.9964 388.983 76.2298 391.106 75.7727C392.423 75.4892 394.288 74.9262 395.25 74.5216C396.48 74.0046 397 74.246 397 75.334C397 76.1853 396.55 77.16 396 77.5C393.913 78.79 394.982 84.2146 398 87.6527C400.197 90.1552 401 92.0772 401 94.8348C401 99.4351 402.418 101 406.585 101C410.404 101 412.634 98.1419 413.619 91.9847C414.013 89.5178 414.937 87.5973 415.892 87.2594C416.776 86.9465 418.51 85.5224 419.743 84.0951L421.986 81.4999L424.381 84.1751C426.861 86.9458 427.068 90.1153 425.511 101.5C425.033 105.002 425.201 104.789 426.864 99.7827C427.909 96.6381 428.788 92.3019 428.818 90.1466ZM406.365 56.9274C407.815 55.7875 409 54.2125 409 53.4274C409 52.6423 409.45 52 410 52C411.878 52 411.006 55.8828 408.778 57.4433C405.416 59.7981 403.293 59.3442 406.365 56.9274ZM397.333 54.3383C399.436 50.2523 403.609 46.9999 406.749 46.9999C409.669 46.9999 417.007 50.8958 416.985 52.4341C416.977 53.0203 416.545 54.1712 416.027 54.9916C414.988 56.6346 413.036 55.4133 412.653 52.8807C411.828 47.4247 406.496 47.5845 400.331 53.2499C395.799 57.4145 395.739 57.4364 397.333 54.3383ZM404.128 54.6542C403.179 53.5101 403.444 53.1484 405.526 52.7503C407.46 52.3807 408.023 52.64 407.799 53.7967C407.387 55.9192 405.537 56.3514 404.128 54.6542ZM226.947 90.5047C230.223 87.2327 229.132 86.529 223.047 87.9889C218.191 89.1537 213.351 93.1412 214.513 95.0201C215.34 96.3588 224.368 93.0803 226.947 90.5047ZM231.25 84.3562C232.763 83.5821 234 82.7721 234 82.5562C234 82.3404 234.243 81.5302 234.54 80.756C234.979 79.614 234.152 79.4674 230.162 79.9793C224.637 80.6882 220 83.2576 220 85.6111C220 86.8961 220.76 87.0497 224.25 86.4698C226.588 86.0814 229.738 85.1303 231.25 84.3562ZM234.408 78.046C236.557 77.5475 239.472 75.9833 240.885 74.5699L243.455 72.0001H238.375C234.758 72.0001 232.34 72.6479 229.975 74.2501C223.677 78.5173 225.531 80.105 234.408 78.046ZM432.638 69.2822C435.258 63.0926 433.747 53.5215 429.609 50.0893C424.146 45.5584 414.416 65.2735 419.572 70.4287C421.257 72.1137 423 72.506 423 71.2001C423 70.7601 422.468 69.8676 421.817 69.2168C421.166 68.566 420.943 67.7242 421.321 67.3462C422.525 66.1421 427 71.2508 427 73.8294C427 76.2908 427.015 76.2953 429.138 74.4051C430.314 73.3574 431.889 71.0521 432.638 69.2822ZM377.366 66.3756C377.627 65.7572 376.142 64.1386 374.065 62.7788L370.289 60.3064L370.394 65.9383L370.5 71.5702L373.695 69.5351C375.452 68.4159 377.104 66.9941 377.366 66.3756ZM247.106 69.2789C251.299 66.8019 250.128 65.497 243.736 65.5215C238.41 65.5404 234 67.6409 234 70.1551C234 71.7275 244.104 71.0519 247.106 69.2789ZM257.124 62.1013L259.468 60.2025L253.53 59.4606C247.437 58.6993 243.176 59.9415 242.247 62.7501C241.519 64.9497 254.294 64.3926 257.124 62.1013ZM379.448 58.7501C377.015 50.7843 373.882 46.7181 371.79 48.8104C370.17 50.4303 372.473 57.5175 375.252 59.4639C378.516 61.75 380.273 61.4511 379.448 58.7501ZM264.453 57.8396C268.011 56.2184 267.651 55.485 262.75 54.3711C257.929 53.2753 252.153 54.1424 250.899 56.1503C249.374 58.5909 259.92 59.9052 264.453 57.8396ZM383.399 57.4994C384.968 56.3113 385.077 55.7974 384.026 54.5312C382.285 52.4335 378.584 52.4739 379.393 54.5819C379.727 55.4518 380 56.8018 380 57.5818C380 59.3604 380.971 59.3369 383.399 57.4994ZM370.607 54.4182C370.273 53.5482 370 52.3929 370 51.8508C370 51.2904 369.029 51.1636 367.75 51.5567C364.669 52.5039 364.532 52.7303 365.98 54.4757C367.717 56.5681 371.415 56.522 370.607 54.4182ZM271.849 54.3437C273.98 53.7733 273.748 53.4966 269.349 51.3665C266.682 50.075 263.768 49.0141 262.873 49.0091C261.317 49.0015 258.289 51.7016 259.108 52.3675C259.413 52.6158 264.688 53.9481 269 54.8661C269.275 54.9247 270.557 54.6896 271.849 54.3437ZM17.6669 156.333C16.6471 155.313 16.8541 153.31 18.6003 147.304C21.1071 138.681 22.2339 138 34.0002 138C43.3336 138 44.0002 138.133 44.0002 140C44.0002 141.818 43.3336 142 36.6828 142H29.3655L27.6828 147.338C25.5489 154.108 25.5363 154 28.465 154C29.8785 154 31.3714 153.175 31.965 152.066C33.441 149.308 33.297 149 30.5316 149C28.7481 149 28.2227 148.584 28.6386 147.5C29.0796 146.351 30.9717 146 36.7297 146C42.6189 146 44.0246 146.271 43.2259 147.25C42.6654 147.937 41.6391 150.412 40.9452 152.75L39.6836 157H29.0086C23.1373 157 18.0336 156.7 17.6669 156.333ZM44.2299 155.75C44.4739 155.062 45.731 150.787 47.0234 146.25L49.3732 138H60.0643C67.6582 138 71.0703 138.379 71.8425 139.31C73.3888 141.173 71.1126 148.158 68.7585 148.773C67.6648 149.059 67.1224 149.894 67.3928 150.874C67.6396 151.768 68.1326 153.512 68.4883 154.75C69.0982 156.872 68.8472 157 64.0794 157H59.0239L58.3842 153C58.0016 150.607 57.1981 149 56.3842 149C55.5704 149 54.7669 150.607 54.3842 153L53.7446 157H48.7654C45.2121 157 43.9133 156.642 44.2299 155.75ZM62.815 143.75C63.0727 142.391 62.4603 142 60.0735 142C57.634 142 57.0002 142.426 57.0002 144.066C57.0002 145.729 57.5354 146.071 59.7417 145.816C61.3951 145.625 62.6148 144.805 62.815 143.75ZM73.3289 155.414C72.2895 152.705 75.0569 142.852 77.5603 140.349C79.6963 138.213 80.7716 138 89.4196 138C101.242 138 101.832 138.626 98.9157 148.084C97.8279 151.613 96.1909 155.062 95.2779 155.75C94.2118 156.553 90.0979 157 83.7777 157C75.7166 157 73.8274 156.713 73.3289 155.414ZM89.4062 149.322C91.6195 142.826 91.4715 142 88.0942 142C85.5275 142 85.0021 142.546 83.5942 146.678C81.3809 153.174 81.529 154 84.9062 154C87.4729 154 87.9983 153.454 89.4062 149.322ZM102.093 155.611C101.208 154.546 101.469 152.334 103.213 146.111L105.486 138H110.35C114.58 138 115.124 138.228 114.522 139.75C112.56 144.708 110.307 152.973 110.786 153.453C111.087 153.754 113.52 154 116.192 154C121.661 154 121.767 153.861 124.134 143.68C125.325 138.559 125.712 138 128.069 138H130.683L127.926 146.046C126.41 150.471 124.626 154.746 123.962 155.546C122.276 157.577 103.77 157.632 102.093 155.611ZM131.405 147.5L134.406 138H144.121C149.465 138 154.548 138.273 155.418 138.607C158.556 139.811 156.344 148.067 152.403 149.862C151.03 150.488 147.509 151 144.578 151C139.458 151 139.227 151.117 138.65 154C138.083 156.836 137.786 157 133.227 157H128.404L131.405 147.5ZM147.11 144.25C147.849 142.237 147.624 142 144.968 142C143.336 142 142 142.413 142 142.918C142 143.423 141.713 144.584 141.363 145.498C140.848 146.84 141.259 147.096 143.505 146.83C145.295 146.617 146.578 145.699 147.11 144.25ZM158.563 149.25C159.887 144.987 160.977 140.712 160.985 139.75C160.998 138.201 162.149 138 171 138C180.248 138 181 138.147 181 139.95C181 141.622 180.182 141.943 175.26 142.2C170.563 142.445 169.454 142.843 169.16 144.387C168.837 146.085 169.31 146.225 173.901 145.784C176.705 145.514 178.993 145.565 178.985 145.897C178.935 147.866 176.873 148.908 172.481 149.186C168.122 149.461 167.459 149.793 167.167 151.852C166.85 154.094 167.072 154.188 171.929 153.852C175.861 153.58 176.907 153.803 176.512 154.831C176.23 155.564 176 156.352 176 156.582C176 156.812 171.535 157 166.078 157H156.155L158.563 149.25Z" fill="white"/>
</svg>
