<svg width="458" height="191" viewBox="0 0 458 191" fill="none" xmlns="http://www.w3.org/2000/svg">
<g clip-path="url(#clip0_747_139)">
<path d="M194.476 188.507L193.965 186.553L196.609 187.068C198.571 187.451 199.584 187.042 200.535 185.485L201.816 183.387L199.681 176.174C198.506 172.207 197.078 168.387 196.507 167.687C194.998 165.834 195.884 165.445 200.068 166.124L203.778 166.726L202.617 168.125C201.733 169.191 201.764 170.529 202.75 173.742L204.043 177.961L205.865 173.961C206.866 171.761 207.44 169.156 207.14 168.172L206.594 166.383L209.424 167.062C212.874 167.891 213.683 168.582 211.935 169.204C211.209 169.462 208.619 173.745 206.179 178.721C203.739 183.698 201.24 188.375 200.626 189.115C198.924 191.165 195.071 190.784 194.476 188.507ZM242.928 184.146C239.986 181.015 239.913 173.74 242.793 170.649C244.735 168.564 246.804 168.016 251.254 168.406C256.866 168.898 258.915 179.39 254.299 184.006C251.051 187.254 245.907 187.317 242.928 184.146ZM251.554 183.261C253.155 181.66 253.085 174.296 251.448 172.057C250.645 170.959 249.2 170.404 247.698 170.616L245.254 170.961L244.95 175.677C244.481 182.969 247.908 186.906 251.554 183.261ZM220.254 184.461C220.593 183.911 221.471 183.461 222.205 183.461C223.18 183.461 223.732 180.745 224.262 173.342C224.997 163.079 224.849 162.478 221.254 161.114C218.647 160.125 222.106 159.814 231.004 160.236L240.754 160.699V164.08C240.754 165.939 240.304 167.461 239.754 167.461C239.204 167.461 238.754 166.812 238.754 166.02C238.754 164.131 237.89 163.666 232.908 162.869L228.754 162.205V166.833V171.461H231.132C232.466 171.461 234.198 170.473 235.079 169.211L236.649 166.961L236.701 172.211C236.753 177.424 235.466 179.293 234.464 175.461C234.083 174.004 233.1 173.461 230.847 173.461H227.754V178.461C227.754 182.147 228.132 183.461 229.195 183.461C229.987 183.461 230.914 183.911 231.254 184.461C231.64 185.086 229.578 185.461 225.754 185.461C221.93 185.461 219.867 185.086 220.254 184.461ZM261.327 183.211C261.072 181.973 260.582 178.797 260.238 176.152C259.859 173.23 259.02 171.116 258.1 170.763L256.586 170.182L257.92 169.337C258.653 168.872 260.245 168.484 261.458 168.476L263.662 168.461L263.958 175.211L264.253 181.961H266.753H269.253L269.553 176.211L269.853 170.461H268.304C267.451 170.461 266.754 170.063 266.754 169.578C266.754 168.583 271.831 167.391 272.998 168.112C273.414 168.369 273.754 171.477 273.754 175.02C273.754 179.91 274.095 181.461 275.17 181.461C275.949 181.461 276.737 181.897 276.92 182.429C277.104 182.961 277.829 183.039 278.533 182.602C280.433 181.421 279.029 170.661 276.922 170.255C275.789 170.037 276.159 169.425 278.253 168.054C280.02 166.896 281.29 166.571 281.507 167.22C281.743 167.93 282.756 167.823 284.532 166.901L287.203 165.515L289.228 166.848C290.726 167.833 291.49 169.912 292.161 174.821C292.768 179.259 293.514 181.461 294.411 181.461C295.15 181.461 295.754 181.864 295.754 182.356C295.754 183.439 287.788 184.326 287.163 183.314C286.92 182.921 287.178 182.317 287.737 181.971C288.966 181.212 289.067 172.504 287.868 170.613C287.398 169.871 286.168 169.425 285.134 169.622L283.254 169.98L282.944 175.44C282.701 179.714 283.011 181.176 284.371 182.171C285.326 182.869 285.915 183.628 285.681 183.858C284.875 184.645 278.254 184.738 276.491 183.988C275.456 183.547 274.083 183.773 273.165 184.535L271.601 185.833L270.802 184.54C270.24 183.63 269.801 183.575 269.32 184.355C268.943 184.963 267.096 185.461 265.214 185.461C262.469 185.461 261.7 185.015 261.327 183.211ZM185.754 181.429C185.754 180.862 186.374 180.16 187.133 179.869C188.036 179.522 188.948 176.046 189.775 169.797L191.038 160.255L189.675 159.412C187.895 158.312 188.675 157.627 192.594 156.843C195.059 156.35 195.68 156.519 195.308 157.582C195.044 158.34 194.149 163.646 193.32 169.372L191.812 179.783L193.533 181.09L195.254 182.397L190.504 182.427C187.887 182.446 185.754 181.998 185.754 181.429ZM297.793 180.272C294.56 176.803 294.989 170.072 298.677 166.384C300.284 164.776 302.341 163.461 303.246 163.461C304.389 163.461 304.788 162.772 304.549 161.211C304.36 159.973 303.654 159.073 302.98 159.211C300.851 159.645 301.649 157.759 304.34 155.996C305.763 155.064 307.055 154.449 307.212 154.631C307.368 154.812 308.02 158.786 308.659 163.461C309.299 168.136 310.067 173.198 310.367 174.711C311.007 177.94 313.754 178.441 313.754 175.329C313.754 174.156 315.329 171.711 317.254 169.896C320.811 166.541 321.478 165.027 319.844 164.016C318.31 163.069 315.986 164.482 315.297 166.78L314.643 168.961L313.501 166.611L312.359 164.261L314.306 163.111C320.698 159.335 324.229 161.177 325.519 168.961C326.151 172.771 326.753 173.928 328.051 173.822C330.131 173.652 330.199 174.478 328.314 177.02C327.159 178.578 326.515 178.742 325.048 177.848C323.656 177.001 322.917 177.06 321.947 178.098C320.457 179.693 316.152 179.914 315.242 178.443C314.856 177.818 313.44 178.26 311.58 179.584C309.381 181.15 308.345 181.417 307.812 180.555C307.269 179.677 306.741 179.771 305.793 180.913C303.956 183.126 300.169 182.823 297.793 180.272ZM305.554 178.261C307.004 176.81 307.109 172.525 305.778 169.026C304.74 166.295 301.969 165.646 299.954 167.661C298.052 169.562 298.514 175.221 300.754 177.461C303.069 179.776 303.899 179.915 305.554 178.261ZM322.578 174.152C322.768 173.158 322.67 171.685 322.361 170.88L321.799 169.415L319.776 170.679C318.664 171.373 317.754 172.99 317.754 174.271C317.754 176.111 318.223 176.533 319.993 176.28C321.225 176.105 322.388 175.147 322.578 174.152ZM179.004 180.755C176.372 180.248 176.19 179.6 178.247 178.071C180.37 176.493 181.474 167.524 179.682 166.416C177.917 165.326 178.482 164.86 182.654 163.965L186.054 163.236L185.459 164.786C183.866 168.937 182.632 178.92 183.669 179.266C184.266 179.465 184.754 180.04 184.754 180.544C184.754 181.475 183.063 181.537 179.004 180.755ZM173.254 179.969C172.704 179.786 170.915 179.337 169.278 178.973L166.303 178.309L168.482 176.635C170.581 175.023 173.173 166.948 172.132 165.265C171.36 164.015 168.117 164.318 166.928 165.75C165.354 167.647 163.799 175.371 164.859 176.026C167.156 177.446 165.353 178.146 161.754 177.233C157.901 176.255 156.237 174.461 159.182 174.461C160.1 174.461 161.056 172.466 161.859 168.879L163.108 163.298L161.735 162.449C159.441 161.031 156.887 163.25 155.688 167.704C154.857 170.789 154.85 172.386 155.663 173.687L156.771 175.461L154.512 175.361C153.27 175.306 151.129 174.941 149.754 174.55L147.254 173.838L149.372 172.685C150.536 172.051 151.752 170.218 152.073 168.613C152.394 167.007 152.953 164.516 153.314 163.077C153.825 161.039 153.602 160.461 152.303 160.461C151.386 160.461 150.914 160.011 151.254 159.461C152.072 158.137 157.754 158.168 157.754 159.495C157.754 160.163 158.373 160.205 159.504 159.613C161.33 158.656 165.113 159.613 166.152 161.296C166.484 161.833 167.648 162.038 168.739 161.753C169.829 161.468 171.854 161.519 173.238 161.866C176.158 162.599 176.511 165.567 174.586 173.211C173.696 176.746 173.696 177.94 174.586 178.237C175.228 178.451 175.754 179.039 175.754 179.543C175.754 180.467 175.089 180.581 173.254 179.969ZM333.647 175.433C332.739 174.919 331.482 171.896 330.76 168.491C329.954 164.692 328.976 162.461 328.117 162.461C326.426 162.461 326.424 162.491 328.284 158.043C329.745 154.545 331.754 153.958 331.754 157.029C331.754 158.761 338.02 158.314 340.304 156.419C341.87 155.119 342.834 156.841 344.245 163.461C345.262 168.238 346.547 170.461 348.289 170.461C351.451 170.461 349.514 172.179 345.254 173.153C340.778 174.178 339.809 173.805 341.793 171.822C342.512 171.103 342.438 169.309 341.553 166.001C340.23 161.052 338.072 159.303 334.456 160.249L332.583 160.739L333.234 164.206C334.483 170.863 335.561 172.657 337.873 171.923C339.35 171.454 339.862 171.635 339.567 172.52C338.828 174.737 335.396 176.426 333.647 175.433ZM142.299 171.864C141.421 170.985 140.151 170.476 139.478 170.732C136.774 171.761 133.754 169.589 133.754 166.615C133.754 162.974 135.23 161.728 140.553 160.877C143.752 160.365 144.754 159.759 144.754 158.333C144.754 156.258 142.65 155.911 139.688 157.496C138.2 158.292 137.754 158.205 137.754 157.118C137.754 153.293 144.941 152.571 147.871 156.102C149.115 157.601 148.99 158.448 146.026 168.711C145.674 169.927 146.089 170.47 147.387 170.493L149.254 170.523L147.312 171.991C144.861 173.845 144.267 173.832 142.299 171.864ZM142.937 165.956C144.379 162.793 143.726 162.14 140.392 163.408C138.74 164.036 137.754 165.168 137.754 166.436C137.754 169.414 141.521 169.066 142.937 165.956ZM352.919 169.326C350.132 168.295 346.762 162.738 346.757 159.165C346.755 157.491 347.787 155.337 349.33 153.794L351.906 151.218L356.352 151.719L360.798 152.22L362.735 149.757C363.801 148.402 365.119 147.568 365.663 147.905C366.208 148.241 367.142 147.604 367.739 146.489C368.452 145.155 369.834 144.461 371.774 144.461H374.725L377.754 150.461C379.419 153.761 381.451 156.461 382.268 156.461C384.834 156.461 383.891 158.024 380.291 159.741C378.387 160.649 376.58 160.989 376.275 160.496C375.97 160.002 376.151 159.333 376.677 159.008C377.772 158.331 375.376 151.885 373.06 149.278C371.402 147.411 369.219 147.805 368.326 150.133C367.49 152.31 371.335 160.461 373.197 160.461C375.845 160.461 374.92 162.011 371.22 163.776C366.918 165.827 366.154 165.888 367.671 164.06C369.343 162.045 365.104 152.46 362.54 152.46H360.702L362.228 155.411C366.373 163.426 360.54 172.145 352.919 169.326ZM359.78 165.412C362.089 161.097 357.003 152.612 352.889 153.918C350.424 154.7 349.832 157.012 351.085 160.961C353.055 167.169 357.595 169.493 359.78 165.412ZM117.254 162.983C112.546 160.765 112.149 160.03 115.851 160.383C116.97 160.489 118.597 157.796 121.28 151.399L125.111 142.262L123.863 140.264C123.177 139.165 122.759 138.13 122.934 137.963C123.231 137.681 139.834 144.295 140.599 145C140.789 145.175 140.64 146.7 140.269 148.389C139.479 151.985 137.754 152.504 137.754 149.146C137.754 147.481 136.762 146.358 134.22 145.146C129.504 142.897 129.377 142.931 127.465 146.94L125.806 150.418L127.714 151.44C130.294 152.82 132.492 152.725 133.033 151.211C133.279 150.523 133.822 150.279 134.241 150.668C135.241 151.598 132.364 158.757 130.777 159.286C129.939 159.565 129.753 159.037 130.197 157.64C130.67 156.148 130.265 155.27 128.723 154.444C125.72 152.837 124.137 153.768 122.756 157.953L121.557 161.586L123.31 163.523C125.715 166.18 123.651 165.996 117.254 162.983ZM183.849 158.52C182.338 157.586 183.034 154.461 184.754 154.461C186.218 154.461 187.219 157.395 186.128 158.486C185.626 158.988 184.63 159.002 183.849 158.52ZM80.7535 149.599C40.091 135.286 13.8487 117.69 4.41702 98.4144C-0.174816 89.0299 -1.0607 82.1987 1.17625 73.4244C10.2455 37.8504 75.0327 10.4643 171.754 1.31958C192.607 -0.65209 253.019 -0.357515 275.254 1.82426C336.107 7.79534 393.184 19.6237 430.271 33.949C441.909 38.4441 458.26 46.2877 457.525 47.0224C457.286 47.2617 452.177 46.0765 446.172 44.3883C406.655 33.2789 341.833 19.311 307.754 14.5622C282.092 10.9863 266.882 10.1474 239.754 10.8114C127.01 13.5708 42.5198 43.5449 32.1519 84.4607L30.5048 90.9607L31.6778 97.3399C35.2135 116.568 52.3086 132.828 85.9656 148.975C92.174 151.953 96.5785 154.381 95.7535 154.37C94.9285 154.359 88.1785 152.212 80.7535 149.599ZM336.754 149.461C336.754 147.955 337.276 147.415 338.504 147.651C339.466 147.836 340.254 148.651 340.254 149.461C340.254 150.271 339.466 151.085 338.504 151.27C337.276 151.507 336.754 150.967 336.754 149.461ZM208.494 126.032C206.426 125.294 204.088 124.153 203.297 123.497C200.585 121.246 198.477 113.807 198.947 108.145C199.741 98.5715 205.648 93.4608 215.92 93.4608C226.141 93.4608 231.754 99.05 231.754 109.227C231.754 118.501 227.873 124.283 220.254 126.359C215.164 127.747 213.143 127.69 208.494 126.032ZM219.349 121.356L221.254 119.251L221.196 110.973C221.127 101.062 219.413 97.4609 214.766 97.4609C210.477 97.4609 209.502 100.109 209.908 110.662L210.254 119.639L212.615 121.55C215.637 123.996 216.994 123.958 219.349 121.356ZM315.788 126.2C307.103 123.094 304.269 108.567 310.611 99.6606C313.421 95.7147 318.477 93.4608 324.52 93.4608C330.666 93.4608 334.402 96.0718 335.33 101.015C336.36 106.505 334.848 107.461 325.131 107.461H316.754V109.493C316.754 113.41 319.6 118.452 322.416 119.523C324.535 120.328 326.164 120.194 329.441 118.943C333.489 117.396 335.754 117.566 335.754 119.416C335.754 120.929 325.997 126.549 322.59 126.999C320.755 127.242 317.694 126.882 315.788 126.2ZM325.573 101.313C324.845 96.4179 319.437 96.381 317.633 101.259L316.818 103.461H321.355H325.893L325.573 101.313ZM134.754 124.936C134.754 124.037 136.001 123.161 137.789 122.804C139.459 122.47 141.259 121.386 141.789 120.394C142.319 119.403 142.754 110.913 142.754 101.527V84.4608H137.837H132.92L131.504 88.7108C130.706 91.1042 129.359 93.1021 128.421 93.2841L126.754 93.6073V86.534V79.4607H147.754H168.754V81.8211C168.754 83.1193 169.04 86.2694 169.389 88.8211L170.025 93.4607H167.973C166.446 93.4607 165.559 92.3719 164.509 89.2107L163.097 84.9607L158.403 84.655L153.709 84.3492L153.981 103.092L154.254 121.835L157.504 122.676C159.316 123.146 160.754 124.168 160.754 124.989V126.461H147.754H134.754L134.754 124.936ZM169.754 125.121C169.754 124.385 170.879 123.269 172.254 122.643L174.754 121.504V110.982V100.461H172.254C170.879 100.461 169.763 99.8984 169.776 99.2109C169.801 97.7805 183.412 93.132 184.894 94.0477C185.442 94.3867 185.569 96.0268 185.182 97.7877L184.493 100.924L187.212 97.6925C189.323 95.1841 190.714 94.4609 193.43 94.4609H196.929L196.238 98.7109C195.328 104.314 194.296 105.262 191.683 102.897L189.564 100.98L187.159 103.776L184.754 106.572V114.069V121.565L187.754 122.611C189.404 123.186 190.754 124.288 190.754 125.059C190.754 126.173 188.595 126.461 180.254 126.461C172.146 126.461 169.754 126.156 169.754 125.121ZM241.442 124.669C240.176 123.271 239.758 120.254 239.537 110.919L239.254 98.9609L237.574 98.9495C234.112 98.9231 234.621 97.3873 239.562 92.945C242.359 90.4301 244.927 87.4927 245.268 86.4174C245.619 85.3102 246.782 84.4623 247.95 84.4623H250.011L249.348 89.4622L248.685 94.4623H253.719C259.127 94.4623 259.292 94.5881 257.718 97.528C256.962 98.941 255.615 99.4623 252.718 99.4623H248.754V108.028C248.754 118.482 249.706 120.687 254.039 120.268C258.647 119.822 258.78 122.602 254.254 124.761C249.527 127.015 243.526 126.971 241.442 124.669ZM265.31 124.238C264.113 122.529 263.754 119.268 263.754 110.122V98.2276L261.755 98.7503C260.655 99.0379 259.52 98.8921 259.232 98.4264C258.693 97.5536 262.535 93.4607 263.894 93.4607C264.314 93.4607 266.051 91.4357 267.754 88.9607C272.018 82.7618 274.052 82.936 273.6 89.4613L273.253 94.462L278.003 94.4613C283.118 94.4606 283.285 94.5985 281.718 97.5264C280.962 98.9395 279.615 99.4607 276.718 99.4607H272.753V107.396C272.753 111.76 273.203 116.514 273.753 117.96L274.753 120.589L277.973 120.275C282.644 119.819 282.817 122.583 278.254 124.759C273.052 127.239 267.249 127.006 265.31 124.238ZM283.754 124.98C283.754 124.165 284.843 123.225 286.175 122.891L288.596 122.283L288.925 115.122C289.105 111.183 289.094 106.273 288.898 104.211L288.543 100.461H286.148C281.353 100.461 283.965 97.9059 291.021 95.6932C294.999 94.4461 298.509 93.4336 298.822 93.4433C299.135 93.4546 299.19 99.7445 298.945 107.424L298.499 121.388L301.126 122.585C302.571 123.243 303.753 124.385 303.753 125.121C303.753 126.151 301.443 126.461 293.753 126.461H283.753L283.754 124.98ZM338.754 124.867C338.754 123.991 339.658 123.037 340.765 122.748C343.407 122.057 343.904 119.686 343.549 109.461L343.253 100.961L341.003 100.642C339.766 100.466 338.753 99.7521 338.753 99.0555C338.753 97.989 341.465 96.9293 352.503 93.6821C353.321 93.4418 353.753 94.4289 353.753 96.5338V99.7531L356.206 97.1071C357.804 95.383 359.699 94.4611 361.647 94.4611C365.383 94.4611 365.633 94.959 364.529 100.211C363.586 104.697 362.25 105.523 360.284 102.834L359.095 101.208L356.968 102.346C354.488 103.673 352.76 109.076 352.774 115.461C352.786 120.658 353.477 122.082 356.242 122.607C357.336 122.814 358.381 123.766 358.565 124.723L358.9 126.461H348.827H338.754L338.754 124.867ZM290.976 87.9042C287.789 85.6719 287.99 81.0073 291.369 78.7934L293.984 77.0799L296.619 78.5516C300.243 80.5759 300.769 85.6362 297.587 87.8649C294.747 89.854 293.768 89.8598 290.976 87.9042ZM385.615 72.4433C381.661 70.1341 383.162 61.3896 388.106 57.9263C394.22 53.644 402.551 59.4898 398.796 65.4272L397.868 66.8935L393.657 64.527L389.446 62.1604L388.1 64.0017C387.359 65.0145 386.754 66.4067 386.754 67.0953C386.754 68.7089 390.676 71.4609 392.976 71.4609C393.954 71.4609 394.754 71.9109 394.754 72.4609C394.754 73.7288 387.793 73.7167 385.615 72.4433ZM396.754 61.5833C396.754 59.9151 393.773 58.2396 392.016 58.9204L390.254 59.6037L392.195 61.0323C394.367 62.6314 396.754 62.9198 396.754 61.5833ZM102.019 70.7109L103.594 68.9609L98.9718 59.7425L94.35 50.524L92.0518 51.1009C87.0958 52.3447 90.1734 49.6983 98.4652 45.5861L107.177 41.2655L108.965 43.474C111.869 47.0602 111.303 48.4457 107.822 46.2718C106.294 45.3172 105.128 45.4392 101.909 46.8908L97.8994 48.6989L99.5116 52.0799C100.398 53.9394 101.63 55.4609 102.248 55.4609C104.095 55.4609 106.561 53.0978 106.93 50.9736L107.276 48.9864L109.515 52.7808C111.959 56.9229 112.294 58.4609 110.754 58.4609C110.204 58.4609 109.754 58.0109 109.754 57.4609C109.754 56.1622 107.145 56.1809 104.686 57.4987L102.75 58.5348L104.772 62.4987C106.307 65.5077 107.391 66.4625 109.274 66.4625C113.001 66.4625 112.275 67.8105 107.227 70.2632C101.728 72.9347 99.8747 73.093 102.019 70.7109ZM375.509 66.6149C371.463 64.8282 370.639 63.4609 373.608 63.4609C374.971 63.4609 376.599 61.0171 379.741 54.255C382.446 48.4324 383.6 44.9096 382.88 44.6696C382.253 44.4609 381.949 43.9535 382.203 43.5422C382.757 42.647 388.98 43.4235 388.523 44.3307C379.698 61.8403 378.712 64.1594 379.225 66.2017C379.536 67.4443 379.671 68.4176 379.522 68.3648C379.374 68.3119 377.568 67.5245 375.509 66.6149ZM366.093 61.9034C365.751 61.0132 364.848 60.5945 363.984 60.9261C361.914 61.7204 357.754 58.8269 357.754 56.5929C357.754 54.0552 360.911 51.4609 364.001 51.4609C367.635 51.4609 369.754 50.4895 369.754 48.8225C369.754 46.8069 367.011 46.0023 365.217 47.4915C363.42 48.9823 362.267 48.1722 363.099 46.0041C363.783 44.2211 368.882 43.9241 371.819 45.496C374.287 46.8166 374.261 49.1123 371.71 55.0636L369.666 59.8321L371.33 60.7633L372.994 61.6946L371.624 62.5624C369.464 63.9302 366.747 63.6064 366.093 61.9034ZM367.572 55.9609L368.711 53.4609H366.432C363.906 53.4609 361.754 55.1634 361.754 57.1609C361.754 59.5681 366.361 58.6177 367.572 55.9609ZM121.16 61.5093C118.696 60.4876 115.754 54.7754 115.754 51.0143C115.754 47.2249 119.88 43.4609 124.034 43.4609C128.376 43.4609 131.741 46.9512 132.443 52.182L132.968 56.0995L130.611 58.7426C127.955 61.7205 124.271 62.799 121.16 61.5093ZM128.78 57.4119C131.129 53.022 125.587 44.4365 121.432 46.0306C119.17 46.8989 118.518 49.71 119.798 53.077C122.14 59.238 126.64 61.4098 128.78 57.4119ZM351.004 57.2143C347.689 56.1509 346.583 54.461 349.202 54.461C351.176 54.461 354.767 43.2987 352.984 42.7045C350.826 41.9851 352.747 40.461 355.813 40.461C357.43 40.461 358.754 40.6084 358.754 40.7887C358.754 40.969 357.66 44.2315 356.322 48.0387C354.816 52.3285 354.245 55.3222 354.822 55.9109C355.941 57.0522 356.048 58.501 355.003 58.3588C354.591 58.3025 352.791 57.7877 351.004 57.2143ZM139.815 55.5123C139.024 55.0158 137.447 51.9885 136.311 48.7851C135.175 45.5817 133.685 42.9044 132.999 42.8357C130.36 42.5707 130.331 42.3457 132.754 40.9607C136.734 38.6854 137.328 39.11 139.104 45.4977C140.875 51.8676 142.918 53.7248 145.411 51.2315L146.914 49.7287L145.632 45.4482C144.866 42.8916 143.625 40.9784 142.551 40.6976C141.563 40.4391 140.754 39.9022 140.754 39.5046C140.754 38.8796 145.12 36.4607 146.249 36.4607C146.469 36.4607 147.419 39.2014 148.359 42.5511C149.487 46.5728 150.708 48.8781 151.952 49.3383L153.835 50.0352L151.157 52.4979C149.245 54.2569 148.347 54.5883 148.015 53.6577C147.648 52.6254 147.313 52.6564 146.403 53.8066C144.85 55.7681 141.574 56.6164 139.815 55.5123ZM337.003 53.1943C333.016 52.0845 329.754 50.7904 329.754 50.3186C329.754 49.8468 330.357 49.4607 331.094 49.4607C331.908 49.4607 332.931 47.2454 333.695 43.8319L334.955 38.203L333.633 37.3862C331.882 36.3042 332.614 35.7269 336.254 35.3189C337.904 35.1341 339.181 35.4278 339.091 35.9717C339.002 36.5157 338.192 39.8125 337.291 43.298C335.525 50.131 336.226 52.6729 339.63 51.7828C341.791 51.2176 347.623 32.2504 345.82 31.6495C343.472 30.8669 344.956 29.4607 348.13 29.4607H351.506L348.111 40.6423C345.807 48.2312 345.044 52.1512 345.735 52.8423C347.13 54.2376 347.014 55.4867 345.504 55.3364C344.816 55.268 340.991 54.304 337.003 53.1943ZM154.754 51.5871C154.754 51.0325 155.141 50.3392 155.615 50.0464C156.09 49.7531 156.018 47.1976 155.456 44.3521C154.737 40.7176 153.89 39.0477 152.594 38.7088C150.024 38.0366 150.297 37.2279 153.76 35.2572C155.593 34.2141 156.754 33.9834 156.754 34.6622C156.754 35.2742 157.572 35.0296 158.582 34.1157C162.895 30.2131 166.956 33.1999 168.248 41.2237C168.711 44.1048 169.634 45.868 171.094 46.6628L173.254 47.8389L168.825 49.138C163.987 50.5572 162.836 50.2709 164.641 48.0967C165.984 46.4784 165.169 39.4108 163.353 36.9272C162.048 35.1432 159.217 35.8106 158.335 38.1101C157.445 40.4291 159.802 48.4607 161.372 48.4607C162.132 48.4607 162.754 48.8804 162.754 49.3933C162.754 50.2428 161.971 50.5827 156.504 52.1074C155.541 52.3758 154.754 52.1415 154.754 51.5871ZM323.504 49.7444C320.987 49.3632 319.49 47.4607 321.707 47.4607C322.78 47.4607 324.739 41.1584 324.748 37.6793C324.755 34.833 322.095 33.6911 320.101 35.6847C317.867 37.9183 316.34 45.587 317.932 46.5713C320.086 47.9021 318.022 48.7338 314.3 48.0354C310.87 47.3919 309.281 45.4607 312.182 45.4607C313.165 45.4607 313.827 43.7245 314.306 39.8853C315.101 33.5211 314.131 31.6532 310.922 33.3707C308.357 34.7432 306.875 42.6977 308.761 44.9698C310.116 46.6026 309.718 46.7727 305.254 46.4677C301.175 46.1891 300.322 45.4967 302.286 44.0604C303.195 43.3959 304.355 40.6266 304.863 37.9065L305.788 32.9607L304.241 31.8289L302.695 30.6973L304.306 30.079C306.751 29.1408 309.754 29.3394 309.754 30.4392C309.754 31.0484 310.649 31.0095 312.127 30.3363C314.649 29.1873 318.754 30.5468 318.754 32.531C318.754 33.1594 319.531 33.1147 320.847 32.4108C323.455 31.0146 327.326 31.9041 328.166 34.0928C328.514 35 328.263 38.4662 327.608 41.7954C326.701 46.404 326.696 47.9414 327.585 48.238C328.228 48.4522 328.753 49.0399 328.753 49.5441C328.753 50.4737 328.405 50.487 323.504 49.7444ZM175.543 46.4026C173.115 44.9873 171.621 38.9402 172.88 35.6274C174.368 31.713 176.753 29.4607 179.409 29.4607C181.243 29.4607 181.754 28.9166 181.754 26.9607C181.754 25.4051 181.187 24.4607 180.254 24.4607C177.984 24.4607 178.453 22.888 181.272 21.0409C184.285 19.0663 184.194 18.8738 185.732 30.4607C187.159 41.2184 187.482 42.2617 189.5 42.6504C190.774 42.8957 190.505 43.3935 188.328 44.8202C186.304 46.1461 185.3 46.3445 184.789 45.5189C184.279 44.6933 183.712 44.8052 182.793 45.9133C181.339 47.6649 178.085 47.8845 175.543 46.4026ZM182.761 42.9522C184.33 41.0609 183.417 34.6961 181.268 32.5469C177.476 28.7549 173.933 37.0326 177.208 42.0315C179.029 44.8112 180.953 45.1302 182.761 42.9522ZM192.271 43.1273C190.193 39.9567 191.299 37.5224 196.19 34.4996C198.392 33.1388 199.45 31.8323 199.096 30.9103C198.261 28.7336 195.203 29.1653 193.428 31.7105L191.858 33.9605L191.806 31.3318C191.738 27.9303 196.547 25.5899 200.192 27.2507L202.541 28.3207L203.245 34.3906L203.95 40.4606H206.007H208.063L206.298 42.4116C205.327 43.4846 203.344 44.3463 201.893 44.3264C200.441 44.3075 198.056 44.5985 196.592 44.975L193.93 45.6599L192.271 43.1273ZM198.819 41.4253C200.922 40.3002 201.421 36.9908 199.653 35.8982C198.068 34.9189 194.351 38.9692 195.083 40.8772C195.798 42.7402 196.241 42.8052 198.819 41.4253ZM294.408 44.782C294.035 44.409 292.099 44.0713 290.107 44.032C282.71 43.8861 283.162 36.6169 290.708 34.3561C293.532 33.5099 294.754 32.5879 294.754 31.3022C294.754 29.0523 291.526 28.8243 289.763 30.9496C288.183 32.8533 286.793 32.0271 287.436 29.5669C288.131 26.9094 293.414 26.0084 296.489 28.0232L298.898 29.6012L298.209 36.0309L297.521 42.4606H299.259H300.998L299.754 43.9606C298.46 45.5187 295.587 45.9603 294.408 44.782ZM293.182 40.8891C294.865 39.2058 295.336 35.4605 293.864 35.4605C291.812 35.4605 288.442 39.206 289.055 40.8048C289.852 42.8812 291.163 42.9081 293.182 40.8891ZM210.387 42.6758C210.12 42.2441 209.578 38.9817 209.184 35.4258C208.789 31.8699 208.028 28.6763 207.492 28.3289C206.929 27.9638 207.517 26.3393 208.886 24.4789L211.254 21.2606L211.573 23.3605C211.797 24.8301 212.622 25.4605 214.323 25.4605C217.274 25.4605 217.554 27.4385 214.707 28.1828L212.661 28.7179L212.957 34.2714L213.253 39.825L216.167 40.6002C217.77 41.0266 219.458 41.143 219.917 40.8591C220.377 40.5748 220.753 37.88 220.753 34.8702C220.753 30.9284 220.334 29.2369 219.253 28.8223C217.246 28.0519 217.357 26.8337 219.503 26.0766C220.465 25.7372 221.815 25.1972 222.503 24.8767C223.439 24.4401 223.753 26.0522 223.753 31.3059C223.753 36.4345 224.188 38.7526 225.372 39.9368C226.262 40.8273 226.825 41.7175 226.622 41.915C225.859 42.6581 219.177 42.8406 218.058 42.149C217.416 41.7525 216.608 41.8855 216.263 42.4441C215.524 43.6391 211.09 43.8138 210.387 42.6758ZM273.754 42.4603C273.754 41.9103 274.366 41.4603 275.115 41.4603C276.944 41.4603 278.139 29.3673 276.43 28.1478C275.538 27.5111 275.556 27.1854 276.503 26.8009C277.191 26.522 277.753 25.4107 277.753 24.3315C277.753 19.8414 284.817 15.9473 288.607 18.3485L289.96 19.206L288.699 21.5626L287.437 23.9193L286.425 21.6494C284.966 18.3813 282.318 19.308 281.94 23.2185L281.627 26.4603H283.659C285.072 26.4603 285.512 26.9264 285.104 27.9901C284.751 28.9091 283.814 29.297 282.757 28.9615L280.998 28.4032L280.539 34.6817C280.178 39.6213 280.419 41.2201 281.667 42.1785L283.253 43.3968L278.503 43.427C275.891 43.4459 273.754 43.0103 273.754 42.4603ZM231.579 41.4222C228.822 39.8138 227.404 34.0505 228.756 29.9527C230.102 25.8733 232.253 24.4603 237.115 24.4603C243.485 24.4603 246.72 31.7565 243.291 38.3888C242.486 39.9449 241.099 41.4975 240.209 41.8391C237.832 42.7513 233.498 42.542 231.579 41.4222ZM239.718 38.526C242.39 33.5339 240.045 26.4603 235.717 26.4603C231.854 26.4603 230.556 35.1076 233.828 39.0496C235.496 41.0604 238.505 40.793 239.718 38.526ZM246.318 41.5651C246.014 41.0727 246.437 40.4118 247.259 40.0965C248.359 39.6746 248.754 37.9135 248.754 33.4327C248.754 29.9285 248.358 27.5866 247.823 27.9176C247.311 28.234 246.636 28.0794 246.324 27.5741C246.012 27.0687 247.188 26.156 248.938 25.5458C251.278 24.7303 252.304 24.7328 252.812 25.5533C253.316 26.3689 253.689 26.3721 254.188 25.5647C254.564 24.956 256.179 24.4579 257.777 24.4579C261.586 24.4579 262.781 26.8387 262.614 34.091C262.533 37.6248 262.922 40.0142 263.617 40.2458C266.352 41.1574 264.374 42.4579 260.254 42.4579C257.779 42.4579 255.754 42.008 255.754 41.458C255.754 40.908 256.429 40.458 257.254 40.458C259.428 40.458 259.416 28.6495 257.242 27.8147C254.414 26.7295 252.755 29.416 252.755 35.0804C252.755 38.0381 253.205 40.458 253.755 40.458C254.305 40.458 254.755 40.908 254.755 41.458C254.755 42.6985 247.079 42.7962 246.318 41.5651ZM357.874 35.1053C357.002 34.0553 357.059 33.4521 358.109 32.5807C359.159 31.7093 359.762 31.7653 360.633 32.8154C361.505 33.8654 361.449 34.4686 360.399 35.3401C359.349 36.2115 358.745 36.1554 357.874 35.1053ZM337.754 28.4603C337.754 26.9541 338.276 26.4143 339.504 26.6507C340.466 26.8359 341.253 27.6504 341.253 28.4603C341.253 29.2702 340.466 30.0846 339.504 30.2699C338.276 30.5065 337.754 29.9664 337.754 28.4603ZM219.754 18.4603C219.754 16.9542 220.276 16.4142 221.504 16.6507C222.466 16.8359 223.254 17.6504 223.254 18.4603C223.254 19.2703 222.466 20.0846 221.504 20.2699C220.276 20.5065 219.754 19.9665 219.754 18.4603Z" fill="white"/>
</g>
<defs>
<clipPath id="clip0_747_139">
<rect width="457.549" height="190.454" fill="white"/>
</clipPath>
</defs>
</svg>
