<svg width="1109" height="215" viewBox="0 0 1109 215" fill="none" xmlns="http://www.w3.org/2000/svg">
<g clip-path="url(#clip0_753_164)">
<path d="M890.237 52.3083L879.298 63.9198C896.958 91.6661 899.409 127.103 883.02 156.706L889.013 156.604C909.382 123.549 909.077 83.8313 890.237 52.3083ZM842.282 58.9781L848.225 52.7227C818.551 25.2578 769.341 25.8755 740.687 55.3265C723.614 72.8532 715.56 96.3185 719.443 118.427L725.413 118.244C725.753 87.3969 750.973 61.9884 782.786 61.2808C815.29 60.3855 842.282 85.2935 842.97 117C843.842 148.789 818.34 175.058 785.867 175.926C769.548 176.324 754.766 170.292 743.854 160.283L735.413 168.943C697.838 134.249 696.399 76.3093 731.926 39.8132C760.599 10.3154 804.496 3.5948 840.03 20.0307L840.495 20.5546L845.062 15.4643C799.851 -10.8042 740.175 -3.32909 702.119 35.7707C657.151 81.857 659.219 154.665 706.537 198.386L715.072 189.691C733.76 206.815 755.473 215.389 780.819 214.674C831.949 213.321 872.327 171.899 871.037 122.13C870.376 97.1239 859.414 74.7728 842.282 58.9781Z" fill="white"/>
<path d="M258.158 19.8275H215.168V194.137H336.94V160.28H258.162L258.158 19.8275ZM66.725 19.8275L0 194.137H41.6215C49.1983 168.239 82.207 148.668 112.94 145.939L106.607 130.164C93.6816 128.467 74.6888 130.539 63.1712 135.532L91.3007 61.7852L145.816 194.137H187.367L115.575 19.8275H66.725ZM499.755 53.5633H557.046V194.137H601.096V53.5633H658.668V19.8236H499.759V53.5633H499.755ZM1069.96 19.8275L1019.63 86.0755L970.02 19.8275H931.374V194.137H975.415V87.6315L1016.67 143.969H1022.95L1064.13 87.6315V194.137H1108.22V19.8275H1069.96ZM394.126 64.5454C394.126 50.5373 425.911 38.3355 475.484 56.1436L478.366 21.7275C470.519 18.2636 448.285 12.4501 431.341 12.4501C395.228 12.4501 354.291 25.7466 354.291 69.0648C354.291 134.011 451.214 111.793 448.446 147.241C447.367 161.003 426.849 164.345 409.518 164.345C389.817 164.345 372.107 160.42 360.12 154.724L356.007 192.115C372.001 197.276 392.781 199.821 409.518 199.821C449.466 199.821 488.484 187.232 488.648 140.638C488.722 78.3775 394.126 96.4945 394.126 64.5454Z" fill="white"/>
</g>
<defs>
<clipPath id="clip0_753_164">
<rect width="1108.22" height="214.715" fill="white"/>
</clipPath>
</defs>
</svg>
