<svg width="1106" height="248" viewBox="0 0 1106 248" fill="none" xmlns="http://www.w3.org/2000/svg">
<g clip-path="url(#clip0_753_155)">
<path d="M183.641 0C149.489 1.24035 120.783 19.922 104.574 48.337L0 243.225L79.1335 243.158L97.6783 200.981H156.861L154.585 243.225H233.785L224.613 0.000152896L183.641 0ZM309.17 0L248.313 243.225H316.936L377.993 0H309.17ZM410.463 2.41015L360.988 198.503C355.717 218.278 357.302 231.03 365.674 236.865C373.131 242.587 387.309 245.297 408.254 245.1C420.319 245.1 433.257 244.515 447.084 243.359L457.394 202.453H445.946C434.515 202.594 429.921 197.76 432.289 187.992L454.181 100.155H482.969L493.212 58.848H464.625L479.22 2.41015H410.463ZM165.029 52.8896L159.405 154.317H118.165L165.029 52.8896ZM952.749 53.7599C927.575 53.7599 907.992 62.9385 893.968 81.2758H893.164L898.654 58.781H829.295L783.033 243.158H851.857L882.385 121.512C886.163 106.741 894.697 99.4613 907.96 99.6868C921.11 99.4613 925.698 106.78 921.751 121.579L891.223 243.158H959.845L990.374 121.512C994.222 106.741 1002.94 99.4613 1016.55 99.6868C1029.83 99.4613 1034.39 106.741 1030.34 121.512L999.948 243.158H1030.28C1051.8 243.158 1072.27 228.923 1077.07 209.416L1103.52 104.038C1108.13 84.7145 1106.09 71.2901 1097.43 63.7353C1088.47 56.9698 1075.89 53.6753 1059.67 53.7599C1048.74 53.7599 1038.06 55.8951 1027.53 60.0531C1016.64 64.3802 1007 71.7548 998.542 82.2131C996.85 72.6569 992.506 65.4866 985.487 60.7226C978.341 56.0854 967.421 53.7599 952.749 53.7599ZM518.586 58.9149L472.525 243.225H541.08L587.342 58.9149H518.586ZM618.54 58.9149L583.727 198.169C579.245 217.408 581.56 230.6 590.623 237.534C599.108 244.624 611.242 247.975 627.043 247.778C652.075 247.778 671.5 238.884 685.355 220.998H686.159L680.736 243.292H749.291L795.352 58.9149H726.663L696.134 180.561C692.328 195.332 683.777 202.661 670.359 202.52C657.391 202.661 652.874 195.332 656.835 180.561L687.297 58.9149H618.54Z" fill="white"/>
</g>
<defs>
<clipPath id="clip0_753_155">
<rect width="1105.92" height="247.786" fill="white"/>
</clipPath>
</defs>
</svg>
