<svg width="326" height="64" viewBox="0 0 326 64" fill="none" xmlns="http://www.w3.org/2000/svg">
<g clip-path="url(#clip0_720_399)">
<path d="M14.9998 63.5167C10.7704 61.8596 7.00149 59.8731 7.01509 59.3081C7.0234 58.9585 7.41629 58.063 7.88792 57.3188L8.74544 55.9655L10.9583 57.1498C12.1753 57.8011 13.4313 58.0739 13.7493 57.7558C14.5604 56.9447 19.9129 25.8404 19.3876 24.9904C19.151 24.6077 16.492 22.884 13.4786 21.1599C10.4653 19.4358 7.99978 17.8648 7.99978 17.6687C7.99978 17.4725 11.3177 15.4806 15.3729 13.2421L22.746 9.172H27.4729H32.1998L35.5998 12.572L38.9998 15.972L39.0062 19.822L39.0126 23.672L42.0479 25.3994C48.1391 28.8659 49.6105 38.7644 44.7963 43.8889C42.8379 45.9734 26.0005 56.172 24.5173 56.172C24.2328 56.172 24 54.2366 24 51.871V47.5699L31.3966 43.3616C39.1643 38.9421 40.6193 37.1978 39.0242 34.2172C37.3785 31.1422 35.2617 31.1412 29.4227 34.2134C26.3285 35.8411 23.6176 37.1727 23.3984 37.1727C23.1793 37.1727 23.0171 35.2602 23.038 32.9227L23.0759 28.6727L27.0379 25.9322C31.4998 22.846 31.9084 21.3048 28.9697 18.6453L26.9394 16.8079L24.2197 17.7588L21.5 18.7096L21.1487 21.6912C20.9555 23.3311 21.1189 32.9365 21.5116 43.0366L22.2258 61.4004L27.3629 60.7207C34.5395 59.7711 40.0932 57.0795 45 52.1727C50.5978 46.5749 53.2452 40.3686 53.2889 32.7412L53.3237 26.6727L51.0543 21.459C48.2679 15.0574 41.0964 8.13879 34.7251 5.70557L30.0066 3.90358L23.2453 4.38726C15.8784 4.91436 11.9182 6.54968 6.51081 11.2974C3.17936 14.2225 0 14.6377 0 12.1478C0 10.428 6.07312 5.32453 11 2.90397L15.5 0.693148L23.5 0.346545L31.5 0L37.221 2.14732C44.4818 4.87263 51.3025 11.4074 54.7531 18.9446L57.3684 24.6572V32.1727V39.6882L54.7991 45.3004C51.498 52.511 46.4141 58.0983 40.3298 61.2028L35.5 63.6672L26 63.886C20.775 64.0066 15.8248 63.8403 14.9998 63.5167ZM88.9998 37.672V28.172H93.8087C96.4535 28.172 99.4404 28.7737 100.446 29.5091L102.275 30.8461L101.836 33.8332C101.587 35.5334 101.958 37.3438 102.699 38.0355C104.593 39.8053 104.292 42.8796 102 45.172L99.9998 47.172H94.4998H88.9998V37.672ZM98.5689 42.0602C99.2941 40.8868 97.3605 39.2132 95.2498 39.1873C94.5623 39.1798 93.9998 40.072 93.9998 41.172V43.172H95.9408C97.0083 43.172 98.191 42.6717 98.5689 42.0602ZM96.9998 33.672C96.9998 32.847 96.3248 32.172 95.4998 32.172C94.6748 32.172 93.9998 32.847 93.9998 33.672C93.9998 34.497 94.6748 35.1721 95.4998 35.1721C96.3248 35.1721 96.9998 34.497 96.9998 33.672ZM111.985 46.4221C111.977 46.0096 113.614 41.7345 115.622 36.922L119.274 28.172L121.387 28.1834L123.5 28.1947L126.717 35.9316C128.486 40.1869 130.222 44.456 130.574 45.4186L131.214 47.1686H128.767H126.321L125.182 44.6686L124.043 42.1686H121.182H118.321L117.182 44.6686C116.148 46.9372 112.023 48.33 111.985 46.4221ZM122 37.172C122 36.622 121.801 36.172 121.559 36.172C121.316 36.172 120.84 36.622 120.5 37.172C120.16 37.722 120.358 38.172 120.941 38.172C121.523 38.172 122 37.722 122 37.172ZM140.791 46.1152C139.852 45.5674 139.336 44.4582 139.646 43.6506L140.21 42.182L144.238 42.8261L148.266 43.4702L147.883 42.3812C147.672 41.7822 145.925 40.2381 144 38.9498C139.994 36.2689 138.96 32.3548 141.568 29.7462L143.246 28.0691L147.373 28.3707L151.5 28.6722V30.6723V32.6723L148.25 32.3582C143.814 31.9297 144.163 33.7048 149 36.1722L151.567 38.4516L153 41.6573V45.1018L151.066 46.137C148.634 47.4385 143.041 47.4276 140.791 46.1152ZM163.791 46.1152C162.852 45.5674 162.336 44.4582 162.646 43.6506L163.21 42.182L167.105 42.8048L171 43.4276V42.3255C171 41.7193 169.537 40.474 167.75 39.5582C163.837 37.5534 163.035 36.4633 163.015 33.122C162.992 29.5008 164.772 28.172 169.641 28.172C174.149 28.172 175.373 29.0355 174.413 31.5387L173.819 33.0859L170.775 32.4771L167.732 31.8685L168.116 32.9601C168.327 33.5606 170.075 35.1059 172 36.3943C175.972 39.0523 177.04 42.9894 174.483 45.5463C172.676 47.3525 166.479 47.6823 163.791 46.1152ZM202.382 44.422C202.68 42.9095 203.204 39.422 203.546 36.672C204.465 29.283 204.933 28.172 207.122 28.172H209.11L211.711 33.922L214.313 39.672L216.882 33.922L219.451 28.172H221.604H223.757L224.878 35.7129C225.495 39.8604 226 44.1666 226 45.2824V47.3111L223.75 46.9917L221.5 46.672L220.994 42.172L220.487 37.672L218.608 42.422L216.728 47.172H214.447H212.165L210.426 42.6169L208.686 38.0618L207.858 39.3669C207.403 40.0847 207.024 42.1345 207.015 43.922L207 47.172H204.421H201.841L202.382 44.422ZM237 37.672V28.172H243.5H250V30.172V32.172H246H242V33.672C242 34.6054 242.944 35.1721 244.5 35.1721H247V37.172V39.172H244.5H242V41.172V43.172H246H250V45.172V47.172H243.5H237V37.672ZM265 39.672V32.172H262H259V30.172V28.172H267.5H276V30.172V32.172H273H270V39.672V47.172H267.5H265V39.672ZM284.064 46.4221C284.098 46.0096 285.808 41.847 287.862 37.172L291.596 28.672L293.671 28.3692C294.812 28.2026 295.983 28.6527 296.274 29.3693C296.565 30.0859 298.405 34.3846 300.363 38.9221L303.924 47.1721H301.44H298.957L297.818 44.6721L296.679 42.1722H293.818H290.957L289.818 44.6721L288.679 47.1721H286.339C285.053 47.1721 284.029 46.8346 284.064 46.4221ZM295 37.731C295 37.4884 294.55 37.0119 294 36.672C293.45 36.3322 293 36.5307 293 37.113C293 37.6955 293.45 38.172 294 38.172C294.55 38.172 295 37.9736 295 37.731ZM313 37.6721V28.1721H315.5H318V35.6721V43.1721H322H326V45.1721V47.1721H319.5H313V37.6721Z" fill="white"/>
</g>
<defs>
<clipPath id="clip0_720_399">
<rect width="326" height="63.9254" fill="white"/>
</clipPath>
</defs>
</svg>
