<svg width="261" height="65" viewBox="0 0 261 65" fill="none" xmlns="http://www.w3.org/2000/svg">
<g clip-path="url(#clip0_720_345)">
<path d="M119 37C117.9 35.9 117 34.325 117 33.5C117 31.8284 120.533 31.4358 121.5 33C121.84 33.55 124.342 33.9999 127.059 33.9999H132V32.5V31.0001H126.155H120.31L118.655 29.1713C116.524 26.8168 116.349 15.2725 118.401 12.4656L119.803 10.5489L127.197 10.1755L134.591 9.80205L135.885 11.3614C136.822 12.4906 137.085 15.9902 136.839 24.0506L136.5 35.1806L134.139 37.0903C132.469 38.4416 130.203 39 126.389 39H121L119 37ZM132 20.9477V14.8954L126.75 15.1978L121.5 15.5002L121.189 19.8241C120.785 25.4357 122.188 27.0002 127.623 27.0002H132L132 20.9477ZM241.223 24.75L241.5 10.4999L248.589 10.2093L255.678 9.91866L257.87 11.7092C260.374 13.7558 261.549 19.2582 260.582 24.4117C259.582 29.7433 257.741 30.9998 250.929 30.9998H245V34.9998V38.9998H242.973H240.945L241.223 24.75ZM255.5 21V15.4999L250.25 15.1976L245 14.8953V20.9998V27.1043L250.25 26.8019L255.5 26.4995V21ZM66 15.4999V0H75.977H85.9539L87.6135 2.5328L89.2731 5.06559L88.7102 10.5193C88.4006 13.5188 88.5642 16.2306 89.0737 16.5455C89.5831 16.8603 90 19.4967 90 22.404C90 26.255 89.5036 28.1393 88.1713 29.345L86.3425 31H76.1713H66L66 15.4999ZM85.5 24C85.8491 22.8999 85.8491 21.1 85.5 20L84.8653 18H77.4326H70V22V25.9999H73.7163H77.4326H84.8653L85.5 24ZM83.9892 11.5129C84.6971 10.6601 84.9544 8.9543 84.5926 7.51298L83.9619 4.99996H76.981H70V8.99997V13H76.3776C80.8018 13 83.1331 12.5445 83.9892 11.5129ZM92 20.5V9.99998H97.5455H103.091L105.545 12.4545C106.895 13.8045 108 15.327 108 15.8378C108 17.4497 103.922 17.9603 103.332 16.4223C103.032 15.6401 101.484 15 99.893 15H97V22.9999V31H94.5H92V20.5ZM110 20.5V9.99998H112.5H115V20.5V31H112.5H110V20.5ZM139 17V2.99999H141H143V6.49998V9.99998H148.389C152.205 9.99998 154.468 10.5579 156.139 11.9115L158.5 13.8231L158.852 22.4115L159.205 31H156.602H154V22.9999V15H148.5H143V22.9999V31H141H139L139 17ZM166.313 30.2143C164.457 29.0343 163 24.2939 163 19.4349C163 16.9957 162.55 15 162 15C161.45 15 161 13.875 161 12.5C161 11.125 161.45 9.99998 162 9.99998C162.55 9.99998 163 8.87493 163 7.49994V4.99996H165.5H168V7.49994V9.99998H171H174V12.5V15H171H168V20.393C168 25.984 168.782 27 173.082 27C174.333 27 175 27.695 175 28.9999V31L171.25 30.9848C169.188 30.9773 166.966 30.6298 166.313 30.2143ZM178 15.4999V0H180H182V13V25.9999H188H194V28.5V31H186H178V15.4999ZM197.655 29.1713C196.441 27.8303 196 25.4448 196 20.2279V13.1134L198.223 11.5567C199.558 10.6211 202.569 9.99998 205.768 9.99998H211.091L213.545 12.4545L216 14.9091V20.9545V27L214 28.9999L212 31H205.655H199.31L197.655 29.1713ZM210.802 20.6959L211.103 14.8919L205.802 15.1957L200.5 15.5L200.189 20.4033C199.824 26.1627 200.787 27.1335 206.5 26.7609L210.5 26.5001L210.802 20.6959ZM220 28.9999L218 27V20.5726V14.1451L220.635 12.0726C223.864 9.53261 232.436 9.21595 235.719 11.5153C238.452 13.4302 239.571 20.1674 238.076 25.7182C236.791 30.4916 235.813 31 227.918 31H222L220 28.9999ZM233.5 21V15.4999L228.25 15.1976L223 14.8953V20.2808C223 23.2429 223.321 25.9872 223.713 26.3792C224.105 26.7713 226.467 26.9587 228.963 26.7959L233.5 26.4995V21ZM110 4.99996C110 3.53332 110.667 2.99999 112.5 2.99999C114.333 2.99999 115 3.53332 115 4.99996C115 6.46664 114.333 6.99999 112.5 6.99999C110.667 6.99999 110 6.46664 110 4.99996Z" fill="white"/>
<path d="M2.00006 62.6919C2.00006 62.3024 4.91435 57.9559 8.47628 53.0328L14.9525 44.0818L9.82659 35.817C3.3205 25.327 0.0222349 18.2489 0.00980407 14.7499L0 12H2.49698C4.21944 12 7.27446 14.1662 12.346 18.9837L19.6981 25.9674L20.3347 15.5622C21.0222 4.32568 22.3319 0 25.0466 0C27.1416 0 29.4095 4.53875 31.7241 13.3638L33.4411 19.9102L40.5502 13.0169C47.8476 5.94101 52.495 3.56482 54.0657 6.10632C55.9295 9.12201 50.8741 20.6458 40.9516 36C34.4955 45.9903 30.7927 50.6843 35.4298 43C42.2457 31.7052 47.3381 19.0048 45.7057 17.3723C44.8957 16.5623 40.8727 18.8876 37.3945 22.1761L34.2891 25.1122L35.101 29.306C35.9132 33.5015 36.167 38.3849 35.4749 36.5C35.273 35.95 34.6044 33.544 33.9893 31.1534L32.8709 26.8068L30.8428 28.6422C29.7274 29.6516 28.3668 31.3146 27.8193 32.3375L26.8239 34.1974L29.912 38.04C34.2324 43.4162 33.7828 44.2745 29.3555 39.1022L25.711 34.8445L23.9054 36.6722C21.3121 39.2972 21.0168 50.8505 23.4481 54.5612C24.4158 56.0379 24.7006 56.9329 24.0811 56.5501C23.4617 56.1673 21.4424 53.6082 19.5938 50.8632L16.2328 45.8723L9.94721 53.6861C2.11113 63.4275 2.00006 63.5534 2.00006 62.6919ZM21 44.7857V40.5714L19.3153 42.2561L17.6305 43.9409L18.9843 46.4704C19.7288 47.8617 20.487 48.9999 20.669 48.9999C20.8511 48.9999 21 47.1036 21 44.7857ZM19.9778 33.395L20.0001 29.2901L14.56 24.145C5.43241 15.5125 4.67859 17.6641 11.6996 32.3091L16.4023 42.1182L18.179 39.8091C19.2046 38.4761 19.965 35.7646 19.9778 33.395ZM30.8812 19.5527C29.4662 14.565 27.8139 10.9999 26.9173 10.9999C25.1741 10.9999 22.2122 27.9161 23.5705 30.114C24.0751 30.9304 25.5167 29.9122 28.0317 26.9629L31.7473 22.6055L30.8812 19.5527Z" fill="white"/>
<path d="M51.501 63.9333C49.8517 63.4419 47.9392 62.27 47.251 61.3289C45.7671 59.2995 45.5832 49.6472 46.9788 47.0395C48.308 44.5559 53.6408 42.8421 57.6814 43.6001C62.6916 44.54 61.9814 47.0001 56.6998 47.0001C51.2359 47.0001 49.9999 48.2915 49.9999 54.0001C49.9999 59.7086 51.2359 61.0001 56.6998 61.0001C59.8554 61.0001 60.9999 61.3993 60.9999 62.5C60.9999 63.3251 60.1367 64.0001 59.0817 64.0001C58.0266 64.0001 56.5641 64.186 55.8316 64.4133C55.0992 64.6405 53.1504 64.4247 51.501 63.9333ZM68.2587 64.2954C64.6265 63.5949 62.9999 60.2044 62.9999 53.3342C62.9999 53.3342 63.4178 48.6655 63.6566 47.4715L65.2224 45.5566C66.1861 44.378 69.51 43.9999 72.1498 43.9999H76.8547C78.2899 45.0975 78.9273 46.6348 78.9273 46.6348C81.2743 49.6185 81.718 56.3297 79.8408 60.4498C78.8596 62.6032 73.19 65.4303 70.9999 64.8582C70.7249 64.7864 69.4913 64.5332 68.2587 64.2954ZM77.2311 54.0136C77.2311 54.0136 76.8729 47.4677 75.4999 47.5274L73.6708 47.1752C72.6648 46.9813 70.7523 47.0966 69.4208 47.4307L66.9999 48.0383C66.1044 48.0981 66.1044 53.8526 66.1044 53.8526C65.6176 57.0132 67.3213 59.9883 67.7141 60.3811C68.107 60.774 70.0195 60.9615 71.9641 60.7978L75.4999 60.5004C76.5147 60.5004 77.2311 58.491 77.2311 54.0136ZM207.75 64.3177C205.944 64.0218 205 63.2537 205 62.0804V60.2935L210 60.774L215 61.2544V59.2791C215 57.9338 213.692 56.7141 210.9 55.4551C201.326 51.1376 205.608 41.5467 216.013 44.003C217.381 44.3258 218.5 45.236 218.5 46.0254V47.4608L214.25 47.1538L210 46.847V48.8561C210 49.961 210.863 51.139 211.917 51.4737C212.972 51.8086 214.997 52.9965 216.417 54.1137C219.271 56.3585 219.925 60.9871 217.655 62.8715C215.995 64.249 211.414 64.918 207.75 64.3177ZM83.9999 54V43.9999L86.2499 44.0023L88.4999 44.0047L91.4999 49.7524L94.4999 55.4999L94.7999 49.75L95.0997 43.9999H97.5498H99.9999V54V63.9999H97.5585H95.1172L91.8085 57.7764L88.4999 51.5528L88.202 57.7764L87.9042 63.9999H85.9519H83.9997L83.9999 54ZM105.208 54.75C103.428 49.6625 101.978 45.1624 101.986 44.7499C101.993 44.3374 102.856 43.9999 103.902 43.9999H105.805L107.931 51C109.101 54.85 110.226 58 110.431 58C110.637 58 111.762 54.85 112.931 51L115.057 43.9999H117.029C118.113 43.9999 119 44.3015 119 44.6702C119 45.0387 117.537 49.5367 115.75 54.6654L112.5 63.9902L110.472 63.994L108.443 63.9978L105.208 54.75ZM121 54V43.9999H128H135V45.4999C135 46.6111 133.833 47 130.5 47H126V49.4396V51.8792L129.75 52.1896C132.279 52.3989 133.5 52.9884 133.5 54C133.5 55.0114 132.279 55.601 129.75 55.8103L126 56.1206V58.5602V60.9998H130.5C133.833 60.9998 135 61.3887 135 62.4998V63.9998H128H121V54ZM138 54V43.9999H143.943H149.886L151.443 46.2225C153.683 49.42 153.363 52.7591 150.569 55.3486L148.138 57.6018L150.641 60.8009L153.145 63.9999H150.654C148.886 63.9999 147.535 62.9843 146 60.4999C144.81 58.5749 143.423 57 142.918 57C142.413 57 142 58.5749 142 60.4999V63.9999H140H138V54ZM147.816 50.25L147.5 47.4999L144.75 47.1836L142 46.8673V49.9337V53.0001H145.066H148.133L147.816 50.25ZM160 55.4999V47H157C155 47 154 46.4999 154 45.4999V43.9999H162H170V45.4999C170 46.4999 169 47 167 47H164V55.4999V63.9999H162H160V55.4999ZM172 54V43.9999H178.5H185V45.4999C185 46.6111 183.833 47 180.5 47H176V49.4396V51.8792L179.742 52.1896C182.357 52.4065 183.583 53.0269 183.815 54.2499L184.146 55.9999H180.073H176V58.4999V60.9999H180.5C183.833 60.9999 185 61.3888 185 62.4999V63.9999H178.5H172L172 54ZM188 54V43.9999H194.465H200.93L201.965 45.9342C203.726 49.2255 203.202 53.7453 200.868 55.3795C198.669 56.9197 198.778 57.8591 201.608 61.75L203.244 63.9999H200.779C198.988 63.9999 197.8 63.0433 196.43 60.4999C195.393 58.5749 193.972 57 193.272 57C192.485 57 192 58.3334 192 60.4999V63.9999H190H188V54ZM198.816 50.25L198.5 47.4999L195.25 47.1866L192 46.8733V49.9366V53H195.566H199.133L198.816 50.25Z" fill="white"/>
</g>
<defs>
<clipPath id="clip0_720_345">
<rect width="260.92" height="64.9331" fill="white"/>
</clipPath>
</defs>
</svg>
