<svg width="1033" height="269" viewBox="0 0 1033 269" fill="none" xmlns="http://www.w3.org/2000/svg">
<g clip-path="url(#clip0_714_125)">
<path d="M1.25 267.346L0 266.841V197.124V127.408L1.2 126.208L2.4 125.008L91.95 125.038L181.5 125.068L183.25 126.397L185 127.725V155.242V182.76L183.681 183.855L182.361 184.95L132.644 185.227L82.9261 185.504L81.9784 187.004L81.0306 188.504L81.0151 227.647L80.9996 266.79L79.4178 267.397L77.8361 268.004L40.1678 267.925L2.49963 267.846L1.25 267.346ZM291.417 266.653L290.889 265.275L294.405 258.392L297.922 251.508L298.959 249.008L299.995 246.508L300.998 245.008L302.001 243.508L302.998 241.008L303.995 238.508L304.942 237.008L305.888 235.508L317.773 211.008L329.658 186.508L330.822 184.008L331.986 181.508L332.917 180.008L333.849 178.508L340.021 165.508L346.193 152.508L347.104 151.008L348.015 149.508L349.114 147.008L350.214 144.508L351.114 143.008L352.015 141.508L353.129 139.008L354.244 136.508L356.691 131.356L359.139 126.205L361.319 125.62L363.5 125.035L454.685 125.02L545.87 125.005L548.342 125.945L550.815 126.885L551.484 129.933L552.154 132.982L552.95 133.474L553.746 133.966L556.313 139.235L558.88 144.505L559.938 147.005L560.995 149.505L561.998 151.005L563.001 152.505L563.998 155.005L564.995 157.505L565.998 159.005L567.001 160.505L567.998 163.005L568.995 165.505L569.891 167.005L570.786 168.505L571.886 171.005L572.986 173.505L573.896 175.005L574.806 176.505L577.938 183.005L581.069 189.505L581.944 191.005L582.819 192.505L592.288 212.005L601.757 231.505L610.367 248.966L618.977 266.428L618.177 267.228L617.377 268.028L577.52 267.767L537.662 267.505L535.846 264.505L534.03 261.505L533.015 259.005L532.001 256.505L530.994 255.005L529.987 253.505L529.376 252.005L528.764 250.505L516.382 225.316L504 200.127V199.189V198.25L502.5 197.005L501 195.76V193.917V192.075L497.896 188.54L494.793 185.005H454.831H414.869L412.84 186.091L410.812 187.176L408.875 191.341L406.939 195.505L406.041 197.005L405.143 198.505L396.493 216.505L387.842 234.505L386.915 236.005L385.987 237.505L385.405 239.005L384.822 240.505L378.125 254.005L371.427 267.505L331.687 267.767L291.946 268.028L291.417 266.653ZM663.46 266.758L662.982 265.508L663.241 195.508L663.5 125.508L701.883 125.246L740.266 124.984L741.633 126.118L743 127.253V197.023V266.794L741.418 267.401L739.837 268.008H701.887H663.937L663.46 266.758ZM787.204 266.812L786 265.608V197.242V128.876L787.035 126.942L788.07 125.008H878.835H969.6L970.8 126.208L972 127.408V154.626V181.844L971.393 183.426L970.786 185.008L921.143 185.023L871.5 185.038L870.09 185.931L868.68 186.823L868.221 194.758L867.761 202.693L868.916 204.85L870.07 207.007H949.913H1029.76L1030.89 208.379L1032.03 209.75L1031.77 238.629L1031.5 267.507L909.954 267.761L788.408 268.015L787.204 266.812ZM1.25 81.3455L0 80.8411V42.0062V3.17139L0.606987 1.58959L1.21397 0.00778559H123.621H246.029L245.764 30.7578L245.5 61.5077L164.595 61.7636L83.6906 62.0195L82.3453 63.136L81 64.2525V71.9301V79.6076L79.8 80.8076L78.6 82.0077L40.55 81.9287L2.5 81.8496L1.25 81.3455ZM382.575 81.1293L382.032 80.2508L390.994 62.8793L399.955 45.5078L400.977 43.0078L401.999 40.5078L402.907 39.0078L403.815 37.5078L412.612 20.1713L421.409 2.83482L423.427 1.4213L425.445 0.00784326H454.288H483.131L484.976 0.995113L486.821 1.98238L490.088 8.74512L493.354 15.5079L494.013 16.0078L494.672 16.5078L495.739 19.5078L496.806 22.5078L499.289 27.0079L501.772 31.5078L513.1 54.0078L524.428 76.5078L525.812 78.1948L527.196 79.8818L526.539 80.9448L525.882 82.0078H454.5H383.118L382.575 81.1293ZM663.678 81.3527L663 80.6745V41.923V3.1715L663.607 1.5897L664.214 0.00790093H702.485H740.755L741.889 1.37453L743.024 2.7411L742.762 42.1245L742.5 81.5079L703.429 81.7694L664.357 82.031L663.678 81.3527ZM786.611 80.4373L786 78.8443V42.5511V6.25788L786.626 3.12894L787.252 0L909.376 0.253983L1031.5 0.507966V31.0079V61.5079L951.095 61.7638L870.691 62.0197L869.383 63.1049L868.075 64.1902L867.788 72.8489L867.5 81.5077L827.361 81.7689L787.223 82.03L786.611 80.4373Z" fill="white"/>
</g>
<defs>
<clipPath id="clip0_714_125">
<rect width="1032.03" height="268.028" fill="white"/>
</clipPath>
</defs>
</svg>
