<svg width="3164" height="1414" viewBox="0 0 3164 1414" fill="none" xmlns="http://www.w3.org/2000/svg">
<g clip-path="url(#clip0_753_173)">
<path d="M1648.6 1411.37C1633.27 1407.6 1623.44 1399.99 1616.99 1386.88L1612.6 1377.97L1612.2 1330.94L1611.81 1283.91H1625.87H1639.93L1639.94 1323.57C1639.94 1346.75 1640.52 1365.3 1641.33 1368.2C1643.99 1377.81 1654.85 1386.47 1664.31 1386.54C1669.4 1386.58 1677.19 1383.14 1681.63 1378.89C1688.4 1372.41 1689.27 1366.07 1689.27 1323V1283.91H1703.27H1717.27V1327.77C1717.27 1377.83 1716.42 1383.33 1706.77 1395.53C1695.35 1409.98 1670.47 1416.76 1648.6 1411.37ZM791.934 1409.12C772.715 1406.66 755.475 1401.18 756.18 1397.76C756.54 1396.01 761.015 1395.65 787.267 1395.29C839.662 1394.58 858.979 1389.08 869 1372.03C874.018 1363.5 874.002 1350.57 868.961 1339.62C862.96 1326.57 857.585 1319.98 833.316 1295.91C804.72 1267.54 800.611 1261.18 800.605 1245.24C800.601 1236.98 801.25 1233.92 804.334 1227.64C809.849 1216.41 815.952 1211.33 862.574 1179.14C882.041 1165.7 895.576 1152.49 900.715 1141.91C904.252 1134.62 904.6 1132.65 904.6 1119.91C904.6 1096.8 898.756 1082.21 869.873 1033.24C840.363 983.207 833.372 966.711 832.297 944.574C831.499 928.146 833.543 919.326 842.534 900.4C853.157 878.039 875.934 846.716 875.934 854.468C875.934 855.144 872.845 860.676 869.071 866.762C843.295 908.32 838.281 935.616 850.001 970.574C856.235 989.169 870.006 1016.57 891.785 1053.73C916.172 1095.33 913.815 1092.16 919.649 1091.15C927.202 1089.85 938.755 1084.25 943.717 1079.5C956.045 1067.7 958.582 1049.07 951.833 1019.91C948.112 1003.83 942.795 988.166 927.616 948.574C910.717 904.499 904.761 886.619 901.339 869.698C897.589 851.154 897.855 834.574 901.903 834.574C903.011 834.574 903.791 838.338 904.321 846.241C905.523 864.172 914.986 892.844 932.595 931.907C970.059 1015.02 978.761 1054.19 965.978 1082.17C960.237 1094.74 945.495 1106.2 929.567 1110.49C924.058 1111.98 923.934 1112.14 923.934 1117.72C923.934 1125.17 920.705 1135.95 915.488 1145.91C909.657 1157.04 891.423 1174.98 867.267 1193.36C829.314 1222.23 818.971 1235.03 820.173 1251.65C821.349 1267.9 830.65 1279.76 871.057 1316.54C894.204 1337.6 904.115 1354.45 901.939 1369.04C898.358 1393.04 878.231 1405.16 835.267 1409.2C818.583 1410.76 804.517 1410.74 791.934 1409.12ZM1409.27 1347.24V1283.91H1451.93H1494.6V1297.24V1310.57H1465.93H1437.27V1321.91V1333.24H1464.6H1491.93V1346.57V1359.91H1464.6H1437.27V1371.91V1383.91H1467.27H1497.27V1397.24V1410.57H1453.27H1409.27V1347.24ZM1538.6 1360.57V1310.57H1520.6H1502.6V1297.24V1283.91H1552.6H1602.6V1297.24V1310.57H1585.27H1567.93V1360.57V1410.57H1553.27H1538.6V1360.57ZM1738.6 1347.23V1283.54L1768.27 1284.27C1792.38 1284.85 1799.89 1285.51 1808.37 1287.75C1835.22 1294.87 1850.24 1311.31 1853.68 1337.35C1858.17 1371.34 1839.87 1398.16 1805.93 1407.35C1800.18 1408.91 1789.6 1409.71 1768.27 1410.22L1738.6 1410.92V1347.23ZM1800.93 1380.43C1815.97 1375.57 1823.9 1363.93 1823.92 1346.66C1823.95 1323.89 1810.22 1312.64 1780.31 1310.95L1766.6 1310.17V1347.24V1384.31L1780.36 1383.47C1787.93 1383.01 1797.19 1381.64 1800.93 1380.43ZM1867.93 1347.24V1283.91H1882.6H1897.27V1347.24V1410.57H1882.6H1867.93V1347.24ZM1905.59 1408.24C1905.94 1406.96 1918.12 1378.44 1932.65 1344.86L1959.06 1283.81L1970.95 1284.19L1982.83 1284.57L2010.05 1347.15C2025.02 1381.57 2037.27 1409.92 2037.27 1410.15C2037.27 1410.38 2029.92 1410.57 2020.93 1410.57H2004.6L1999.4 1397.24L1994.2 1383.91H1970.49H1946.78L1941.69 1397.22L1936.6 1410.52L1920.78 1410.55C1906.35 1410.57 1905.01 1410.37 1905.59 1408.24ZM1981.11 1351.57C1979.58 1347.72 1976.49 1339.92 1974.25 1334.23C1972.01 1328.54 1970.04 1324.04 1969.88 1324.23C1969.72 1324.42 1966.58 1332.22 1962.91 1341.57L1956.23 1358.57H1970.06H1983.89L1981.11 1351.57ZM2045.27 1347.24V1283.91L2064.27 1283.95L2083.27 1283.99L2108.6 1325.56L2133.93 1367.13L2134.29 1325.52L2134.64 1283.91H2149.29H2163.93V1347.24V1410.57H2145.52H2127.1L2100.52 1367.15L2073.93 1323.73L2073.58 1367.15L2073.23 1410.57H2059.25H2045.27V1347.24ZM2207.93 1360.57V1310.57H2189.93H2171.93V1297.24V1283.91H2221.93H2271.93V1297.24V1310.57H2254.6H2237.27V1360.57V1410.57H2222.6H2207.93V1360.57ZM914.718 1389.01C916.616 1387.3 926.16 1379.32 935.928 1371.26C969.552 1343.54 978.633 1327.11 970.302 1309.07C962.007 1291.1 930.67 1257.01 890.275 1222C880.196 1213.26 872.167 1205.9 872.432 1205.63C873.114 1204.95 916.672 1229.32 932.248 1239.09C967.833 1261.43 988.271 1279.47 996.158 1295.5C999.924 1303.16 1000.6 1305.96 1000.58 1313.89C1000.56 1321.7 999.905 1324.45 996.593 1330.57C991.069 1340.79 969.868 1361.65 954.827 1371.66C941.065 1380.81 922.335 1390.23 915.617 1391.37L911.267 1392.11L914.718 1389.01ZM414.156 1313.69C412.454 1311.98 413.306 1310.42 419.6 1303.68C439.146 1282.76 475.725 1268.15 537.267 1256.69C547.167 1254.85 569.003 1251.18 585.791 1248.53C657.005 1237.31 668.386 1231.07 719.55 1175.11C726.991 1166.97 739.955 1154.46 748.358 1147.3L763.637 1134.29L759.752 1124.77C744.608 1087.63 720.374 1058.55 667.934 1014.58C618.864 973.433 599.441 950.392 589.817 921.907C581.143 896.232 587.431 868.933 609.583 836.105C621.094 819.047 629.628 809.783 679.779 759.907C722.96 716.963 749.267 688.355 749.267 684.342C749.267 682.378 666.974 657.416 600.6 639.246C486.021 607.881 375.44 583.043 203.267 550C104.201 530.987 72.5024 524.129 41.9685 515.1C24.3752 509.897 7.64419 502.686 2.96188 498.287C-0.396833 495.132 -1.00207 490.344 1.67674 488.121C11.6102 479.876 87.3948 478.944 175.237 485.986C188.42 487.043 200.27 487.907 201.57 487.907C202.87 487.907 203.934 488.657 203.934 489.574C203.934 490.873 194.013 491.254 158.934 491.3C112.041 491.363 94.9213 492.915 85.0994 497.994C80.4268 500.41 78.7883 503.687 81.4061 505.38C84.5454 507.41 103.475 513.152 127.267 519.29C246.425 550.032 637.424 628.189 743.934 642.556C804.117 650.674 823.016 662.183 811.912 683.951C807.943 691.729 796.887 702.991 775.257 721.285C734.553 755.712 723.187 772.515 713.958 811.907C706.051 845.656 698.6 860.216 682.887 872.627C670.109 882.72 663.698 885.241 635.592 891.225C619.44 894.663 612.788 901.95 612.916 916.062C613.091 935.227 629.034 955.689 681.638 1004.26C743.183 1061.09 749.936 1070.14 772.075 1125.59C782.044 1150.56 790.169 1166.77 797.139 1175.59C800.143 1179.39 802.6 1183.41 802.6 1184.53C802.6 1187.31 799.094 1187.1 794.806 1184.08C789.518 1180.36 780.326 1175.91 777.921 1175.91C776.756 1175.91 769.275 1182.14 761.296 1189.76C735.394 1214.5 712.662 1230.29 688.133 1240.6C675.33 1245.98 633.767 1258.6 618.46 1261.75C613.037 1262.87 591.8 1265.65 571.267 1267.93C491.693 1276.77 460.486 1285.42 428.976 1307.4C419.06 1314.31 416.058 1315.59 414.156 1313.69ZM1433.27 1275.97C1433.27 1275.27 1437.02 1269.29 1441.6 1262.68L1449.93 1250.67L1469.2 1250.62C1480.81 1250.59 1487.96 1251.06 1487.2 1251.79C1486.5 1252.45 1479.36 1258.45 1471.32 1265.12L1456.71 1277.24H1444.99C1438.44 1277.24 1433.27 1276.68 1433.27 1275.97ZM1766.73 1225.27C1737.22 1217.26 1719.93 1193.86 1719.93 1161.91C1719.93 1122.35 1747.14 1096.04 1788.15 1095.93C1797.31 1095.91 1813.56 1098.54 1820.6 1101.19C1826.05 1103.24 1837.27 1110.93 1837.21 1112.57C1837.19 1113.31 1832.8 1118.64 1827.46 1124.42L1817.76 1134.94L1811.62 1130.25C1800.33 1121.63 1782.98 1120.29 1769.69 1127.03C1756.56 1133.68 1750.05 1145.25 1750.05 1161.91C1750.05 1178.56 1756.47 1189.97 1769.77 1196.95C1775.61 1200.02 1778.24 1200.54 1787.93 1200.56C1795.77 1200.57 1801.22 1199.82 1805.6 1198.13L1811.93 1195.69V1185.8V1175.91H1801.27H1790.6V1162.57V1149.24H1815.27H1839.93V1182.55V1215.85L1834.49 1218.63C1818.3 1226.89 1784.81 1230.17 1766.73 1225.27ZM2022.23 1225.91C1991.93 1218.21 1973.27 1193.82 1973.27 1161.91C1973.27 1128.28 1994.54 1102.65 2027 1097.17C2039.2 1095.11 2057.87 1096.28 2069.33 1099.82C2078.55 1102.67 2090.6 1109.78 2090.6 1112.37C2090.59 1113.21 2086.34 1118.56 2081.15 1124.24L2071.71 1134.58L2066.05 1130.52C2051.69 1120.2 2031.82 1120.19 2017.61 1130.48C2009.8 1136.13 2003.68 1149 2003.48 1160.17C2002.93 1190.5 2027.58 1208.12 2057.24 1198.58L2066.6 1195.57V1185.74V1175.91H2055.27H2043.93V1162.57V1149.24H2068.6H2093.27V1182.55V1215.85L2087.83 1218.63C2072.88 1226.25 2038.57 1230.06 2022.23 1225.91ZM1359.93 1161.91V1098.57H1374.6H1389.27V1148.57V1198.57H1414.6H1439.93V1211.91V1225.24H1399.93H1359.93V1161.91ZM1479.93 1161.91V1098.57H1522.6H1565.27V1111.91V1125.24H1536.6H1507.93V1136.57V1147.91H1535.27H1562.6V1161.24V1174.57H1535.27H1507.93V1186.57V1198.57H1538.6H1569.27V1211.91V1225.24H1524.6H1479.93V1161.91ZM1586.6 1161.91V1098.57L1605.6 1098.59L1624.6 1098.61L1650.6 1141.28L1676.6 1183.94L1676.95 1141.26L1677.3 1098.57H1691.29H1705.27V1161.91V1225.24H1686.88H1668.49L1641.88 1181.77L1615.27 1138.29L1614.92 1181.77L1614.56 1225.24H1600.58H1586.6L1586.6 1161.91ZM1846.59 1224.24C1846.58 1223.69 1858.69 1195.17 1873.5 1160.86L1900.43 1098.48L1912.26 1098.86L1924.09 1099.24L1951.34 1161.8C1966.33 1196.21 1978.6 1224.56 1978.6 1224.8C1978.6 1225.04 1971.25 1225.24 1962.26 1225.24H1945.93L1940.73 1211.91L1935.54 1198.57H1911.81H1888.09L1883.01 1211.91L1877.93 1225.24L1862.27 1225.24C1853.65 1225.24 1846.59 1224.79 1846.59 1224.24ZM1924.7 1172.24C1924.22 1170.96 1921.05 1162.84 1917.64 1154.21L1911.44 1138.51L1907.01 1149.48C1904.58 1155.52 1901.4 1163.63 1899.95 1167.52L1897.3 1174.57H1911.43C1924.32 1174.57 1925.48 1174.37 1924.7 1172.24ZM2114.6 1161.91V1098.57H2157.27H2199.93V1111.91V1125.24H2171.27H2142.6V1136.57V1147.91H2169.93H2197.27V1161.24V1174.57H2169.93H2142.6V1186.57V1198.57H2172.6H2202.6V1211.91V1225.24H2158.6H2114.6V1161.91ZM2221.27 1161.91V1098.57H2242.35H2263.42L2277.27 1137.92C2284.89 1159.55 2291.54 1176.8 2292.07 1176.25C2292.82 1175.45 2302.99 1147.41 2318.9 1102.24L2320.19 1098.57H2341.4H2362.6V1161.91V1225.24H2347.95H2333.3L2332.95 1180.62L2332.6 1135.99L2317.29 1180.62L2301.98 1225.24H2291H2280.01L2264.74 1178.91L2249.48 1132.57L2249.37 1178.91L2249.27 1225.24H2235.27H2221.27V1161.91ZM2383.93 1161.91V1098.57H2427.27H2470.6V1111.91V1125.24H2441.93H2413.27V1136.57V1147.91H2439.93H2466.6V1161.24V1174.57H2439.93H2413.27V1186.57V1198.57H2443.27H2473.27V1211.91V1225.24H2428.6H2383.93V1161.91ZM2490.6 1161.91V1098.57H2509.82H2529.04L2554.82 1140.73L2580.6 1182.88L2580.95 1140.73L2581.3 1098.57H2595.29H2609.27V1161.95V1225.32L2591 1224.95L2572.73 1224.57L2546.66 1182.07L2520.6 1139.56L2520.25 1182.4L2519.9 1225.24H2505.25H2490.6L2490.6 1161.91ZM2654.6 1175.24V1125.24H2636.6H2618.6V1111.91V1098.57H2668.6H2718.6V1111.91V1125.24H2700.6H2682.6V1175.24V1225.24H2668.6H2654.6V1175.24ZM1424.25 1148.96C1424.6 1148.01 1427.76 1136.29 1431.27 1122.91L1437.66 1098.57H1450.8C1458.02 1098.57 1463.93 1099.06 1463.93 1099.66C1463.93 1100.26 1460.44 1111.81 1456.16 1125.33L1448.39 1149.91L1436 1150.29C1426.32 1150.59 1423.75 1150.3 1424.25 1148.96ZM1576.42 1044.58C1546.22 1038.02 1526.6 1012.81 1526.6 980.574C1526.6 962.483 1533.31 945.026 1544.6 933.738C1564.41 913.926 1599.58 908.78 1624.07 922.11C1631.8 926.319 1638.29 932.764 1636.52 934.487C1635.83 935.163 1630.83 939.319 1625.41 943.723L1615.56 951.731L1610.75 947.984C1588.38 930.571 1557.01 949.105 1556.82 979.841C1556.62 1012.84 1588.62 1031.56 1611.23 1011.66L1617.16 1006.44L1628.49 1014.84C1634.72 1019.46 1639.85 1023.91 1639.88 1024.74C1639.96 1026.97 1628.98 1036.65 1622.77 1039.82C1609.9 1046.39 1592.8 1048.15 1576.42 1044.58ZM1691.27 1045.19C1676.62 1042.19 1666 1036.42 1656.4 1026.27C1644.55 1013.75 1639.93 1000.92 1639.93 980.574C1639.93 960.223 1644.55 947.398 1656.4 934.877C1668.33 922.254 1682.24 916.19 1701.93 915.021C1744.94 912.469 1774.6 939.229 1774.6 980.574C1774.6 1005.74 1763.66 1026.03 1743.8 1037.67C1731.21 1045.04 1707.27 1048.47 1691.27 1045.19ZM1724.76 1015.5C1737.98 1008.79 1744.49 997.268 1744.49 980.574C1744.49 963.915 1737.97 952.345 1724.84 945.693C1711.19 938.775 1693.89 940.552 1682.84 950.008C1670.98 960.166 1666.34 977.998 1671.37 994.098C1674.56 1004.3 1684.59 1014.77 1694.09 1017.8C1703.48 1020.8 1716.2 1019.85 1724.76 1015.5ZM1315.93 980.408V916.909L1347.6 917.566C1374.37 918.122 1380.53 918.633 1387.44 920.876C1398.34 924.412 1404.47 929.352 1408.7 937.987C1411.86 944.453 1412.15 946.327 1411.73 957.63C1411.32 968.789 1410.83 970.826 1407.22 976.667C1404.11 981.686 1401.3 984.178 1395.11 987.383L1387.04 991.558L1402.15 1016.73C1410.46 1030.58 1417.27 1042.36 1417.27 1042.91C1417.27 1043.46 1409.62 1043.9 1400.27 1043.89L1383.27 1043.88L1370.17 1018.56L1357.08 993.239H1351.17H1345.27V1018.57V1043.91H1330.6H1315.93V980.408ZM1371.75 968.411C1385.2 965.72 1386.57 948.71 1373.72 943.826C1371.91 943.137 1364.77 942.574 1357.85 942.574H1345.27V955.907V969.241H1356.43C1362.58 969.241 1369.47 968.867 1371.75 968.411ZM1427.93 980.574V917.241H1471.27H1514.6V930.574V943.907H1485.93H1457.27V955.241V966.574H1483.93H1510.6V979.907V993.241H1483.93H1457.27V1005.24V1017.24H1487.27H1517.27V1030.57V1043.91H1472.6H1427.93V980.574ZM1789.27 980.574V917.241H1808.37H1827.46L1853.7 960.166L1879.93 1003.09V960.166V917.241H1893.93H1907.93V980.574V1043.91L1889.6 1043.87L1871.27 1043.83L1845.27 1001.21L1819.27 958.598L1818.92 1001.25L1818.56 1043.91H1803.92H1789.27L1789.27 980.574ZM1929.27 980.54V917.171L1948.73 917.54L1968.19 917.909L1993.73 959.723L2019.27 1001.54L2019.62 959.39L2019.97 917.242H2034.62H2049.27V980.612V1043.98L2030.34 1043.61L2011.41 1043.24L1985.34 1000.68L1959.27 958.117L1958.92 1001.01L1958.56 1043.91H1943.91H1929.27L1929.27 980.54ZM2057.27 1042.22C2057.27 1041.25 2069.19 1012.88 2083.75 979.182L2110.24 917.909L2122.11 917.53L2133.97 917.151L2160.47 978.102C2175.05 1011.62 2187.26 1040.15 2187.61 1041.48C2188.2 1043.73 2187.06 1043.91 2172.24 1043.91H2156.23L2151 1030.91L2145.77 1017.91H2121.89H2098.01L2093.13 1030.58L2088.26 1043.24L2072.76 1043.62C2060.59 1043.91 2057.27 1043.61 2057.27 1042.22ZM2134.6 990.93C2134.6 988.103 2121.96 958.683 2121.12 959.552C2120.17 960.542 2113.51 976.677 2109.84 986.909L2108.05 991.909H2121.33C2128.63 991.909 2134.6 991.469 2134.6 990.93ZM2195.93 980.576V917.242H2210.6H2225.27V980.576V1043.91H2210.6H2195.93V980.576ZM2273.27 993.909V943.909H2255.27H2237.27V930.576V917.242H2287.27H2337.27V930.576V943.909H2319.27H2301.27V993.909V1043.91H2287.27H2273.27V993.909ZM809.686 1032.47C793.47 1014.13 781.032 992.591 775.698 973.616C771.949 960.28 771.705 938.085 775.166 925.242C784.944 888.956 804.921 864.534 874.6 803.687C1015.18 680.925 1097.44 575.593 1120.16 489.242C1124.97 470.953 1126.69 443.864 1124.02 428.478C1121.08 411.581 1110.48 390.368 1100.11 380.659C1095.4 376.24 1094.57 371.909 1098.45 371.909C1102.65 371.909 1117.34 382.56 1128.17 393.464C1136.23 401.575 1139.73 406.412 1144.57 416.173C1160.63 448.567 1157.16 484.181 1133.18 532.862C1100.54 599.158 1026.96 682.408 910.567 784.739C864.48 825.258 842.853 849.637 822.482 884.031C792.72 934.281 790.366 972.624 813.993 1022.33C817.994 1030.75 821.267 1038.44 821.267 1039.44C821.267 1043.36 817.082 1040.84 809.686 1032.47ZM2174.6 909.801C2174.6 909.374 2179.25 903.385 2184.93 896.492L2195.27 883.958L2210.64 883.935L2226.02 883.912L2236.31 896.52C2241.97 903.453 2246.6 909.453 2246.6 909.853C2246.6 910.981 2219.94 910.708 2219.89 909.579C2219.87 909.029 2217.62 905.996 2214.89 902.839L2209.93 897.099L2204.79 903.839L2199.65 910.579H2187.12C2180.24 910.579 2174.6 910.227 2174.6 909.801ZM1278.61 797.914C1277.7 796.818 1277.25 794.868 1277.61 793.581C1277.97 792.294 1311.97 713.241 1353.16 617.907C1406.39 494.727 1429.05 443.687 1431.48 441.508C1434.88 438.464 1435.13 438.444 1466.72 438.841C1496.53 439.216 1498.69 439.409 1501.03 441.907C1503.94 445.008 1653.4 788.03 1654.33 793.722C1654.71 796.092 1654.25 797.977 1653.11 798.701C1652.09 799.342 1631.65 799.876 1607.67 799.887C1564.34 799.906 1564.06 799.89 1560.72 796.907C1558.45 794.883 1552.87 782.853 1543.57 759.907L1529.79 725.907L1464.96 725.562L1400.13 725.216L1386.64 759.562C1377.36 783.212 1372.11 794.842 1369.8 796.908C1366.47 799.888 1366.17 799.908 1323.36 799.908C1286.74 799.908 1280.01 799.608 1278.61 797.914ZM1481.87 605.782C1472.11 581.147 1463.93 560.793 1463.69 560.551C1463.45 560.309 1456.1 578.515 1447.35 601.009C1438.61 623.503 1430.66 643.857 1429.68 646.241L1427.9 650.574H1463.76H1499.62L1481.87 605.782ZM1737.57 799.015C1736.64 798.64 1735.01 796.664 1733.96 794.624C1729.51 786.012 1582.6 444.957 1582.6 443.23C1582.6 439.103 1587.86 438.574 1628.85 438.579C1666.51 438.583 1670.27 438.789 1673.93 441.055C1677.59 443.311 1681.87 453.738 1723.24 561.011C1748.16 625.628 1768.92 678.064 1769.38 677.535C1769.84 677.007 1791.15 624.127 1816.74 560.025C1858.88 454.466 1863.64 443.246 1867.27 441.03C1870.92 438.795 1874.87 438.584 1913.02 438.579C1939.26 438.576 1955.73 439.087 1957.35 439.954C1958.77 440.713 1959.93 442.517 1959.93 443.962C1959.93 448.849 1809.29 793.68 1805.75 796.907C1802.52 799.848 1801.83 799.905 1770.86 799.802C1753.48 799.744 1738.5 799.39 1737.57 799.015ZM1987.93 797.241C1985.29 794.601 1985.27 792.796 1985.27 619.241C1985.27 445.685 1985.29 443.88 1987.93 441.241C1990.56 438.614 1992.38 438.574 2108.97 438.574C2213.95 438.574 2227.68 438.809 2230.3 440.65C2233.25 442.71 2233.27 442.995 2233.27 479.936C2233.27 515.361 2233.14 517.213 2230.69 518.527C2229 519.433 2201.51 519.907 2150.69 519.907H2073.27V547.907V575.907H2147.19H2221.12L2223.19 578.871C2224.94 581.37 2225.27 587.318 2225.27 616.871C2225.27 650.13 2225.13 652.043 2222.6 654.574C2220 657.176 2218.16 657.241 2146.6 657.241H2073.27V687.907V718.574H2155.73C2233.92 718.574 2238.3 718.7 2240.39 721.012C2242.33 723.155 2242.6 727.825 2242.6 759.472C2242.6 792.676 2242.41 795.667 2240.16 797.701C2237.93 799.721 2227.27 799.907 2114.16 799.907C1992.38 799.907 1990.56 799.869 1987.93 797.241ZM2307.93 797.241C2305.29 794.601 2305.27 792.796 2305.27 619.495C2305.27 470.394 2305.55 444.033 2307.16 441.829C2308.98 439.343 2311.12 439.241 2361.55 439.241C2408.59 439.241 2414.41 439.475 2417.49 441.493C2419.61 442.881 2447.73 487.559 2490.76 557.894L2560.6 672.042L2560.92 557.641L2561.24 443.241L2564.07 440.907C2566.61 438.81 2570.61 438.574 2603.5 438.574C2639.54 438.574 2644.21 439.061 2646.91 443.107C2647.45 443.914 2647.9 523.324 2647.91 619.574C2647.93 792.81 2647.91 794.601 2645.27 797.241C2642.7 799.811 2640.82 799.907 2593.2 799.907C2553.13 799.907 2543.12 799.55 2540.2 798.016C2537.57 796.636 2517.11 764.304 2464.6 678.574L2392.6 561.023L2392.26 678.035C2391.95 784.591 2391.72 795.264 2389.72 797.477C2387.69 799.722 2384.58 799.907 2349.06 799.907C2312.38 799.907 2310.48 799.784 2307.93 797.241ZM2718.03 797.812C2716.15 795.928 2715.93 777.894 2715.93 619.221V442.725L2718.9 440.65C2721.41 438.893 2727.52 438.574 2758.72 438.574C2793.99 438.574 2795.73 438.693 2799.09 441.337L2802.6 444.101V619.337C2802.6 792.796 2802.57 794.601 2799.93 797.241C2797.39 799.784 2795.49 799.907 2758.7 799.907C2725.41 799.907 2719.84 799.621 2718.03 797.812ZM2873.53 798.307C2872.31 797.079 2871.93 755.291 2871.93 618.333V439.958L2875.15 439.151C2876.92 438.707 2914.87 438.619 2959.48 438.955C3034.59 439.522 3041.69 439.773 3055.27 442.345C3095.53 449.972 3121.31 466.155 3136.99 493.635C3138.75 496.718 3142.08 504.641 3144.39 511.241C3148.55 523.12 3148.59 523.501 3148.59 549.241C3148.59 575.219 3148.59 575.252 3144.18 587.907C3135.32 613.372 3120.64 630.732 3098.64 641.743C3091.99 645.072 3084.46 648.187 3081.91 648.667C3079.36 649.146 3077.27 649.747 3077.27 650.003C3077.27 650.26 3096.84 683.01 3120.76 722.782C3154.35 778.622 3163.96 795.568 3162.95 797.168C3161.81 798.969 3155.37 799.287 3113.73 799.59C3075.45 799.87 3065.33 799.583 3063.39 798.16C3062.05 797.181 3044.97 765.824 3025.44 728.477L2989.93 660.574L2974.26 660.198L2958.6 659.823V728.265C2958.6 779.72 2958.2 797.105 2957 798.307C2955.83 799.481 2944.7 799.907 2915.27 799.907C2885.83 799.907 2874.71 799.481 2873.53 798.307ZM3039.09 580.009C3054.33 574.014 3061.25 562.39 3059.53 545.669C3058.55 536.194 3055.01 529.582 3048.09 524.275C3037.87 516.437 3032.47 515.509 2993.6 514.897L2958.6 514.345V549.252V584.16L2994.93 583.622C3029.03 583.117 3031.75 582.895 3039.09 580.009ZM896.59 620.089C885.764 616.988 874.103 611.395 853.71 599.523C830.104 585.78 817.368 579.576 801.232 573.959C772.234 563.866 751.991 561.414 673.934 558.544C615.518 556.395 562.913 552.47 484.6 544.416C453.796 541.248 446.96 539.895 448.572 537.286C448.908 536.743 492.251 536.59 544.891 536.944C661.275 537.729 730.252 535.464 801.267 528.528C910.623 517.847 977.816 500.767 1019.93 472.944C1029.75 466.458 1030.09 466.347 1038.75 466.823C1049.32 467.403 1056.11 471.734 1060.05 480.419C1063.33 487.653 1063.23 491.751 1059.37 506.962C1042.66 572.844 981.828 622.749 918.6 622.45C909.532 622.407 901.779 621.576 896.59 620.089ZM487.934 503.062C468.648 501.948 427.406 498.491 426.857 497.942C426.535 497.62 426.626 496.43 427.06 495.298C427.736 493.538 431.752 493.24 454.892 493.235C514.703 493.223 604.229 489.156 661.934 483.832C796.499 471.417 866.166 450.489 905.267 410.734C918.182 397.603 925.134 386.58 930.172 371.241C934.864 356.958 935.985 330.498 932.66 312.569C927.019 282.161 912.806 249.796 884.647 203.241C875.333 187.841 865.363 170.33 862.493 164.329C828.887 94.0534 850.717 33.5888 916.857 13.7512C932.655 9.01285 962.482 7.80707 980.6 11.1743C1036.84 21.6256 1082.53 55.73 1105.25 104.216C1122.46 140.95 1129.78 188.348 1125.2 233.433C1122.74 257.577 1117.28 279.907 1113.83 279.907C1112.13 279.907 1111.99 278.104 1112.89 267.574C1113.46 260.791 1113.86 243.841 1113.76 229.907C1113.43 181.911 1105.53 142.657 1089.31 108.4C1068.64 64.745 1038.67 41.6489 989.153 31.219C952.31 23.4589 920.566 30.8962 899.342 52.2614C881.959 69.7593 874.621 87.5353 873.576 114.672C872.847 133.598 875.016 147.753 880.918 162.574C882.816 167.341 892.131 184.741 901.618 201.241C930.863 252.105 947.555 288.369 955.627 318.574C958.504 329.341 959.027 334.241 959.109 351.241C959.198 369.681 958.918 372.095 955.526 382.193C944.191 415.941 912.728 441.595 857.267 462.311C803.78 482.289 739.107 493.722 636.6 501.319C617.178 502.758 505.376 504.069 487.934 503.062ZM861.934 400.854C856.864 398.424 850.855 392.847 836.844 377.567C785.878 321.984 717.898 267.718 632.945 214.801C600.827 194.794 554.669 168.772 497.267 138.312C437.949 106.835 426.057 100.041 419.068 93.6395C409.551 84.923 416.463 81.1127 437.104 83.6956C472.833 88.1664 546.314 110.518 615.267 137.888C652.871 152.815 663.934 157.955 663.934 160.498C663.934 161.64 663.421 162.574 662.794 162.574C662.167 162.574 642.817 156.31 619.794 148.655C565.986 130.762 508.739 114.525 483.934 110.119L479.267 109.291L482.253 111.801C483.895 113.182 501.595 123.77 521.586 135.331C630.687 198.42 704.33 245.747 782.259 302.852C794.171 311.581 805.571 319.586 807.592 320.641C812.624 323.266 817.244 323.063 828.2 319.735C841.57 315.674 850.622 316.721 864.692 323.955C873.432 328.448 876.361 329.359 879.706 328.624C885.539 327.343 890.6 320.917 890.6 314.794C890.6 299.826 855.352 265.05 800.16 225.566C789.402 217.87 779.85 211.284 778.934 210.931C776.84 210.124 776.733 206.574 778.802 206.574C780.694 206.574 796.425 215.57 818.974 229.547C872.838 262.934 906.033 297.123 913.896 327.31C916.243 336.321 916.518 351.517 914.553 363.623C910.379 389.346 898.43 402.365 877.934 403.523C870.135 403.963 867.504 403.524 861.934 400.854ZM2983.27 379.087C2958.68 375.51 2936.03 367.978 2918.17 357.438C2903.28 348.655 2886.6 335.168 2886.6 331.919C2886.6 328.998 2941.73 267.314 2945.59 265.911C2947.28 265.296 2949.92 267.235 2955.32 273.065C2977.5 297.019 3011.18 305.472 3040.59 294.46C3058.65 287.699 3066.93 271.565 3060.08 256.48C3054.69 244.61 3041.1 237.403 2996.48 222.751C2951.69 208.042 2937.55 200.493 2920.41 182.145C2904.46 165.065 2898.6 148.521 2898.6 120.588C2898.6 94.4717 2903.38 77.7214 2916.42 58.1266C2933.26 32.8076 2959.05 15.7806 2993.76 7.06323C3013.64 2.0687 3048.72 1.14335 3071.27 5.01839C3090.91 8.39472 3104.93 12.8959 3119.86 20.6194C3134.19 28.0363 3149.19 39.5984 3149.2 43.2406C3149.2 46.486 3095.39 105.719 3091.89 106.319C3090.47 106.563 3087.11 104.351 3083.64 100.878C3059.21 76.4502 3003.9 78.2389 2990.93 103.876C2987.42 110.828 2987.14 116.749 2990 123.599C2995.38 136.492 3005.22 141.628 3052.99 156.489C3068.27 161.241 3084.8 166.939 3089.73 169.15C3117.93 181.804 3137.78 202.422 3145.64 227.241C3148.23 235.407 3148.6 239.491 3148.59 259.907C3148.59 287.232 3146.98 295.257 3137.83 313.907C3122.07 346.001 3094.15 366.223 3051.93 376.129C3043.1 378.202 3034.71 378.886 3013.93 379.229C2999.27 379.471 2985.47 379.407 2983.27 379.087ZM1731.93 376.543C1706.7 373.046 1687.42 367.101 1666.14 356.255C1618.61 332.028 1588.15 292.245 1575.02 237.241C1572.21 225.479 1571.57 218.87 1570.99 195.907C1570.22 165.364 1572.35 147.382 1579.34 125.253C1604.9 44.3759 1679.76 -3.67315 1773.93 0.35961C1815.66 2.1465 1849.15 12.2389 1879.46 32.1607C1932.88 67.2766 1961.24 127.149 1958.21 198.408C1956.52 238.156 1946.72 270.056 1927.22 299.37C1902.33 336.774 1860.69 363.932 1813.17 373.746C1788.85 378.771 1756.13 379.897 1731.93 376.543ZM1793.93 293.897C1828.53 284.24 1853.93 258.669 1864.19 223.165C1866.85 213.976 1867.26 209.572 1867.26 189.907C1867.27 164.619 1865.72 156.221 1857.89 139.008C1840.31 100.39 1803.04 79.0912 1757.52 81.651C1715.17 84.0326 1682.65 107.09 1668.12 145.048C1661.97 161.102 1660.64 169.365 1660.78 190.574C1660.94 213.79 1663.43 224.861 1672.81 243.904C1678 254.443 1680.96 258.475 1690.49 267.942C1705.49 282.851 1720.27 290.813 1741.27 295.301C1752.79 297.762 1782.97 296.958 1793.93 293.897ZM1750.74 244.464C1727.44 238.199 1710.1 217.627 1708.32 194.154C1705.53 157.211 1736.45 128.288 1773.23 133.438C1784.9 135.072 1794.5 139.729 1803.24 148C1816.73 160.761 1821.95 174.013 1821.01 193.11C1820.54 202.581 1819.69 206.14 1816.11 213.583C1804.29 238.22 1776.44 251.375 1750.74 244.464ZM2440.6 377.195C2361.9 368.232 2305.08 324.705 2281.99 255.694C2274.47 233.211 2272.67 220.398 2272.67 189.241C2272.67 158.164 2274.47 145.261 2281.91 123.039C2302.43 61.7019 2350.39 19.3707 2415.27 5.32566C2469.24 -6.35833 2521.16 1.34991 2559.93 26.8047C2570.51 33.7463 2589.27 52.1461 2589.27 55.5771C2589.27 58.7956 2587.22 60.6695 2554.82 87.1122C2539.5 99.6119 2526.52 109.241 2524.99 109.241C2523.5 109.241 2518.49 105.697 2513.86 101.366C2499.32 87.7716 2481.65 81.3115 2458.86 81.2638C2427.04 81.1973 2399.27 96.062 2381.03 122.925C2349.08 169.97 2358.39 243.652 2400.51 277.172C2437.77 306.815 2491.36 302.811 2519 268.32C2523.08 263.232 2526.76 259.907 2528.32 259.907C2529.73 259.907 2545.82 271.067 2564.08 284.708C2588.26 302.78 2597.27 310.237 2597.27 312.196C2597.27 318.352 2577.4 339.622 2561.7 350.276C2544.9 361.675 2521.8 370.98 2499.78 375.224C2486.26 377.829 2455.24 378.862 2440.6 377.195ZM1327.34 364.944C1325.49 362.298 1325.27 343.387 1325.29 188.611C1325.3 51.5149 1325.66 14.5432 1326.99 11.9073L1328.68 8.57398L1442.87 8.23303C1545.37 7.92727 1557.28 8.10755 1559.16 9.99494C1560.98 11.8072 1561.27 17.1385 1561.27 48.5934C1561.27 84.7957 1561.24 85.106 1558.3 87.1649C1555.71 88.9804 1546.44 89.2404 1484.3 89.2404H1413.27V116.574V143.907H1479.64C1537.55 143.907 1546.38 144.172 1548.97 145.983C1551.91 148.043 1551.93 148.335 1551.93 185.049C1551.93 212.042 1551.5 222.473 1550.33 223.64C1549.13 224.843 1531.9 225.24 1481 225.24H1413.27V294.479C1413.27 355.645 1413.02 363.961 1411.17 365.812C1409.36 367.623 1403.68 367.907 1369.25 367.907C1329.6 367.907 1329.41 367.892 1327.34 364.944ZM1985.89 366.259C1985.54 365.332 1985.4 284.474 1985.59 186.574L1985.93 8.57398L2071.93 8.58909L2157.93 8.6042L2173.93 12.0694C2215.35 21.038 2239.76 38.6326 2253.88 69.6743C2259.32 81.6217 2261.01 88.5358 2262.62 105.405C2267.7 158.795 2243.22 201.751 2199.58 216.016C2190.94 218.839 2190.63 219.086 2192.36 221.77C2207.33 244.988 2277.29 363.452 2276.99 365.055C2276.61 367.026 2271.73 367.272 2227.25 367.563C2200.13 367.74 2177.17 367.398 2176.24 366.803C2175.31 366.207 2158.41 334.862 2138.68 297.147L2102.81 228.574L2087.39 228.198L2071.96 227.823L2071.61 297.531L2071.27 367.24L2028.9 367.593C1995.72 367.868 1986.39 367.578 1985.89 366.259ZM2135.68 151.887C2161.32 149.186 2173.25 138.607 2173.25 118.574C2173.25 109.228 2170.86 102.799 2165.04 96.4836C2155.06 85.6606 2140.3 82.574 2098.5 82.574H2071.93V117.907V153.241L2097.6 153.218C2111.72 153.207 2128.85 152.606 2135.68 151.887ZM2618.43 365.703C2615.81 362.547 2615.05 17.0237 2617.65 11.9073L2619.35 8.57398L2740.27 8.23343L2861.2 7.89289L2863.29 11.0952C2865.1 13.8473 2865.34 19.3014 2865 49.8781C2864.62 83.3106 2864.44 85.5728 2862.01 87.3495C2859.85 88.9305 2846.68 89.2403 2781.68 89.2403H2703.93V117.24V145.24H2778.55C2850.96 145.24 2853.21 145.317 2854.55 147.819C2855.41 149.411 2855.93 163.923 2855.93 185.724C2855.93 216.061 2855.64 221.346 2853.84 223.145C2851.98 224.999 2843.25 225.24 2777.84 225.24H2703.93V256.574V287.907H2787C2849.83 287.907 2870.46 288.297 2871.67 289.507C2872.83 290.674 2873.27 301.063 2873.27 327.907C2873.27 354.751 2872.83 365.14 2871.67 366.307C2870.45 367.529 2840.53 367.907 2745.16 367.907C2630.61 367.907 2620.11 367.725 2618.43 365.703ZM1064.5 301.551C1051.14 296.793 1039 285.546 1012.35 253.241C992.286 228.917 986.554 223.726 959.596 205.464C947.584 197.326 933.835 187.076 929.043 182.685C901.533 157.477 901.086 116.311 928.05 91.347C946.823 73.966 971.885 70.1032 995.174 81.0013C1009.47 87.6908 1033.63 112.899 1050.99 139.241C1073.77 173.808 1093.13 227.469 1098.71 271.52C1100.21 283.36 1100.16 284.028 1097.1 290.187C1091.52 301.443 1077.71 306.256 1064.5 301.551Z" fill="white"/>
</g>
<defs>
<clipPath id="clip0_753_173">
<rect width="3163.02" height="1413.21" fill="white"/>
</clipPath>
</defs>
</svg>
