<svg width="1106" height="246" viewBox="0 0 1106 246" fill="none" xmlns="http://www.w3.org/2000/svg">
<g clip-path="url(#clip0_717_335)">
<path d="M310.974 141.648V12.9816H338.178V66.0689H393.401V12.9816H420.542V141.648H393.401V88.4975H338.178V141.648H310.974ZM465.148 141.648H435.997L480.414 12.9816H515.471L559.825 141.648H530.674L498.445 42.3838H497.44L465.148 141.648ZM463.326 91.0734H532.182V112.308H463.326V91.0734ZM682.931 12.9816V141.648H659.435L603.457 60.666H602.515V141.648H575.312V12.9816H599.185L654.723 93.9005H655.854V12.9816H682.931ZM705.407 141.648V12.9816H756.924C766.389 12.9816 774.284 14.3847 780.609 17.1909C786.933 19.9971 791.687 23.8923 794.87 28.8764C798.053 33.8186 799.645 39.5148 799.645 45.9649C799.645 50.9909 798.64 55.4096 796.629 59.221C794.619 62.9905 791.855 66.0899 788.336 68.5191C784.86 70.9065 780.881 72.6028 776.4 73.608V74.8645C781.3 75.0739 785.886 76.456 790.158 79.0109C794.472 81.5658 797.97 85.1469 800.65 89.754C803.331 94.3193 804.671 99.7642 804.671 106.089C804.671 112.916 802.975 119.01 799.582 124.371C796.231 129.69 791.268 133.899 784.692 136.999C778.117 140.098 770.012 141.648 760.379 141.648H705.407ZM732.61 119.408H754.788C762.369 119.408 767.897 117.963 771.374 115.073C774.85 112.141 776.588 108.246 776.588 103.387C776.588 99.827 775.729 96.6858 774.012 93.9633C772.295 91.2409 769.845 89.1049 766.662 87.5552C763.52 86.0055 759.772 85.2306 755.416 85.2306H732.61V119.408ZM732.61 66.8228H752.777C756.505 66.8228 759.814 66.1736 762.704 64.8753C765.635 63.535 767.939 61.6502 769.614 59.221C771.332 56.7917 772.19 53.8808 772.19 50.4883C772.19 45.8392 770.536 42.0906 767.227 39.2425C763.96 36.3945 759.311 34.9704 753.28 34.9704H732.61V66.8228ZM844.549 141.648H815.398L859.816 12.9816H894.872L939.227 141.648H910.076L877.847 42.3838H876.841L844.549 141.648ZM842.727 91.0734H911.584V112.308H842.727V91.0734ZM934.044 12.9816H964.514L993.853 68.3935H995.11L1024.45 12.9816H1054.92L1007.99 96.1622V141.648H980.974V96.1622L934.044 12.9816Z" fill="white"/>
<path d="M312.289 216.685V168.435H344.801V176.846H322.49V188.343H343.128V196.753H322.49V208.274H344.895V216.685H312.289ZM352.911 216.685V168.435H363.112V208.274H383.797V216.685H352.911ZM390.553 216.685V168.435H423.065V176.846H400.754V188.343H421.392V196.753H400.754V208.274H423.159V216.685H390.553ZM473.747 185.327H463.428C463.24 183.992 462.855 182.806 462.274 181.77C461.692 180.717 460.946 179.822 460.035 179.084C459.125 178.346 458.072 177.78 456.879 177.388C455.701 176.995 454.42 176.799 453.038 176.799C450.541 176.799 448.366 177.419 446.512 178.66C444.659 179.885 443.222 181.675 442.201 184.031C441.18 186.372 440.67 189.214 440.67 192.56C440.67 195.999 441.18 198.889 442.201 201.23C443.238 203.57 444.683 205.337 446.536 206.53C448.389 207.724 450.533 208.321 452.968 208.321C454.334 208.321 455.598 208.14 456.761 207.779C457.939 207.418 458.983 206.892 459.894 206.201C460.805 205.494 461.559 204.638 462.156 203.633C462.768 202.627 463.192 201.481 463.428 200.193L473.747 200.24C473.48 202.455 472.813 204.591 471.744 206.648C470.692 208.69 469.271 210.52 467.48 212.138C465.705 213.74 463.585 215.012 461.119 215.954C458.669 216.881 455.897 217.344 452.803 217.344C448.499 217.344 444.651 216.37 441.259 214.423C437.882 212.475 435.212 209.656 433.248 205.965C431.301 202.274 430.327 197.806 430.327 192.56C430.327 187.298 431.317 182.822 433.296 179.131C435.275 175.44 437.96 172.629 441.353 170.697C444.745 168.749 448.562 167.775 452.803 167.775C455.598 167.775 458.19 168.168 460.577 168.953C462.98 169.739 465.109 170.885 466.962 172.393C468.815 173.885 470.323 175.715 471.485 177.882C472.663 180.05 473.417 182.531 473.747 185.327ZM479.225 176.846V168.435H518.851V176.846H504.08V216.685H493.996V176.846H479.225ZM525.377 216.685V168.435H544.413C548.057 168.435 551.167 169.087 553.743 170.39C556.334 171.678 558.306 173.508 559.656 175.88C561.023 178.236 561.706 181.008 561.706 184.196C561.706 187.4 561.015 190.157 559.633 192.466C558.251 194.759 556.248 196.518 553.625 197.743C551.018 198.968 547.861 199.58 544.154 199.58H531.409V191.382H542.505C544.453 191.382 546.07 191.115 547.358 190.581C548.646 190.047 549.604 189.246 550.233 188.178C550.876 187.11 551.198 185.783 551.198 184.196C551.198 182.594 550.876 181.243 550.233 180.144C549.604 179.045 548.638 178.212 547.335 177.647C546.047 177.066 544.421 176.775 542.458 176.775H535.579V216.685H525.377ZM551.434 194.727L563.426 216.685H552.164L540.432 194.727H551.434ZM579.116 168.435V216.685H568.915V168.435H579.116ZM630.081 185.327H619.762C619.574 183.992 619.189 182.806 618.608 181.77C618.027 180.717 617.281 179.822 616.37 179.084C615.459 178.346 614.406 177.78 613.213 177.388C612.035 176.995 610.755 176.799 609.372 176.799C606.875 176.799 604.7 177.419 602.846 178.66C600.993 179.885 599.556 181.675 598.535 184.031C597.514 186.372 597.004 189.214 597.004 192.56C597.004 195.999 597.514 198.889 598.535 201.23C599.572 203.57 601.017 205.337 602.87 206.53C604.723 207.724 606.867 208.321 609.302 208.321C610.668 208.321 611.933 208.14 613.095 207.779C614.273 207.418 615.317 206.892 616.228 206.201C617.139 205.494 617.893 204.638 618.49 203.633C619.102 202.627 619.527 201.481 619.762 200.193L630.081 200.24C629.814 202.455 629.147 204.591 628.079 206.648C627.026 208.69 625.605 210.52 623.814 212.138C622.04 213.74 619.919 215.012 617.453 215.954C615.003 216.881 612.231 217.344 609.137 217.344C604.833 217.344 600.985 216.37 597.593 214.423C594.216 212.475 591.546 209.656 589.583 205.965C587.635 202.274 586.661 197.806 586.661 192.56C586.661 187.298 587.651 182.822 589.63 179.131C591.609 175.44 594.294 172.629 597.687 170.697C601.08 168.749 604.896 167.775 609.137 167.775C611.933 167.775 614.524 168.168 616.911 168.953C619.314 169.739 621.443 170.885 623.296 172.393C625.149 173.885 626.657 175.715 627.819 177.882C628.997 180.05 629.751 182.531 630.081 185.327ZM661.068 216.685H650.136L666.793 168.435H679.939L696.572 216.685H685.64L673.554 179.461H673.177L661.068 216.685ZM660.384 197.719H686.205V205.682H660.384V197.719ZM742.683 185.327H732.364C732.176 183.992 731.791 182.806 731.21 181.77C730.629 180.717 729.883 179.822 728.972 179.084C728.061 178.346 727.008 177.78 725.815 177.388C724.637 176.995 723.357 176.799 721.974 176.799C719.477 176.799 717.302 177.419 715.449 178.66C713.595 179.885 712.158 181.675 711.137 184.031C710.116 186.372 709.606 189.214 709.606 192.56C709.606 195.999 710.116 198.889 711.137 201.23C712.174 203.57 713.619 205.337 715.472 206.53C717.325 207.724 719.469 208.321 721.904 208.321C723.27 208.321 724.535 208.14 725.697 207.779C726.875 207.418 727.919 206.892 728.83 206.201C729.741 205.494 730.495 204.638 731.092 203.633C731.704 202.627 732.129 201.481 732.364 200.193L742.683 200.24C742.416 202.455 741.749 204.591 740.681 206.648C739.628 208.69 738.207 210.52 736.416 212.138C734.642 213.74 732.521 215.012 730.055 215.954C727.605 216.881 724.833 217.344 721.739 217.344C717.435 217.344 713.587 216.37 710.195 214.423C706.818 212.475 704.148 209.656 702.185 205.965C700.237 202.274 699.263 197.806 699.263 192.56C699.263 187.298 700.253 182.822 702.232 179.131C704.211 175.44 706.896 172.629 710.289 170.697C713.682 168.749 717.498 167.775 721.739 167.775C724.535 167.775 727.126 168.168 729.513 168.953C731.917 169.739 734.045 170.885 735.898 172.393C737.751 173.885 739.259 175.715 740.421 177.882C741.599 180.05 742.353 182.531 742.683 185.327ZM748.161 176.846V168.435H787.788V176.846H773.016V216.685H762.932V176.846H748.161ZM824.116 168.435H834.317V199.769C834.317 203.287 833.477 206.366 831.796 209.004C830.132 211.643 827.799 213.7 824.799 215.177C821.799 216.637 818.305 217.368 814.315 217.368C810.31 217.368 806.808 216.637 803.808 215.177C800.808 213.7 798.476 211.643 796.811 209.004C795.146 206.366 794.314 203.287 794.314 199.769V168.435H804.515V198.897C804.515 200.735 804.915 202.368 805.716 203.798C806.533 205.227 807.68 206.35 809.156 207.167C810.632 207.983 812.352 208.392 814.315 208.392C816.294 208.392 818.014 207.983 819.475 207.167C820.951 206.35 822.09 205.227 822.891 203.798C823.708 202.368 824.116 200.735 824.116 198.897V168.435ZM851.027 216.685H840.095L856.752 168.435H869.898L886.531 216.685H875.599L863.513 179.461H863.136L851.027 216.685ZM850.344 197.719H876.165V205.682H850.344V197.719ZM884.605 176.846V168.435H924.232V176.846H909.46V216.685H899.377V176.846H884.605ZM972.894 192.56C972.894 197.821 971.896 202.298 969.901 205.989C967.922 209.68 965.221 212.499 961.797 214.446C958.389 216.378 954.556 217.344 950.3 217.344C946.012 217.344 942.164 216.37 938.756 214.423C935.348 212.475 932.654 209.656 930.675 205.965C928.696 202.274 927.707 197.806 927.707 192.56C927.707 187.298 928.696 182.822 930.675 179.131C932.654 175.44 935.348 172.629 938.756 170.697C942.164 168.749 946.012 167.775 950.3 167.775C954.556 167.775 958.389 168.749 961.797 170.697C965.221 172.629 967.922 175.44 969.901 179.131C971.896 182.822 972.894 187.298 972.894 192.56ZM962.551 192.56C962.551 189.152 962.04 186.277 961.02 183.937C960.014 181.597 958.593 179.822 956.755 178.613C954.918 177.403 952.766 176.799 950.3 176.799C947.834 176.799 945.682 177.403 943.845 178.613C942.007 179.822 940.578 181.597 939.557 183.937C938.552 186.277 938.049 189.152 938.049 192.56C938.049 195.968 938.552 198.842 939.557 201.183C940.578 203.523 942.007 205.298 943.845 206.507C945.682 207.716 947.834 208.321 950.3 208.321C952.766 208.321 954.918 207.716 956.755 206.507C958.593 205.298 960.014 203.523 961.02 201.183C962.04 198.842 962.551 195.968 962.551 192.56ZM980.45 216.685V168.435H999.486C1003.13 168.435 1006.24 169.087 1008.82 170.39C1011.41 171.678 1013.38 173.508 1014.73 175.88C1016.1 178.236 1016.78 181.008 1016.78 184.196C1016.78 187.4 1016.09 190.157 1014.71 192.466C1013.32 194.759 1011.32 196.518 1008.7 197.743C1006.09 198.968 1002.93 199.58 999.227 199.58H986.481V191.382H997.578C999.525 191.382 1001.14 191.115 1002.43 190.581C1003.72 190.047 1004.68 189.246 1005.31 188.178C1005.95 187.11 1006.27 185.783 1006.27 184.196C1006.27 182.594 1005.95 181.243 1005.31 180.144C1004.68 179.045 1003.71 178.212 1002.41 177.647C1001.12 177.066 999.494 176.775 997.531 176.775H990.651V216.685H980.45ZM1006.51 194.727L1018.5 216.685H1007.24L995.505 194.727H1006.51ZM1050.16 182.311C1049.97 180.411 1049.16 178.935 1047.74 177.882C1046.31 176.83 1044.37 176.304 1041.92 176.304C1040.25 176.304 1038.85 176.539 1037.7 177.011C1036.55 177.466 1035.67 178.102 1035.06 178.919C1034.46 179.736 1034.17 180.662 1034.17 181.699C1034.13 182.563 1034.31 183.317 1034.71 183.961C1035.12 184.605 1035.67 185.162 1036.38 185.633C1037.09 186.089 1037.9 186.489 1038.83 186.835C1039.76 187.165 1040.75 187.447 1041.8 187.683L1046.13 188.72C1048.24 189.191 1050.17 189.819 1051.93 190.604C1053.69 191.39 1055.21 192.356 1056.5 193.502C1057.79 194.649 1058.79 195.999 1059.49 197.554C1060.21 199.109 1060.58 200.892 1060.6 202.902C1060.58 205.855 1059.83 208.415 1058.34 210.583C1056.86 212.734 1054.73 214.407 1051.93 215.601C1049.15 216.779 1045.8 217.368 1041.87 217.368C1037.97 217.368 1034.58 216.771 1031.69 215.577C1028.82 214.384 1026.57 212.617 1024.95 210.276C1023.35 207.92 1022.51 205.007 1022.43 201.536H1032.3C1032.41 203.154 1032.88 204.504 1033.69 205.588C1034.53 206.656 1035.63 207.465 1037.02 208.015C1038.41 208.549 1039.99 208.816 1041.75 208.816C1043.48 208.816 1044.98 208.564 1046.25 208.062C1047.54 207.559 1048.54 206.86 1049.24 205.965C1049.95 205.07 1050.3 204.041 1050.3 202.879C1050.3 201.795 1049.98 200.884 1049.34 200.146C1048.71 199.408 1047.78 198.779 1046.56 198.261C1045.35 197.743 1043.86 197.272 1042.11 196.848L1036.85 195.528C1032.78 194.539 1029.57 192.992 1027.22 190.887C1024.86 188.782 1023.69 185.947 1023.71 182.382C1023.69 179.461 1024.47 176.908 1026.04 174.725C1027.62 172.542 1029.8 170.838 1032.56 169.613C1035.33 168.388 1038.47 167.775 1041.99 167.775C1045.57 167.775 1048.69 168.388 1051.36 169.613C1054.05 170.838 1056.14 172.542 1057.63 174.725C1059.12 176.908 1059.89 179.437 1059.94 182.311H1050.16Z" fill="white"/>
<path d="M158.364 218.671L104.241 218.805L65.9586 218.342L27.6764 217.878L24.927 216.879L22.1777 215.88L20.2433 214.298L18.3089 212.717L16.3922 210.077L14.4756 207.437V202.156V196.876L17.6618 191.013L20.8479 185.149L25.2037 178.142L29.5594 171.135L33.5682 164.714L37.5769 158.294L41.4052 152.174L45.2335 146.053L48.7622 140.443L52.2909 134.832L56.4846 128.044L60.6783 121.256L62.6584 118.038L64.6385 114.82L70.4809 105.11L76.3233 95.4004L77.2463 93.1913L78.1693 90.9823L78.1458 65.0546L78.1224 39.1268L77.3064 37.6583L76.4903 36.1898L74.2298 34.522L71.9693 32.8543L68.3119 31.4858L64.6544 30.1174L63.8214 29.4261L62.9883 28.7346V25.5693V22.4039L63.3637 21.4256L63.7391 20.4473L66.1689 21.1102L68.5987 21.7731L69.2587 22.2519L69.9187 22.7307L73.5109 24.2364L77.103 25.742L80.6032 28.3278L84.1034 30.9136L85.2616 32.6814L86.4197 34.4492V63.8495V93.25L84.3155 97.6918L82.2114 102.134L80.1903 105.071L78.1692 108.009V108.616V109.223L76.3196 111.797L74.4699 114.371L70.94 120.312L67.41 126.252L65.963 128.232L64.516 130.212L62.8551 133.182L61.1942 136.152L52.7535 149.683L44.3127 163.214L40.9145 168.494L37.5162 173.775L31.2762 184.166L25.0361 194.557L23.9128 196.706L22.7894 198.856L22.7576 201.954L22.7259 205.053L24.211 206.774L25.6961 208.496L28.3362 209.105L30.9764 209.715H120.412H209.847L212.426 209.117L215.005 208.519L216.566 206.958L218.127 205.396L218.22 202.927L218.313 200.458L217.62 199.765L216.928 199.073L211.737 199.941L206.547 200.809L189.055 200.783L171.564 200.756L164.304 199.346L157.044 197.935L149.316 195.952L141.587 193.97L137.105 192.188L132.622 190.405L126.682 187.636L120.742 184.866L115.791 181.692L110.841 178.518L107.448 175.663L104.055 172.807L99.7525 168.341L95.4497 163.875L93.0094 160.244L90.5691 156.614L88.676 152.871L86.783 149.128L85.3528 144.291L83.9226 139.453L83.6202 126.205L83.3178 112.957L85.013 106.588L86.7082 100.219L88.4691 96.7347L90.2299 93.2506L93.0897 89.2904L95.9496 85.3302L99.4351 81.6214L102.921 77.9127L107.871 74.0257L112.821 70.1385L118.587 66.6337L124.352 63.1288L130.406 60.5031L136.46 57.8774L140.151 56.5786L143.843 55.2798L148.133 54.2182L152.423 53.1565L153.248 52.4966L154.073 51.8366V44.7396V37.6425L154.503 35.4961L154.932 33.3497L158.518 29.8209L162.103 26.2922L167.505 23.7019L172.906 21.1117L174.545 20.8793L176.185 20.6465L176.378 24.9979L176.57 29.3492L175.718 30.0258L174.865 30.7024L171.544 31.785L168.222 32.8675L165.862 34.813L163.502 36.7585L162.709 39.5931L161.917 42.4277L162.12 46.388L162.324 50.3482L164.634 50.2677L166.944 50.1872L176.515 49.3812L186.085 48.5751L195.986 48.9998L205.886 49.4244L212.157 50.397L218.427 51.3698L222.717 52.366L227.008 53.3622L231.298 54.4472L235.588 55.5321L241.198 57.6797L246.809 59.8275L250.769 61.5834L254.729 63.3394L260.34 66.6855L265.95 70.0316L271.972 74.8298L277.994 79.6279L282.415 85.1191L286.835 90.6103L288.527 93.4607L290.22 96.3111L292.561 102.371L294.903 108.431L295.182 121.547L295.462 134.662L294.695 138.708L293.928 142.753L292.596 146.691L291.265 150.628L289.908 153.606L288.552 156.583L285.121 161.219L281.69 165.855L278.11 169.419L274.53 172.982L270.24 176.389L265.95 179.795L262.101 182.065L258.252 184.336L252.86 187.195L247.469 190.055L241.528 192.256L235.588 194.458L231.958 195.565L228.328 196.672L227.585 197.281L226.843 197.891L226.874 202.004L226.905 206.117L226.085 208.577L225.265 211.036L222.245 213.695L219.224 216.354L215.855 217.446L212.486 218.537L158.364 218.671ZM187.736 195.788L203.246 195.863L209.517 195.218L215.787 194.572L219.087 193.829L222.388 193.085L226.018 192.101L229.648 191.117L236.908 188.763L244.169 186.409L252.419 182.267L260.67 178.124L265.62 174.363L270.57 170.602L274.573 166.578L278.575 162.554L280.92 159.584L283.265 156.614L285.067 153.34L286.87 150.067L288.15 146.819L289.43 143.571L289.153 143.295L288.877 143.018L285.254 148.166L281.632 153.313L276.989 157.855L272.345 162.397L266.245 166.573L260.145 170.748L254.137 173.672L248.129 176.597L245.159 177.905L242.189 179.214L236.485 180.967L230.782 182.72L227.088 183.682L223.394 184.644L218.6 185.649L213.807 186.655L205.886 187.394L197.966 188.134L183.445 187.766L168.924 187.4L162.022 186.015L155.119 184.63L151.461 183.671L147.803 182.711L141.863 180.794L135.922 178.877L132.622 177.436L129.322 175.996L124.185 173.427L119.048 170.859L113.561 167.246L108.074 163.632L102.595 158.478L97.1154 153.323L93.505 148.17L89.8945 143.018L89.6351 143.277L89.3757 143.537L90.3019 146.162L91.2281 148.787L93.029 152.37L94.8298 155.953L98.4882 160.449L102.147 164.945L106.436 168.875L110.726 172.806L116.064 176.375L121.402 179.943L128.992 183.523L136.583 187.103L142.853 189.108L149.123 191.113L152.664 192.179L156.205 193.245H157.418H158.632L160.148 193.904L161.664 194.563L166.944 195.138L172.225 195.713L187.736 195.788ZM192.686 183.604L206.547 183.296L214.467 181.987L222.388 180.678L226.348 179.652L230.308 178.626L235.258 176.977L240.209 175.327L244.499 173.645L248.789 171.963L253.615 169.239L258.441 166.514L260.312 165.524L262.184 164.534L266.008 161.564L269.833 158.594L273.736 154.964L277.64 151.333L280.874 147.043L284.107 142.753L286.336 138.133L288.564 133.512L289.798 129.552L291.032 125.592L290.965 118.001L290.899 110.411L289.113 105.607L287.327 100.803L284.697 95.9285L282.068 91.0544L276.392 85.0248L270.717 78.9953L264.532 74.6834L258.347 70.3715L251.258 66.845L244.169 63.3185L237.055 60.9676L229.941 58.6166L224.845 57.3395L219.748 56.0623L213.147 54.8757L206.547 53.6892L189.386 53.7156L172.225 53.7421L165.295 54.9152L158.364 56.0882L153.637 57.3315L148.91 58.5749L143.817 60.2373L138.725 61.8997H138.101H137.478L129.77 65.6318L122.062 69.3639L116.782 72.8646L111.501 76.3652L107.699 79.5835L103.897 82.8018L100.02 87.2862L96.1421 91.7707L93.7543 96.0668L91.3665 100.363L89.6208 105.058L87.8752 109.753L87.8442 118.003L87.8132 126.253L89.2213 130.648L90.6295 135.042L92.737 139.217L94.8445 143.392L97.051 146.281L99.2576 149.171L101.786 151.903L104.315 154.635L108.238 157.956L112.161 161.277L114.472 162.956L116.782 164.634L122.722 167.925L128.662 171.215L133.613 173.267L138.563 175.32L143.183 176.947L147.804 178.574L152.094 179.618L156.384 180.663L162.324 181.752L168.265 182.841L173.545 183.378L178.825 183.914L192.686 183.604ZM176.793 180.599L175.525 180.494L173.342 180.225L171.159 179.955L170.804 179.03L170.449 178.105L169.687 172.309L168.925 166.514L165.825 165.915L162.725 165.316L161.446 166.245L160.168 167.174L155.506 170.969L150.844 174.764H149.792H148.741L146.095 173.414L143.449 172.065L143.101 171.157L142.753 170.25L145.113 165.343L147.473 160.435V160.026V159.617L145.526 158.61L143.579 157.603H142.188H140.798L132.824 160.904L124.849 164.204H124.029H123.209L121.399 161.831L119.59 159.459L122.823 156.056L126.055 152.653L127.621 150.857L129.186 149.062L128.348 148.052L127.51 147.043L124.126 147.073L120.742 147.103L113.151 148.019L105.561 148.934L104.751 148.146L103.94 147.358L103.52 145.256L103.099 143.153L110.105 139.669L117.112 136.185V135.062V133.94L116.144 132.972L115.177 132.005L105.531 131.523L95.8856 131.04L95.5414 130.143L95.1972 129.246L95.0987 127.178L95.0002 125.11L97.9193 124.233L100.838 123.357L106.83 121.901L112.821 120.444L113.646 119.428L114.471 118.412V117.957V117.502L108.036 115.482L101.601 113.461L98.9605 112.763L96.3203 112.064L95.5162 111.543L94.7121 111.022L94.8562 108.437L95.0002 105.852L96.6503 105.393L98.3004 104.935L106.013 104.87L113.725 104.804L115.418 104.16L117.111 103.516V102.603V101.689L110.181 97.1666L103.251 92.6437V91.8037V90.9638L105.066 88.9708L106.881 86.9778L115.932 88.7102L124.984 90.4426L125.955 90.07L126.926 89.6973L127.646 88.3516L128.366 87.006L123.729 82.0048L119.092 77.0036V76.1742V75.3449L121.657 73.9033L124.222 72.4617H125.117H126.013L133.732 75.8412L141.45 79.2208L143.802 77.7675L146.153 76.3143V75.8541V75.3938L144.191 70.7926L142.229 66.1913L142.211 65.4475L142.193 64.7038L145.513 63.2757L148.833 61.8475L149.638 62.3403L150.444 62.8331L153.299 65.0073L156.155 67.1814H156.811H157.466L160.344 69.1615L163.222 71.1416H164.864H166.507L167.551 70.741L168.595 70.3404L168.598 65.2957L168.601 60.251L170.083 58.4969L171.565 56.7427L174.543 56.3348L177.521 55.9269L180.649 59.1027L183.777 62.2785L184.628 65.2249L185.479 68.1715L189.082 68.5726L192.686 68.9738L193.429 68.0638L194.172 67.1538L194.601 64.4712L195.03 61.7887L197.868 58.7844L200.707 55.78L204.488 56.2524L208.269 56.7248L208.949 58.4879L209.628 60.251L209.993 64.9749L210.358 69.6989L213.329 70.1443L216.3 70.5898L220.837 67.4005L225.373 64.2113L227.457 62.717L229.541 61.2227L230.914 61.6307L232.288 62.0386L233.708 62.932L235.127 63.8254L235.594 67.2182L236.06 70.6109L233.679 73.0492L231.298 75.4876V75.8895V76.2915L233.664 77.6874L236.03 79.0833L240.498 77.4717L244.966 75.8601L249.003 74.1609L253.04 72.4617H253.716H254.391L256.376 75.2009L258.36 77.9401L258.341 78.336L258.322 78.7321L254.384 83.0223L250.446 87.3125L250.444 87.7268L250.442 88.141L251.502 89.0205L252.561 89.9001L261.237 88.4286L269.913 86.9572L270.903 86.9761L271.893 86.9949L273.367 89.7101L274.842 92.4253L274.474 93.0206L274.106 93.6158L268.049 97.6697L261.993 101.724L261.525 102.434L261.058 103.144L261.593 103.679L262.128 104.214L270.971 104.873L279.814 105.532L281.334 105.85L282.855 106.168L282.654 109.23L282.454 112.292L280.804 112.786L279.154 113.279L274.203 114.707L269.253 116.136L267.108 116.792L264.963 117.448V118.989V120.53L267.768 120.978L270.573 121.427L274.863 122.401L279.154 123.376L280.3 123.991L281.446 124.606H282.445H283.444V128.236V131.867H273.646H263.847L262.649 133.191L261.451 134.515L261.722 134.703L261.993 134.891L268.758 139.406L275.524 143.922V144.788V145.654L273.965 147.466L272.406 149.279L268.849 148.527L265.293 147.776L259.107 147.016L252.922 146.255L251.559 147.618L250.196 148.981L254.114 152.969L258.033 156.957L258.669 158.364L259.306 159.772L257.044 161.66L254.782 163.549H253.089H251.396L250.094 162.683L248.792 161.817L243.842 159.772L238.891 157.728L237.843 157.4L236.795 157.072L234.708 158.082L232.621 159.093V159.962V160.83L234.271 165.404L235.921 169.979V170.979V171.979L233.776 172.993L231.631 174.007L229.953 174.425L228.276 174.843L225.763 172.847L223.251 170.85L219.925 167.824L216.599 164.797L215.646 165.163L214.692 165.529L213.261 165.54L211.83 165.551L210.872 166.157L209.915 166.763L209.107 173.138L208.298 179.513L208.084 179.695L207.87 179.876L204.796 180.206L201.722 180.536L201.112 180.129L200.503 179.722L196.376 173.617L192.249 167.511H189.79H187.331L186.343 168.336L185.355 169.161L182.916 173.221L180.478 177.281V177.904V178.527L179.271 179.62L178.064 180.712L176.793 180.599ZM176.007 178.715L177.808 178.726L179.235 175.921L180.661 173.116L183.233 169.321L185.805 165.525H189.65H193.494L197.705 171.796L201.916 178.066H204.041H206.166L206.799 175.591L207.431 173.116L207.888 169.486L208.345 165.855L208.981 165.067L209.618 164.278L213.184 163.538L216.75 162.797L219.239 164.649L221.728 166.501L224.698 169.305L227.668 172.11L228.823 172.118L229.978 172.125V165.289V158.452L233.339 156.708L236.7 154.964H237.34H237.98L241.434 156.598L244.888 158.232L246.508 158.413L248.129 158.595L248.171 153.489L248.213 148.383L250.183 145.95L252.153 143.516L255.052 144.251L257.95 144.987L258.485 144.657L259.02 144.326L259.046 139.249L259.073 134.173L261.026 131.888L262.98 129.603V124.462V119.322L261.544 117.886L260.108 116.45L259.86 111.121L259.612 105.791L259.288 104.247L258.965 102.703L255.527 102.844L252.089 102.985L251.365 102.903L250.641 102.821L249.22 101.588L247.799 100.356V95.0269V89.698L247.204 89.3302L246.609 88.9625L242.174 90.3324L237.739 91.7023L239.75 93.7963L241.761 95.8902L241.645 102.491L241.529 109.091L236.627 110.801L231.726 112.512L231.893 120.294L232.06 128.076L224.914 127.769L217.767 127.462L214.302 125.691L210.837 123.919V129.485V135.05L207.765 137.754L204.279 140.128L202.53 139.588L201.32 138.983L197.536 136.414L193.752 133.844L192.581 131.862L191.41 129.88L190.233 129.506L189.056 129.132L187.769 129.541L186.483 129.949L186.026 131.39L185.568 132.83L181.537 137.085L177.091 140.264L175.525 141.049L172.24 138.155L168.955 135.261L168.937 130.26L168.83 124.879L168.102 125.259L165.213 126.53L162.324 127.801L155.064 127.973L149.954 127.276C149.961 122.585 149.927 118.959 149.743 114.238L143.119 111.193L138.563 108.396L138.371 102.593L138.18 96.7885L139.602 94.4881L141.023 92.1878L140.596 91.7601L140.168 91.3324L136.395 90.1544L132.622 88.9764L131.797 88.9651L130.972 88.9537V94.455V99.9562L128.946 101.762L126.919 103.568L123.681 103.396L120.443 103.224L120.044 103.623L119.645 104.021L119.687 109.799L119.729 115.576L117.43 118.382L115.131 121.188V125.487V129.787L116.39 130.186L117.648 130.586L118.7 133.214L119.752 135.843V140.511V145.179L123.217 145.036L126.682 144.893L127.349 144.975L128.016 145.057L129.824 146.734L131.632 148.411V153.334V158.258L132.787 158.265L133.942 158.273L138.008 156.845L142.073 155.418L145.928 156.963L149.783 158.508L150.268 159.209L150.753 159.91L150.763 165.685L150.774 171.46H151.121H151.469L156.721 167.455L161.973 163.449L166.42 164.319L170.868 165.19L171.698 171.413L172.528 177.636L173.367 178.168L174.205 178.701L176.007 178.715ZM148.298 172.114L149.453 172.126V168.535V164.943L148.822 164.553L148.191 164.163L147.217 165.669L146.243 167.176L145.779 169.061L145.314 170.947L146.229 171.527L147.143 172.106L148.298 172.114ZM232.907 171.241L233.608 170.99L233.468 169.131L233.328 167.271L232.313 166.256L231.298 165.241V167.913V170.584L231.752 171.038L232.206 171.492L232.907 171.241ZM126.83 161.215L129.221 160.216L130.097 159.489L130.972 158.762V155.213V151.663L130.147 151.679L129.322 151.694L125.895 155.545L122.467 159.397L123.453 160.805L124.439 162.213L126.83 161.215ZM253.472 161.519L254.195 161.564L255.365 160.271L256.534 158.979L254.55 156.476L252.565 153.973L251.172 152.716L249.779 151.459V155.75V160.042L251.264 160.758L252.749 161.474L253.472 161.519ZM272.056 146.182L272.881 145.561V144.697V143.832L271.68 143.451L270.48 143.07L266.271 140.106L262.062 137.142H261.201H260.34V141.073V145.003L262.485 145.333L264.63 145.664L267.93 146.234L271.23 146.804L272.056 146.182ZM111.58 146.141L117.27 145.703L117.851 145.344L118.432 144.985V141.724V138.463H117.781H117.131L111.511 141.25L105.891 144.037V145.307V146.578L111.58 146.141ZM178.99 135.928L180.805 134.623L182.743 132.583L184.681 130.544L184.977 126.457L185.272 122.37L181.239 125.961L177.206 129.552L177.19 133.392L177.175 137.232L178.99 135.928ZM201.648 136.482H202.256V132.6V128.719L199.781 126.89L197.306 125.061L194.831 122.717L192.356 120.374V124.04V127.707L193.848 129.921L195.341 132.136L198.19 134.309L201.039 136.482H201.648ZM205.318 136.738L209.263 133.579C209.218 130.708 209.298 127.991 209.237 124.676L205.169 128.614L205.318 136.738ZM174.675 128.892L170.997 125.049V133.727L174.389 136.656C174.492 133.473 174.486 131.985 174.675 128.892ZM281.682 129.793L282.233 129.374L282.012 127.813L281.791 126.252L275.851 124.797L269.911 123.341L267.068 122.901L264.226 122.461L264.428 126.006L264.63 129.552L272.881 129.882L281.131 130.212L281.682 129.793ZM110.676 129.763L113.811 129.882V126.252V122.622H112.611H111.411L108.156 123.553L104.901 124.483L101.063 125.563L97.2254 126.643L97.4391 127.768L97.6528 128.892L102.597 129.268L107.541 129.644L110.676 129.763ZM188.696 127.242H190.376V122.576V117.909L188.891 118.12L187.406 118.331L187.21 122.787L187.015 127.242L188.696 127.242ZM179.431 124.137L182.125 121.738L182.949 120.365L183.773 118.991L184.418 117.176L185.063 115.361H189.012H192.96L194.669 118.277L196.378 121.193L199.263 123.558L202.149 125.922H202.854H203.559L205.81 123.465L208.062 121.008L206.809 117.83L205.557 114.652L205.561 113.852L205.565 113.051L207.594 111.896L209.624 110.741H210.587H211.55L214.287 112.137L217.025 113.534L222.016 114.425L227.008 115.315L228.163 115.338L229.318 115.36V114.628V113.895L227.237 110.684L225.156 107.472L222.122 106.357L219.087 105.242L218.479 104.709L217.87 104.176L219.124 101.848L220.378 99.5196H225.483H230.589L234.231 98.1568L237.873 96.7939L238.207 96.2542L238.541 95.7145L237.182 93.9868L235.823 92.2591H232.007H228.192L224.058 91.8271L219.925 91.3951L219.011 89.2082L218.097 87.0212V86.7038V86.3863L221.563 85.2822L225.028 84.1782L227.008 81.7253L228.988 79.2724V78.3404V77.4083L223.483 77.2155L217.978 77.0228L215 78.7676L212.023 80.5124L209.103 79.6948L206.183 78.8772L205.868 78.3673L205.552 77.8574L206.895 74.7257L208.237 71.5939L206.617 69.1458L204.997 66.6977L203.697 66.358L202.398 66.0182L199.474 67.9203L196.549 69.8224L195.024 73.1979L193.498 76.5734L190.525 76.1658L187.551 75.7583H186.323H185.095V73.4739V71.1894L183.819 70.0087L182.542 68.8279L179.574 67.2163L176.605 65.6046L174.943 66.3619L173.281 67.1191L172.551 69.8316L171.821 72.544L172.578 74.8384L173.335 77.1328L172.979 78.0611L172.623 78.9895L170.586 80.0428L168.549 81.0961L165.411 79.3883L162.273 77.6805L156.742 77.8744L151.21 78.0683L150.965 78.8074L150.721 79.5466L152.892 82.3757L155.064 85.2048L158.193 86.1101L161.323 87.0155L160.452 89.1423L159.582 91.2691H152.373H145.163L144.333 91.8059L143.504 92.3428L142.489 94.3052L141.474 96.2676L144.639 97.6705L147.803 99.0734L152.871 98.9514L157.938 98.8293L158.976 100.311L160.014 101.793V102.925V104.057L156.752 105.833L153.49 107.608L152.434 110.247L151.378 112.885L151.571 113.059L151.764 113.232L156.384 113.682L161.004 114.131L164.802 112.098L168.599 110.064L171.251 111.819L173.902 113.574L173.583 114.632L173.264 115.69L172.61 118.661L171.957 121.631L174.347 124.082L176.737 126.534L179.431 124.137ZM189.386 100.84H185.934L184.194 99.4725L182.455 98.1046V96.2874V94.4703L183.94 93.1064L185.425 91.7425L187.571 91.2888L189.716 90.835L191.607 91.2504L193.498 91.6657L194.907 92.9787L196.316 94.2916V96.198V98.1046L194.577 99.4725L192.838 100.84H189.386ZM189.239 99.5204H192.062L193.529 98.493L194.996 97.4655V96.2307V94.996L193.257 93.628L191.518 92.26H190H188.482L186.637 92.9613L184.792 93.6627L184.294 94.4464L183.796 95.2302L183.785 96.0552L183.775 96.8803L185.095 98.2004L186.415 99.5204H189.239ZM157.608 125.922H162.902L165.084 124.437L167.265 122.952L167.27 118.607L167.274 114.261L166.894 113.881L166.513 113.5L163.643 114.77L160.772 116.04L156.103 115.606L151.434 115.172V120.107V125.042L151.874 125.482L152.314 125.922H157.608ZM224.894 125.854L229.381 125.922L229.184 121.808L228.988 117.694L223.21 116.638L217.432 115.581L215.829 114.724L214.226 113.866L213.192 114.263L212.157 114.66V117.694V120.728L212.832 121.99L213.507 123.252L214.977 124.041L216.447 124.831L218.427 125.309L220.408 125.787L224.894 125.854ZM169.915 118.331L170.575 117.923V115.982V114.041H169.915H169.255V116.39V118.739L169.915 118.331ZM210.056 116.45L210.264 113.909L209.855 113.499L209.445 113.089L208.888 113.99L208.332 114.891L209.089 116.941L209.847 118.992L210.056 116.45ZM116.645 115.984L117.169 116.022L116.975 111.237L116.781 106.451L107.244 106.608L97.7056 106.764L96.8274 107.642L95.9492 108.52L97.1248 109.547L98.3004 110.574L102.921 111.943L107.541 113.311L111.831 114.63L116.121 115.948L116.645 115.984ZM262.209 116.022H262.758L267.324 114.664L271.89 113.306L275.844 112.086L279.797 110.866L280.449 109.832L281.101 108.798L280.456 108.177L279.811 107.557L273.871 106.841L267.93 106.125L264.795 106.123L261.66 106.121V111.072V116.022H262.209ZM148.958 112.031L150.113 112.061V111.336V110.611L151.179 108.366L152.244 106.121L154.809 104.679L157.374 103.238V102.424V101.611L156.549 101.312L155.724 101.014L152.424 101.315L149.123 101.616L145.309 99.9083L141.495 98.2006H140.524L139.758 98.4073C139.83 101.462 139.626 104.772 139.989 107.801L141.21 108.572L144.507 110.286L147.804 112L148.958 112.031ZM230.595 110.742H231.702L235.79 109.361L239.879 107.98V103.091V98.201H239.237H238.596L234.865 99.8511L231.134 101.501H226.266H221.398V101.777V102.053L221.024 103.026L220.651 103.999L223.507 105.09L226.363 106.18L227.925 108.461L229.488 110.741L230.595 110.742ZM124.372 102.052L124.702 102.141L125.625 101.557L126.547 100.973L126.178 96.8945L125.808 92.8165L125.492 92.5005L125.176 92.1845L118.669 91.1174L112.161 90.0502L109.205 90.0003L106.248 89.9505L106.055 90.9406L105.861 91.9306L112.989 96.6578L120.116 101.385L122.079 101.674L124.042 101.963L124.372 102.052ZM255.915 101.501H258.751L263.671 98.2346L268.59 94.9679L270.49 93.4109L272.39 91.8539L271.48 90.3816L270.57 88.9092L267.93 89.2955L265.29 89.6817L262.32 90.2734L259.35 90.865L256.215 91.2733L253.079 91.6815V96.5913V101.501H255.915ZM250.571 100.181H251.099V95.6708V91.1606L250.665 90.7263L250.231 90.292L249.345 91.0271L248.459 91.7623V95.1797V98.597L249.251 99.3891L250.043 100.181H250.571ZM128.414 99.5204H128.992V94.7587V89.9971L128.075 90.9635L127.157 91.93L127.496 95.7252L127.836 99.5204H128.414ZM144.383 89.8993L145.823 89.4583L146.648 88.7982L147.473 88.1382V83.7087V79.2793L147.06 78.8656L146.646 78.4519L144.804 79.4041L142.963 80.3564L142.512 82.4088L142.061 84.4613L142.502 87.4008L142.943 90.3403L144.383 89.8993ZM225.958 90.1446L229.648 89.9499L229.849 86.0422L230.051 82.1344L227.869 83.922L225.688 85.7097L223.378 86.7441L221.067 87.7786L220.808 88.0231L220.549 88.268L221.409 89.3038L222.269 90.3396L225.958 90.1446ZM233.198 90.1521L234.928 89.9514L235.126 86.1735L235.323 82.3954L234.608 81.0582L233.892 79.7209H232.909H231.925L231.282 81.4139L230.638 83.107V85.6502V88.1934L231.052 89.2732L231.467 90.3529L233.198 90.1521ZM140.378 89.5905L140.873 89.6208V85.4032V81.1856L137.738 79.6951L134.603 78.2045L130.682 76.6522L126.762 75.0999H126.227H125.692V78.0956V81.0913L128.233 83.8152L130.774 86.5392L135.328 88.049L139.883 89.5589L140.378 89.5905ZM155.284 89.5225L158.144 89.6215L157.879 88.8268L157.614 88.032L155.614 87.5138L153.614 86.9955L151.732 84.0182L149.85 81.041H149.322H148.793V84.9574V88.8737L150.608 89.1489L152.424 89.4237L155.284 89.5225ZM238.017 89.6215H239.456L243.792 88.2158L248.129 86.81L250.604 84.1144L253.079 81.4188V78.2597V75.1006H252.236H251.393L244.205 78.0708L237.017 81.041H236.798H236.578V85.3312V89.6215H238.017ZM255.06 78.7309L255.72 78.3229V77.7019V77.0808H255.06H254.399V78.1098V79.1388L255.06 78.7309ZM123.844 78.4009H124.372V76.7508V75.1007H123.793H123.214L122.488 75.9745L121.763 76.8482L122.54 77.6246L123.316 78.4009H123.844ZM168.355 78.3586L169.105 78.4009L169.439 76.2558L169.773 74.1107L169.271 73.5706L168.768 73.0305L166.206 73.2407L163.644 73.4508L163.451 74.8027L163.257 76.1546L165.431 77.2356L167.604 78.3167L168.355 78.3586ZM213.393 77.2997L215.618 76.4207H215.912H216.205L215.996 74.6056L215.787 72.7905L213.237 72.1607L210.686 71.5309L209.772 72.7818L208.857 74.0329V75.8384V77.644L210.012 77.9115L211.167 78.1788L213.393 77.2997ZM156.054 76.081L161.664 75.619L162.133 74.8688L162.601 74.1186L160.65 72.1061L158.7 70.0937L154.572 67.9766L150.443 65.8596L149.948 65.8598L149.453 65.8601V70.7003V75.5407L149.948 76.0418L150.443 76.5431L156.054 76.081ZM222.883 74.9623L228.328 74.7707L228.522 69.9854L228.716 65.2001H228.095H227.474L222.456 68.6248L217.437 72.0494V73.6018V75.1541L222.883 74.9623ZM191.222 74.3507L192.398 74.4407L192.96 72.9556L193.521 71.4705L193.229 70.9754L192.938 70.4804H190.117H187.296L186.927 70.8486L186.559 71.2167L186.885 72.4614L187.21 73.7062L188.628 73.9837L190.046 74.2607L191.222 74.3507ZM230.431 73.1189H230.883L232.411 71.6838L233.938 70.2487V67.8555V65.4625L233.146 64.6704L232.354 63.8784H231.166H229.978V68.4986V73.1189H230.431ZM147.635 72.2949L148.463 72.019V68.7738V65.5287L147.086 65.3317L145.708 65.1349L145.023 65.9917L144.339 66.8487L145.573 69.7099L146.807 72.5711L147.635 72.2949ZM196.778 67.1785H197.387L198.832 65.8328L200.276 64.487V62.2026V59.9182H199.719H199.161L198.124 61.0732L197.088 62.2283L196.629 64.7034L196.169 67.1785H196.778ZM208.245 66.4098L208.781 65.4516L208.073 62.5199L207.365 59.5881L206.335 58.7631L205.304 57.938H203.45H201.596V60.2482V62.5583L201.431 63.0505L201.266 63.5426L203.9 64.4053L206.533 65.2681L207.121 66.318L207.708 67.3679L208.245 66.4098ZM182.281 66.5187H182.455V65.2492V63.9798L180.747 61.949L179.038 59.9183H178.436H177.835L177.846 61.7334L177.858 63.5485L179.982 65.0336L182.107 66.5187H182.281ZM174.505 64.4501L176.515 63.7494V61.2838V58.8182L176.143 58.4463L175.771 58.0744L173.998 58.5447L172.225 59.015L172.013 61.1794L171.802 63.3438L172.148 64.2472L172.495 65.1505L174.505 64.4501Z" fill="white"/>
</g>
<defs>
<clipPath id="clip0_717_335">
<rect width="1105.18" height="245.254" fill="white"/>
</clipPath>
</defs>
</svg>
