<svg width="1098" height="297" viewBox="0 0 1098 297" fill="none" xmlns="http://www.w3.org/2000/svg">
<g clip-path="url(#clip0_757_305)">
<path d="M336.696 21.8714C336.696 9.85751 326.838 0 314.824 0C306.815 0 300.038 4.31266 296.033 10.4736C292.029 4.31266 285.252 0 277.242 0C265.229 0 255.371 9.85751 255.371 21.8714C255.371 33.8852 265.229 43.7427 277.242 43.7427C285.252 43.7427 292.029 39.43 296.033 33.2691C300.038 39.43 306.815 43.7427 314.824 43.7427C326.838 43.7427 336.696 33.8852 336.696 21.8714Z" fill="white"/>
<path d="M473.777 174.047C471.312 168.194 470.08 162.033 470.08 155.564H433.422C433.422 167.27 435.887 178.359 440.2 188.525H439.891C413.707 188.525 392.452 167.27 392.452 141.086C392.452 114.902 413.707 93.6464 439.891 93.6464C466.075 93.6464 487.331 114.902 487.331 141.086C487.331 153.716 482.094 165.421 473.777 174.047ZM517.827 203.003C511.666 203.003 505.814 201.771 500.269 199.615C515.055 184.52 524.296 163.573 524.296 140.778C524.296 94.2625 486.407 56.3727 439.891 56.3727C393.376 56.3727 355.487 94.2625 355.487 140.778C355.487 157.412 360.415 172.506 368.425 185.752C349.942 179.284 336.388 161.725 336.388 140.778V56.6807H299.73V141.086C299.73 187.601 337.62 225.491 384.135 225.491H440.2C448.825 225.491 457.45 223.95 465.151 221.486C479.63 233.192 497.804 239.969 517.827 239.969H543.087V203.003H517.827Z" fill="white"/>
<path d="M114.594 140.778C114.594 114.594 135.849 93.3383 162.033 93.3383C188.217 93.3383 209.472 114.594 209.472 140.778C209.472 166.962 188.217 188.217 162.033 188.217C135.849 188.525 114.594 166.962 114.594 140.778ZM246.438 140.778C246.438 94.2624 208.548 56.3726 162.033 56.3726C115.518 56.3726 77.6279 94.2624 77.6279 140.778C77.6279 158.336 83.1727 174.663 92.4142 188.217H84.0969C57.9129 188.217 36.6576 166.962 36.6576 140.778V0H0V140.778C0 187.293 37.8898 225.183 84.4049 225.183H162.341C208.548 225.183 246.438 187.293 246.438 140.778Z" fill="white"/>
<path d="M255.371 212.861C255.371 239.045 238.428 260.3 217.481 260.3C204.543 260.3 193.146 251.983 186.369 239.661H146.938C157.104 272.93 184.828 296.957 217.481 296.957C258.452 296.957 292.029 259.068 292.029 212.553V56.6807H255.371V212.861Z" fill="white"/>
<path d="M589.603 178.975V185.136H569.888V152.175H577.589V178.975H589.603Z" fill="white"/>
<path d="M597.612 174.663C597.92 176.511 598.536 178.051 599.46 178.975C600.384 179.9 601.617 180.208 603.157 180.208C604.081 180.208 604.697 180.208 605.313 179.9C605.929 179.592 606.545 179.592 606.853 179.283C607.161 178.975 607.778 178.975 608.086 178.667C608.394 178.359 609.01 178.359 609.318 178.359C609.934 178.359 610.242 178.667 610.55 178.975L612.706 181.44C612.09 182.364 611.166 182.98 610.242 183.596C609.318 184.212 608.702 184.52 607.778 184.828C606.853 185.136 605.929 185.444 605.005 185.444C604.081 185.444 603.157 185.752 602.541 185.752C601.001 185.752 599.46 185.444 597.92 184.828C596.38 184.212 595.148 183.596 594.223 182.364C593.299 181.44 592.375 179.9 591.759 178.359C591.143 176.819 590.835 174.971 590.835 172.814C590.835 171.274 591.143 169.734 591.759 168.502C592.375 166.962 592.991 165.729 593.915 164.805C594.84 163.881 596.072 162.957 597.612 162.341C599.152 161.725 600.692 161.417 602.541 161.417C604.081 161.417 605.621 161.725 606.853 162.033C608.086 162.649 609.318 163.265 610.242 164.189C611.166 165.113 611.782 166.346 612.398 167.578C613.014 168.81 613.322 170.35 613.322 172.198C613.322 172.814 613.322 173.123 613.322 173.431C613.322 173.739 613.322 174.047 613.014 174.355C612.706 174.663 612.706 174.663 612.398 174.663C612.09 174.663 612.09 174.663 611.474 174.663H597.612ZM606.237 170.35C606.237 169.734 606.237 169.118 605.929 168.81C605.929 168.194 605.621 167.886 605.313 167.27C605.005 166.962 604.697 166.654 604.081 166.346C603.465 166.037 602.849 166.037 602.233 166.037C601.001 166.037 599.768 166.346 599.152 167.27C598.536 167.886 597.92 169.118 597.612 170.658H606.237V170.35Z" fill="white"/>
<path d="M630.881 166.653C630.573 166.962 630.573 167.27 630.265 167.27C629.957 167.27 629.957 167.578 629.341 167.578C629.033 167.578 628.725 167.578 628.417 167.27C628.109 167.27 627.801 166.962 627.493 166.962C627.185 166.653 626.569 166.653 626.26 166.345C625.644 166.345 625.336 166.037 624.72 166.037C623.796 166.037 623.18 166.345 622.564 166.653C621.948 166.962 621.948 167.578 621.948 168.194C621.948 168.502 622.256 169.118 622.564 169.426C622.872 169.734 623.18 170.042 623.796 170.042C624.412 170.35 625.028 170.35 625.644 170.658C626.26 170.966 626.877 170.966 627.493 171.274C628.109 171.582 628.725 171.89 629.341 172.198C629.957 172.506 630.573 172.814 631.189 173.431C631.805 174.047 632.113 174.355 632.421 175.279C632.729 175.895 633.038 176.819 633.038 177.743C633.038 178.975 632.729 179.9 632.421 180.824C632.113 181.748 631.497 182.672 630.573 183.288C629.649 183.904 628.725 184.52 627.493 184.828C626.261 185.136 624.72 185.444 623.18 185.444C622.256 185.444 621.64 185.444 620.716 185.136C619.791 184.828 619.175 184.828 618.251 184.52C617.327 184.212 616.711 183.904 616.095 183.596C615.479 183.288 614.863 182.98 614.555 182.364L616.095 179.9C616.403 179.591 616.403 179.283 616.711 179.283C617.019 178.975 617.327 178.975 617.635 178.975C617.943 178.975 618.251 178.975 618.867 179.283C619.175 179.591 619.483 179.591 619.792 179.9C620.1 180.208 620.716 180.208 621.024 180.516C621.332 180.824 622.256 180.824 622.872 180.824C623.488 180.824 623.796 180.824 624.104 180.516C624.412 180.516 624.72 180.208 625.028 179.9C625.336 179.591 625.336 179.591 625.644 179.283C625.644 178.975 625.952 178.667 625.952 178.667C625.952 178.051 625.644 177.743 625.336 177.435C625.028 177.127 624.72 176.819 624.104 176.511C623.488 176.203 622.872 176.203 622.256 175.895C621.64 175.587 621.024 175.587 620.408 175.279C619.792 174.971 619.175 174.663 618.559 174.355C617.943 174.047 617.327 173.739 616.711 173.122C616.095 172.506 615.787 171.89 615.479 171.274C615.171 170.658 614.863 169.734 614.863 168.502C614.863 167.578 615.171 166.653 615.479 165.729C615.787 164.805 616.403 164.189 617.327 163.265C618.251 162.341 619.175 162.033 620.1 161.725C621.332 161.417 622.564 161.109 624.104 161.109C625.028 161.109 625.644 161.109 626.569 161.417C627.493 161.417 628.109 161.725 628.725 162.033C629.341 162.341 629.957 162.649 630.573 162.957C631.189 163.265 631.497 163.573 632.113 164.189L630.881 166.653Z" fill="white"/>
<path d="M679.553 168.502C679.553 170.966 679.245 173.123 678.32 175.279C677.396 177.435 676.472 178.975 674.932 180.516C673.392 182.056 671.543 183.288 669.695 184.212C667.847 185.136 665.382 185.444 662.61 185.444C659.838 185.444 657.681 185.136 655.525 184.212C653.369 183.288 651.52 182.056 649.98 180.516C648.44 178.975 647.208 177.127 646.592 175.279C645.975 173.431 645.359 170.966 645.359 168.502C645.359 166.037 645.667 163.881 646.592 161.725C647.516 159.568 648.44 158.028 649.98 156.488C651.52 154.948 653.369 153.716 655.525 153.1C657.681 152.175 659.838 151.867 662.61 151.867C665.382 151.867 667.539 152.175 669.695 153.1C671.851 154.024 673.7 155.256 674.932 156.796C676.472 158.336 677.704 160.185 678.32 162.033C678.937 163.881 679.553 166.037 679.553 168.502ZM671.851 168.502C671.851 166.962 671.543 165.421 671.235 164.189C670.927 162.957 670.311 161.725 669.387 160.801C668.463 159.877 667.539 159.26 666.615 158.644C665.382 158.028 664.15 158.028 662.61 158.028C661.07 158.028 659.838 158.336 658.605 158.644C657.373 159.26 656.449 159.877 655.833 160.801C655.217 161.725 654.293 162.957 653.985 164.189C653.677 165.421 653.369 166.962 653.369 168.502C653.369 170.042 653.677 171.582 653.985 172.815C654.293 174.047 654.909 175.279 655.833 176.203C656.757 177.127 657.681 177.743 658.605 178.359C659.838 178.975 661.07 178.975 662.61 178.975C664.15 178.975 665.382 178.667 666.615 178.359C667.847 177.743 668.771 177.127 669.387 176.203C670.311 175.279 670.927 174.355 671.235 172.815C671.543 171.274 671.851 170.042 671.851 168.502Z" fill="white"/>
<path d="M684.789 184.828V166.345L683.249 166.037C682.633 166.037 682.325 165.729 682.017 165.421C681.709 165.113 681.401 164.805 681.401 164.189V161.417H684.789V160.493C684.789 159.26 685.097 158.028 685.405 156.796C685.714 155.564 686.33 154.64 687.254 154.024C688.178 153.408 689.102 152.791 690.334 152.175C691.566 151.867 692.799 151.559 694.339 151.559C694.955 151.559 695.571 151.559 695.879 151.559C696.495 151.559 696.803 151.867 697.419 151.867V155.256C697.419 155.872 697.111 156.18 696.803 156.18C696.495 156.488 696.187 156.488 695.571 156.488C694.955 156.488 694.339 156.488 694.031 156.796C693.723 157.104 693.107 157.104 692.799 157.412C692.491 157.72 692.183 158.028 692.183 158.644C691.874 159.26 691.874 159.876 691.874 160.493V161.109H700.192V160.801C700.192 159.26 700.5 158.028 700.808 156.796C701.424 155.564 702.04 154.332 702.964 153.407C703.888 152.483 705.429 151.867 706.969 151.251C708.509 150.635 710.357 150.327 712.514 150.327C713.13 150.327 713.746 150.327 714.67 150.327C715.286 150.327 715.902 150.635 716.518 150.635L716.21 154.024C716.21 154.332 715.902 154.64 715.594 154.64C715.286 154.64 714.978 154.948 714.362 154.948C712.822 154.948 711.589 154.948 710.357 155.256C709.125 155.564 708.509 155.872 707.893 156.18C707.277 156.796 706.969 157.104 706.661 158.028C706.353 158.644 706.353 159.568 706.353 160.493H721.139V183.904H714.054V165.421H706.353V183.904H699.268V165.421H691.874V183.904H684.789V184.828Z" fill="white"/>
<path d="M743.318 167.27C743.01 167.578 743.01 167.578 742.702 167.886C742.394 168.194 742.086 168.194 741.778 168.194C741.47 168.194 741.162 168.194 740.854 167.886C740.546 167.578 740.238 167.578 739.93 167.27C739.622 166.962 739.314 166.962 738.698 166.653C738.081 166.345 737.773 166.345 736.849 166.345C735.925 166.345 735.309 166.653 734.693 166.962C734.077 167.27 733.461 167.578 733.153 168.194C732.845 168.81 732.537 169.426 732.229 170.35C731.921 171.274 731.921 172.198 731.921 173.122C731.921 175.279 732.229 177.127 733.153 178.359C734.077 179.591 735.309 180.208 736.849 180.208C737.773 180.208 738.39 180.208 738.698 179.9C739.314 179.591 739.622 179.591 739.93 179.283C740.238 178.975 740.546 178.667 740.854 178.667C741.162 178.359 741.47 178.359 741.778 178.359C742.394 178.359 742.702 178.667 743.01 178.975L745.167 181.44C744.55 182.364 743.626 182.98 743.01 183.596C742.086 184.212 741.47 184.52 740.546 184.828C739.622 185.136 739.006 185.444 738.081 185.444C737.157 185.444 736.541 185.752 735.617 185.752C734.077 185.752 732.845 185.444 731.612 184.828C730.38 184.212 729.148 183.596 728.224 182.364C727.3 181.44 726.376 180.208 725.76 178.667C725.144 177.127 724.835 175.587 724.835 173.431C724.835 171.89 725.143 170.042 725.452 168.81C726.068 167.27 726.684 166.037 727.608 165.113C728.532 164.189 729.764 163.265 731.304 162.649C732.845 162.033 734.385 161.725 736.233 161.725C738.081 161.725 739.622 162.033 741.162 162.649C742.394 163.265 743.934 164.189 744.859 165.113L743.318 167.27Z" fill="white"/>
<path d="M753.484 174.663C753.792 176.511 754.408 178.051 755.332 178.975C756.257 179.9 757.489 180.208 759.029 180.208C759.953 180.208 760.569 180.208 761.185 179.9C761.801 179.592 762.417 179.592 762.725 179.283C763.034 178.975 763.65 178.975 763.958 178.667C764.266 178.359 764.882 178.359 765.19 178.359C765.806 178.359 766.114 178.667 766.422 178.975L768.578 181.44C767.962 182.364 767.038 182.98 766.114 183.596C765.19 184.212 764.574 184.52 763.65 184.828C762.725 185.136 761.801 185.444 760.877 185.444C759.953 185.444 759.029 185.752 758.413 185.752C756.873 185.752 755.332 185.444 753.792 184.828C752.252 184.212 751.02 183.596 750.096 182.364C749.171 181.44 748.247 179.9 747.631 178.359C747.015 176.819 746.707 174.971 746.707 172.814C746.707 171.274 747.015 169.734 747.631 168.502C748.247 166.962 748.863 165.729 749.788 164.805C750.712 163.881 751.944 162.957 753.484 162.341C755.024 161.725 756.565 161.417 758.413 161.417C759.953 161.417 761.493 161.725 762.725 162.033C763.958 162.649 765.19 163.265 766.114 164.189C767.038 165.113 767.654 166.346 768.27 167.578C768.886 168.81 769.194 170.35 769.194 172.198C769.194 172.814 769.194 173.123 769.194 173.431C769.194 173.739 769.194 174.047 768.886 174.355C768.578 174.663 768.578 174.663 768.27 174.663C767.962 174.663 767.962 174.663 767.346 174.663H753.484ZM762.417 170.35C762.417 169.734 762.417 169.118 762.109 168.81C762.109 168.194 761.801 167.886 761.493 167.27C761.185 166.962 760.877 166.654 760.261 166.346C759.645 166.037 759.029 166.037 758.413 166.037C757.181 166.037 755.948 166.346 755.332 167.27C754.716 167.886 754.1 169.118 753.792 170.658H762.417V170.35Z" fill="white"/>
<path d="M787.061 166.653C786.753 166.962 786.753 167.27 786.445 167.27C786.137 167.27 785.829 167.578 785.521 167.578C785.213 167.578 784.905 167.578 784.596 167.27C784.288 167.27 783.98 166.962 783.672 166.962C783.364 166.653 782.748 166.653 782.44 166.345C781.824 166.345 781.516 166.037 780.9 166.037C779.976 166.037 779.36 166.345 778.744 166.653C778.127 166.962 778.127 167.578 778.127 168.194C778.127 168.502 778.127 169.118 778.744 169.426C779.052 169.734 779.36 170.042 779.976 170.042C780.592 170.35 781.208 170.35 781.824 170.658C782.44 170.966 783.056 170.966 783.672 171.274C784.288 171.582 784.905 171.89 785.521 172.198C786.137 172.506 786.753 172.814 787.369 173.431C787.985 174.047 788.293 174.355 788.601 175.279C788.909 175.895 788.909 176.819 788.909 177.743C788.909 178.975 788.601 179.9 788.293 180.824C787.985 181.748 787.369 182.672 786.445 183.288C785.521 183.904 784.596 184.52 783.364 184.828C782.132 185.136 780.592 185.444 779.052 185.444C778.127 185.444 777.511 185.444 776.587 185.136C775.663 185.136 775.047 184.828 774.431 184.52C773.815 184.212 772.891 183.904 772.275 183.596C771.659 183.288 771.042 182.98 770.734 182.364L772.275 179.9C772.583 179.591 772.583 179.283 772.891 179.283C773.199 178.975 773.507 178.975 773.815 178.975C774.123 178.975 774.431 178.975 775.047 179.283C775.355 179.591 775.663 179.591 775.971 179.9C776.279 180.208 776.895 180.208 777.203 180.516C777.819 180.824 778.436 180.824 779.052 180.824C779.668 180.824 779.976 180.824 780.284 180.516C780.592 180.516 780.9 180.208 781.208 179.9C781.516 179.591 781.516 179.591 781.824 179.283C782.132 178.975 782.132 178.667 782.132 178.667C782.132 178.051 781.824 177.743 781.516 177.435C781.208 177.127 780.9 176.819 780.284 176.511C779.668 176.203 779.052 176.203 778.436 175.895C777.819 175.587 777.203 175.587 776.587 175.279C775.971 174.971 775.355 174.663 774.739 174.355C774.123 174.047 773.507 173.739 772.891 173.122C772.275 172.506 771.967 171.89 771.658 171.274C771.35 170.658 771.042 169.734 771.042 168.502C771.042 167.578 771.35 166.653 771.658 165.729C771.967 164.805 772.583 164.189 773.507 163.265C774.123 162.649 775.355 162.033 776.279 161.725C777.511 161.417 778.744 161.109 780.284 161.109C781.208 161.109 781.824 161.109 782.748 161.417C783.672 161.417 784.288 161.725 784.905 162.033C785.521 162.341 786.137 162.649 786.753 162.957C787.369 163.265 787.677 163.573 788.293 164.189L787.061 166.653Z" fill="white"/>
<path d="M809.549 161.725V185.136C809.549 186.369 809.549 187.293 809.241 188.217C808.933 189.141 808.625 190.065 808.008 190.681C807.392 191.297 806.468 191.913 805.544 192.53C804.62 193.146 803.08 193.146 801.539 193.146C800.923 193.146 800.307 193.146 799.999 193.146C799.383 193.146 799.075 192.838 798.459 192.838L798.767 189.141C798.767 188.833 798.767 188.525 799.075 188.525C799.383 188.525 799.691 188.217 800.307 188.217C800.923 188.217 801.231 188.217 801.539 188.217C801.848 188.217 802.156 187.909 802.464 187.601C802.772 187.293 802.772 186.985 802.772 186.677C802.772 186.369 802.772 185.753 802.772 185.136V161.725H809.549ZM810.473 155.256C810.473 155.872 810.473 156.18 810.165 156.796C809.857 157.412 809.549 157.72 809.241 158.028C808.933 158.336 808.317 158.644 808.008 158.952C807.392 159.26 807.084 159.26 806.468 159.26C805.852 159.26 805.236 159.26 804.928 158.952C804.312 158.644 804.004 158.336 803.696 158.028C803.388 157.72 803.08 157.104 802.772 156.796C802.464 156.18 802.464 155.872 802.464 155.256C802.464 154.64 802.464 154.024 802.772 153.716C803.08 153.1 803.388 152.791 803.696 152.483C804.004 152.175 804.62 151.867 804.928 151.559C805.236 151.251 805.852 151.251 806.468 151.251C807.084 151.251 807.7 151.251 808.008 151.559C808.625 151.867 808.933 152.175 809.241 152.483C809.549 152.791 809.857 153.408 810.165 153.716C810.165 154.024 810.473 154.64 810.473 155.256Z" fill="white"/>
<path d="M820.33 174.663C820.638 176.511 821.254 178.051 822.178 178.975C823.102 179.9 824.334 180.208 825.875 180.208C826.799 180.208 827.415 180.208 828.031 179.9C828.647 179.592 829.263 179.592 829.571 179.283C829.879 178.975 830.495 178.975 830.803 178.667C831.111 178.359 831.728 178.359 832.036 178.359C832.652 178.359 832.96 178.667 833.268 178.975L835.424 181.44C834.808 182.364 833.884 182.98 832.96 183.596C832.036 184.212 831.419 184.52 830.495 184.828C829.571 185.136 828.647 185.444 827.723 185.444C826.799 185.444 825.875 185.752 825.258 185.752C823.718 185.752 822.178 185.444 820.638 184.828C819.098 184.212 817.865 183.596 816.941 182.364C816.017 181.44 815.093 179.9 814.477 178.359C813.861 176.819 813.553 174.971 813.553 172.814C813.553 171.274 813.861 169.734 814.477 168.502C815.093 166.962 815.709 165.729 816.633 164.805C817.557 163.881 818.79 162.957 820.33 162.341C821.87 161.725 823.41 161.417 825.258 161.417C826.799 161.417 828.339 161.725 829.571 162.033C830.803 162.649 832.036 163.265 832.96 164.189C833.884 165.113 834.5 166.346 835.116 167.578C835.732 168.81 836.04 170.35 836.04 172.198C836.04 172.814 836.04 173.123 836.04 173.431C836.04 173.739 836.04 174.047 835.732 174.355C835.424 174.663 835.424 174.663 835.116 174.663C834.808 174.663 834.5 174.663 834.192 174.663H820.33ZM829.263 170.35C829.263 169.734 829.263 169.118 828.955 168.81C828.955 168.194 828.647 167.886 828.339 167.27C828.031 166.962 827.723 166.654 827.107 166.346C826.491 166.037 825.875 166.037 825.258 166.037C824.026 166.037 822.794 166.346 822.178 167.27C821.562 167.886 820.946 169.118 820.638 170.658H829.263V170.35Z" fill="white"/>
<path d="M859.76 161.725V185.136H855.447C854.523 185.136 853.907 184.828 853.599 183.904L853.291 182.672C852.983 182.98 852.367 183.596 851.751 183.904C851.135 184.212 850.827 184.52 850.211 184.828C849.595 185.136 848.978 185.136 848.362 185.444C847.746 185.444 847.13 185.752 846.206 185.752C844.974 185.752 843.742 185.444 842.817 185.136C841.893 184.828 840.969 184.212 840.353 183.288C839.737 182.364 839.121 181.44 838.813 180.516C838.505 179.283 838.197 178.359 838.197 176.819V162.033H845.282V176.819C845.282 178.051 845.59 178.975 846.206 179.591C846.822 180.208 847.438 180.516 848.67 180.516C849.286 180.516 850.211 180.208 850.827 179.9C851.443 179.591 852.059 179.283 852.675 178.667V162.033L859.76 161.725Z" fill="white"/>
<path d="M871.158 164.189C871.466 163.881 872.082 163.265 872.698 162.957C873.314 162.649 873.622 162.341 874.238 162.033C874.855 161.725 875.471 161.725 876.087 161.417C876.703 161.417 877.319 161.109 878.243 161.109C879.475 161.109 880.707 161.417 881.632 161.725C882.556 162.033 883.48 162.649 884.096 163.573C884.712 164.497 885.328 165.421 885.636 166.345C885.944 167.578 886.252 168.502 886.252 170.042V184.828H879.167V170.042C879.167 168.81 878.859 167.886 878.243 167.27C877.627 166.653 877.011 166.345 875.779 166.345C875.163 166.345 874.238 166.653 873.622 166.962C873.006 167.27 872.39 167.578 871.774 168.194V184.828H864.689V161.417H869.002C869.926 161.417 870.542 161.725 870.85 162.649L871.158 164.189Z" fill="white"/>
<path d="M896.11 174.663C896.418 176.511 897.034 178.051 897.958 178.975C898.882 179.9 900.114 180.208 901.654 180.208C902.579 180.208 903.195 180.208 903.811 179.9C904.427 179.592 905.043 179.592 905.351 179.283C905.659 178.975 906.275 178.975 906.583 178.667C906.891 178.359 907.507 178.359 907.815 178.359C908.431 178.359 908.739 178.667 909.048 178.975L911.204 181.44C910.588 182.364 909.664 182.98 908.739 183.596C907.815 184.212 907.199 184.52 906.275 184.828C905.351 185.136 904.427 185.444 903.503 185.444C902.579 185.444 901.654 185.752 901.038 185.752C899.498 185.752 897.958 185.444 896.418 184.828C894.877 184.212 893.645 183.596 892.721 182.364C891.797 181.44 890.873 179.9 890.257 178.359C889.641 176.819 889.333 174.971 889.333 172.814C889.333 171.274 889.641 169.734 890.257 168.502C890.873 166.962 891.489 165.729 892.413 164.805C893.337 163.881 894.569 162.957 896.11 162.341C897.65 161.725 899.19 161.417 901.038 161.417C902.579 161.417 904.119 161.725 905.351 162.033C906.583 162.649 907.815 163.265 908.739 164.189C909.664 165.113 910.28 166.346 910.896 167.578C911.512 168.81 911.82 170.35 911.82 172.198C911.82 172.814 911.82 173.123 911.82 173.431C911.82 173.739 911.82 174.047 911.512 174.355C911.204 174.663 911.204 174.663 910.896 174.663C910.588 174.663 910.588 174.663 909.972 174.663H896.11ZM904.735 170.35C904.735 169.734 904.735 169.118 904.427 168.81C904.427 168.194 904.119 167.886 903.811 167.27C903.503 166.962 903.195 166.654 902.579 166.346C901.962 166.037 901.346 166.037 900.73 166.037C899.498 166.037 898.266 166.346 897.65 167.27C897.034 167.886 896.418 169.118 896.11 170.658H904.735V170.35Z" fill="white"/>
<path d="M929.379 166.653C929.071 166.962 929.071 167.27 928.763 167.27C928.455 167.27 928.147 167.578 927.839 167.578C927.531 167.578 927.222 167.578 926.914 167.27C926.606 167.27 926.298 166.962 925.99 166.962C925.682 166.653 925.066 166.653 924.758 166.345C924.142 166.345 923.834 166.037 923.218 166.037C922.294 166.037 921.678 166.345 921.061 166.653C920.445 166.962 920.445 167.578 920.445 168.194C920.445 168.502 920.445 169.118 921.061 169.426C921.37 169.734 921.678 170.042 922.294 170.042C922.91 170.35 923.526 170.35 924.142 170.658C924.758 170.966 925.374 170.966 925.99 171.274C926.606 171.582 927.222 171.89 927.839 172.198C928.455 172.506 929.071 172.814 929.687 173.431C930.303 174.047 930.611 174.355 930.919 175.279C931.227 175.895 931.227 176.819 931.227 177.743C931.227 178.975 930.919 179.9 930.611 180.824C930.303 181.748 929.687 182.672 928.763 183.288C927.839 183.904 926.914 184.52 925.682 184.828C924.45 185.136 922.91 185.444 921.37 185.444C920.445 185.444 919.829 185.444 918.905 185.136C917.981 185.136 917.365 184.828 916.749 184.52C916.133 184.212 915.209 183.904 914.592 183.596C913.976 183.288 913.36 182.98 913.052 182.364L914.592 179.9C914.901 179.591 914.901 179.283 915.209 179.283C915.517 178.975 915.825 178.975 916.133 178.975C916.441 178.975 916.749 178.975 917.365 179.283C917.673 179.591 917.981 179.591 918.289 179.9C918.597 180.208 919.213 180.208 919.521 180.516C920.137 180.824 920.753 180.824 921.37 180.824C921.986 180.824 922.294 180.824 922.602 180.516C922.91 180.516 923.218 180.208 923.526 179.9C923.834 179.591 923.834 179.591 924.142 179.283C924.45 178.975 924.45 178.667 924.45 178.667C924.45 178.051 924.142 177.743 923.834 177.435C923.526 177.127 923.218 176.819 922.602 176.511C921.986 176.203 921.37 176.203 920.753 175.895C920.137 175.587 919.521 175.587 918.905 175.279C918.289 174.971 917.673 174.663 917.057 174.355C916.441 174.047 915.825 173.739 915.209 173.122C914.593 172.506 914.284 171.89 913.976 171.274C913.668 170.658 913.36 169.734 913.36 168.502C913.36 167.578 913.668 166.653 913.976 165.729C914.284 164.805 914.901 164.189 915.825 163.265C916.441 162.649 917.673 162.033 918.597 161.725C919.829 161.417 921.061 161.109 922.602 161.109C923.526 161.109 924.142 161.109 925.066 161.417C925.99 161.417 926.606 161.725 927.222 162.033C927.839 162.341 928.455 162.649 929.071 162.957C929.687 163.265 929.995 163.573 930.611 164.189L929.379 166.653Z" fill="white"/>
<path d="M949.402 166.653C949.094 166.962 949.094 167.27 948.786 167.27C948.478 167.27 948.17 167.578 947.862 167.578C947.553 167.578 947.245 167.578 946.937 167.27C946.629 167.27 946.321 166.962 946.013 166.962C945.705 166.653 945.089 166.653 944.781 166.345C944.165 166.345 943.857 166.037 943.241 166.037C942.317 166.037 941.701 166.345 941.084 166.653C940.468 166.962 940.468 167.578 940.468 168.194C940.468 168.502 940.468 169.118 941.084 169.426C941.392 169.734 941.701 170.042 942.317 170.042C942.933 170.35 943.549 170.35 944.165 170.658C944.781 170.966 945.397 170.966 946.013 171.274C946.629 171.582 947.245 171.89 947.862 172.198C948.478 172.506 949.094 172.814 949.71 173.431C950.326 174.047 950.634 174.355 950.942 175.279C951.25 175.895 951.25 176.819 951.25 177.743C951.25 178.975 950.942 179.9 950.634 180.824C950.326 181.748 949.71 182.672 948.786 183.288C947.861 183.904 946.937 184.52 945.705 184.828C944.473 185.136 942.933 185.444 941.393 185.444C940.468 185.444 939.852 185.444 938.928 185.136C938.004 185.136 937.388 184.828 936.772 184.52C936.156 184.212 935.232 183.904 934.615 183.596C933.999 183.288 933.383 182.98 933.075 182.364L934.615 179.9C934.923 179.591 934.924 179.283 935.232 179.283C935.54 178.975 935.848 178.975 936.156 178.975C936.464 178.975 936.772 178.975 937.388 179.283C937.696 179.591 938.004 179.591 938.312 179.9C938.62 180.208 939.236 180.208 939.544 180.516C940.16 180.824 940.776 180.824 941.393 180.824C942.009 180.824 942.317 180.824 942.625 180.516C942.933 180.516 943.241 180.208 943.549 179.9C943.857 179.591 943.857 179.591 944.165 179.283C944.473 178.975 944.473 178.667 944.473 178.667C944.473 178.051 944.165 177.743 943.857 177.435C943.549 177.127 943.241 176.819 942.625 176.511C942.009 176.203 941.392 176.203 940.776 175.895C940.16 175.587 939.544 175.587 938.928 175.279C938.312 174.971 937.696 174.663 937.08 174.355C936.464 174.047 935.848 173.739 935.232 173.122C934.615 172.506 934.307 171.89 933.999 171.274C933.691 170.658 933.383 169.734 933.383 168.502C933.383 167.578 933.691 166.653 933.999 165.729C934.307 164.805 934.924 164.189 935.848 163.265C936.464 162.649 937.696 162.033 938.62 161.725C939.852 161.417 941.084 161.109 942.625 161.109C943.549 161.109 944.165 161.109 945.089 161.417C946.013 161.417 946.629 161.725 947.245 162.033C947.861 162.341 948.478 162.649 949.094 162.957C949.71 163.265 950.018 163.573 950.634 164.189L949.402 166.653Z" fill="white"/>
<path d="M960.491 174.663C960.799 176.511 961.415 178.051 962.34 178.975C963.264 179.9 964.496 180.208 966.036 180.208C966.96 180.208 967.577 180.208 968.193 179.9C968.809 179.592 969.425 179.592 969.733 179.283C970.041 178.975 970.657 178.975 970.965 178.667C971.273 178.359 971.889 178.359 972.197 178.359C972.813 178.359 973.121 178.667 973.429 178.975L975.586 181.44C974.97 182.364 974.045 182.98 973.121 183.596C972.197 184.212 971.581 184.52 970.657 184.828C969.733 185.136 968.809 185.444 967.885 185.444C966.96 185.444 966.036 185.752 965.42 185.752C963.88 185.752 962.34 185.444 960.799 184.828C959.259 184.212 958.027 183.596 957.103 182.364C956.179 181.44 955.255 179.9 954.638 178.359C954.022 176.819 953.714 174.971 953.714 172.814C953.714 171.274 954.022 169.734 954.638 168.502C955.255 166.962 955.871 165.729 956.795 164.805C957.719 163.881 958.951 162.957 960.491 162.341C962.032 161.725 963.572 161.417 965.42 161.417C966.96 161.417 968.501 161.725 969.733 162.033C970.965 162.649 972.197 163.265 973.121 164.189C974.045 165.113 974.662 166.346 975.278 167.578C975.894 168.81 976.202 170.35 976.202 172.198C976.202 172.814 976.202 173.123 976.202 173.431C976.202 173.739 976.202 174.047 975.894 174.355C975.586 174.663 975.586 174.663 975.278 174.663C974.97 174.663 974.97 174.663 974.354 174.663H960.491ZM969.425 170.35C969.425 169.734 969.425 169.118 969.117 168.81C969.117 168.194 968.809 167.886 968.501 167.27C968.193 166.962 967.885 166.654 967.268 166.346C966.652 166.037 966.036 166.037 965.42 166.037C964.188 166.037 962.956 166.346 962.34 167.27C961.724 167.886 961.107 169.118 960.799 170.658H969.425V170.35Z" fill="white"/>
<path d="M576.665 209.472C576.665 210.088 576.665 210.396 576.356 211.012C576.048 211.628 575.74 211.937 575.432 212.245C575.124 212.553 574.508 212.861 574.2 213.169C573.584 213.477 573.276 213.477 572.66 213.477C572.044 213.477 571.428 213.477 571.12 213.169C570.504 212.861 570.195 212.553 569.887 212.245C569.579 211.937 569.271 211.32 568.963 211.012C568.655 210.396 568.655 210.088 568.655 209.472C568.655 208.856 568.655 208.24 568.963 207.932C569.271 207.316 569.579 207.008 569.887 206.7C570.195 206.392 570.812 206.084 571.12 205.776C571.428 205.468 572.044 205.468 572.66 205.468C573.276 205.468 573.892 205.468 574.2 205.776C574.816 206.084 575.124 206.392 575.432 206.7C575.74 207.008 576.048 207.624 576.356 207.932C576.665 208.24 576.665 208.856 576.665 209.472ZM576.048 215.941V239.353H568.963V215.941H576.048Z" fill="white"/>
<path d="M587.446 218.405C587.754 218.097 588.37 217.481 588.986 217.173C589.602 216.865 589.91 216.557 590.527 216.249C591.143 215.941 591.759 215.941 592.375 215.633C592.991 215.633 593.607 215.325 594.531 215.325C595.763 215.325 596.996 215.633 597.92 215.941C598.844 216.249 599.768 216.865 600.384 217.789C601 218.713 601.616 219.638 601.924 220.562C602.232 221.794 602.54 222.718 602.54 224.258V239.045H595.455V224.258C595.455 223.026 595.147 222.102 594.531 221.486C593.915 220.87 593.299 220.562 592.067 220.562C591.451 220.562 590.526 220.87 589.91 221.178C589.294 221.486 588.678 221.794 588.062 222.41V239.045H580.977V215.633H585.29C586.214 215.633 586.83 215.941 587.138 216.865L587.446 218.405Z" fill="white"/>
<path d="M614.554 239.661C613.322 239.661 612.398 239.353 611.474 239.045C610.55 238.737 609.934 238.121 609.317 237.812C608.701 237.196 608.393 236.58 608.085 235.656C607.777 234.732 607.777 233.808 607.777 232.884V220.87H605.929C605.621 220.87 605.313 220.87 605.005 220.562C604.697 220.254 604.697 219.946 604.697 219.638V216.865L608.393 216.249L609.626 210.396C609.934 209.78 610.242 209.164 611.166 209.164H614.862V215.941H620.715V220.87H614.862V232.576C614.862 233.192 614.862 233.5 615.17 233.808C615.478 234.116 615.786 234.424 616.403 234.424C616.711 234.424 617.019 234.424 617.019 234.424C617.327 234.424 617.327 234.424 617.327 234.116C617.327 234.116 617.635 234.116 617.635 233.808H617.943C618.251 233.808 618.251 233.808 618.559 233.808L618.867 234.116L621.023 237.504C620.099 238.121 619.175 238.737 617.943 239.045C617.019 239.353 615.786 239.661 614.554 239.661Z" fill="white"/>
<path d="M629.032 228.879C629.34 230.727 629.957 232.268 630.881 233.192C631.805 234.116 633.037 234.424 634.577 234.424C635.501 234.424 636.118 234.424 636.734 234.116C637.35 233.808 637.966 233.808 638.274 233.5C638.582 233.192 639.198 233.192 639.506 232.884C639.814 232.576 640.43 232.576 640.738 232.576C641.354 232.576 641.662 232.884 641.97 233.192L644.127 235.656C643.511 236.58 642.586 237.196 641.662 237.812C640.738 238.429 640.122 238.737 639.198 239.045C638.274 239.353 637.35 239.661 636.426 239.661C635.501 239.661 634.577 239.969 633.961 239.969C632.421 239.969 630.881 239.661 629.34 239.045C627.8 238.429 626.568 237.812 625.644 236.58C624.72 235.656 623.796 234.116 623.18 232.576C622.563 231.035 622.255 229.187 622.255 227.031C622.255 225.491 622.563 223.95 623.18 222.718C623.796 221.178 624.412 219.946 625.336 219.022C626.26 218.097 627.492 217.173 629.032 216.557C630.573 215.941 632.113 215.633 633.961 215.633C635.501 215.633 637.042 215.941 638.274 216.249C639.506 216.865 640.738 217.481 641.662 218.405C642.586 219.33 643.203 220.562 643.819 221.794C644.435 223.026 644.743 224.566 644.743 226.415C644.743 227.031 644.743 227.339 644.743 227.647C644.743 227.955 644.743 228.263 644.435 228.571C644.127 228.879 644.127 228.879 643.819 228.879C643.511 228.879 643.511 228.879 642.895 228.879H629.032ZM637.966 224.566C637.966 223.95 637.966 223.334 637.658 223.026C637.658 222.41 637.35 222.102 637.042 221.486C636.734 221.178 636.426 220.87 635.809 220.562C635.193 220.254 634.577 220.254 633.961 220.254C632.729 220.254 631.497 220.562 630.881 221.486C630.265 222.102 629.649 223.334 629.34 224.874L637.966 224.566Z" fill="white"/>
<path d="M654.293 219.33C654.909 218.097 655.833 217.173 656.757 216.249C657.681 215.325 658.913 215.017 659.838 215.017C660.762 215.017 661.686 215.325 662.302 215.633L661.994 220.87C661.994 221.178 661.686 221.486 661.686 221.486C661.378 221.486 661.378 221.794 661.07 221.794C661.07 221.794 660.762 221.794 660.454 221.794C660.146 221.794 660.146 221.794 659.838 221.794C659.529 221.794 659.529 221.794 659.221 221.794C658.913 221.794 658.913 221.794 658.605 221.794C657.681 221.794 656.757 222.102 656.141 222.718C655.525 223.334 654.909 223.95 654.601 224.874V239.045H647.516V215.633H651.52C651.828 215.633 652.136 215.633 652.444 215.633C652.752 215.633 652.752 215.941 653.06 215.941C653.368 215.941 653.369 216.249 653.369 216.557C653.369 216.865 653.369 217.173 653.677 217.173L654.293 219.33Z" fill="white"/>
<path d="M671.235 218.405C671.543 218.097 672.159 217.481 672.775 217.173C673.391 216.865 673.7 216.557 674.316 216.249C674.932 215.941 675.548 215.941 676.164 215.633C676.78 215.633 677.396 215.325 678.32 215.325C679.552 215.325 680.785 215.633 681.709 215.941C682.633 216.249 683.557 216.865 684.173 217.789C684.789 218.713 685.405 219.638 685.713 220.562C686.021 221.794 686.329 222.718 686.329 224.258V239.045H679.244V224.258C679.244 223.026 678.936 222.102 678.32 221.486C677.704 220.87 677.088 220.562 675.856 220.562C675.24 220.562 674.316 220.87 673.7 221.178C673.083 221.486 672.467 221.794 671.851 222.41V239.045H664.766V215.633H669.079C670.003 215.633 670.619 215.941 670.927 216.865L671.235 218.405Z" fill="white"/>
<path d="M690.026 219.022C691.566 217.789 693.106 216.865 694.646 216.249C696.187 215.633 698.343 215.325 700.191 215.325C701.731 215.325 702.964 215.633 703.888 215.941C705.12 216.249 706.044 217.173 706.66 217.789C707.276 218.405 708.2 219.638 708.508 220.562C708.817 221.794 709.125 223.026 709.125 224.258V238.737H706.044C705.428 238.737 704.812 238.737 704.504 238.428C704.196 238.12 703.888 237.812 703.58 237.196L702.964 235.964C702.348 236.58 701.731 236.888 701.423 237.196C701.115 237.504 700.191 237.812 699.883 238.12C699.267 238.428 698.651 238.428 698.035 238.737C697.419 238.737 696.803 239.045 695.879 239.045C694.954 239.045 693.722 239.045 693.106 238.737C692.182 238.428 691.566 238.12 690.95 237.504C690.334 236.888 690.026 236.272 689.41 235.348C689.101 234.424 688.793 233.5 688.793 232.576C688.793 231.651 689.101 231.035 689.41 230.111C689.718 229.187 690.642 228.571 691.566 227.647C692.49 227.031 694.03 226.415 695.879 225.799C697.727 225.182 699.883 225.182 702.656 224.874V223.95C702.656 222.718 702.348 221.486 701.731 220.87C701.115 220.254 700.499 219.946 699.267 219.946C698.343 219.946 697.727 219.946 697.111 220.254C696.495 220.562 696.187 220.562 695.57 220.87C695.262 221.178 694.646 221.178 694.338 221.486C694.03 221.794 693.414 221.794 692.798 221.794C692.182 221.794 691.874 221.794 691.566 221.486C691.258 221.178 690.95 220.87 690.642 220.562L690.026 219.022ZM702.656 229.803C701.115 229.803 700.191 230.111 699.267 230.111C698.343 230.111 697.727 230.419 697.111 230.727C696.495 231.035 696.187 231.343 695.879 231.651C695.571 231.96 695.57 232.268 695.57 232.884C695.57 233.808 695.879 234.116 696.187 234.424C696.495 234.732 697.111 235.04 698.035 235.04C698.959 235.04 699.575 234.732 700.499 234.424C701.115 234.116 701.731 233.5 702.656 232.884V229.803Z" fill="white"/>
<path d="M738.698 239.045H731.921V220.562H722.063V232.268C722.063 232.884 722.063 233.192 722.371 233.5C722.679 233.808 722.987 234.116 723.603 234.116C723.911 234.116 724.219 234.116 724.219 234.116C724.527 234.116 724.527 234.116 724.527 233.808C724.527 233.808 724.835 233.808 724.835 233.5H725.143C725.452 233.5 725.452 233.5 725.76 233.5L726.068 233.808L728.224 237.196C727.3 237.812 726.376 238.429 725.143 238.737C723.911 239.045 722.987 239.353 721.755 239.353C720.523 239.353 719.599 239.045 718.674 238.737C717.75 238.429 717.134 237.812 716.518 237.504C715.902 236.888 715.594 236.272 715.286 235.348C714.978 234.424 714.978 233.5 714.978 232.576V220.562H713.13C712.822 220.562 712.514 220.562 712.206 220.254C711.897 219.946 711.897 219.638 711.897 219.33V216.557L715.594 215.941L716.826 210.396C717.134 209.78 717.442 209.164 718.366 209.164H722.063V215.941H738.698V239.045ZM739.93 209.472C739.93 210.088 739.93 210.704 739.622 211.012C739.314 211.628 739.006 211.937 738.698 212.245C738.39 212.553 737.773 212.861 737.465 213.169C736.849 213.477 736.541 213.477 735.925 213.477C735.309 213.477 734.693 213.477 734.385 213.169C734.077 212.861 733.461 212.553 733.153 212.245C732.845 211.937 732.537 211.32 732.229 211.012C731.921 210.396 731.921 210.088 731.921 209.472C731.921 208.856 731.921 208.24 732.229 207.932C732.537 207.624 732.845 207.008 733.153 206.7C733.461 206.392 734.077 206.084 734.385 205.776C735.001 205.468 735.309 205.468 735.925 205.468C736.541 205.468 737.157 205.468 737.465 205.776C738.081 206.084 738.39 206.392 738.698 206.7C739.006 207.008 739.314 207.624 739.622 207.932C739.93 208.24 739.93 208.856 739.93 209.472Z" fill="white"/>
<path d="M754.408 215.325C756.256 215.325 757.796 215.633 759.337 216.249C760.877 216.865 762.109 217.481 763.033 218.713C763.957 219.946 764.881 220.87 765.498 222.41C766.114 223.95 766.422 225.491 766.422 227.339C766.422 229.187 766.114 231.035 765.498 232.268C764.881 233.808 763.957 235.04 763.033 235.964C762.109 236.888 760.877 237.812 759.337 238.428C757.796 239.045 756.256 239.353 754.408 239.353C752.56 239.353 751.019 239.045 749.479 238.428C747.939 237.812 746.707 237.196 745.783 235.964C744.858 234.732 743.934 233.5 743.318 232.268C742.702 230.727 742.394 229.187 742.394 227.339C742.394 225.491 742.702 223.95 743.318 222.41C743.934 220.87 744.858 219.638 745.783 218.713C746.707 217.789 748.247 216.865 749.479 216.249C750.711 215.633 752.56 215.325 754.408 215.325ZM754.408 234.424C755.948 234.424 757.18 233.808 758.104 232.576C759.029 231.343 759.337 229.803 759.337 227.339C759.337 224.874 759.029 223.334 758.104 222.102C757.488 220.87 756.256 220.562 754.408 220.562C752.868 220.562 751.635 221.178 750.711 222.102C750.095 223.334 749.479 224.874 749.479 227.339C749.479 229.803 749.787 231.343 750.711 232.576C751.635 233.808 752.868 234.424 754.408 234.424Z" fill="white"/>
<path d="M776.279 218.405C776.587 218.097 777.203 217.481 777.819 217.173C778.435 216.865 778.743 216.557 779.359 216.249C779.976 215.941 780.592 215.941 781.208 215.633C781.824 215.633 782.44 215.325 783.364 215.325C784.596 215.325 785.828 215.633 786.753 215.941C787.677 216.249 788.601 216.865 789.217 217.789C789.833 218.713 790.449 219.638 790.757 220.562C791.065 221.794 791.373 222.718 791.373 224.258V239.045H784.288V224.258C784.288 223.026 783.98 222.102 783.364 221.486C782.748 220.87 782.132 220.562 780.9 220.562C780.284 220.562 779.36 220.87 778.743 221.178C778.127 221.486 777.511 221.794 776.895 222.41V239.045H769.81V215.633H774.123C775.047 215.633 775.663 215.941 775.971 216.865L776.279 218.405Z" fill="white"/>
<path d="M795.07 219.022C796.61 217.789 798.151 216.865 799.691 216.249C801.231 215.633 803.387 215.325 805.236 215.325C806.776 215.325 808.008 215.633 808.932 215.941C810.164 216.249 811.088 217.173 811.705 217.789C812.629 218.713 813.245 219.638 813.553 220.562C813.861 221.794 814.169 223.026 814.169 224.258V238.737H811.089C810.472 238.737 809.856 238.737 809.548 238.428C809.24 238.12 808.932 237.812 808.624 237.196L808.008 235.964C807.392 236.58 806.776 236.888 806.468 237.196C805.852 237.504 805.236 237.812 804.928 238.12C804.312 238.428 803.695 238.428 803.079 238.737C802.463 238.737 801.847 239.045 800.923 239.045C799.999 239.045 798.767 239.045 798.151 238.737C797.226 238.428 796.61 238.12 795.994 237.504C795.378 236.888 794.762 236.272 794.454 235.348C794.146 234.424 793.838 233.5 793.838 232.576C793.838 231.651 794.146 231.035 794.454 230.111C794.762 229.187 795.686 228.571 796.61 227.647C797.534 226.723 799.075 226.415 800.923 225.799C802.771 225.182 804.928 225.182 807.7 224.874V223.95C807.7 222.718 807.392 221.486 806.776 220.87C806.16 220.254 805.544 219.946 804.311 219.946C803.387 219.946 802.771 219.946 802.155 220.254C801.539 220.562 801.231 220.562 800.615 220.87C800.307 221.178 799.691 221.178 799.383 221.486C799.075 221.794 798.459 221.794 797.842 221.794C797.226 221.794 796.918 221.794 796.61 221.486C796.302 221.178 795.994 220.87 795.686 220.562L795.07 219.022ZM807.7 229.803C806.16 229.803 805.236 230.111 804.311 230.111C803.387 230.419 802.771 230.419 802.155 230.727C801.539 231.035 801.231 231.343 800.923 231.651C800.615 231.96 800.615 232.268 800.615 232.884C800.615 233.808 800.923 234.116 801.231 234.424C801.539 234.732 802.155 235.04 803.079 235.04C804.003 235.04 804.62 234.732 805.544 234.424C806.16 234.116 806.776 233.5 807.7 232.884V229.803Z" fill="white"/>
<path d="M840.045 215.941V239.353H835.732C834.808 239.353 834.192 239.045 833.884 238.12L833.576 236.58C833.268 236.888 832.652 237.504 832.036 237.812C831.419 238.12 831.111 238.428 830.495 238.737C829.879 239.045 829.263 239.045 828.647 239.353C828.031 239.353 827.415 239.661 826.491 239.661C825.259 239.661 824.026 239.353 823.102 239.045C822.178 238.737 821.254 238.12 820.638 237.196C820.022 236.272 819.406 235.348 819.097 234.424C818.789 233.192 818.481 232.268 818.481 230.727V215.941H825.566V230.727C825.566 231.959 825.875 232.884 826.491 233.5C827.107 234.116 827.723 234.424 828.955 234.424C829.571 234.424 830.495 234.116 831.111 233.808C831.727 233.5 832.344 233.192 832.96 232.576V215.941H840.045Z" fill="white"/>
<path d="M866.845 239.045H860.068C859.452 239.045 859.144 239.045 858.836 238.737C858.528 238.428 858.22 238.12 858.22 237.812L853.907 230.727C853.907 231.035 853.599 231.343 853.599 231.343C853.599 231.343 853.291 231.651 853.291 231.96L849.902 237.812C849.594 238.12 849.594 238.428 849.286 238.737C848.978 239.045 848.67 239.045 848.054 239.045H841.893L849.594 227.031L842.201 215.633H848.978C849.594 215.633 849.902 215.633 850.21 215.941C850.518 215.941 850.518 216.249 850.826 216.557L855.139 223.334C855.139 223.026 855.447 222.718 855.447 222.41C855.447 222.102 855.755 221.794 855.755 221.486L858.836 216.249C859.144 215.941 859.144 215.633 859.452 215.633C859.76 215.633 860.068 215.325 860.376 215.325H866.845L859.452 226.415L866.845 239.045Z" fill="white"/>
<path d="M900.73 205.468V239.353H896.417C895.493 239.353 894.877 239.045 894.569 238.121L893.953 236.272C893.337 236.888 893.029 237.196 892.413 237.504C891.797 237.812 891.489 238.121 890.873 238.429C890.257 238.737 889.64 239.045 889.024 239.045C888.408 239.353 887.484 239.353 886.868 239.353C885.636 239.353 884.404 239.045 883.48 238.429C882.555 237.812 881.631 237.196 880.707 235.964C880.091 235.04 879.475 233.808 878.859 232.268C878.551 230.727 878.243 229.187 878.243 227.339C878.243 225.491 878.551 223.95 878.859 222.41C879.475 220.87 880.091 219.638 881.015 218.406C881.939 217.173 882.863 216.557 884.096 215.941C885.328 215.325 886.56 215.017 888.1 215.017C889.332 215.017 890.257 215.325 891.181 215.633C892.105 215.941 892.721 216.557 893.337 217.173V205.468H900.73ZM893.645 222.102C893.029 221.486 892.413 221.178 891.797 220.87C891.181 220.562 890.565 220.562 889.948 220.562C889.332 220.562 888.716 220.562 888.1 220.87C887.484 221.178 887.176 221.486 886.56 222.102C886.252 222.718 885.944 223.334 885.636 224.258C885.328 225.183 885.328 226.107 885.328 227.647C885.328 228.879 885.328 229.803 885.636 230.727C885.944 231.652 885.944 232.268 886.252 232.884C886.56 233.5 886.868 233.808 887.484 234.116C888.1 234.424 888.408 234.424 889.024 234.424C889.64 234.424 889.948 234.424 890.565 234.424C890.873 234.424 891.489 234.116 891.797 234.116C892.105 234.116 892.413 233.808 892.721 233.5C893.029 233.192 893.337 232.884 893.645 232.576V222.102Z" fill="white"/>
<path d="M926.298 215.941V239.353H921.986C921.061 239.353 920.445 239.045 920.137 238.12L919.829 236.58C919.521 236.888 918.905 237.504 918.289 237.812C917.673 238.12 917.365 238.428 916.749 238.737C916.133 239.045 915.516 239.045 914.9 239.353C914.284 239.353 913.668 239.661 912.744 239.661C911.512 239.661 910.28 239.353 909.356 239.045C908.431 238.737 907.507 238.12 906.891 237.196C906.275 236.272 905.659 235.348 905.351 234.424C905.043 233.192 904.735 232.268 904.735 230.727V215.941H911.82V230.727C911.82 231.959 912.128 232.884 912.744 233.5C913.36 234.116 913.976 234.424 915.208 234.424C915.825 234.424 916.749 234.116 917.365 233.808C917.981 233.5 918.597 233.192 919.213 232.576V215.941H926.298Z" fill="white"/>
<path d="M976.51 245.206H970.349C969.425 245.206 968.501 245.206 967.885 244.897C967.268 244.589 966.652 244.281 966.036 243.665L962.032 239.045C960.8 239.353 959.259 239.353 958.027 239.353C955.563 239.353 953.098 239.045 950.942 238.12C948.786 237.196 946.937 235.964 945.397 234.424C943.857 232.884 942.625 231.035 942.009 229.187C941.393 227.339 940.776 224.874 940.776 222.41C940.776 219.946 941.084 217.789 942.009 215.633C942.933 213.477 943.857 211.936 945.397 210.396C946.937 208.856 948.786 207.624 950.942 207.008C953.098 206.084 955.255 205.776 958.027 205.776C960.799 205.776 962.956 206.084 965.112 207.008C967.268 207.932 969.117 209.164 970.349 210.704C971.889 212.244 973.121 214.093 973.737 215.941C974.354 217.789 974.97 220.254 974.97 222.41C974.97 223.95 974.97 225.182 974.662 226.415C974.354 227.647 974.045 228.879 973.429 230.111C972.813 231.343 972.197 232.268 971.273 233.192C970.349 234.116 969.425 235.04 968.501 235.656L976.51 245.206ZM948.17 222.718C948.17 224.258 948.478 225.799 948.786 227.031C949.094 228.263 949.71 229.495 950.634 230.419C951.558 231.343 952.482 231.96 953.406 232.576C954.639 233.192 955.871 233.192 957.411 233.192C958.951 233.192 960.183 232.884 961.416 232.576C962.648 231.96 963.572 231.343 964.188 230.419C965.112 229.495 965.728 228.571 966.036 227.031C966.344 225.491 966.652 224.258 966.652 222.718C966.652 221.178 966.344 219.638 966.036 218.405C965.728 217.173 965.112 215.941 964.188 215.017C963.264 214.093 962.34 213.477 961.416 212.861C960.183 212.245 958.951 212.244 957.411 212.244C955.871 212.244 954.639 212.553 953.406 212.861C952.174 213.477 951.25 214.093 950.634 215.017C950.018 215.941 949.094 217.173 948.786 218.405C948.478 219.638 948.17 221.178 948.17 222.718Z" fill="white"/>
<path d="M998.997 215.941V239.353H994.685C993.761 239.353 993.144 239.045 992.836 238.12L992.528 236.888C992.22 237.196 991.604 237.812 990.988 238.12C990.372 238.428 990.064 238.737 989.448 239.045C988.832 239.353 988.216 239.353 987.6 239.661C986.984 239.661 986.367 239.969 985.443 239.969C984.211 239.969 982.979 239.661 982.055 239.353C981.131 239.045 980.206 238.428 979.59 237.504C978.974 236.58 978.358 235.656 978.05 234.732C977.742 233.5 977.434 232.576 977.434 231.035V216.249H984.519V231.035C984.519 232.268 984.827 233.192 985.443 233.808C986.059 234.424 986.675 234.732 987.908 234.732C988.524 234.732 989.448 234.424 990.064 234.116C990.68 233.808 991.296 233.5 991.912 232.884V216.249H998.997V215.941Z" fill="white"/>
<path d="M1009.47 228.879C1009.78 230.727 1010.4 232.268 1011.32 233.192C1012.24 234.116 1013.48 234.424 1015.02 234.424C1015.94 234.424 1016.56 234.424 1017.17 234.116C1017.79 233.808 1018.4 233.808 1018.71 233.5C1019.02 233.192 1019.64 233.192 1019.94 232.884C1020.25 232.576 1020.87 232.576 1021.18 232.576C1021.79 232.576 1022.1 232.884 1022.41 233.192L1024.57 235.656C1023.95 236.58 1023.03 237.196 1022.1 237.812C1021.18 238.428 1020.56 238.737 1019.64 239.045C1018.71 239.353 1017.79 239.661 1016.86 239.661C1015.94 239.661 1015.02 239.969 1014.4 239.969C1012.86 239.969 1011.32 239.661 1009.78 239.045C1008.24 238.428 1007.01 237.812 1006.08 236.58C1005.16 235.656 1004.23 234.116 1003.62 232.576C1003 231.035 1002.69 229.187 1002.69 227.031C1002.69 225.49 1003 223.95 1003.62 222.718C1004.23 221.178 1004.85 219.946 1005.77 219.021C1006.7 218.097 1007.93 217.173 1009.47 216.557C1011.01 215.941 1012.55 215.633 1014.4 215.633C1015.94 215.633 1017.48 215.941 1018.71 216.249C1019.94 216.865 1021.18 217.481 1022.1 218.405C1023.03 219.33 1023.64 220.562 1024.26 221.794C1024.87 223.026 1025.18 224.566 1025.18 226.415C1025.18 227.031 1025.18 227.339 1025.18 227.647C1025.18 227.955 1025.18 228.263 1024.87 228.571C1024.57 228.879 1024.57 228.879 1024.26 228.879C1023.95 228.879 1023.95 228.879 1023.33 228.879H1009.47ZM1018.4 224.566C1018.4 223.95 1018.4 223.334 1018.1 223.026C1018.1 222.41 1017.79 222.102 1017.48 221.486C1017.17 221.178 1016.86 220.87 1016.25 220.562C1015.63 220.254 1015.02 220.254 1014.4 220.254C1013.17 220.254 1011.94 220.562 1011.32 221.486C1010.7 222.102 1010.09 223.334 1009.78 224.874L1018.4 224.566ZM1023.02 206.083L1017.17 211.936C1016.86 212.244 1016.56 212.552 1016.25 212.552C1015.94 212.552 1015.63 212.861 1015.02 212.861H1010.7L1013.78 207.316C1014.09 207.008 1014.4 206.7 1014.71 206.392C1015.02 206.083 1015.63 206.083 1016.25 206.083H1023.02Z" fill="white"/>
<path d="M1035.04 218.405C1035.96 217.481 1036.89 216.865 1038.12 216.249C1039.35 215.633 1040.28 215.325 1041.82 215.325C1043.05 215.325 1044.28 215.633 1045.51 216.249C1046.74 216.865 1047.67 217.481 1048.28 218.713C1048.9 219.638 1049.52 220.87 1050.13 222.41C1050.44 223.95 1050.75 225.491 1050.75 227.031C1050.75 228.879 1050.44 230.727 1050.13 232.268C1049.82 233.808 1048.9 235.04 1047.98 236.272C1047.05 237.504 1046.13 238.12 1044.9 238.737C1043.66 239.353 1042.43 239.661 1040.89 239.661C1040.28 239.661 1039.66 239.661 1039.04 239.353C1038.43 239.353 1038.12 239.045 1037.5 238.737C1036.89 238.428 1036.58 238.12 1036.27 237.812C1035.96 237.504 1035.65 237.196 1035.04 236.58L1034.73 237.812C1034.73 238.429 1034.42 238.737 1034.11 238.737C1033.81 239.045 1033.5 239.045 1032.88 239.045H1028.26V205.159H1035.35V218.405H1035.04ZM1035.04 232.884C1035.65 233.5 1036.27 233.808 1036.89 234.116C1037.5 234.424 1038.12 234.424 1038.74 234.424C1039.35 234.424 1039.97 234.424 1040.58 234.116C1041.2 233.808 1041.51 233.5 1042.12 232.884C1042.43 232.268 1042.74 231.651 1043.05 230.727C1043.36 229.803 1043.36 228.571 1043.36 227.339C1043.36 226.107 1043.36 225.182 1043.05 224.258C1042.74 223.334 1042.74 222.718 1042.43 222.102C1042.12 221.486 1041.82 221.178 1041.2 220.87C1040.58 220.562 1039.97 220.562 1039.35 220.562C1038.43 220.562 1037.81 220.87 1037.2 221.178C1036.58 221.486 1035.96 222.102 1035.35 222.718L1035.04 232.884Z" fill="white"/>
<path d="M1059.68 228.879C1059.99 230.727 1060.61 232.268 1061.53 233.192C1062.45 234.116 1063.69 234.424 1065.23 234.424C1066.15 234.424 1066.77 234.424 1067.38 234.116C1068 233.808 1068.62 233.808 1068.92 233.5C1069.23 233.192 1069.85 233.192 1070.16 232.884C1070.46 232.576 1071.08 232.576 1071.39 232.576C1072 232.576 1072.31 232.884 1072.62 233.192L1074.78 235.656C1074.16 236.58 1073.24 237.196 1072.31 237.812C1071.39 238.429 1070.77 238.737 1069.85 239.045C1068.92 239.353 1068 239.661 1067.08 239.661C1066.15 239.661 1065.23 239.969 1064.61 239.969C1063.07 239.969 1061.53 239.661 1059.99 239.045C1058.45 238.429 1057.22 237.812 1056.29 236.58C1055.37 235.656 1054.45 234.116 1053.83 232.576C1053.21 231.035 1052.91 229.187 1052.91 227.031C1052.91 225.491 1053.21 223.95 1053.83 222.718C1054.45 221.178 1055.06 219.946 1055.99 219.022C1056.91 218.097 1058.14 217.173 1059.68 216.557C1061.22 215.941 1062.76 215.633 1064.61 215.633C1066.15 215.633 1067.69 215.941 1068.92 216.249C1070.16 216.865 1071.39 217.481 1072.31 218.405C1073.24 219.33 1073.85 220.562 1074.47 221.794C1075.08 223.026 1075.39 224.566 1075.39 226.415C1075.39 227.031 1075.39 227.339 1075.39 227.647C1075.39 227.955 1075.39 228.263 1075.08 228.571C1074.78 228.879 1074.78 228.879 1074.47 228.879C1074.16 228.879 1074.16 228.879 1073.54 228.879H1059.68ZM1068.62 224.566C1068.62 223.95 1068.62 223.334 1068.31 223.026C1068.31 222.41 1068 222.102 1067.69 221.486C1067.38 221.178 1067.08 220.87 1066.46 220.562C1065.84 220.254 1065.23 220.254 1064.61 220.254C1063.38 220.254 1062.15 220.562 1061.53 221.486C1060.91 222.102 1060.3 223.334 1059.99 224.874L1068.62 224.566Z" fill="white"/>
<path d="M1095.42 221.486C1095.11 221.794 1095.11 221.794 1094.8 222.102C1094.49 222.41 1094.18 222.41 1093.88 222.41C1093.57 222.41 1093.26 222.41 1092.95 222.102C1092.64 221.794 1092.34 221.794 1092.03 221.486C1091.72 221.178 1091.41 221.178 1090.8 220.87C1090.18 220.562 1089.87 220.562 1088.95 220.562C1088.02 220.562 1087.41 220.87 1086.79 221.178C1086.17 221.486 1085.56 221.794 1085.25 222.41C1084.94 223.026 1084.63 223.642 1084.33 224.566C1084.02 225.49 1084.02 226.415 1084.02 227.339C1084.02 229.495 1084.33 231.343 1085.25 232.576C1086.17 233.808 1087.41 234.424 1088.95 234.424C1089.87 234.424 1090.49 234.424 1090.8 234.116C1091.41 233.808 1091.72 233.808 1092.03 233.5C1092.34 233.192 1092.64 232.884 1092.95 232.884C1093.26 232.576 1093.57 232.576 1093.88 232.576C1094.49 232.576 1094.8 232.884 1095.11 233.192L1097.26 235.656C1096.65 236.58 1095.72 237.196 1095.11 237.812C1094.18 238.428 1093.57 238.737 1092.64 239.045C1091.72 239.353 1091.1 239.661 1090.18 239.661C1089.25 239.661 1088.64 239.969 1087.71 239.969C1086.17 239.969 1084.94 239.661 1083.71 239.045C1082.48 238.428 1081.25 237.812 1080.32 236.58C1079.4 235.656 1078.47 234.424 1077.86 232.884C1077.24 231.343 1076.93 229.803 1076.93 227.647C1076.93 226.107 1077.24 224.258 1077.55 223.026C1078.17 221.486 1078.78 220.254 1079.71 219.33C1080.63 218.405 1081.86 217.481 1083.4 216.865C1084.94 216.249 1086.48 215.941 1088.33 215.941C1090.18 215.941 1091.72 216.249 1093.26 216.865C1094.49 217.481 1096.03 218.405 1096.96 219.33L1095.42 221.486Z" fill="white"/>
</g>
<defs>
<clipPath id="clip0_757_305">
<rect width="1097.26" height="296.957" fill="white"/>
</clipPath>
</defs>
</svg>
