<svg width="1162" height="135" viewBox="0 0 1162 135" fill="none" xmlns="http://www.w3.org/2000/svg">
<g clip-path="url(#clip0_716_285)">
<path d="M5.98486 128.34H1155.06V5.98493H5.98486V128.34Z" stroke="white" stroke-width="11.9695" stroke-miterlimit="10"/>
<path d="M76.2574 101.589C76.2574 101.984 76.1743 102.317 76.0081 102.587C75.8834 102.816 75.5509 103.003 75.0106 103.169C74.5119 103.335 73.7638 103.439 72.7663 103.501C71.7689 103.605 70.3766 103.668 68.6102 103.668C67.1556 103.668 65.9919 103.605 65.1191 103.501C64.2879 103.439 63.5814 103.335 63.0411 103.169C62.5424 102.961 62.1683 102.712 61.9605 102.421C61.7943 102.151 61.628 101.797 61.4618 101.34L55.477 86.2951C54.7497 84.5911 54.0224 83.0949 53.3159 81.8066C52.6509 80.4766 51.8613 79.3753 50.9885 78.4817C50.1573 77.6089 49.1806 76.9439 48.0792 76.4868C46.9571 76.0504 45.6687 75.8218 44.1725 75.8218H39.9333V101.423C39.9333 101.818 39.8086 102.151 39.6008 102.421C39.3722 102.712 38.9774 102.919 38.4371 103.086C37.9384 103.252 37.2319 103.377 36.3591 103.501C35.5279 103.605 34.4057 103.668 33.0342 103.668C31.7458 103.668 30.6653 103.605 29.7925 103.501C28.8989 103.377 28.1716 103.252 27.6313 103.086C27.1326 102.919 26.7586 102.712 26.5507 102.421C26.3222 102.151 26.2183 101.818 26.2183 101.423V40.2458C26.2183 38.7496 26.5923 37.669 27.382 37.004C28.2132 36.2975 29.1691 35.9235 30.2912 35.9235H47.7467C49.5131 35.9235 50.9469 35.9858 52.0691 36.0897C53.2328 36.1521 54.2718 36.2351 55.2277 36.339C57.9291 36.7339 60.3812 37.3988 62.5424 38.334C64.7035 39.2275 66.5322 40.4536 68.0284 41.9913C69.5662 43.4875 70.7299 45.2954 71.5195 47.3942C72.3507 49.4515 72.7663 51.7997 72.7663 54.4595C72.7663 56.683 72.4546 58.7403 71.852 60.6105C71.2909 62.5016 70.4597 64.164 69.3583 65.5978C68.2362 67.0525 66.8647 68.3201 65.2023 69.4214C63.5814 70.4812 61.7527 71.3332 59.7162 71.9982C60.7137 72.4969 61.6488 73.1203 62.5424 73.8269C63.4152 74.4918 64.2464 75.323 65.036 76.3205C65.8049 77.2764 66.5322 78.3778 67.1972 79.6454C67.9037 80.9338 68.6102 82.3676 69.2752 83.9677L74.9275 97.2671C75.4262 98.5971 75.7587 99.5738 75.9249 100.176C76.1327 100.737 76.2574 101.215 76.2574 101.589ZM58.5525 55.8726C58.5525 53.6699 58.0538 51.7789 57.0564 50.2204C56.0589 48.6826 54.4172 47.602 52.1522 46.9786C51.4249 46.8124 50.6144 46.6877 49.7417 46.563C48.8481 46.4591 47.6221 46.3968 46.0843 46.3968H39.9333V65.5147H46.9155C48.8481 65.5147 50.5313 65.3069 51.9859 64.8497C53.4821 64.351 54.6874 63.686 55.6433 62.8548C56.6407 62.0236 57.3473 61.0261 57.8044 59.8624C58.3032 58.6572 58.5525 57.3273 58.5525 55.8726Z" fill="white"/>
<path d="M100.037 101.423C100.037 101.818 99.9123 102.151 99.7045 102.421C99.4759 102.712 99.081 102.919 98.5408 103.086C98.042 103.252 97.3355 103.377 96.4627 103.501C95.5692 103.605 94.4678 103.668 93.1379 103.668C91.8079 103.668 90.6858 103.605 89.813 103.501C88.9194 103.377 88.1921 103.252 87.6518 103.086C87.1531 102.919 86.7791 102.712 86.5713 102.421C86.3427 102.151 86.2388 101.818 86.2388 101.423V37.8353C86.2388 37.5028 86.3427 37.2118 86.5713 36.9209C86.7791 36.6508 87.1739 36.4222 87.735 36.2559C88.2752 36.0482 88.9818 35.9027 89.813 35.8403C90.6858 35.7364 91.8079 35.6741 93.1379 35.6741C94.4678 35.6741 95.5692 35.7364 96.4627 35.8403C97.3355 35.9027 98.042 36.0481 98.5408 36.2559C99.081 36.4222 99.4759 36.6508 99.7045 36.9209C99.9123 37.2119 100.037 37.5028 100.037 37.8353V101.423Z" fill="white"/>
<path d="M193.253 101.423C193.253 101.818 193.128 102.151 192.92 102.421C192.754 102.712 192.422 102.919 191.923 103.086C191.424 103.252 190.759 103.377 189.928 103.501C189.097 103.605 188.037 103.668 186.77 103.668C185.481 103.668 184.442 103.605 183.611 103.501C182.78 103.377 182.115 103.252 181.616 103.086C181.159 102.919 180.826 102.712 180.619 102.421C180.39 102.151 180.286 101.818 180.286 101.423V46.6462H180.203L160.669 101.423C160.503 101.88 160.254 102.254 159.921 102.587C159.63 102.878 159.215 103.086 158.674 103.252C158.176 103.418 157.511 103.522 156.68 103.584C155.848 103.626 154.809 103.668 153.604 103.668C152.44 103.668 151.443 103.605 150.612 103.501C149.78 103.439 149.074 103.335 148.534 103.169C148.035 102.961 147.619 102.712 147.287 102.421C146.954 102.151 146.726 101.818 146.622 101.423L127.836 46.6462H127.67V101.423C127.67 101.818 127.545 102.151 127.338 102.421C127.171 102.712 126.839 102.919 126.34 103.086C125.841 103.252 125.176 103.377 124.345 103.501C123.514 103.605 122.454 103.668 121.187 103.668C119.898 103.668 118.859 103.605 118.028 103.501C117.197 103.377 116.532 103.252 116.033 103.086C115.534 102.919 115.16 102.712 114.952 102.421C114.786 102.151 114.703 101.818 114.703 101.423V41.4095C114.703 39.6432 115.16 38.2924 116.116 37.3366C117.051 36.4014 118.298 35.9235 119.857 35.9235H128.834C130.434 35.9235 131.785 36.0689 132.907 36.3391C134.07 36.6301 135.068 37.0664 135.899 37.6691C136.73 38.2925 137.416 39.0821 137.977 40.0796C138.517 41.0355 139.016 42.2407 139.473 43.7369L154.02 83.8846H154.269L169.314 43.82C169.813 42.3862 170.311 41.1601 170.81 40.1627C171.35 39.1237 171.995 38.2924 172.722 37.669C173.428 37.0664 174.26 36.63 175.216 36.3391C176.213 36.069 177.335 35.9235 178.624 35.9235H187.85C188.785 35.9235 189.596 36.0689 190.261 36.3391C190.926 36.5677 191.466 36.9209 191.923 37.4197C192.359 37.8769 192.692 38.4171 192.92 39.0821C193.128 39.7471 193.253 40.5367 193.253 41.4095V101.423Z" fill="white"/>
<path d="M288.316 68.6733C288.316 74.8243 287.506 80.1233 285.906 84.5496C284.285 88.9342 281.958 92.5085 278.924 95.2722C275.931 98.0568 272.274 100.093 267.952 101.423C263.629 102.712 258.476 103.335 252.491 103.335H236.365C235.243 103.335 234.287 103.003 233.456 102.338C232.667 101.673 232.292 100.571 232.292 99.0127V40.2458C232.292 38.7496 232.667 37.669 233.456 37.004C234.287 36.2975 235.243 35.9235 236.365 35.9235H253.655C259.681 35.9235 264.793 36.6508 268.949 38.0846C273.147 39.4769 276.679 41.5549 279.506 44.3187C282.373 47.1033 284.576 50.5113 286.072 54.5427C287.568 58.5949 288.316 63.312 288.316 68.6733ZM274.103 69.089C274.103 65.9303 273.708 63.0003 272.939 60.2781C272.212 57.5143 271.027 55.1245 269.365 53.1296C267.744 51.0931 265.645 49.5138 263.047 48.3917C260.491 47.228 257.104 46.6461 252.907 46.6461H245.924V92.5292H253.073C256.834 92.5292 259.993 92.0721 262.549 91.1162C265.146 90.1187 267.307 88.6641 269.032 86.7107C270.736 84.7158 272.025 82.2845 272.856 79.396C273.687 76.466 274.103 73.0372 274.103 69.089Z" fill="white"/>
<path d="M349.495 101.589C349.495 101.984 349.412 102.317 349.245 102.587C349.121 102.816 348.788 103.003 348.248 103.169C347.749 103.335 347.001 103.439 346.004 103.501C345.006 103.605 343.614 103.668 341.848 103.668C340.393 103.668 339.229 103.605 338.356 103.501C337.525 103.439 336.819 103.335 336.278 103.169C335.78 102.961 335.406 102.712 335.198 102.421C335.032 102.151 334.865 101.797 334.699 101.34L328.714 86.2951C327.987 84.5911 327.26 83.0949 326.553 81.8066C325.888 80.4766 325.099 79.3753 324.226 78.4817C323.395 77.6089 322.418 76.9439 321.317 76.4868C320.194 76.0504 318.906 75.8218 317.41 75.8218H313.171V101.423C313.171 101.818 313.046 102.151 312.838 102.421C312.61 102.712 312.215 102.919 311.674 103.086C311.176 103.252 310.469 103.377 309.596 103.501C308.765 103.605 307.643 103.668 306.272 103.668C304.983 103.668 303.903 103.605 303.03 103.501C302.136 103.377 301.409 103.252 300.869 103.086C300.37 102.919 299.996 102.712 299.788 102.421C299.559 102.151 299.456 101.818 299.456 101.423V40.2458C299.456 38.7496 299.83 37.669 300.619 37.004C301.45 36.2975 302.406 35.9235 303.529 35.9235H320.984C322.75 35.9235 324.184 35.9858 325.306 36.0897C326.47 36.1521 327.509 36.2351 328.465 36.339C331.166 36.7339 333.619 37.3988 335.78 38.334C337.941 39.2275 339.77 40.4536 341.266 41.9913C342.803 43.4875 343.967 45.2954 344.757 47.3942C345.588 49.4515 346.004 51.7997 346.004 54.4595C346.004 56.683 345.692 58.7403 345.089 60.6105C344.528 62.5016 343.697 64.164 342.596 65.5978C341.474 67.0525 340.102 68.3201 338.44 69.4214C336.819 70.4812 334.99 71.3332 332.954 71.9982C333.951 72.4969 334.886 73.1203 335.78 73.8269C336.652 74.4918 337.484 75.323 338.273 76.3205C339.042 77.2764 339.77 78.3778 340.434 79.6454C341.141 80.9338 341.848 82.3676 342.513 83.9677L348.165 97.2671C348.664 98.5971 348.996 99.5738 349.162 100.176C349.37 100.737 349.495 101.215 349.495 101.589ZM331.79 55.8726C331.79 53.6699 331.291 51.7789 330.294 50.2204C329.296 48.6826 327.655 47.602 325.389 46.9786C324.662 46.8124 323.852 46.6877 322.979 46.563C322.085 46.4591 320.859 46.3968 319.322 46.3968H313.171V65.5147H320.153C322.085 65.5147 323.769 65.3069 325.223 64.8497C326.719 64.351 327.925 63.686 328.881 62.8548C329.878 62.0236 330.585 61.0261 331.042 59.8624C331.54 58.6572 331.79 57.3273 331.79 55.8726Z" fill="white"/>
<path d="M372.528 101.423C372.528 101.818 372.403 102.151 372.196 102.421C371.967 102.712 371.572 102.919 371.032 103.086C370.533 103.252 369.827 103.377 368.954 103.501C368.06 103.605 366.959 103.668 365.629 103.668C364.299 103.668 363.177 103.605 362.304 103.501C361.411 103.377 360.683 103.252 360.143 103.086C359.644 102.919 359.27 102.712 359.062 102.421C358.834 102.151 358.73 101.818 358.73 101.423V37.8353C358.73 37.5028 358.834 37.2118 359.062 36.9209C359.27 36.6508 359.665 36.4222 360.226 36.2559C360.766 36.0482 361.473 35.9027 362.304 35.8403C363.177 35.7364 364.299 35.6741 365.629 35.6741C366.959 35.6741 368.06 35.7364 368.954 35.8403C369.827 35.9027 370.533 36.0481 371.032 36.2559C371.572 36.4222 371.967 36.6508 372.196 36.9209C372.403 37.2119 372.528 37.5028 372.528 37.8353V101.423Z" fill="white"/>
<path d="M420.775 100.925C420.609 101.548 420.381 102.047 420.111 102.421C419.82 102.753 419.362 103.044 418.697 103.252C418.074 103.418 417.222 103.522 416.121 103.584C415.061 103.626 413.669 103.668 411.965 103.668C410.572 103.668 409.388 103.626 408.39 103.584C407.393 103.584 406.52 103.543 405.814 103.501C405.149 103.439 404.588 103.356 404.151 103.252C403.694 103.086 403.341 102.899 403.071 102.67C402.78 102.462 402.572 102.213 402.406 101.922C402.239 101.589 402.094 101.215 401.99 100.758L381.875 41.077C381.48 39.8094 381.23 38.8119 381.127 38.0846C381.064 37.3781 381.23 36.8378 381.625 36.5053C382.062 36.1313 382.81 35.9027 383.87 35.8403C384.909 35.7364 386.384 35.6741 388.275 35.6741C389.875 35.6741 391.122 35.7156 392.015 35.7572C392.888 35.8196 393.595 35.9235 394.093 36.0897C394.592 36.256 394.925 36.5469 395.091 36.9209C395.299 37.2534 395.507 37.669 395.673 38.1678L412.048 90.2019H412.131L428.173 38.4171C428.34 37.8768 428.506 37.4197 428.672 37.0872C428.88 36.7132 429.254 36.4014 429.753 36.1729C430.293 35.9651 431.02 35.8196 431.914 35.7572C432.849 35.7157 434.158 35.6741 435.821 35.6741C437.421 35.6741 438.667 35.7364 439.561 35.8403C440.434 35.9027 441.016 36.152 441.307 36.5884C441.639 36.9832 441.743 37.5443 441.639 38.2508C441.514 38.9782 441.265 39.9548 440.891 41.1601L420.775 100.925Z" fill="white"/>
<path d="M490.181 97.9321C490.181 98.9919 490.119 99.8439 490.015 100.509C489.953 101.174 489.807 101.735 489.599 102.171C489.433 102.566 489.204 102.878 488.934 103.086C488.706 103.252 488.436 103.335 488.103 103.335H454.273C453.151 103.335 452.195 103.003 451.363 102.338C450.574 101.673 450.2 100.571 450.2 99.0127V40.2458C450.2 38.7496 450.574 37.669 451.363 37.004C452.195 36.2975 453.151 35.9235 454.273 35.9235H487.937C488.269 35.9235 488.54 36.0482 488.768 36.2559C488.976 36.4222 489.184 36.7339 489.35 37.1703C489.558 37.5651 489.703 38.1262 489.766 38.8327C489.869 39.4977 489.932 40.3705 489.932 41.4095C489.932 42.3654 489.869 43.155 489.766 43.82C489.703 44.485 489.558 45.0461 489.35 45.4824C489.184 45.9396 488.976 46.2305 488.768 46.3968C488.54 46.563 488.269 46.6461 487.937 46.6461H463.832V63.1042H484.196C484.529 63.1042 484.799 63.2289 485.028 63.4367C485.298 63.6029 485.526 63.9146 485.693 64.351C485.9 64.7458 486.046 65.2653 486.108 65.9303C486.212 66.5953 486.274 67.4265 486.274 68.424C486.274 69.4214 486.212 70.2526 486.108 70.9176C486.046 71.5826 485.9 72.1229 485.693 72.4969C485.526 72.8917 485.298 73.1619 485.028 73.3281C484.799 73.4944 484.529 73.5775 484.196 73.5775H463.832V92.6123H488.103C488.436 92.6123 488.706 92.737 488.934 92.9448C489.204 93.1111 489.433 93.4228 489.599 93.8591C489.807 94.254 489.953 94.7735 490.015 95.4385C490.119 96.1034 490.181 96.9347 490.181 97.9321Z" fill="white"/>
<path d="M570.95 41.5757C570.95 42.5732 570.888 43.446 570.784 44.1525C570.722 44.8798 570.576 45.4617 570.369 45.898C570.202 46.3552 569.974 46.6877 569.704 46.8955C569.475 47.0617 569.205 47.1448 568.872 47.1448H551.999V101.423C551.999 101.818 551.874 102.151 551.666 102.421C551.438 102.712 551.043 102.919 550.502 103.086C550.004 103.252 549.297 103.377 548.424 103.501C547.531 103.605 546.45 103.668 545.183 103.668C543.853 103.668 542.731 103.605 541.858 103.501C540.964 103.377 540.237 103.252 539.697 103.086C539.198 102.919 538.824 102.712 538.616 102.421C538.388 102.151 538.284 101.818 538.284 101.423V47.1449H521.41C521.077 47.1449 520.766 47.0617 520.496 46.8955C520.267 46.6877 520.08 46.3552 519.914 45.898C519.748 45.4617 519.602 44.8798 519.498 44.1525C519.436 43.446 519.415 42.5732 519.415 41.5757C519.415 40.5367 519.436 39.6432 519.498 38.9158C519.602 38.2093 519.748 37.6275 519.914 37.1703C520.08 36.7339 520.267 36.4222 520.496 36.2559C520.766 36.0482 521.077 35.9235 521.41 35.9235H568.872C569.205 35.9235 569.475 36.0482 569.704 36.2559C569.974 36.4222 570.202 36.7339 570.369 37.1703C570.576 37.6275 570.722 38.2093 570.784 38.9158C570.888 39.6432 570.95 40.5367 570.95 41.5757Z" fill="white"/>
<path d="M618.391 97.9321C618.391 98.9919 618.329 99.8439 618.225 100.509C618.163 101.174 618.017 101.735 617.809 102.171C617.643 102.566 617.414 102.878 617.144 103.086C616.916 103.252 616.646 103.335 616.313 103.335H582.483C581.36 103.335 580.405 103.003 579.573 102.338C578.784 101.673 578.41 100.571 578.41 99.0127V40.2458C578.41 38.7496 578.784 37.669 579.573 37.004C580.405 36.2975 581.36 35.9235 582.483 35.9235H616.147C616.479 35.9235 616.749 36.0482 616.978 36.2559C617.186 36.4222 617.394 36.7339 617.56 37.1703C617.768 37.5651 617.913 38.1262 617.976 38.8327C618.079 39.4977 618.142 40.3705 618.142 41.4095C618.142 42.3654 618.079 43.155 617.976 43.82C617.913 44.485 617.768 45.0461 617.56 45.4824C617.394 45.9396 617.186 46.2305 616.978 46.3968C616.749 46.563 616.479 46.6461 616.147 46.6461H592.042V63.1042H612.406C612.739 63.1042 613.009 63.2289 613.238 63.4367C613.508 63.6029 613.736 63.9146 613.903 64.351C614.11 64.7458 614.256 65.2653 614.318 65.9303C614.422 66.5953 614.484 67.4265 614.484 68.424C614.484 69.4214 614.422 70.2526 614.318 70.9176C614.256 71.5826 614.11 72.1229 613.903 72.4969C613.736 72.8917 613.508 73.1619 613.238 73.3281C613.009 73.4944 612.739 73.5775 612.406 73.5775H592.042V92.6123H616.313C616.646 92.6123 616.916 92.737 617.144 92.9448C617.414 93.1111 617.643 93.4228 617.809 93.8591C618.017 94.254 618.163 94.7735 618.225 95.4385C618.329 96.1034 618.391 96.9347 618.391 97.9321Z" fill="white"/>
<path d="M677.066 93.1111C677.066 94.0047 677.024 94.7528 676.983 95.3554C676.92 95.9788 676.837 96.4983 676.733 96.9347C676.609 97.3295 676.484 97.6828 676.318 98.0153C676.151 98.3478 675.861 98.7218 675.486 99.0959C675.092 99.4907 674.344 100.01 673.242 100.675C672.182 101.299 670.852 101.88 669.252 102.421C667.694 102.982 665.886 103.439 663.849 103.834C661.855 104.208 659.652 104.416 657.283 104.416C652.67 104.416 648.514 103.709 644.815 102.338C641.095 100.904 637.936 98.7634 635.339 95.9372C632.72 93.1111 630.705 89.5992 629.271 85.3808C627.879 81.1208 627.193 76.1543 627.193 70.502C627.193 64.8082 627.962 59.7378 629.52 55.2908C631.058 50.8646 633.198 47.1449 635.921 44.1525C638.684 41.1186 641.989 38.812 645.812 37.2534C649.636 35.6533 653.833 34.8429 658.447 34.8429C660.317 34.8429 662.125 35.0091 663.849 35.3416C665.616 35.6326 667.216 36.0482 668.671 36.5884C670.167 37.0872 671.497 37.669 672.66 38.334C673.866 38.9574 674.697 39.4977 675.154 39.9964C675.653 40.4536 675.985 40.8276 676.151 41.1601C676.318 41.4926 676.442 41.9082 676.567 42.407C676.671 42.8641 676.754 43.4044 676.816 44.0694C676.858 44.7344 676.9 45.5656 676.9 46.563C676.9 47.5605 676.837 48.454 676.733 49.2229C676.671 49.9502 676.567 50.5321 676.401 50.9685C676.235 51.4256 676.006 51.7581 675.736 51.9659C675.507 52.1322 675.237 52.2153 674.905 52.2153C674.406 52.2153 673.741 51.9452 672.91 51.3841C672.12 50.7815 671.102 50.1165 669.834 49.3892C668.546 48.6203 667.029 47.9345 665.263 47.3111C663.538 46.7085 661.46 46.3968 659.028 46.3968C656.369 46.3968 653.979 46.9579 651.88 48.0592C649.76 49.119 647.973 50.6775 646.477 52.714C645.022 54.7089 643.921 57.161 643.152 60.0287C642.363 62.9172 641.989 66.1797 641.989 69.8371C641.989 73.7853 642.404 77.2141 643.235 80.1441C644.067 83.0326 645.23 85.4224 646.726 87.2926C648.223 89.1213 650.01 90.5136 652.129 91.4487C654.29 92.3422 656.722 92.7786 659.444 92.7786C661.813 92.7786 663.891 92.5085 665.678 91.9474C667.444 91.4071 668.961 90.7837 670.25 90.1187C671.517 89.4122 672.577 88.768 673.408 88.2069C674.24 87.6666 674.863 87.3757 675.32 87.3757C675.653 87.3757 675.923 87.4588 676.151 87.6251C676.359 87.7498 676.526 88.0199 676.65 88.4563C676.816 88.8511 676.92 89.433 676.983 90.2018C677.024 90.9292 677.066 91.9058 677.066 93.1111Z" fill="white"/>
<path d="M738.913 101.423C738.913 101.818 738.788 102.151 738.58 102.421C738.352 102.712 737.957 102.919 737.417 103.086C736.918 103.252 736.211 103.377 735.339 103.501C734.507 103.605 733.427 103.668 732.097 103.668C730.767 103.668 729.645 103.605 728.772 103.501C727.878 103.377 727.151 103.252 726.611 103.086C726.112 102.919 725.738 102.712 725.53 102.421C725.302 102.151 725.198 101.818 725.198 101.423V74.2425H700.012V101.423C700.012 101.818 699.887 102.151 699.679 102.421C699.513 102.712 699.139 102.919 698.599 103.086C698.1 103.252 697.394 103.377 696.521 103.501C695.627 103.605 694.526 103.668 693.196 103.668C691.866 103.668 690.744 103.605 689.871 103.501C688.978 103.377 688.25 103.252 687.71 103.086C687.211 102.919 686.837 102.712 686.629 102.421C686.401 102.151 686.297 101.818 686.297 101.423V37.8353C686.297 37.5028 686.401 37.2118 686.629 36.9209C686.837 36.6508 687.211 36.4222 687.71 36.2559C688.25 36.0482 688.978 35.9027 689.871 35.8403C690.744 35.7364 691.866 35.6741 693.196 35.6741C694.526 35.6741 695.627 35.7364 696.521 35.8403C697.394 35.9027 698.1 36.0481 698.599 36.2559C699.139 36.4222 699.513 36.6508 699.679 36.9209C699.887 37.2119 700.012 37.5028 700.012 37.8353V62.5224H725.198V37.8353C725.198 37.5028 725.302 37.2118 725.53 36.9209C725.738 36.6508 726.112 36.4222 726.611 36.2559C727.151 36.0482 727.878 35.9027 728.772 35.8403C729.645 35.7364 730.767 35.6741 732.097 35.6741C733.427 35.6741 734.507 35.7364 735.339 35.8403C736.211 35.9027 736.918 36.0481 737.417 36.2559C737.957 36.4222 738.352 36.6508 738.58 36.9209C738.788 37.2119 738.913 37.5028 738.913 37.8353V101.423Z" fill="white"/>
<path d="M809.175 98.514C809.175 99.3452 809.03 100.073 808.76 100.675C808.469 101.299 808.095 101.818 807.596 102.254C807.139 102.649 806.598 102.961 805.933 103.169C805.31 103.335 804.687 103.418 804.022 103.418H798.203C796.977 103.418 795.917 103.314 795.045 103.086C794.151 102.816 793.32 102.379 792.551 101.756C791.824 101.091 791.096 100.239 790.39 99.179C789.725 98.0776 788.935 96.6645 788.062 94.9398L771.272 63.4367C770.316 61.5665 769.318 59.53 768.279 57.3688C767.282 55.1661 766.388 53.0257 765.62 50.9685H765.536C765.64 53.5245 765.723 56.0389 765.786 58.5325C765.89 60.9846 765.952 63.5198 765.952 66.1797V101.423C765.952 101.756 765.827 102.067 765.62 102.338C765.453 102.629 765.121 102.878 764.622 103.086C764.165 103.252 763.541 103.377 762.71 103.501C761.921 103.605 760.923 103.668 759.718 103.668C758.492 103.668 757.474 103.605 756.642 103.501C755.853 103.377 755.25 103.252 754.814 103.086C754.357 102.878 754.024 102.629 753.816 102.338C753.65 102.067 753.567 101.756 753.567 101.423V40.8276C753.567 39.2276 754.024 38.0015 754.98 37.1703C755.977 36.3391 757.162 35.9235 758.554 35.9235H765.869C767.199 35.9235 768.3 36.0482 769.194 36.256C770.129 36.4845 770.939 36.8794 771.604 37.4197C772.311 37.9184 772.976 38.6457 773.599 39.5808C774.264 40.4744 774.929 41.6173 775.594 42.9888L788.727 67.5928C789.434 69.089 790.161 70.5644 790.888 71.9982C791.657 73.4528 792.385 74.8867 793.05 76.3205C793.756 77.7752 794.463 79.1882 795.128 80.5597C795.793 81.952 796.416 83.3443 797.039 84.7158H797.123C796.998 82.2845 796.915 79.7701 796.873 77.1518C796.811 74.4919 796.79 71.9774 796.79 69.5877V38.0015C796.79 37.669 796.894 37.3781 797.123 37.0872C797.33 36.7547 797.663 36.5053 798.12 36.3391C798.619 36.1313 799.242 35.9858 800.032 35.9234C800.863 35.8195 801.902 35.7572 803.19 35.7572C804.354 35.7572 805.31 35.8195 806.1 35.9234C806.931 35.9858 807.554 36.1312 808.012 36.3391C808.448 36.5053 808.76 36.7547 808.926 37.0872C809.092 37.3781 809.175 37.669 809.175 38.0015L809.175 98.514Z" fill="white"/>
<path d="M884.5 68.8396C884.5 74.4503 883.773 79.4584 882.339 83.8846C880.947 88.2693 878.869 92.0097 876.105 95.106C873.383 98.1607 869.996 100.488 865.964 102.088C861.912 103.688 857.257 104.499 852 104.499C846.722 104.499 842.129 103.834 838.202 102.504C834.316 101.132 831.074 99.0127 828.477 96.1866C825.858 93.3605 823.905 89.7862 822.575 85.4639C821.287 81.1416 820.663 76.0296 820.663 70.0864C820.663 64.6004 821.349 59.6962 822.741 55.3739C824.113 51.01 826.17 47.2903 828.892 44.2356C831.656 41.2017 835.064 38.8743 839.116 37.2534C843.147 35.591 847.865 34.7598 853.247 34.7598C858.338 34.7598 862.826 35.4663 866.712 36.8378C870.64 38.1677 873.902 40.2458 876.521 43.0719C879.118 45.8565 881.092 49.3892 882.422 53.7115C883.794 57.9922 884.5 63.0211 884.5 68.8396ZM870.12 69.5877C870.12 66.055 869.829 62.8341 869.289 59.9456C868.728 57.0779 867.751 54.605 866.38 52.5478C865.05 50.449 863.263 48.8489 861.06 47.7267C858.837 46.563 856.073 45.9812 852.748 45.9812C849.361 45.9812 846.535 46.6254 844.27 47.893C842.046 49.1814 840.238 50.8646 838.867 52.9634C837.474 55.083 836.477 57.5766 835.874 60.4443C835.313 63.2705 835.043 66.2628 835.043 69.4215C835.043 73.0788 835.313 76.3829 835.874 79.3129C836.415 82.2637 837.371 84.7782 838.7 86.877C840.03 88.9342 841.797 90.5135 844.02 91.6149C846.223 92.6747 849.028 93.1942 852.416 93.1942C855.74 93.1942 858.525 92.5916 860.811 91.3655C863.076 90.0979 864.905 88.4147 866.297 86.2951C867.668 84.134 868.645 81.6195 869.206 78.7311C869.809 75.8634 870.12 72.8087 870.12 69.5877Z" fill="white"/>
<path d="M932.961 97.5996C932.961 98.6594 932.899 99.553 932.795 100.26C932.733 100.987 932.587 101.569 932.38 102.005C932.213 102.462 931.985 102.795 931.715 103.003C931.486 103.231 931.216 103.335 930.883 103.335H899.962C898.84 103.335 897.884 103.003 897.053 102.338C896.263 101.673 895.889 100.571 895.889 99.0127V37.8353C895.889 37.5028 895.993 37.2118 896.222 36.9209C896.429 36.6508 896.803 36.4222 897.302 36.2559C897.843 36.0482 898.57 35.9027 899.463 35.8403C900.336 35.7364 901.458 35.6741 902.788 35.6741C904.118 35.6741 905.22 35.7364 906.113 35.8403C906.986 35.9027 907.692 36.0481 908.191 36.2559C908.731 36.4222 909.126 36.6508 909.355 36.9209C909.563 37.2119 909.687 37.5028 909.687 37.8353V92.0305H930.883C931.216 92.0305 931.486 92.1552 931.715 92.363C931.985 92.5292 932.213 92.8409 932.38 93.2773C932.587 93.7345 932.733 94.3163 932.795 95.0229C932.899 95.6878 932.961 96.5606 932.961 97.5996Z" fill="white"/>
<path d="M1001.66 68.8396C1001.66 74.4503 1000.94 79.4584 999.502 83.8846C998.11 88.2693 996.032 92.0097 993.268 95.106C990.546 98.1607 987.158 100.488 983.127 102.088C979.075 103.688 974.42 104.499 969.163 104.499C963.884 104.499 959.292 103.834 955.364 102.504C951.478 101.132 948.237 99.0127 945.639 96.1866C943.021 93.3605 941.067 89.7862 939.737 85.4639C938.449 81.1416 937.826 76.0296 937.826 70.0864C937.826 64.6004 938.511 59.6962 939.904 55.3739C941.275 51.01 943.332 47.2903 946.055 44.2356C948.819 41.2017 952.226 38.8743 956.279 37.2534C960.31 35.591 965.027 34.7598 970.409 34.7598C975.501 34.7598 979.989 35.4663 983.875 36.8378C987.803 38.1677 991.065 40.2458 993.683 43.0719C996.281 45.8565 998.255 49.3892 999.585 53.7115C1000.96 57.9922 1001.66 63.0211 1001.66 68.8396ZM987.283 69.5877C987.283 66.055 986.992 62.8341 986.452 59.9456C985.891 57.0779 984.914 54.605 983.543 52.5478C982.213 50.449 980.425 48.8489 978.223 47.7267C975.999 46.563 973.235 45.9812 969.911 45.9812C966.523 45.9812 963.697 46.6254 961.432 47.893C959.209 49.1814 957.401 50.8646 956.029 52.9634C954.637 55.083 953.64 57.5766 953.037 60.4443C952.476 63.2705 952.206 66.2628 952.206 69.4215C952.206 73.0788 952.476 76.3829 953.037 79.3129C953.577 82.2637 954.533 84.7782 955.863 86.877C957.193 88.9342 958.959 90.5135 961.183 91.6149C963.386 92.6747 966.191 93.1942 969.578 93.1942C972.903 93.1942 975.688 92.5916 977.973 91.3655C980.238 90.0979 982.067 88.4147 983.459 86.2951C984.831 84.134 985.808 81.6195 986.369 78.7311C986.971 75.8634 987.283 72.8087 987.283 69.5877Z" fill="white"/>
<path d="M1067.16 46.3968C1067.16 47.3942 1067.1 48.2878 1067 49.0567C1066.87 49.784 1066.75 50.3658 1066.58 50.8022C1066.46 51.1971 1066.29 51.5088 1066.08 51.7166C1065.85 51.8828 1065.58 51.9659 1065.25 51.9659C1064.79 51.9659 1064.09 51.675 1063.09 51.0516C1062.09 50.3866 1060.72 49.7009 1059.02 48.9736C1057.36 48.267 1055.36 47.6021 1053.03 46.9786C1050.75 46.3137 1048.09 45.9812 1045.05 45.9812C1041.77 45.9812 1038.82 46.563 1036.16 47.7267C1033.54 48.8489 1031.3 50.449 1029.43 52.5478C1027.54 54.605 1026.1 57.0779 1025.1 59.9456C1024.11 62.8341 1023.61 66.0135 1023.61 69.5046C1023.61 73.3905 1024.11 76.7985 1025.1 79.7285C1026.14 82.6793 1027.6 85.1314 1029.43 87.1263C1031.26 89.0797 1033.46 90.5759 1036.08 91.6149C1038.67 92.6124 1041.52 93.1111 1044.64 93.1111C1046.18 93.1111 1047.67 92.9449 1049.13 92.6124C1050.62 92.2383 1052.04 91.698 1053.37 91.0331V75.4062H1040.56C1039.94 75.4062 1039.44 75.0322 1039.07 74.2425C1038.74 73.4113 1038.57 72.0813 1038.57 70.2527C1038.57 69.2552 1038.59 68.424 1038.65 67.759C1038.76 67.0941 1038.9 66.5745 1039.07 66.1797C1039.28 65.8057 1039.51 65.5147 1039.73 65.3485C1039.94 65.1407 1040.23 65.016 1040.56 65.016H1063.34C1063.88 65.016 1064.38 65.1407 1064.84 65.3485C1065.27 65.5147 1065.63 65.8057 1065.92 66.1797C1066.25 66.5745 1066.5 67.0525 1066.67 67.5928C1066.87 68.0915 1067 68.7149 1067 69.4215V96.1866C1067 97.2464 1066.79 98.1607 1066.42 98.9296C1066.08 99.7193 1065.34 100.322 1064.17 100.758C1063.05 101.215 1061.68 101.673 1060.02 102.171C1058.35 102.67 1056.61 103.086 1054.78 103.418C1052.99 103.792 1051.2 104.083 1049.38 104.249C1047.55 104.416 1045.72 104.499 1043.89 104.499C1038.51 104.499 1033.69 103.709 1029.43 102.171C1025.21 100.634 1021.61 98.3893 1018.62 95.4385C1015.67 92.5085 1013.43 88.9342 1011.89 84.7158C1010.33 80.5182 1009.56 75.7179 1009.56 70.3358C1009.56 64.8498 1010.39 59.9248 1012.05 55.5402C1013.72 51.1139 1016.06 47.3735 1019.12 44.3188C1022.15 41.2225 1025.85 38.8743 1030.17 37.2534C1034.5 35.6533 1039.32 34.8429 1044.64 34.8429C1047.57 34.8429 1050.23 35.0507 1052.62 35.4247C1054.99 35.8196 1057.06 36.3183 1058.85 36.9209C1060.68 37.482 1062.18 38.0846 1063.34 38.7496C1064.5 39.373 1065.29 39.9133 1065.75 40.412C1066.25 40.9108 1066.6 41.6173 1066.83 42.4901C1067.04 43.3836 1067.16 44.6928 1067.16 46.3968Z" fill="white"/>
<path d="M1108.22 77.7336V101.423C1108.22 101.818 1108.1 102.151 1107.89 102.421C1107.66 102.712 1107.27 102.919 1106.73 103.086C1106.23 103.252 1105.52 103.377 1104.65 103.501C1103.76 103.605 1102.66 103.668 1101.33 103.668C1100 103.668 1098.87 103.605 1098 103.501C1097.17 103.377 1096.46 103.252 1095.92 103.086C1095.36 102.919 1094.97 102.712 1094.76 102.421C1094.59 102.151 1094.51 101.818 1094.51 101.423V77.7336L1076.06 41.077C1075.39 39.8094 1074.93 38.812 1074.73 38.0846C1074.56 37.3781 1074.66 36.8378 1075.06 36.5053C1075.43 36.1313 1076.16 35.9027 1077.22 35.8404C1078.32 35.7365 1079.84 35.6741 1081.79 35.6741C1083.39 35.6741 1084.66 35.7156 1085.62 35.7573C1086.55 35.8196 1087.3 35.9651 1087.86 36.1729C1088.4 36.3391 1088.8 36.5885 1089.02 36.921C1089.29 37.2119 1089.56 37.586 1089.86 38.0847L1097.34 54.6259C1098.04 56.2468 1098.77 57.93 1099.5 59.6963C1100.2 61.4834 1100.93 63.3329 1101.66 65.2654H1101.74C1102.41 63.3952 1103.07 61.5665 1103.74 59.7794C1104.44 58.0131 1105.15 56.3507 1105.81 54.7921L1113.21 38.334C1113.38 37.7937 1113.59 37.3366 1113.88 37.0041C1114.15 36.6716 1114.54 36.4014 1115.04 36.1729C1115.54 35.9651 1116.23 35.8196 1117.12 35.7572C1118.05 35.7157 1119.28 35.6741 1120.78 35.6741C1122.77 35.6741 1124.29 35.7364 1125.35 35.8403C1126.45 35.9027 1127.2 36.1313 1127.59 36.5053C1128.03 36.8378 1128.13 37.3781 1127.92 38.0846C1127.7 38.8119 1127.28 39.8094 1126.68 41.077L1108.22 77.7336Z" fill="white"/>
</g>
<defs>
<clipPath id="clip0_716_285">
<rect width="1161.04" height="134.324" fill="white"/>
</clipPath>
</defs>
</svg>
