<svg width="1121" height="231" viewBox="0 0 1121 231" fill="none" xmlns="http://www.w3.org/2000/svg">
<g clip-path="url(#clip0_753_150)">
<path d="M797.294 115.128C797.307 114.593 797.203 114.061 796.989 113.57C796.775 113.08 796.455 112.642 796.053 112.288C795.291 111.704 794.345 111.412 793.386 111.466H788.752L753.032 192.419L743.721 149.055C743.183 145.243 740.119 142.643 736.51 142.852H730.502L702.299 191.949L702.576 115.352C702.599 114.79 702.496 114.23 702.275 113.713C702.054 113.196 701.72 112.734 701.298 112.363C700.488 111.73 699.477 111.412 698.451 111.466H692.428V203.487H700.102H700.267C702.524 203.51 704.564 202.941 706.231 201.731C707.748 200.647 709.056 199.138 710.206 197.314L734.897 153.262L745.179 203.479H751.77C755.97 203.479 759.482 201.036 761.321 196.866L796.816 117.041C797.071 116.383 797.279 115.965 797.294 115.128ZM1120.91 111.459H1082.93C1065.2 111.504 1063.31 126.076 1063.23 132.943C1063.23 140.169 1068.48 145.923 1071.1 148.262L1096.95 173.588C1100.03 176.599 1101.51 180.164 1101.51 183.467C1101.51 189.072 1097.23 193.66 1090.3 193.63C1090.3 193.675 1056.84 193.683 1056.53 193.772C1055.44 193.974 1054.28 195.416 1054.31 196.559H1054.21L1054.31 196.604V203.509H1091.9C1109.64 203.441 1111.5 188.907 1111.6 182.039L1111.59 181.98C1111.6 172.474 1102.85 165.121 1102.79 165.091L1078.27 140.961C1075.21 137.942 1073.33 134.849 1073.31 131.508C1073.33 125.881 1077.61 121.323 1084.5 121.323C1084.54 121.308 1118.39 121.278 1118.66 121.196C1119.76 120.986 1120.94 119.544 1120.92 118.401C1120.92 118.401 1120.91 118.386 1120.92 118.371L1120.91 111.459ZM849.88 120.695C832.999 119.761 813.712 129.7 807.076 156.527C800.545 182.832 812.755 195.61 829.293 197.733L831.011 197.807C848.087 198.719 866.253 188.765 872.642 161.937C878.89 135.626 866.657 122.406 849.88 120.695ZM882.514 162.73C876.304 188.885 857.45 209.532 827.365 207.208C799.364 203.972 791.346 179.32 797.249 155.72C803.773 129.588 822.552 108.948 852.212 111.242V111.272C879.831 114.493 888.104 139.153 882.514 162.73ZM1050.09 112.341C1049.34 111.833 1048.45 111.583 1047.55 111.631H1043.07L995.705 152.133L1002 116.338C1002.18 115.624 1002.14 114.875 1001.89 114.183C1001.65 113.49 1001.21 112.884 1000.62 112.438C999.792 111.809 998.779 111.468 997.738 111.466H993.179L976.074 203.487H986.2L993.688 162.76L1031.19 203.509H1035.68C1036.57 203.545 1037.46 203.288 1038.2 202.777C1038.57 202.48 1038.88 202.099 1039.08 201.664C1039.28 201.229 1039.38 200.753 1039.37 200.273C1039.37 198.622 1038.02 196.955 1038.02 196.955L1002.53 158.396L1049.91 118.162C1049.91 118.162 1051.24 117.026 1051.24 114.844C1051.25 114.367 1051.15 113.893 1050.95 113.459C1050.75 113.025 1050.45 112.643 1050.09 112.341ZM954.993 125.433C953.14 123.639 950.323 122.78 945.951 121.958C944.248 121.7 942.531 121.538 940.81 121.472C935.541 121.181 919.893 121.42 915.103 121.457L909.035 154.936C912.637 154.988 916.762 155.04 919.669 155.055C927.859 155.055 935.781 154.794 941.385 153.262C955.8 149.361 962.952 133.01 954.993 125.433ZM964.289 119.873C968.392 124.529 968.698 133.175 967.533 138.503C966.113 145.004 959.925 161.422 936.745 163.492L956.271 196.955C956.271 196.955 957.601 198.951 957.601 200.273C957.616 201.148 957.227 202.231 956.435 202.777C955.707 203.296 954.825 203.554 953.932 203.509H948.776L925.872 164.038L907.421 163.955L900.262 203.509H890.129L907.257 111.466H930.901C944.875 111.466 957.13 111.675 964.289 119.873ZM283.76 131.12C282.61 138.533 284.889 147.231 293.146 153L322.559 173.528C325.646 175.658 327.17 177.13 326.797 179.618C326.243 183.056 324.45 184.438 318.352 184.438H284.142C280.48 184.438 278.492 186.232 277.827 190.364V203.113H317.904C335.465 203.113 344.156 192.756 345.912 181.741C347.556 171.391 344.074 163.993 337.393 159.225L306.127 137.038C303.616 135.237 302.988 134.303 303.167 132.943C303.444 130.686 305.506 129.76 309.063 129.76H344.784C349.148 129.76 351.636 125.298 352.331 120.874V111.078H305.103C294.618 111.078 285.457 120.448 283.76 131.12ZM639.834 111.063H590.289L590.042 112.55C588.884 118.79 589.399 126.031 599.286 126.031H635.978C650.505 126.031 656.065 136.545 652.463 156.266C649.16 174.335 639.43 188.137 624.641 188.137H604.749L614.187 136.373H597.268C594.989 136.373 593.42 138.032 593.158 139.504L581.546 203.098H620.345C648.988 203.098 668.963 189.61 675.15 155.601C679.933 129.468 669.053 111.063 639.834 111.063ZM522.219 188.152H483.121L496.632 114.201C496.695 113.813 496.673 113.416 496.566 113.038C496.46 112.66 496.271 112.31 496.015 112.012C495.759 111.714 495.44 111.476 495.082 111.315C494.724 111.153 494.334 111.072 493.941 111.078H476.739L459.933 203.098H524.707L526.389 193.907C527.136 189.782 525.753 188.152 522.219 188.152ZM570.957 111.063H553.747L536.94 203.098H557.401L573.639 114.186C573.705 113.798 573.685 113.4 573.579 113.021C573.474 112.641 573.286 112.29 573.029 111.992C572.772 111.693 572.452 111.455 572.093 111.295C571.733 111.134 571.35 111.055 570.957 111.063ZM411.815 126.838C393.14 126.838 383.358 137.696 379.854 159.046C376.349 180.44 382.566 191.269 401.233 191.269C419.901 191.269 429.675 180.433 433.18 159.046C436.692 137.696 430.49 126.838 411.815 126.838ZM453.498 159.046C449.202 185.178 431.528 207.059 398.648 207.059C365.745 207.059 355.253 185.178 359.55 159.046C363.832 132.928 381.52 111.07 414.408 111.07C447.289 111.07 457.795 132.928 453.498 159.046ZM214.413 79.0116C194.856 75.7983 159.898 74.5578 147.942 92.8812C138.713 107.035 156.162 126.419 172.049 145.199C184.783 160.241 198.637 174.612 192.98 183.011C188.362 189.879 158.747 189.864 148.539 190.409C136.157 191.059 118.312 191.097 115.196 192.801C112.401 194.295 110.846 198.966 121.323 200.841C129.745 202.358 149.81 205.43 170.965 205.415C193.048 205.415 216.251 201.79 221.28 184.693C225.323 170.957 211.304 156.236 198.974 141.313C185.485 124.962 171.81 113.312 172.968 101.737C173.843 92.7243 191.501 92.2161 220.809 91.7005C226.9 91.5884 239.035 91.297 236.697 86.4845C234.612 82.2324 225.532 80.8275 214.413 79.0116ZM124.275 119.776C111.736 111.175 89.377 108.298 70.9788 109.254C54.5909 110.114 26.4108 115.33 27.472 120.516C28.4733 126.12 46.3035 124.379 54.4788 124.379C72.451 124.379 100.975 125.478 105.466 137.053C115.151 162.012 49.4571 206.805 35.4455 202.5C29.1085 200.565 48.3212 167.998 55.2859 156.296C59.4258 149.301 65.7404 138.324 60.3599 137.569C54.3368 136.739 47.7084 147.074 43.3966 153.038C31.7091 169.231 19.7451 186.919 10.1425 205.086C7.1608 210.698 -2.68093 227.587 0.69679 229.769C3.8578 231.801 18.8782 228.909 37.9863 221.332C98.0679 197.553 125.12 166.556 132.368 140.947C134.909 131.927 130.515 124.058 124.275 119.776ZM79.6623 10.396C78.4367 6.35324 98.4714 1.09983 120.449 0.128366C142.591 -0.843103 168.783 3.5584 173.671 18.1678C181.667 42.1033 141.119 77.0089 105.795 94.1666C97.1263 98.3513 91.8878 99.5096 89.6908 99.2182C87.6134 98.9417 87.2846 96.9988 87.9646 95.6611C89.2126 93.1428 94.9293 88.0164 102.544 82.4417C142.315 53.3873 155.243 32.0747 147.732 23.4511C142.912 17.9212 122.758 14.0652 101.819 14.0652C96.1399 14.0652 81.2091 15.2982 79.6623 10.396Z" fill="white"/>
</g>
<defs>
<clipPath id="clip0_753_150">
<rect width="1120.92" height="230.4" fill="white"/>
</clipPath>
</defs>
</svg>
