<svg width="339" height="256" viewBox="0 0 339 256" fill="none" xmlns="http://www.w3.org/2000/svg">
<g clip-path="url(#clip0_720_405)">
<path d="M43.2201 252.405C41.5481 250.785 37.9841 247.317 35.3001 244.698L30.4201 239.937V247.328V254.72H28.6601H26.9001V243.2C26.9001 236.864 26.9912 231.68 27.1031 231.68C27.2146 231.68 30.8866 235.152 35.2631 239.395L43.2203 247.11V239.875V232.64H44.9802H46.7402V244C46.7402 250.248 46.6321 255.358 46.5002 255.356C46.3683 255.353 44.8921 254.026 43.2201 252.405ZM66.8143 255.148C66.5116 254.635 57.3001 233.007 57.3001 232.809C57.3001 232.699 58.1978 232.652 59.295 232.705L61.29 232.8L63.7614 238.679C65.1207 241.913 66.426 245.138 66.662 245.846L67.091 247.133L67.4682 245.886C67.6757 245.201 68.9707 241.976 70.3464 238.72L72.8475 232.8L74.8339 232.705C75.9264 232.652 76.8203 232.701 76.8203 232.809C76.8203 233.144 67.4896 254.862 67.2225 255.148C67.0849 255.295 66.9014 255.295 66.8143 255.148ZM335.22 252.249C333.46 250.542 329.896 247.06 327.3 244.512L322.58 239.878V247.299V254.72H320.82H319.06V243.173C319.06 236.344 319.18 231.67 319.352 231.733C319.513 231.792 323.185 235.274 327.512 239.471L335.38 247.103V239.871V232.64H337.14H338.9V244C338.9 250.248 338.792 255.358 338.66 255.356C338.528 255.354 336.98 253.955 335.22 252.249ZM9.43453 254.609C7.43078 253.951 6.1655 252.837 5.21212 250.893C4.34596 249.127 4.34218 249.088 4.22649 240.88L4.11046 232.64H6.0447H7.97899L8.07952 240.4C8.17552 247.816 8.21219 248.212 8.90517 249.326C9.80345 250.771 11.3221 251.52 13.3485 251.52C15.3301 251.519 16.943 250.702 17.7692 249.28C18.3663 248.253 18.4284 247.518 18.5207 240.4L18.6213 232.64H20.5207H22.42L22.4125 240.24C22.4087 244.42 22.2571 248.488 22.0769 249.28C21.6146 251.31 20.4391 252.942 18.7067 253.957C17.401 254.722 16.8221 254.842 13.9796 254.933C11.8674 255.001 10.2858 254.888 9.43453 254.609ZM114.063 254.428C112.635 253.779 111.236 252.187 110.896 250.822C110.705 250.057 110.823 249.891 111.978 249.302C113.623 248.462 113.76 248.471 114.202 249.441C114.97 251.126 117.802 252.042 119.481 251.148C120.517 250.596 120.959 249.882 120.97 248.738C120.984 247.372 120.041 246.396 117.3 244.941C112.62 242.455 111.38 241.013 111.38 238.057C111.38 235.807 112.303 234.157 114.18 233.054C117.2 231.279 122.264 232.171 123.889 234.765L124.518 235.769L123.056 236.626L121.593 237.483L120.476 236.502C118.771 235.005 116.219 235.311 115.6 237.086C115.016 238.761 116.122 240.02 119.846 241.92C123.925 244.002 125.479 246.269 124.968 249.396C124.542 252.005 123.04 253.855 120.692 254.665C119.013 255.244 115.591 255.122 114.063 254.428ZM259.523 254.594C254.233 252.56 251.507 248.841 251.487 243.628C251.475 240.883 251.895 239.448 253.357 237.229C254.63 235.295 255.978 234.197 258.488 233.048C260.912 231.938 264.886 231.876 267.54 232.905C275.33 235.927 277.268 246.063 271.185 251.971C269.124 253.972 266.891 254.843 263.558 254.944C261.677 255.001 260.261 254.878 259.523 254.594ZM265.423 251.131C267.175 250.613 269.923 247.891 270.39 246.21C271.898 240.775 268.347 235.705 263.067 235.755C260.148 235.781 257.503 237.488 256.147 240.217C255.282 241.959 255.331 245.477 256.243 247.2C258.06 250.629 261.76 252.213 265.423 251.131ZM284.886 254.451C281.771 253.343 279.133 250.57 278.226 247.45C277.5 244.952 277.735 240.743 278.727 238.474C281.109 233.026 289.016 230.452 294.573 233.314C296.021 234.06 297.624 235.465 297.613 235.98C297.61 236.167 297.024 236.732 296.312 237.236L295.018 238.152L294.319 237.513C291.612 235.04 286.779 235.127 284.071 237.697C280.193 241.378 281.149 248.352 285.853 250.697C290.038 252.782 295.694 250.82 295.699 247.28L295.7 246.4H293.14H290.58V244.8V243.2H295.1H299.62L299.477 245.84C299.246 250.073 297.629 252.748 294.424 254.196C292.327 255.142 287.213 255.28 284.886 254.451ZM51.5401 243.68V232.64H53.4601H55.3801V243.68V254.72H53.4601H51.5401V243.68ZM78.7401 243.68V232.64H84.9801H91.2201V234.24V235.84H86.9001H82.5801V238.4V240.96H86.9001H91.2201V242.72V244.48H86.9001H82.5801V247.84V251.2H86.9001H91.2201V252.96V254.72H84.9801H78.7401V243.68ZM95.0601 243.68V232.64H99.1523C104.191 232.64 105.649 233.185 106.82 235.508C107.661 237.176 107.791 240.06 107.099 241.717C106.578 242.962 105.195 244.133 103.949 244.382C103.46 244.48 103.061 244.65 103.063 244.76C103.065 244.87 104.649 247.033 106.583 249.567C108.517 252.101 110.1 254.297 110.1 254.447C110.1 254.597 109.172 254.72 108.038 254.72H105.976L102.358 249.85L98.7401 244.979L98.6518 249.85L98.5634 254.72H96.8118H95.0601L95.0601 243.68ZM101.235 241.604C102.508 241.597 103.7 240.305 103.7 238.93C103.7 237.477 102.869 236.515 101.3 236.152C98.8199 235.577 98.9001 235.485 98.9001 238.917C98.9001 241.952 98.9099 241.992 99.6201 241.802C100.016 241.696 100.743 241.607 101.235 241.604ZM125.78 254.368C125.78 253.863 136.094 231.677 136.323 231.689C136.515 231.696 146.672 253.499 146.847 254.278C146.934 254.665 146.585 254.734 144.937 254.656L142.92 254.56L141.723 251.84L140.527 249.12H136.319H132.11L130.883 251.84L129.655 254.56L127.718 254.655C126.374 254.721 125.78 254.633 125.78 254.368ZM138.76 245.2C137.247 241.138 136.021 238.846 136.02 240.08C136.02 240.3 135.605 241.357 135.098 242.429C133.424 245.967 133.346 245.76 136.353 245.76C138.71 245.76 138.948 245.705 138.76 245.2ZM148.82 243.68V232.64H150.74H152.66V241.92V251.2H156.5H160.34V252.96V254.72H154.58H148.82V243.68ZM172.18 243.68V232.64H174.1H176.02V236.64V240.64H181.14H186.26V236.64V232.64H188.18H190.1V243.68V254.72H188.18H186.26V249.44V244.16H181.14H176.02V249.44V254.72H174.1H172.18V243.68ZM199.38 249.575V244.431L195.86 238.748C193.924 235.623 192.34 232.97 192.34 232.853C192.34 232.736 193.24 232.643 194.34 232.646L196.34 232.654L197.331 234.328C197.876 235.248 199.029 237.156 199.894 238.567L201.466 241.133L204.18 236.887L206.893 232.641H208.907H210.92L209.847 234.321C209.257 235.245 207.524 237.98 205.997 240.398L203.22 244.794V249.758V254.721H201.3H199.38V249.575ZM212.82 243.693V232.569L218.5 232.699C223.538 232.815 224.361 232.911 225.78 233.55C230.002 235.453 232.112 240.086 231.331 245.739C230.958 248.435 229.984 250.317 228.073 252.036C225.968 253.928 224.413 254.327 218.091 254.594L212.82 254.816V243.693ZM221.551 250.899C225.198 250.429 227.146 248.262 227.458 244.329C227.737 240.82 226.497 238.126 224.03 236.88C222.856 236.287 222.079 236.16 219.632 236.16H216.66V243.68V251.2L218.02 251.189C218.768 251.181 220.357 251.053 221.551 250.899ZM235.22 243.65V232.58L239.795 232.69C244.851 232.812 245.346 232.974 246.908 235.022C247.531 235.839 247.805 236.653 247.934 238.067C248.237 241.407 246.918 243.674 244.264 244.373L243.252 244.64L246.916 249.513C248.931 252.193 250.58 254.461 250.58 254.553C250.58 254.645 249.608 254.716 248.42 254.712L246.26 254.704L242.74 249.885L239.22 245.066L239.132 249.893L239.043 254.721H237.132H235.22L235.22 243.65ZM242.882 241.161C243.973 240.657 244.392 238.915 243.747 237.563C243.34 236.709 242.992 236.484 241.624 236.191C238.927 235.612 239.06 235.474 239.06 238.874V241.908L240.58 241.715C241.416 241.608 242.452 241.359 242.882 241.161ZM303.06 243.68V232.64H309.3H315.54V234.24V235.84H311.22H306.9V238.4V240.96H311.22H315.54V242.72V244.48H311.22H306.9V247.84V251.2H311.22H315.54V252.96V254.72H309.3H303.06V243.68ZM53.4601 206.358C48.602 205.962 42.6614 204.9 38.3097 203.648C18.4944 197.947 6.10778 184.453 1.76726 163.84C0.152906 156.174 0.227185 160.026 0.109604 77.84L0 1.28001H19.9981H39.9962L40.1149 72.88C40.223 138.084 40.2816 144.752 40.7694 147.52C41.621 152.352 42.482 155.12 44.2436 158.693C45.6191 161.482 46.3087 162.447 48.4735 164.615C51.2348 167.38 53.0843 168.544 56.6321 169.751C64.9013 172.563 76.5334 171.108 89.5377 165.635C90.6284 165.176 91.6691 164.8 91.8504 164.8C92.0729 164.8 92.18 171.026 92.18 183.96V203.119L87.62 203.984C75.0828 206.36 63.4407 207.17 53.4601 206.358ZM112.02 103.52V0.959992H131.38H150.74V40.96V80.96H187.764H224.788L222.884 82.6224C213.468 90.8445 211.55 95.518 209.788 114.533C209.521 117.422 209.257 119.83 209.203 119.884C209.149 119.938 195.973 120.082 179.922 120.203L150.74 120.425V163.252V206.08H131.38H112.02V103.52ZM228.183 179.44C228.185 153.083 228.52 133.6 229.141 123.68C230.524 101.592 233.444 92.2229 240.522 87.1722C245.04 83.9488 250.731 82.4227 263.22 81.086C267.078 80.673 271.401 80.5808 285.248 80.6163L302.475 80.6605L302.337 65.8503C302.206 51.8932 302.158 50.8838 301.496 48.3265C300.371 43.9761 298.823 41.887 295.953 40.844C294.77 40.4145 291.575 40.3324 272.927 40.2527C261.017 40.2017 251.206 40.0883 251.124 40.0002C251.042 39.9121 250.912 30.9482 250.834 20.0802L250.693 0.320189L275.196 0.323361C288.811 0.3251 301.762 0.473419 304.34 0.657104C314.649 1.39158 320.494 2.78827 325.205 5.64265C331.959 9.73482 335.542 17.5934 337.14 31.8212C338.177 41.0503 338.322 46.5922 338.488 83.1202L338.657 120.32L308.619 120.323C289.785 120.324 277.804 120.447 276.5 120.651C269.51 121.748 265.613 127.054 264.289 137.28C263.839 140.75 263.775 152.06 264.153 161.36L264.41 167.68H301.655H338.9V186.88V206.08H283.54H228.18L228.183 179.44ZM194.26 20.32V0H214.1H233.94V20.32V40.64H214.1H194.26V20.32Z" fill="white"/>
</g>
<defs>
<clipPath id="clip0_720_405">
<rect width="338.9" height="255.356" fill="white"/>
</clipPath>
</defs>
</svg>
